<svg width="16" height="16" viewBox="0 0 16 16" fill="none" xmlns="http://www.w3.org/2000/svg">
<rect width="16" height="16" fill="#0A0A0A"/>
<path d="M12.7801 10.8731L12.2996 11.6648C12.073 12.0379 11.668 12.2658 11.2318 12.2658C10.2578 12.2658 9.65813 11.2006 10.164 10.3678L10.6445 9.57612C11.1309 8.77463 12.2944 8.77463 12.7807 9.57612C13.0223 9.97459 13.0223 10.4746 12.7807 10.8724L12.7801 10.8731Z" fill="#CDDE00"/>
<path d="M8.81164 11.6806C9.18829 11.093 9.02269 10.3148 8.44175 9.94243C7.86081 9.57005 7.08452 9.74451 6.70787 10.3321C6.33122 10.9197 6.49682 11.6979 7.07776 12.0703C7.6587 12.4427 8.43499 12.2682 8.81164 11.6806Z" fill="#CDDE00"/>
<path d="M11.0432 6.71395C10.5998 5.98343 9.59453 5.91897 9.05153 6.51992C9.0372 6.5362 9.01637 6.56354 8.99423 6.59415C8.92001 6.69767 8.77742 6.72501 8.66999 6.656L8.66608 6.65339C8.5567 6.58308 8.52284 6.43789 8.59056 6.32655L9.3061 5.14743C9.54766 4.74897 9.54766 4.24893 9.3061 3.85112C8.81974 3.04963 7.65625 3.04963 7.16989 3.85112L3.21453 10.3678C2.70929 11.2006 3.30829 12.2658 4.28232 12.2658C4.71919 12.2658 5.12352 12.0379 5.3501 11.6648L7.78907 7.6463C7.85874 7.53106 8.01044 7.4959 8.12373 7.56882L8.12568 7.57013C8.23116 7.63784 8.26697 7.77587 8.20707 7.88655C8.17712 7.94255 8.14977 7.99594 8.13935 8.02263C7.8392 8.8137 8.41737 9.7096 9.31066 9.7096C9.74754 9.7096 10.1519 9.48172 10.3784 9.10864L11.0426 8.01156C11.2841 7.6131 11.2841 7.11371 11.0426 6.71525L11.0432 6.71395Z" fill="#CDDE00"/>
</svg>
