<svg width="1378" height="1135" viewBox="0 0 1378 1135" fill="none" xmlns="http://www.w3.org/2000/svg">
<path d="M1079.5 673L1337 673C1343.63 673 1349 678.373 1349 685V1103.5" stroke="#525259" stroke-dasharray="4 4"/>
<path d="M1118.5 718.5H1291.5C1298.13 718.5 1303.5 723.873 1303.5 730.5V1106" stroke="#525259" stroke-dasharray="4 4"/>
<path fill-rule="evenodd" clip-rule="evenodd" d="M1063.5 689C1072.34 689 1079.5 681.837 1079.5 673C1079.5 664.163 1072.34 657 1063.5 657C1054.66 657 1047.5 664.163 1047.5 673C1047.5 681.837 1054.66 689 1063.5 689ZM1063.5 688.273C1071.93 688.273 1078.77 681.435 1078.77 673C1078.77 664.565 1071.93 657.727 1063.5 657.727C1055.07 657.727 1048.23 664.565 1048.23 673C1048.23 681.435 1055.07 688.273 1063.5 688.273Z" fill="#525259"/>
<mask id="path-4-inside-1_1309_61897" fill="white">
<path fill-rule="evenodd" clip-rule="evenodd" d="M1102.5 734C1111.34 734 1118.5 726.837 1118.5 718C1118.5 709.163 1111.34 702 1102.5 702C1093.66 702 1086.5 709.163 1086.5 718C1086.5 726.837 1093.66 734 1102.5 734ZM1102.5 733.273C1110.93 733.273 1117.77 726.435 1117.77 718C1117.77 709.565 1110.93 702.727 1102.5 702.727C1094.07 702.727 1087.23 709.565 1087.23 718C1087.23 726.435 1094.07 733.273 1102.5 733.273Z"/>
</mask>
<path fill-rule="evenodd" clip-rule="evenodd" d="M1102.5 734C1111.34 734 1118.5 726.837 1118.5 718C1118.5 709.163 1111.34 702 1102.5 702C1093.66 702 1086.5 709.163 1086.5 718C1086.5 726.837 1093.66 734 1102.5 734ZM1102.5 733.273C1110.93 733.273 1117.77 726.435 1117.77 718C1117.77 709.565 1110.93 702.727 1102.5 702.727C1094.07 702.727 1087.23 709.565 1087.23 718C1087.23 726.435 1094.07 733.273 1102.5 733.273Z" fill="#525259"/>
<path d="M1117.5 718C1117.5 726.284 1110.78 733 1102.5 733V735C1111.89 735 1119.5 727.389 1119.5 718H1117.5ZM1102.5 703C1110.78 703 1117.5 709.716 1117.5 718H1119.5C1119.5 708.611 1111.89 701 1102.5 701V703ZM1087.5 718C1087.5 709.716 1094.22 703 1102.5 703V701C1093.11 701 1085.5 708.611 1085.5 718H1087.5ZM1102.5 733C1094.22 733 1087.5 726.284 1087.5 718H1085.5C1085.5 727.389 1093.11 735 1102.5 735V733ZM1116.77 718C1116.77 725.883 1110.38 732.273 1102.5 732.273V734.273C1111.49 734.273 1118.77 726.987 1118.77 718H1116.77ZM1102.5 703.727C1110.38 703.727 1116.77 710.117 1116.77 718H1118.77C1118.77 709.013 1111.49 701.727 1102.5 701.727V703.727ZM1088.23 718C1088.23 710.117 1094.62 703.727 1102.5 703.727V701.727C1093.51 701.727 1086.23 709.013 1086.23 718H1088.23ZM1102.5 732.273C1094.62 732.273 1088.23 725.883 1088.23 718H1086.23C1086.23 726.987 1093.51 734.273 1102.5 734.273V732.273Z" fill="#525259" mask="url(#path-4-inside-1_1309_61897)"/>
<mask id="path-6-inside-2_1309_61897" fill="white">
<path fill-rule="evenodd" clip-rule="evenodd" d="M1143.5 777C1152.34 777 1159.5 769.837 1159.5 761C1159.5 752.163 1152.34 745 1143.5 745C1134.66 745 1127.5 752.163 1127.5 761C1127.5 769.837 1134.66 777 1143.5 777ZM1143.5 776.273C1151.93 776.273 1158.77 769.435 1158.77 761C1158.77 752.565 1151.93 745.727 1143.5 745.727C1135.07 745.727 1128.23 752.565 1128.23 761C1128.23 769.435 1135.07 776.273 1143.5 776.273Z"/>
</mask>
<path fill-rule="evenodd" clip-rule="evenodd" d="M1143.5 777C1152.34 777 1159.5 769.837 1159.5 761C1159.5 752.163 1152.34 745 1143.5 745C1134.66 745 1127.5 752.163 1127.5 761C1127.5 769.837 1134.66 777 1143.5 777ZM1143.5 776.273C1151.93 776.273 1158.77 769.435 1158.77 761C1158.77 752.565 1151.93 745.727 1143.5 745.727C1135.07 745.727 1128.23 752.565 1128.23 761C1128.23 769.435 1135.07 776.273 1143.5 776.273Z" fill="#525259"/>
<path d="M1158.5 761C1158.5 769.284 1151.78 776 1143.5 776V778C1152.89 778 1160.5 770.389 1160.5 761H1158.5ZM1143.5 746C1151.78 746 1158.5 752.716 1158.5 761H1160.5C1160.5 751.611 1152.89 744 1143.5 744V746ZM1128.5 761C1128.5 752.716 1135.22 746 1143.5 746V744C1134.11 744 1126.5 751.611 1126.5 761H1128.5ZM1143.5 776C1135.22 776 1128.5 769.284 1128.5 761H1126.5C1126.5 770.389 1134.11 778 1143.5 778V776ZM1157.77 761C1157.77 768.883 1151.38 775.273 1143.5 775.273V777.273C1152.49 777.273 1159.77 769.987 1159.77 761H1157.77ZM1143.5 746.727C1151.38 746.727 1157.77 753.117 1157.77 761H1159.77C1159.77 752.013 1152.49 744.727 1143.5 744.727V746.727ZM1129.23 761C1129.23 753.117 1135.62 746.727 1143.5 746.727V744.727C1134.51 744.727 1127.23 752.013 1127.23 761H1129.23ZM1143.5 775.273C1135.62 775.273 1129.23 768.883 1129.23 761H1127.23C1127.23 769.987 1134.51 777.273 1143.5 777.273V775.273Z" fill="url(#paint0_linear_1309_61897)" mask="url(#path-6-inside-2_1309_61897)"/>
<path d="M1159.5 760.968H1245C1251.63 760.968 1257 765.897 1257 771.978V1033.03M0 666H47C53.6274 666 59 670.93 59 677.011V958.703C59 964.784 64.3726 969.713 71 969.713H407.978C411.191 969.713 414.27 970.895 416.525 972.995L481 1033.03L495.985 1046.78C498.236 1048.84 501.288 1050 504.471 1050H1245C1251.63 1050 1257 1045.07 1257 1038.99V1031.65" stroke="url(#paint1_linear_1309_61897)" stroke-dasharray="4 4"/>
<g filter="url(#filter0_f_1309_61897)">
<circle cx="60" cy="958" r="4.54545" fill="white"/>
<circle cx="60" cy="958" r="9.8" stroke="url(#paint2_linear_1309_61897)" stroke-width="0.4"/>
</g>
<circle cx="60" cy="958" r="4.54545" fill="white"/>
<circle cx="60" cy="958" r="9.8" stroke="url(#paint3_linear_1309_61897)" stroke-width="0.4"/>
<path d="M1377.5 1066V641.5C1377.5 634.873 1372.13 629.5 1365.5 629.5H958.009C955.102 629.5 952.294 628.445 950.107 626.531L820.893 513.469C818.706 511.555 815.898 510.5 812.991 510.5H47C40.3726 510.5 35 505.127 35 498.5V384M35 384L16.5147 365.515C14.2643 363.264 13 360.212 13 357.029V75.4706C13 72.288 11.7357 69.2357 9.48528 66.9853L-31.4853 26.0147C-33.7357 23.7643 -35 20.7121 -35 17.5295V12.4706C-35 1.77973 -22.0743 -3.57427 -14.5147 3.98531L31.4853 49.9853C33.7357 52.2357 35 55.288 35 58.4706V384ZM0 956.5L69.4853 1025.99C71.7357 1028.24 74.788 1029.5 77.9706 1029.5H373.029C376.212 1029.5 379.264 1030.76 381.515 1033.01L479.485 1130.99C481.736 1133.24 484.788 1134.5 487.971 1134.5H1365.5C1372.13 1134.5 1377.5 1129.13 1377.5 1122.5V1062.5" stroke="#525259" stroke-width="0.5"/>
<circle cx="1241.5" cy="630" r="4.54545" fill="#525259"/>
<circle cx="1241.5" cy="630" r="9.5" stroke="#525259"/>
<defs>
<filter id="filter0_f_1309_61897" x="46" y="944" width="28" height="28" filterUnits="userSpaceOnUse" color-interpolation-filters="sRGB">
<feFlood flood-opacity="0" result="BackgroundImageFix"/>
<feBlend mode="normal" in="SourceGraphic" in2="BackgroundImageFix" result="shape"/>
<feGaussianBlur stdDeviation="2" result="effect1_foregroundBlur_1309_61897"/>
</filter>
<linearGradient id="paint0_linear_1309_61897" x1="1119.65" y1="742.25" x2="1160.65" y2="743.049" gradientUnits="userSpaceOnUse">
<stop offset="0.394225" stop-color="#6E676A"/>
<stop offset="0.792275" stop-color="#A8A5A8"/>
<stop offset="1" stop-color="#F4F4F9"/>
</linearGradient>
<linearGradient id="paint1_linear_1309_61897" x1="-308.321" y1="633" x2="1296.15" y2="735.341" gradientUnits="userSpaceOnUse">
<stop offset="0.394225" stop-color="#6E676A"/>
<stop offset="0.792275" stop-color="#A8A5A8"/>
<stop offset="1" stop-color="#F4F4F9"/>
</linearGradient>
<linearGradient id="paint2_linear_1309_61897" x1="50" y1="958" x2="70" y2="958" gradientUnits="userSpaceOnUse">
<stop stop-color="#67696E"/>
<stop offset="1" stop-color="#F4F4F9"/>
</linearGradient>
<linearGradient id="paint3_linear_1309_61897" x1="50" y1="958" x2="70" y2="958" gradientUnits="userSpaceOnUse">
<stop stop-color="#67696E"/>
<stop offset="1" stop-color="#F4F4F9"/>
</linearGradient>
</defs>
</svg>
