<svg width="264" height="78" viewBox="0 0 264 78" fill="none" xmlns="http://www.w3.org/2000/svg">
<path d="M84.8114 65.9509L80.6314 72.8006C78.6604 76.0283 75.1374 77.9998 71.3426 77.9998C62.8694 77.9998 57.653 68.7843 62.0538 61.5797L66.2338 54.73C70.4647 47.7957 80.5861 47.7957 84.817 54.73C86.9183 58.1773 86.9183 62.5035 84.817 65.9452L84.8114 65.9509Z" fill="#CDDE00"/>
<path d="M50.2879 72.9377C53.5645 67.8539 52.1239 61.121 47.0702 57.8993C42.0165 54.6775 35.2635 56.187 31.9869 61.2707C28.7104 66.3544 30.151 73.0873 35.2047 76.3091C40.2584 79.5308 47.0114 78.0214 50.2879 72.9377Z" fill="#CDDE00"/>
<path d="M69.7 29.9674C65.8429 23.6472 57.0979 23.0896 52.3742 28.2888C52.2496 28.4296 52.0683 28.6662 51.8758 28.931C51.2301 29.8266 49.9897 30.0632 49.0551 29.4661L49.0212 29.4436C48.0696 28.8352 47.7751 27.5791 48.3641 26.6158L54.5888 16.4145C56.6901 12.9671 56.6901 8.64095 54.5888 5.19919C50.3578 -1.73502 40.2364 -1.73502 36.0055 5.19919L1.59733 61.5798C-2.79786 68.7844 2.41293 77.9999 10.8861 77.9999C14.6866 77.9999 18.2039 76.0284 20.1749 72.8007L41.3919 38.0339C41.9979 37.0368 43.3176 36.7327 44.3031 37.3636L44.3201 37.3748C45.2377 37.9607 45.5492 39.1549 45.0281 40.1125C44.7676 40.5969 44.5297 41.0588 44.4391 41.2898C41.828 48.1338 46.8575 55.8848 54.6284 55.8848C58.4289 55.8848 61.9462 53.9133 63.9172 50.6856L69.6944 41.194C71.7957 37.7466 71.7957 33.4261 69.6944 29.9787L69.7 29.9674Z" fill="#CDDE00"/>
<path d="M152.914 52.7643L149.391 45.9315H123.813L120.234 52.7643H108.339L129.007 12.9109H144.192L164.865 52.7643H152.914ZM136.744 21.2928L128.14 37.6566H145.172L136.744 21.2928Z" fill="white"/>
<path d="M200.032 52.7643H168.332V12.9109H199.8C207.769 12.9109 212.448 14.4036 212.448 23.1348C212.448 28.1876 211.468 31.4603 206.155 32.3222V32.7221C212.102 33.1221 213.082 36.6821 213.082 41.6786C213.082 51.4405 208.523 52.7643 200.032 52.7643ZM198.413 21.6364H179.008V28.8691H197.138C200.831 28.8691 201.76 28.2382 201.76 25.0218C201.76 22.6672 201.414 21.6308 198.413 21.6308V21.6364ZM197.722 36.2202H179.014V44.0332H197.489C200.956 44.0332 202.4 43.2276 202.4 40.0112C202.4 36.7948 201.188 36.2202 197.722 36.2202Z" fill="white"/>
<path d="M260.307 50.1787C256.671 53.1642 252.684 53.1078 247.603 53.1078H234.497C225.084 53.1078 216.599 52.5333 216.599 38.0058V27.6692C216.599 14.5162 224.166 12.6235 234.327 12.6235H248.764C258.059 12.6235 263.949 13.7163 263.949 25.6583V27.2073H252.922V25.6583C252.576 22.0982 249.976 21.8673 246.454 21.8673H233.172C228.726 21.8673 227.627 23.7036 227.627 29.3929V35.5949C227.627 41.5658 228.38 43.8641 233.342 43.8641H246.448C250.837 43.8641 252.973 43.5205 252.973 38.8676V37.6622H264V38.8676C264 43.2332 263.944 47.1932 260.302 50.1787H260.307Z" fill="white"/>
<path d="M112.357 62.4837H110.026L109.591 63.5466H108L110.431 58.0627H111.97L114.412 63.5466H112.792L112.357 62.4837ZM111.899 61.3391L111.189 59.587L110.478 61.3391H111.893H111.899Z" fill="white"/>
<path d="M114.647 60.8077C114.647 59.1375 115.933 57.9578 117.677 57.9578C118.693 57.9578 119.509 58.3257 120.049 58.9915L119.057 59.885C118.711 59.4704 118.288 59.2426 117.759 59.2426C116.855 59.2426 116.221 59.8675 116.221 60.8077C116.221 61.748 116.849 62.3729 117.759 62.3729C118.288 62.3729 118.711 62.1451 119.057 61.7305L120.049 62.624C119.515 63.2898 118.693 63.6577 117.677 63.6577C115.927 63.6577 114.647 62.4722 114.647 60.8077Z" fill="white"/>
<path d="M122.023 59.3009H120.332V58.0686H125.27V59.3009H123.585V63.5525H122.023V59.3009Z" fill="white"/>
<path d="M126.004 58.0686H127.566V63.5525H126.004V58.0686Z" fill="white"/>
<path d="M134.407 58.0686L132.047 63.5525H130.508L128.153 58.0686H129.839L131.336 61.6428L132.863 58.0686H134.407Z" fill="white"/>
<path d="M139.316 62.3553V63.5525H134.889V58.0686H139.211V59.2658H136.427V60.1886H138.876V61.3508H136.427V62.3553H139.31H139.316Z" fill="white"/>
<path d="M148.03 62.0457C148.03 62.9918 147.244 63.5525 145.764 63.5525H142.787V58.0686H145.605C147.056 58.0686 147.766 58.6585 147.766 59.4994C147.766 60.025 147.496 60.4455 147.026 60.6908C147.649 60.9127 148.036 61.38 148.036 62.0457H148.03ZM144.331 59.1841V60.2411H145.4C145.922 60.2411 146.187 60.0601 146.187 59.7097C146.187 59.3593 145.916 59.1841 145.4 59.1841H144.331ZM146.457 61.8705C146.457 61.4968 146.175 61.3157 145.635 61.3157H144.325V62.4253H145.635C146.169 62.4253 146.457 62.2443 146.457 61.8705Z" fill="white"/>
<path d="M148.946 61.1055V58.0686H150.508V61.0587C150.508 61.999 150.902 62.3728 151.554 62.3728C152.205 62.3728 152.593 61.999 152.593 61.0587V58.0686H154.131V61.1055C154.131 62.7407 153.168 63.6576 151.542 63.6576C149.915 63.6576 148.952 62.7407 148.952 61.1055H148.946Z" fill="white"/>
<path d="M154.954 63.0562L155.465 61.9115C155.952 62.2327 156.645 62.4488 157.285 62.4488C157.925 62.4488 158.184 62.2678 158.184 62.005C158.184 61.1348 155.048 61.7714 155.048 59.7332C155.048 58.752 155.853 57.9578 157.491 57.9578C158.207 57.9578 158.947 58.1213 159.493 58.4367L159.012 59.5872C158.483 59.3068 157.967 59.1667 157.485 59.1667C156.833 59.1667 156.592 59.3886 156.592 59.6572C156.592 60.4982 159.722 59.8675 159.722 61.8882C159.722 62.846 158.918 63.6577 157.279 63.6577C156.375 63.6577 155.477 63.4124 154.954 63.0562Z" fill="white"/>
<path d="M160.591 58.0686H162.153V63.5525H160.591V58.0686Z" fill="white"/>
<path d="M168.666 58.0686V63.5525H167.38L164.949 60.6324V63.5525H163.422V58.0686H164.708L167.139 60.9887V58.0686H168.666Z" fill="white"/>
<path d="M174.349 62.3553V63.5525H169.922V58.0686H174.244V59.2658H171.46V60.1886H173.909V61.3508H171.46V62.3553H174.344H174.349Z" fill="white"/>
<path d="M174.983 63.0562L175.494 61.9115C175.982 62.2327 176.675 62.4488 177.315 62.4488C177.955 62.4488 178.213 62.2678 178.213 62.005C178.213 61.1348 175.077 61.7714 175.077 59.7332C175.077 58.752 175.882 57.9578 177.52 57.9578C178.237 57.9578 178.976 58.1213 179.523 58.4367L179.041 59.5872C178.513 59.3068 177.996 59.1667 177.514 59.1667C176.862 59.1667 176.622 59.3886 176.622 59.6572C176.622 60.4982 179.752 59.8675 179.752 61.8882C179.752 62.846 178.947 63.6577 177.309 63.6577C176.404 63.6577 175.506 63.4124 174.983 63.0562Z" fill="white"/>
<path d="M180.24 63.0562L180.751 61.9115C181.238 62.2327 181.931 62.4488 182.571 62.4488C183.211 62.4488 183.469 62.2678 183.469 62.005C183.469 61.1348 180.334 61.7714 180.334 59.7332C180.334 58.752 181.138 57.9578 182.777 57.9578C183.493 57.9578 184.233 58.1213 184.779 58.4367L184.297 59.5872C183.769 59.3068 183.252 59.1667 182.771 59.1667C182.119 59.1667 181.878 59.3886 181.878 59.6572C181.878 60.4982 185.008 59.8675 185.008 61.8882C185.008 62.846 184.203 63.6577 182.565 63.6577C181.661 63.6577 180.762 63.4124 180.24 63.0562Z" fill="white"/>
<path d="M188.038 60.8077C188.038 59.1375 189.324 57.9578 191.068 57.9578C192.084 57.9578 192.9 58.3257 193.44 58.9915L192.448 59.885C192.101 59.4704 191.678 59.2426 191.15 59.2426C190.246 59.2426 189.611 59.8675 189.611 60.8077C189.611 61.748 190.24 62.3729 191.15 62.3729C191.678 62.3729 192.101 62.1451 192.448 61.7305L193.44 62.624C192.906 63.2898 192.084 63.6577 191.068 63.6577C189.318 63.6577 188.038 62.4722 188.038 60.8077Z" fill="white"/>
<path d="M193.892 60.8077C193.892 59.1608 195.19 57.9578 196.957 57.9578C198.725 57.9578 200.023 59.1667 200.023 60.8077C200.023 62.4488 198.725 63.6577 196.957 63.6577C195.19 63.6577 193.892 62.4488 193.892 60.8077ZM198.443 60.8077C198.443 59.8616 197.791 59.2426 196.957 59.2426C196.124 59.2426 195.466 59.8616 195.466 60.8077C195.466 61.7538 196.118 62.3729 196.957 62.3729C197.797 62.3729 198.443 61.7538 198.443 60.8077Z" fill="white"/>
<path d="M205.971 63.5525L205.953 60.6441L204.538 63.0093H203.845L202.436 60.72V63.5466H200.991V58.0627H202.277L204.215 61.2281L206.106 58.0627H207.392L207.409 63.5466H205.977L205.971 63.5525Z" fill="white"/>
<path d="M213.64 63.5525L213.622 60.6441L212.207 63.0093H211.514L210.105 60.72V63.5466H208.66V58.0627H209.946L211.884 61.2281L213.775 58.0627H215.061L215.078 63.5466H213.646L213.64 63.5525Z" fill="white"/>
<path d="M216.283 61.1055V58.0686H217.845V61.0587C217.845 61.999 218.239 62.3728 218.89 62.3728C219.542 62.3728 219.93 61.999 219.93 61.0587V58.0686H221.468V61.1055C221.468 62.7407 220.505 63.6576 218.879 63.6576C217.252 63.6576 216.289 62.7407 216.289 61.1055H216.283Z" fill="white"/>
<path d="M227.922 58.0686V63.5525H226.636L224.205 60.6324V63.5525H222.678V58.0686H223.964L226.395 60.9887V58.0686H227.922Z" fill="white"/>
<path d="M229.178 58.0686H230.74V63.5525H229.178V58.0686Z" fill="white"/>
<path d="M231.721 60.8077C231.721 59.1375 233.007 57.9578 234.751 57.9578C235.767 57.9578 236.583 58.3257 237.123 58.9915L236.131 59.885C235.784 59.4704 235.361 59.2426 234.833 59.2426C233.929 59.2426 233.294 59.8675 233.294 60.8077C233.294 61.748 233.923 62.3729 234.833 62.3729C235.361 62.3729 235.784 62.1451 236.131 61.7305L237.123 62.624C236.589 63.2898 235.767 63.6577 234.751 63.6577C233.001 63.6577 231.721 62.4722 231.721 60.8077Z" fill="white"/>
<path d="M241.574 62.4837H239.243L238.809 63.5466H237.217L239.648 58.0627H241.187L243.63 63.5466H242.009L241.574 62.4837ZM241.116 61.3391L240.406 59.587L239.695 61.3391H241.111H241.116Z" fill="white"/>
<path d="M245.121 59.3009H243.43V58.0686H248.368V59.3009H246.683V63.5525H245.121V59.3009Z" fill="white"/>
<path d="M249.108 58.0686H250.67V63.5525H249.108V58.0686Z" fill="white"/>
<path d="M251.651 60.8077C251.651 59.1608 252.949 57.9578 254.717 57.9578C256.484 57.9578 257.782 59.1667 257.782 60.8077C257.782 62.4488 256.484 63.6577 254.717 63.6577C252.949 63.6577 251.651 62.4488 251.651 60.8077ZM256.202 60.8077C256.202 59.8616 255.55 59.2426 254.717 59.2426C253.883 59.2426 253.225 59.8616 253.225 60.8077C253.225 61.7538 253.877 62.3729 254.717 62.3729C255.556 62.3729 256.202 61.7538 256.202 60.8077Z" fill="white"/>
<path d="M264 58.0686V63.5525H262.714L260.283 60.6324V63.5525H258.756V58.0686H260.042L262.473 60.9887V58.0686H264Z" fill="white"/>
</svg>