<svg width="40" height="40" viewBox="0 0 40 40" fill="none" xmlns="http://www.w3.org/2000/svg">
<rect x="0.5" y="0.5" width="39" height="39" rx="4.5" stroke="url(#paint0_linear_1302_40243)"/>
<g clip-path="url(#clip0_1302_40243)">
<path d="M15.838 10C16.938 10 18.0043 10.3088 18.923 10.8775C20.2953 10.7314 21.6828 10.8933 22.9846 11.3513C24.2863 11.8093 25.4695 12.5519 26.448 13.525C27.3058 14.3802 27.9866 15.3962 28.4514 16.5147C28.9161 17.6333 29.1559 18.8325 29.1568 20.0438C29.1568 20.4738 29.1268 20.9025 29.0668 21.3263C29.557 22.1967 29.8153 23.1785 29.8168 24.1775C29.8168 24.9428 29.6655 25.7006 29.3716 26.4072C29.0777 27.1138 28.647 27.7554 28.1043 28.295C27.008 29.3882 25.5225 30.0015 23.9743 30C22.9243 30 21.9018 29.7175 21.0118 29.195C19.6217 29.361 18.2122 29.2102 16.8886 28.7541C15.5651 28.298 14.362 27.5483 13.3693 26.5613C12.5118 25.7061 11.8312 24.6903 11.3664 23.572C10.9016 22.4537 10.6617 21.2548 10.6605 20.0438C10.6605 19.59 10.693 19.1388 10.7605 18.6925C10.1299 17.585 9.88124 16.3008 10.0529 15.038C10.2246 13.7751 10.8071 12.6039 11.7105 11.705C12.8065 10.6135 14.29 10.0005 15.8368 10H15.838ZM16.3968 18.7625C16.6218 19.1488 16.9343 19.4775 17.308 19.7238C17.8031 20.0477 18.3295 20.3212 18.8793 20.54C19.4943 20.7963 19.9705 21.015 20.3105 21.1938C20.5968 21.3338 20.8568 21.5238 21.0793 21.7538C21.248 21.9313 21.3418 22.1675 21.3418 22.4138C21.3488 22.5868 21.3145 22.7591 21.2417 22.9163C21.1688 23.0734 21.0596 23.211 20.923 23.3175C20.5593 23.5625 20.123 23.6788 19.6855 23.6475C19.2358 23.6526 18.7899 23.5649 18.3755 23.39C18.1512 23.2903 17.9294 23.1849 17.7105 23.0738C17.4844 22.9536 17.2328 22.8893 16.9768 22.8863C16.7476 22.8767 16.5234 22.9555 16.3505 23.1063C16.2679 23.1848 16.2033 23.2804 16.1612 23.3863C16.1191 23.4923 16.1006 23.6062 16.1068 23.72C16.1015 23.9356 16.1665 24.147 16.2918 24.3225C16.4429 24.5142 16.6386 24.6661 16.8618 24.765C17.7331 25.1428 18.6776 25.3218 19.6268 25.2888C20.3179 25.3025 21.0058 25.1903 21.6568 24.9575C22.1966 24.766 22.6668 24.4172 23.0068 23.9563C23.3405 23.4688 23.5093 22.8875 23.4893 22.2975C23.5023 21.8154 23.3816 21.339 23.1405 20.9213C22.8958 20.5241 22.5663 20.186 22.1755 19.9313C21.6803 19.6118 21.1548 19.3417 20.6068 19.125C20.5482 19.0964 20.4877 19.0721 20.4255 19.0525C19.9979 18.8791 19.5756 18.6928 19.1593 18.4938C18.9066 18.3751 18.6778 18.2111 18.4843 18.01C18.3216 17.8389 18.2319 17.6111 18.2343 17.375C18.2263 17.1951 18.2667 17.0163 18.3514 16.8573C18.436 16.6984 18.5618 16.565 18.7155 16.4713C19.0806 16.2536 19.5008 16.1464 19.9255 16.1625C20.2505 16.1588 20.5755 16.2 20.8905 16.2825C21.233 16.3813 21.568 16.5038 21.893 16.6488C22.0243 16.71 22.168 16.7425 22.313 16.7438C22.4188 16.7464 22.524 16.7265 22.6216 16.6856C22.7192 16.6447 22.807 16.5835 22.8793 16.5063C23.0335 16.3376 23.1144 16.1146 23.1043 15.8863C23.108 15.6687 23.0325 15.4572 22.8918 15.2913C22.6994 15.0895 22.4609 14.9377 22.1968 14.8488C21.9101 14.7434 21.6136 14.6668 21.3118 14.62C20.8895 14.5509 20.4621 14.5183 20.0343 14.5225C19.3805 14.5183 18.7309 14.6275 18.1143 14.845C17.5471 15.0363 17.0408 15.3744 16.6468 15.825C16.2677 16.2738 16.0675 16.8466 16.0843 17.4338C16.0718 17.8963 16.1793 18.3538 16.3968 18.7625Z" fill="white"/>
</g>
<defs>
<linearGradient id="paint0_linear_1302_40243" x1="-9.81132" y1="-3.4375" x2="41.4341" y2="-2.43895" gradientUnits="userSpaceOnUse">
<stop offset="0.394225" stop-color="#6E676A"/>
<stop offset="0.792275" stop-color="#A8A5A8"/>
<stop offset="1" stop-color="#F4F4F9"/>
</linearGradient>
<clipPath id="clip0_1302_40243">
<rect x="10" y="10" width="20" height="20" rx="5" fill="white"/>
</clipPath>
</defs>
</svg>
