<svg width="140" height="56" viewBox="0 0 140 56" fill="none" xmlns="http://www.w3.org/2000/svg">
<path d="M8.416 13L7.632 10.744H2.864L2.08 13H0.08L4.144 1.8H6.352L10.4 13H8.416ZM3.472 9.016H7.024L5.248 3.96L3.472 9.016Z" fill="#CDDE00"/>
<path d="M17.512 13.192C15.816 13.192 14.4133 12.632 13.304 11.512C12.1947 10.392 11.64 9.02133 11.64 7.4C11.64 5.77867 12.1947 4.408 13.304 3.288C14.4133 2.168 15.816 1.608 17.512 1.608C18.5467 1.608 19.496 1.85867 20.36 2.36C21.224 2.85067 21.8907 3.51733 22.36 4.36L21.368 4.936C21.016 4.25333 20.4933 3.70933 19.8 3.304C19.1067 2.89867 18.344 2.696 17.512 2.696C16.1147 2.696 14.9733 3.14933 14.088 4.056C13.2027 4.96267 12.76 6.07733 12.76 7.4C12.76 8.72267 13.2027 9.83733 14.088 10.744C14.9733 11.6507 16.1147 12.104 17.512 12.104C18.344 12.104 19.1067 11.9013 19.8 11.496C20.4933 11.0907 21.016 10.5467 21.368 9.864L22.36 10.424C21.9013 11.2667 21.2347 11.9387 20.36 12.44C19.496 12.9413 18.5467 13.192 17.512 13.192ZM31.7256 1.8V2.856H28.2856V13H27.1656V2.856H23.7256V1.8H31.7256ZM33.9663 1.8H35.0863V13H33.9663V1.8ZM41.3018 13L37.1738 1.8H38.3898L41.8778 11.512L45.3658 1.8H46.5818L42.4538 13H41.3018ZM49.7881 11.944H55.2281V13H48.6681V1.8H55.1481V2.856H49.7881V6.824H54.7481V7.88H49.7881V11.944Z" fill="white"/>
<path d="M18.288 32.104C17.52 32.8293 16.5173 33.192 15.28 33.192C14.0427 33.192 13.04 32.8293 12.272 32.104C11.504 31.3787 11.12 30.408 11.12 29.192V21.8H12.24V29.192C12.24 30.088 12.5067 30.7973 13.04 31.32C13.5733 31.8427 14.32 32.104 15.28 32.104C16.24 32.104 16.9867 31.8427 17.52 31.32C18.0533 30.7973 18.32 30.088 18.32 29.192V21.8H19.44V29.192C19.44 30.408 19.056 31.3787 18.288 32.104ZM26.0025 33.192C24.9785 33.192 24.0985 32.952 23.3625 32.472C22.6372 31.9813 22.1305 31.3093 21.8425 30.456L22.8025 29.896C23.0052 30.5893 23.3785 31.1333 23.9225 31.528C24.4665 31.912 25.1652 32.104 26.0185 32.104C26.8505 32.104 27.4958 31.9227 27.9545 31.56C28.4238 31.1867 28.6585 30.696 28.6585 30.088C28.6585 29.5013 28.4452 29.0587 28.0185 28.76C27.5918 28.4613 26.8878 28.152 25.9065 27.832C24.7438 27.448 23.9758 27.1387 23.6025 26.904C22.7492 26.392 22.3225 25.6507 22.3225 24.68C22.3225 23.7307 22.6532 22.984 23.3145 22.44C23.9758 21.8853 24.7918 21.608 25.7625 21.608C26.6372 21.608 27.3945 21.8373 28.0345 22.296C28.6745 22.744 29.1492 23.32 29.4585 24.024L28.5145 24.552C28.0025 23.3147 27.0852 22.696 25.7625 22.696C25.0692 22.696 24.5092 22.8667 24.0825 23.208C23.6558 23.5493 23.4425 24.024 23.4425 24.632C23.4425 25.1867 23.6345 25.6027 24.0185 25.88C24.4025 26.1573 25.0372 26.44 25.9225 26.728C26.3278 26.8667 26.6158 26.968 26.7865 27.032C26.9678 27.0853 27.2238 27.1813 27.5545 27.32C27.8958 27.448 28.1465 27.5653 28.3065 27.672C28.4665 27.768 28.6585 27.9067 28.8825 28.088C29.1172 28.2587 29.2825 28.4347 29.3785 28.616C29.4852 28.7867 29.5758 29 29.6505 29.256C29.7358 29.5013 29.7785 29.768 29.7785 30.056C29.7785 31.0053 29.4318 31.768 28.7385 32.344C28.0452 32.9093 27.1332 33.192 26.0025 33.192ZM32.2631 21.8H33.3831V33H32.2631V21.8ZM43.7906 21.8H44.9106V33H43.9506L37.7106 23.88V33H36.5906V21.8H37.5506L43.7906 30.92V21.8ZM49.2256 31.944H54.6656V33H48.1056V21.8H54.5856V22.856H49.2256V26.824H54.1856V27.88H49.2256V31.944ZM60.75 33.192C59.726 33.192 58.846 32.952 58.11 32.472C57.3847 31.9813 56.878 31.3093 56.59 30.456L57.55 29.896C57.7527 30.5893 58.126 31.1333 58.67 31.528C59.214 31.912 59.9127 32.104 60.766 32.104C61.598 32.104 62.2433 31.9227 62.702 31.56C63.1713 31.1867 63.406 30.696 63.406 30.088C63.406 29.5013 63.1927 29.0587 62.766 28.76C62.3393 28.4613 61.6353 28.152 60.654 27.832C59.4913 27.448 58.7233 27.1387 58.35 26.904C57.4967 26.392 57.07 25.6507 57.07 24.68C57.07 23.7307 57.4007 22.984 58.062 22.44C58.7233 21.8853 59.5393 21.608 60.51 21.608C61.3847 21.608 62.142 21.8373 62.782 22.296C63.422 22.744 63.8967 23.32 64.206 24.024L63.262 24.552C62.75 23.3147 61.8327 22.696 60.51 22.696C59.8167 22.696 59.2567 22.8667 58.83 23.208C58.4033 23.5493 58.19 24.024 58.19 24.632C58.19 25.1867 58.382 25.6027 58.766 25.88C59.15 26.1573 59.7847 26.44 60.67 26.728C61.0753 26.8667 61.3633 26.968 61.534 27.032C61.7153 27.0853 61.9713 27.1813 62.302 27.32C62.6433 27.448 62.894 27.5653 63.054 27.672C63.214 27.768 63.406 27.9067 63.63 28.088C63.8647 28.2587 64.03 28.4347 64.126 28.616C64.2327 28.7867 64.3233 29 64.398 29.256C64.4833 29.5013 64.526 29.768 64.526 30.056C64.526 31.0053 64.1793 31.768 63.486 32.344C62.7927 32.9093 61.8807 33.192 60.75 33.192ZM70.2025 33.192C69.1785 33.192 68.2985 32.952 67.5625 32.472C66.8372 31.9813 66.3305 31.3093 66.0425 30.456L67.0025 29.896C67.2052 30.5893 67.5785 31.1333 68.1225 31.528C68.6665 31.912 69.3652 32.104 70.2185 32.104C71.0505 32.104 71.6958 31.9227 72.1545 31.56C72.6238 31.1867 72.8585 30.696 72.8585 30.088C72.8585 29.5013 72.6452 29.0587 72.2185 28.76C71.7918 28.4613 71.0878 28.152 70.1065 27.832C68.9438 27.448 68.1758 27.1387 67.8025 26.904C66.9492 26.392 66.5225 25.6507 66.5225 24.68C66.5225 23.7307 66.8532 22.984 67.5145 22.44C68.1758 21.8853 68.9918 21.608 69.9625 21.608C70.8372 21.608 71.5945 21.8373 72.2345 22.296C72.8745 22.744 73.3492 23.32 73.6585 24.024L72.7145 24.552C72.2025 23.3147 71.2852 22.696 69.9625 22.696C69.2692 22.696 68.7092 22.8667 68.2825 23.208C67.8558 23.5493 67.6425 24.024 67.6425 24.632C67.6425 25.1867 67.8345 25.6027 68.2185 25.88C68.6025 26.1573 69.2372 26.44 70.1225 26.728C70.5278 26.8667 70.8158 26.968 70.9865 27.032C71.1678 27.0853 71.4238 27.1813 71.7545 27.32C72.0958 27.448 72.3465 27.5653 72.5065 27.672C72.6665 27.768 72.8585 27.9067 73.0825 28.088C73.3172 28.2587 73.4825 28.4347 73.5785 28.616C73.6852 28.7867 73.7758 29 73.8505 29.256C73.9358 29.5013 73.9785 29.768 73.9785 30.056C73.9785 31.0053 73.6318 31.768 72.9385 32.344C72.2452 32.9093 71.3332 33.192 70.2025 33.192Z" fill="white"/>
<path d="M7.712 27.192C8.20267 27.448 8.58667 27.8 8.864 28.248C9.14133 28.696 9.28 29.2133 9.28 29.8C9.28 30.7173 8.95467 31.48 8.304 32.088C7.65333 32.696 6.85867 33 5.92 33H1.12V21.8H5.568C6.48533 21.8 7.25867 22.0987 7.888 22.696C8.528 23.2827 8.848 24.0187 8.848 24.904C8.848 25.8747 8.46933 26.6373 7.712 27.192ZM5.568 23.528H2.96V26.472H5.568C5.97333 26.472 6.31467 26.3333 6.592 26.056C6.86933 25.768 7.008 25.416 7.008 25C7.008 24.584 6.86933 24.2373 6.592 23.96C6.31467 23.672 5.97333 23.528 5.568 23.528ZM5.92 31.272C6.34667 31.272 6.704 31.1227 6.992 30.824C7.29067 30.5147 7.44 30.1413 7.44 29.704C7.44 29.2667 7.29067 28.8987 6.992 28.6C6.704 28.2907 6.34667 28.136 5.92 28.136H2.96V31.272H5.92Z" fill="#CDDE00"/>
<path d="M22.544 51.512C21.424 52.632 20.0533 53.192 18.432 53.192C16.8107 53.192 15.44 52.632 14.32 51.512C13.2 50.3813 12.64 49.0107 12.64 47.4C12.64 45.7893 13.2 44.424 14.32 43.304C15.44 42.1733 16.8107 41.608 18.432 41.608C20.0533 41.608 21.424 42.1733 22.544 43.304C23.664 44.424 24.224 45.7893 24.224 47.4C24.224 49.0107 23.664 50.3813 22.544 51.512ZM15.104 50.744C16 51.6507 17.1093 52.104 18.432 52.104C19.7547 52.104 20.864 51.6507 21.76 50.744C22.656 49.8267 23.104 48.712 23.104 47.4C23.104 46.088 22.656 44.9787 21.76 44.072C20.864 43.1547 19.7547 42.696 18.432 42.696C17.1093 42.696 16 43.1547 15.104 44.072C14.208 44.9787 13.76 46.088 13.76 47.4C13.76 48.712 14.208 49.8267 15.104 50.744ZM37.0194 41.8V53H35.8994V43.496L31.9794 50.056H31.8194L27.8994 43.496V53H26.7794V41.8H28.1714L31.8994 48.04L35.6274 41.8H37.0194ZM50.4563 41.8V53H49.3363V43.496L45.4163 50.056H45.2563L41.3363 43.496V53H40.2163V41.8H41.6083L45.3363 48.04L49.0643 41.8H50.4563ZM60.6611 52.104C59.8931 52.8293 58.8905 53.192 57.6531 53.192C56.4158 53.192 55.4131 52.8293 54.6451 52.104C53.8771 51.3787 53.4931 50.408 53.4931 49.192V41.8H54.6131V49.192C54.6131 50.088 54.8798 50.7973 55.4131 51.32C55.9465 51.8427 56.6931 52.104 57.6531 52.104C58.6131 52.104 59.3598 51.8427 59.8931 51.32C60.4265 50.7973 60.6931 50.088 60.6931 49.192V41.8H61.8131V49.192C61.8131 50.408 61.4291 51.3787 60.6611 52.104ZM72.0556 41.8H73.1756V53H72.2156L65.9756 43.88V53H64.8556V41.8H65.8156L72.0556 50.92V41.8ZM76.3706 41.8H77.4906V53H76.3706V41.8ZM85.9301 53.192C84.2341 53.192 82.8315 52.632 81.7221 51.512C80.6128 50.392 80.0581 49.0213 80.0581 47.4C80.0581 45.7787 80.6128 44.408 81.7221 43.288C82.8315 42.168 84.2341 41.608 85.9301 41.608C86.9648 41.608 87.9141 41.8587 88.7781 42.36C89.6421 42.8507 90.3088 43.5173 90.7781 44.36L89.7861 44.936C89.4341 44.2533 88.9115 43.7093 88.2181 43.304C87.5248 42.8987 86.7621 42.696 85.9301 42.696C84.5328 42.696 83.3915 43.1493 82.5061 44.056C81.6208 44.9627 81.1781 46.0773 81.1781 47.4C81.1781 48.7227 81.6208 49.8373 82.5061 50.744C83.3915 51.6507 84.5328 52.104 85.9301 52.104C86.7621 52.104 87.5248 51.9013 88.2181 51.496C88.9115 51.0907 89.4341 50.5467 89.7861 49.864L90.7781 50.424C90.3195 51.2667 89.6528 51.9387 88.7781 52.44C87.9141 52.9413 86.9648 53.192 85.9301 53.192ZM100.56 53L99.5198 50.248H94.2078L93.1678 53H91.9838L96.2878 41.8H97.4398L101.744 53H100.56ZM94.6078 49.192H99.1198L96.8638 43.192L94.6078 49.192ZM110.065 41.8V42.856H106.625V53H105.505V42.856H102.065V41.8H110.065ZM112.306 41.8H113.426V53H112.306V41.8ZM125.897 51.512C124.777 52.632 123.406 53.192 121.785 53.192C120.164 53.192 118.793 52.632 117.673 51.512C116.553 50.3813 115.993 49.0107 115.993 47.4C115.993 45.7893 116.553 44.424 117.673 43.304C118.793 42.1733 120.164 41.608 121.785 41.608C123.406 41.608 124.777 42.1733 125.897 43.304C127.017 44.424 127.577 45.7893 127.577 47.4C127.577 49.0107 127.017 50.3813 125.897 51.512ZM118.457 50.744C119.353 51.6507 120.462 52.104 121.785 52.104C123.108 52.104 124.217 51.6507 125.113 50.744C126.009 49.8267 126.457 48.712 126.457 47.4C126.457 46.088 126.009 44.9787 125.113 44.072C124.217 43.1547 123.108 42.696 121.785 42.696C120.462 42.696 119.353 43.1547 118.457 44.072C117.561 44.9787 117.113 46.088 117.113 47.4C117.113 48.712 117.561 49.8267 118.457 50.744ZM137.333 41.8H138.453V53H137.493L131.253 43.88V53H130.133V41.8H131.093L137.333 50.92V41.8Z" fill="white"/>
<path d="M6.416 53.208C4.73067 53.208 3.33333 52.6533 2.224 51.544C1.11467 50.424 0.56 49.0427 0.56 47.4C0.56 45.7573 1.11467 44.3813 2.224 43.272C3.33333 42.152 4.73067 41.592 6.416 41.592C7.42933 41.592 8.36267 41.832 9.216 42.312C10.08 42.792 10.752 43.4427 11.232 44.264L9.632 45.192C9.33333 44.6373 8.896 44.2 8.32 43.88C7.75467 43.5493 7.12 43.384 6.416 43.384C5.22133 43.384 4.25067 43.7627 3.504 44.52C2.768 45.2773 2.4 46.2373 2.4 47.4C2.4 48.5627 2.768 49.5227 3.504 50.28C4.25067 51.0373 5.22133 51.416 6.416 51.416C7.12 51.416 7.76 51.256 8.336 50.936C8.912 50.6053 9.344 50.1627 9.632 49.608L11.232 50.52C10.7627 51.3413 10.096 51.9973 9.232 52.488C8.37867 52.968 7.44 53.208 6.416 53.208Z" fill="#CDDE00"/>
</svg>

