<svg width="224" height="151" viewBox="0 0 224 151" fill="none" xmlns="http://www.w3.org/2000/svg">
<path d="M167.742 116.474L172.243 119.606C172.755 121.046 174.679 124.316 178.28 125.871L179.706 129.652" stroke="url(#paint0_linear_1302_40265)" stroke-width="0.6"/>
<path d="M176.194 97.3554C176.78 96.3113 178.719 93.8557 181.792 92.3867" stroke="url(#paint1_linear_1302_40265)" stroke-width="0.6"/>
<path d="M170.377 97.0307V94.1143C166.425 98.7805 166.096 107.148 166.425 110.749L168.181 109.02C167.567 103.836 169.389 98.8669 170.377 97.0307Z" fill="#89898F"/>
<path d="M194.085 124.791H185.194L183.548 126.411" stroke="url(#paint2_linear_1302_40265)" stroke-width="0.6"/>
<path d="M206.16 126.843C199.31 133.065 188.451 132.316 183.877 131.164L184.756 126.735C192.483 128.809 199.025 126.159 201.33 124.575C202.281 123.423 204.579 121.507 206.16 123.063C207.74 124.618 206.818 126.231 206.16 126.843Z" fill="#89898F"/>
<path d="M206.708 93.4667L203.415 95.519C198.498 90.6799 193.756 90.1182 192 90.4423C193.756 88.714 192.732 87.1298 192 86.5537H192.439C199.991 86.8129 205.098 91.2704 206.708 93.4667Z" fill="#89898F"/>
<path d="M190.74 131.947C183.656 131.947 177.805 129.63 173.187 124.995C168.569 120.36 166.26 114.644 166.26 107.846C166.26 101.004 168.569 95.2881 173.187 90.6974C177.805 86.0625 183.656 83.7451 190.74 83.7451C194.999 83.7451 198.922 84.7383 202.509 86.7247C206.141 88.6669 208.965 91.3154 210.983 94.6701L202.98 99.2387C201.814 97.1641 200.155 95.5529 198.003 94.4052C195.851 93.2134 193.43 92.6175 190.74 92.6175M209.548 119.996L202.98 116.454C201.859 118.484 200.2 120.095 198.003 121.287C195.851 122.435 193.43 123.009 190.74 123.009C186.167 123.009 182.468 121.596 179.643 118.771C177.565 116.66 176.264 114.092 175.739 111.067" stroke="url(#paint3_linear_1302_40265)" stroke-width="0.6"/>
<path d="M188.708 92.6025C179.26 93.9775 176.249 101.264 175.811 105.409" stroke="url(#paint4_linear_1302_40265)" stroke-width="0.6"/>
<path d="M190.74 131.986C183.656 131.986 177.805 129.669 173.187 125.034C168.569 120.399 166.26 114.683 166.26 107.885C166.26 101.043 168.569 95.3271 173.187 90.7364C177.805 86.1016 183.656 83.7842 190.74 83.7842C194.999 83.7842 198.922 84.7774 202.509 86.7637C206.141 88.7059 208.965 91.3544 210.983 94.7092L202.98 99.2778C201.814 97.2031 200.155 95.592 198.003 94.4443C195.851 93.2525 193.593 92.6372 190.903 92.6372M209.548 120.035L202.98 116.493C201.859 118.523 200.2 120.135 198.003 121.326C195.851 122.474 193.43 123.048 190.74 123.048C186.167 123.048 182.468 121.635 179.643 118.81C177.556 116.69 176.253 114.109 175.733 111.068" stroke="url(#paint5_linear_1302_40265)" stroke-width="0.6"/>
<path d="M173.559 118.742C174.386 120.316 175.525 121.733 176.976 122.992C180.402 125.92 184.888 127.383 190.435 127.383C193.698 127.383 196.634 126.789 199.244 125.6C200.677 124.936 201.921 124.146 202.976 123.231" stroke="url(#paint6_linear_1302_40265)" stroke-width="0.6"/>
<path d="M190.932 92.6367C190.932 93.2701 190.408 93.7917 189.753 93.7917C189.098 93.7917 188.574 93.2701 188.574 92.6367C188.574 92.0033 189.098 91.4816 189.753 91.4816C190.408 91.4816 190.932 92.0033 190.932 92.6367Z" stroke="url(#paint7_linear_1302_40265)" stroke-width="0.6"/>
<path d="M192.503 132.039C192.503 132.519 192.107 132.916 191.607 132.916C191.108 132.916 190.711 132.519 190.711 132.039C190.711 131.559 191.108 131.162 191.607 131.162C192.107 131.162 192.503 131.559 192.503 132.039Z" stroke="url(#paint8_linear_1302_40265)" stroke-width="0.6"/>
<path d="M203.416 95.5186L206.819 93.4663C204.989 91.126 199.442 86.4453 191.891 86.4453" stroke="url(#paint9_linear_1302_40265)" stroke-width="0.6"/>
<path d="M191.898 86.4338C191.898 86.9136 191.501 87.3108 191.002 87.3108C190.502 87.3108 190.106 86.9136 190.106 86.4338C190.106 85.954 190.502 85.5568 191.002 85.5568C191.501 85.5568 191.898 85.954 191.898 86.4338Z" stroke="url(#paint10_linear_1302_40265)" stroke-width="0.6"/>
<path d="M170.705 105.564C171.035 101.315 174.481 91.8676 185.633 88.0654" stroke="url(#paint11_linear_1302_40265)" stroke-width="0.6"/>
<path d="M171.7 106.525C171.7 107.004 171.304 107.402 170.804 107.402C170.305 107.402 169.908 107.004 169.908 106.525C169.908 106.045 170.305 105.648 170.804 105.648C171.304 105.648 171.7 106.045 171.7 106.525Z" stroke="url(#paint12_linear_1302_40265)" stroke-width="0.6"/>
<path d="M187.287 87.7307C187.287 88.2105 186.89 88.6076 186.391 88.6076C185.892 88.6076 185.495 88.2105 185.495 87.7307C185.495 87.2509 185.892 86.8537 186.391 86.8537C186.89 86.8537 187.287 87.2509 187.287 87.7307Z" stroke="url(#paint13_linear_1302_40265)" stroke-width="0.6"/>
<path d="M195.212 124.683C195.212 124.93 195.007 125.139 194.744 125.139C194.48 125.139 194.275 124.93 194.275 124.683C194.275 124.435 194.48 124.227 194.744 124.227C195.007 124.227 195.212 124.435 195.212 124.683Z" stroke="url(#paint14_linear_1302_40265)" stroke-width="0.6"/>
<path d="M195.073 124.682C195.073 124.861 194.926 125.006 194.744 125.006C194.562 125.006 194.415 124.861 194.415 124.682C194.415 124.503 194.562 124.358 194.744 124.358C194.926 124.358 195.073 124.503 195.073 124.682Z" fill="url(#paint15_linear_1302_40265)"/>
<path d="M173.917 117.986C173.917 118.353 173.614 118.658 173.23 118.658C172.845 118.658 172.542 118.353 172.542 117.986C172.542 117.619 172.845 117.314 173.23 117.314C173.614 117.314 173.917 117.619 173.917 117.986Z" stroke="url(#paint16_linear_1302_40265)" stroke-width="0.6"/>
<path d="M173.652 117.986C173.652 118.216 173.463 118.403 173.229 118.403C172.995 118.403 172.805 118.216 172.805 117.986C172.805 117.756 172.995 117.569 173.229 117.569C173.463 117.569 173.652 117.756 173.652 117.986Z" fill="url(#paint17_linear_1302_40265)"/>
<path d="M176.334 98.1108C176.334 98.4775 176.03 98.783 175.646 98.783C175.261 98.783 174.958 98.4775 174.958 98.1108C174.958 97.7441 175.261 97.4387 175.646 97.4387C176.03 97.4387 176.334 97.7441 176.334 98.1108Z" stroke="url(#paint18_linear_1302_40265)" stroke-width="0.6"/>
<path d="M176.068 98.111C176.068 98.3411 175.879 98.5276 175.645 98.5276C175.411 98.5276 175.222 98.3411 175.222 98.111C175.222 97.8809 175.411 97.6943 175.645 97.6943C175.879 97.6943 176.068 97.8809 176.068 98.111Z" fill="url(#paint19_linear_1302_40265)"/>
<path d="M183.357 92.062C183.357 92.4287 183.054 92.7341 182.67 92.7341C182.285 92.7341 181.982 92.4287 181.982 92.062C181.982 91.6953 182.285 91.3898 182.67 91.3898C183.054 91.3898 183.357 91.6953 183.357 92.062Z" stroke="url(#paint20_linear_1302_40265)" stroke-width="0.6"/>
<path d="M183.092 92.0621C183.092 92.2922 182.903 92.4788 182.669 92.4788C182.435 92.4788 182.245 92.2922 182.245 92.0621C182.245 91.832 182.435 91.6455 182.669 91.6455C182.903 91.6455 183.092 91.832 183.092 92.0621Z" fill="url(#paint21_linear_1302_40265)"/>
<path d="M204.213 122.523C204.213 122.89 203.909 123.195 203.525 123.195C203.14 123.195 202.837 122.89 202.837 122.523C202.837 122.156 203.14 121.851 203.525 121.851C203.909 121.851 204.213 122.156 204.213 122.523Z" stroke="url(#paint22_linear_1302_40265)" stroke-width="0.6"/>
<path d="M203.947 122.523C203.947 122.753 203.758 122.94 203.524 122.94C203.29 122.94 203.101 122.753 203.101 122.523C203.101 122.293 203.29 122.106 203.524 122.106C203.758 122.106 203.947 122.293 203.947 122.523Z" fill="url(#paint23_linear_1302_40265)"/>
<path d="M77.7437 78.3672H206.698L220.766 92.7191V121.253H215.545" stroke="#89898F" stroke-width="0.6"/>
<path fill-rule="evenodd" clip-rule="evenodd" d="M104.084 120.024C103.56 120.024 103.135 119.604 103.135 119.086C103.135 118.568 103.56 118.148 104.084 118.148C104.608 118.148 105.033 118.568 105.033 119.086C105.033 119.604 104.608 120.024 104.084 120.024ZM104.084 119.789C103.691 119.789 103.372 119.474 103.372 119.086C103.372 118.697 103.691 118.383 104.084 118.383C104.477 118.383 104.796 118.697 104.796 119.086C104.796 119.474 104.477 119.789 104.084 119.789Z" fill="#89898F"/>
<path d="M109.567 133.166L106.534 124.241H86.3839L83.3506 133.166H72.5896L90.2838 83.585H102.634L120.4 133.166H109.567ZM89.5616 115.104H103.428L96.4949 94.8469L89.5616 115.104Z" fill="url(#paint24_linear_1302_40265)"/>
<path d="M155.859 107.455C160.288 109.957 162.503 113.735 162.503 118.787C162.503 122.99 160.986 126.437 157.953 129.128C154.92 131.82 151.188 133.166 146.759 133.166H125.309V83.585H145.242C149.575 83.585 153.21 84.9071 156.147 87.5514C159.133 90.1485 160.625 93.4775 160.625 97.5384C160.625 101.646 159.036 104.952 155.859 107.455ZM145.242 92.722H135.275V103.63H145.242C146.783 103.63 148.059 103.11 149.07 102.071C150.129 101.033 150.659 99.7341 150.659 98.1758C150.659 96.6176 150.153 95.3191 149.142 94.2802C148.131 93.2414 146.831 92.722 145.242 92.722ZM146.759 124.029C148.444 124.029 149.84 123.486 150.947 122.4C152.055 121.266 152.609 119.85 152.609 118.15C152.609 116.497 152.055 115.128 150.947 114.042C149.84 112.908 148.444 112.342 146.759 112.342H135.275V124.029H146.759Z" fill="url(#paint25_linear_1302_40265)"/>
<path fill-rule="evenodd" clip-rule="evenodd" d="M175.979 110.076C176.93 110.076 177.7 109.318 177.7 108.382C177.7 107.447 176.93 106.688 175.979 106.688C175.028 106.688 174.258 107.447 174.258 108.382C174.258 109.318 175.028 110.076 175.979 110.076ZM175.98 109.653C176.692 109.653 177.27 109.084 177.27 108.382C177.27 107.681 176.692 107.112 175.98 107.112C175.267 107.112 174.689 107.681 174.689 108.382C174.689 109.084 175.267 109.653 175.98 109.653Z" fill="#89898F"/>
<path fill-rule="evenodd" clip-rule="evenodd" d="M175.979 111.77C177.88 111.77 179.421 110.254 179.421 108.383C179.421 106.512 177.88 104.995 175.979 104.995C174.078 104.995 172.536 106.512 172.536 108.383C172.536 110.254 174.078 111.77 175.979 111.77ZM175.98 110.923C177.406 110.923 178.562 109.786 178.562 108.383C178.562 106.979 177.406 105.842 175.98 105.842C174.554 105.842 173.398 106.979 173.398 108.383C173.398 109.786 174.554 110.923 175.98 110.923Z" fill="#89898F"/>
<path fill-rule="evenodd" clip-rule="evenodd" d="M212.416 122.777C213.366 122.777 214.137 122.019 214.137 121.083C214.137 120.148 213.366 119.39 212.416 119.39C211.465 119.39 210.695 120.148 210.695 121.083C210.695 122.019 211.465 122.777 212.416 122.777ZM212.416 122.354C213.129 122.354 213.707 121.785 213.707 121.083C213.707 120.382 213.129 119.813 212.416 119.813C211.703 119.813 211.125 120.382 211.125 121.083C211.125 121.785 211.703 122.354 212.416 122.354Z" fill="#89898F"/>
<path fill-rule="evenodd" clip-rule="evenodd" d="M212.416 124.472C214.317 124.472 215.858 122.955 215.858 121.084C215.858 119.213 214.317 117.696 212.416 117.696C210.514 117.696 208.973 119.213 208.973 121.084C208.973 122.955 210.514 124.472 212.416 124.472ZM212.417 123.625C213.842 123.625 214.998 122.487 214.998 121.084C214.998 119.681 213.842 118.543 212.417 118.543C210.991 118.543 209.835 119.681 209.835 121.084C209.835 122.487 210.991 123.625 212.417 123.625Z" fill="#89898F"/>
<path d="M73.692 143.659C73.1035 143.671 72.6265 144.142 72.6265 144.721V148.752H73.7105V145.85C73.7911 146.35 74.2371 146.737 74.7822 146.737H77.0248V148.752H78.1088V143.659H73.692ZM77.0248 145.681H73.7105V143.828C73.7911 144.335 74.2371 144.721 74.7822 144.721H77.0248V145.681Z" fill="url(#paint26_linear_1302_40265)"/>
<path d="M88.1641 143.659H83.7534V148.752H88.1641C88.7588 148.746 89.2358 148.275 89.2358 147.696V144.721C89.2358 144.142 88.7588 143.671 88.1641 143.659ZM87.08 144.721C87.619 144.721 88.065 144.335 88.1517 143.828V145.681H84.8375V144.721H87.08ZM87.08 147.696H84.8375V146.737H88.1517V148.589C88.065 148.082 87.619 147.696 87.08 147.696Z" fill="url(#paint27_linear_1302_40265)"/>
<path d="M96.9376 144.721H100.264V143.659H95.8474C95.2589 143.671 94.7819 144.142 94.7819 144.721V147.696C94.7819 148.275 95.2589 148.746 95.8474 148.752H100.264V147.696H96.9376C96.3925 147.696 95.9465 148.082 95.866 148.589V143.828C95.9465 144.335 96.3925 144.721 96.9376 144.721Z" fill="url(#paint28_linear_1302_40265)"/>
<path d="M110.059 143.659H106.732C106.131 143.659 105.648 144.136 105.648 144.721V147.696C105.648 148.275 106.125 148.746 106.714 148.752H110.046C110.647 148.752 111.13 148.281 111.13 147.696V144.721C111.13 144.142 110.653 143.671 110.059 143.659ZM110.046 147.696H107.804C107.259 147.696 106.813 148.082 106.732 148.589V144.721H108.975C109.514 144.721 109.96 144.335 110.046 143.828V147.696Z" fill="url(#paint29_linear_1302_40265)"/>
<path d="M121.404 143.659V143.665L119.856 146.562C119.688 146.863 119.608 147.195 119.608 147.539C119.608 147.195 119.521 146.863 119.36 146.562L117.811 143.665V143.659H116.727V148.752H117.811V145.119C117.873 145.596 118.028 146.061 118.276 146.483L119.608 148.752L120.94 146.483C121.181 146.061 121.342 145.596 121.404 145.119V148.752H122.488V143.659H121.404Z" fill="url(#paint30_linear_1302_40265)"/>
<path d="M132.809 143.659V143.665L131.26 146.562C131.093 146.863 131.013 147.195 131.013 147.539C131.013 147.195 130.926 146.863 130.765 146.562L129.216 143.665V143.659H128.132V148.752H129.216V145.119C129.278 145.596 129.433 146.061 129.681 146.483L131.013 148.752L132.344 146.483C132.586 146.061 132.747 145.596 132.809 145.119V148.752H133.893V143.659H132.809Z" fill="url(#paint31_linear_1302_40265)"/>
<path d="M143.91 143.659V148.589C143.823 148.082 143.377 147.696 142.838 147.696H140.596V143.659H139.512V147.696C139.512 148.281 139.995 148.752 140.596 148.752H143.923C144.517 148.746 144.994 148.275 144.994 147.696V143.659H143.91Z" fill="url(#paint32_linear_1302_40265)"/>
<path d="M155.013 143.659V148.149C154.957 147.491 154.685 146.857 154.22 146.362L151.699 143.659H150.615V148.752H151.699V144.341C151.761 144.981 152.039 145.59 152.492 146.073L155.013 148.752H156.097V143.659H155.013Z" fill="url(#paint33_linear_1302_40265)"/>
<path d="M162.8 148.752V143.659H161.716V148.752H162.8Z" fill="url(#paint34_linear_1302_40265)"/>
<path d="M170.521 144.721H173.848V143.659H169.431C168.842 143.671 168.365 144.142 168.365 144.721V147.696C168.365 148.275 168.842 148.746 169.431 148.752H173.848V147.696H170.521C169.976 147.696 169.53 148.082 169.449 148.589V143.828C169.53 144.335 169.976 144.721 170.521 144.721Z" fill="url(#paint35_linear_1302_40265)"/>
<path d="M180.322 143.659C179.733 143.671 179.256 144.142 179.256 144.721V148.752H180.34V145.85C180.421 146.35 180.867 146.737 181.412 146.737H183.655V148.752H184.739V143.659H180.322ZM183.655 145.681H180.34V143.828C180.421 144.335 180.867 144.721 181.412 144.721H183.655V145.681Z" fill="url(#paint36_linear_1302_40265)"/>
<path d="M190.036 143.659V144.721H192.96C192.539 144.866 192.236 145.252 192.236 145.717V148.752H193.32V144.721H195.519V143.659H190.036Z" fill="url(#paint37_linear_1302_40265)"/>
<path d="M201.873 148.752V143.659H200.789V148.752H201.873Z" fill="url(#paint38_linear_1302_40265)"/>
<path d="M211.849 143.659H208.522C207.922 143.659 207.438 144.136 207.438 144.721V147.696C207.438 148.275 207.915 148.746 208.504 148.752H211.837C212.438 148.752 212.921 148.281 212.921 147.696V144.721C212.921 144.142 212.444 143.671 211.849 143.659ZM211.837 147.696H209.594C209.049 147.696 208.603 148.082 208.522 148.589V144.721H210.765C211.304 144.721 211.75 144.335 211.837 143.828V147.696Z" fill="url(#paint39_linear_1302_40265)"/>
<path d="M222.916 143.659V148.149C222.86 147.491 222.587 146.857 222.123 146.362L219.602 143.659H218.518V148.752H219.602V144.341C219.664 144.981 219.942 145.59 220.395 146.073L222.916 148.752H224V143.659H222.916Z" fill="url(#paint40_linear_1302_40265)"/>
<g filter="url(#filter0_f_1302_40265)">
<path d="M61.0801 66.3458V76.7785L62.6391 78.3128H73.2408L74.7999 76.7785V66.3458L73.2408 64.8115H62.6391L61.0801 66.3458Z" stroke="#89898F" stroke-width="0.6"/>
</g>
<g filter="url(#filter1_f_1302_40265)">
<path d="M57.8643 64.0869V79.247L60.1298 81.4764H75.5353L77.8008 79.247V64.0869L75.5353 61.8574H60.1298L57.8643 64.0869Z" stroke="#89898F" stroke-width="0.6"/>
</g>
<path d="M63.2455 66.1182L62.416 66.9344V76.1857L63.2455 77.002H72.6465L73.476 76.1857V66.9344L72.6465 66.1182H63.2455Z" fill="#89898F"/>
<path d="M61.0801 66.3458V76.7785L62.6391 78.3128H73.2408L74.7999 76.7785V66.3458L73.2408 64.8115H62.6391L61.0801 66.3458Z" stroke="#89898F" stroke-width="0.6"/>
<path d="M57.8643 64.0869V79.247L60.1298 81.4764H75.5353L77.8008 79.247V64.0869L75.5353 61.8574H60.1298L57.8643 64.0869Z" stroke="#89898F" stroke-width="0.6"/>
<path d="M74.4208 61.8679V18.1483L76.4379 16.1555M72.7597 61.8679V16.5072M72.7597 16.5072L76.5566 12.7562V1.77798M72.7597 16.5072V3.07134M80.1162 1.29297V16.5072M80.1162 16.5072L94.2361 30.4563H104.678V33.627M80.1162 16.5072V49.563H131.758M83.3658 17.2983L94.4735 28.2291H113.851M112.537 26.4708H95.0667L86.1676 17.6794M110.401 24.5953H95.66L89.3713 18.3827M109.58 22.7198H96.3719L93.0496 19.4377M81.3028 4.04136V14.5145H105.472M82.7266 9.37648V1.29297H84.7438V10.8645L89.8459 11.3496M133.237 51.6729H96.9776L84.6251 63.8637H77.8618V48.6252L75.8447 50.6179V61.8679M77.8618 65.5048H84.6251M84.9811 66.7942H74.915M95.7057 49.563L83.9132 61.1676H80.9468L80.2349 60.4643V51.6729L82.4893 53.9001M95.4509 16.5072H102.68M92.3547 49.563L87.9474 53.9001M89.3824 49.563L86.5236 52.3762M74.915 68.4352H85.337M133.237 59.1709H94.7108L98.3891 55.5411H133.237M124.73 57.1822H100.762M84.5065 24.2436L93.7615 33.3867L104.678 33.627M82.3707 26.4708V47.1014H127.815L126.173 45.2259H83.7945V31.5253M111.916 36.2H92.3377L83.7945 27.7602V31.5253M86.7437 43.3504H122.065M119.035 41.2404H86.4049L83.7945 38.6616M83.7945 35.0278L87.4728 38.6616H115.475M74.915 69.7246H85.5744L93.8802 61.5193H133.894M74.915 71.014H135.865M88.6594 69.2558L94.7108 63.2776M135.208 65.0359H96.4906M135.208 67.263H93.7615M104.678 33.627H113.851M83.7945 31.5253L88.4221 36.2M74.4208 14.8661V2.58633" stroke="#89898F" stroke-width="0.6"/>
<path fill-rule="evenodd" clip-rule="evenodd" d="M84.1335 56.7273C83.4127 56.7273 82.8283 56.15 82.8283 55.4378C82.8283 54.7257 83.4127 54.1484 84.1335 54.1484C84.8544 54.1484 85.4387 54.7257 85.4387 55.4378C85.4387 56.15 84.8544 56.7273 84.1335 56.7273ZM84.1333 56.4048C83.5927 56.4048 83.1544 55.9718 83.1544 55.4377C83.1544 54.9036 83.5927 54.4706 84.1333 54.4706C84.674 54.4706 85.1122 54.9036 85.1122 55.4377C85.1122 55.9718 84.674 56.4048 84.1333 56.4048Z" fill="#89898F"/>
<path fill-rule="evenodd" clip-rule="evenodd" d="M84.134 58.017C82.6923 58.017 81.5236 56.8624 81.5236 55.4382C81.5236 54.014 82.6923 52.8594 84.134 52.8594C85.5757 52.8594 86.7444 54.014 86.7444 55.4382C86.7444 56.8624 85.5757 58.017 84.134 58.017ZM84.1341 57.5481C82.9546 57.5481 81.9983 56.6035 81.9983 55.4382C81.9983 54.2729 82.9546 53.3283 84.1341 53.3283C85.3137 53.3283 86.2699 54.2729 86.2699 55.4382C86.2699 56.6035 85.3137 57.5481 84.1341 57.5481Z" fill="#89898F"/>
<path fill-rule="evenodd" clip-rule="evenodd" d="M91.508 11.9468C90.9838 11.9468 90.5588 11.5269 90.5588 11.009C90.5588 10.4911 90.9838 10.0713 91.508 10.0713C92.0323 10.0713 92.4573 10.4911 92.4573 11.009C92.4573 11.5269 92.0323 11.9468 91.508 11.9468ZM91.5081 11.7123C91.1149 11.7123 90.7962 11.3974 90.7962 11.009C90.7962 10.6206 91.1149 10.3057 91.5081 10.3057C91.9013 10.3057 92.22 10.6206 92.22 11.009C92.22 11.3974 91.9013 11.7123 91.5081 11.7123Z" fill="#89898F"/>
<path fill-rule="evenodd" clip-rule="evenodd" d="M91.5078 12.8848C90.4593 12.8848 89.6093 12.0451 89.6093 11.0093C89.6093 9.97348 90.4593 9.13379 91.5078 9.13379C92.5563 9.13379 93.4062 9.97348 93.4062 11.0093C93.4062 12.0451 92.5563 12.8848 91.5078 12.8848ZM91.5078 12.4164C90.7215 12.4164 90.084 11.7866 90.084 11.0097C90.084 10.2329 90.7215 9.6031 91.5078 9.6031C92.2942 9.6031 92.9317 10.2329 92.9317 11.0097C92.9317 11.7866 92.2942 12.4164 91.5078 12.4164Z" fill="#89898F"/>
<path fill-rule="evenodd" clip-rule="evenodd" d="M76.9409 16.6362C76.4167 16.6362 75.9917 16.2164 75.9917 15.6985C75.9917 15.1806 76.4167 14.7607 76.9409 14.7607C77.4651 14.7607 77.8901 15.1806 77.8901 15.6985C77.8901 16.2164 77.4651 16.6362 76.9409 16.6362ZM76.941 16.4015C76.5478 16.4015 76.229 16.0866 76.229 15.6982C76.229 15.3098 76.5478 14.9949 76.941 14.9949C77.3342 14.9949 77.6529 15.3098 77.6529 15.6982C77.6529 16.0866 77.3342 16.4015 76.941 16.4015Z" fill="#89898F"/>
<path fill-rule="evenodd" clip-rule="evenodd" d="M77.1797 19.6597C76.6554 19.6597 76.2304 19.2398 76.2304 18.7219C76.2304 18.204 76.6554 17.7842 77.1797 17.7842C77.7039 17.7842 78.1289 18.204 78.1289 18.7219C78.1289 19.2398 77.7039 19.6597 77.1797 19.6597ZM77.1797 19.4251C76.7865 19.4251 76.4678 19.1102 76.4678 18.7217C76.4678 18.3333 76.7865 18.0184 77.1797 18.0184C77.5729 18.0184 77.8917 18.3333 77.8917 18.7217C77.8917 19.1102 77.5729 19.4251 77.1797 19.4251Z" fill="#89898F"/>
<path fill-rule="evenodd" clip-rule="evenodd" d="M77.1797 47.4663C76.6554 47.4663 76.2304 47.0465 76.2304 46.5286C76.2304 46.0107 76.6554 45.5908 77.1797 45.5908C77.7039 45.5908 78.1289 46.0107 78.1289 46.5286C78.1289 47.0465 77.7039 47.4663 77.1797 47.4663ZM77.1797 47.2317C76.7865 47.2317 76.4678 46.9168 76.4678 46.5284C76.4678 46.1399 76.7865 45.8251 77.1797 45.8251C77.5729 45.8251 77.8917 46.1399 77.8917 46.5284C77.8917 46.9168 77.5729 47.2317 77.1797 47.2317Z" fill="#89898F"/>
<path fill-rule="evenodd" clip-rule="evenodd" d="M85.7226 18.0425C85.1984 18.0425 84.7734 17.6227 84.7734 17.1047C84.7734 16.5868 85.1984 16.167 85.7226 16.167C86.2469 16.167 86.6719 16.5868 86.6719 17.1047C86.6719 17.6227 86.2469 18.0425 85.7226 18.0425ZM85.7227 17.8078C85.3295 17.8078 85.0108 17.4929 85.0108 17.1045C85.0108 16.7161 85.3295 16.4012 85.7227 16.4012C86.1159 16.4012 86.4346 16.7161 86.4346 17.1045C86.4346 17.4929 86.1159 17.8078 85.7227 17.8078Z" fill="#89898F"/>
<path fill-rule="evenodd" clip-rule="evenodd" d="M82.7646 17.7193C82.2404 17.7193 81.8154 17.2994 81.8154 16.7815C81.8154 16.2636 82.2404 15.8438 82.7646 15.8438C83.2889 15.8438 83.7139 16.2636 83.7139 16.7815C83.7139 17.2994 83.2889 17.7193 82.7646 17.7193ZM82.7647 17.4846C82.3715 17.4846 82.0528 17.1697 82.0528 16.7813C82.0528 16.3929 82.3715 16.078 82.7647 16.078C83.1579 16.078 83.4766 16.3929 83.4766 16.7813C83.4766 17.1697 83.1579 17.4846 82.7647 17.4846Z" fill="#89898F"/>
<path fill-rule="evenodd" clip-rule="evenodd" d="M82.7646 10.9292C82.2404 10.9292 81.8154 10.5094 81.8154 9.99146C81.8154 9.47356 82.2404 9.05371 82.7646 9.05371C83.2889 9.05371 83.7139 9.47356 83.7139 9.99146C83.7139 10.5094 83.2889 10.9292 82.7646 10.9292ZM82.7647 10.6947C82.3715 10.6947 82.0528 10.3798 82.0528 9.99141C82.0528 9.60298 82.3715 9.2881 82.7647 9.2881C83.1579 9.2881 83.4766 9.60298 83.4766 9.99141C83.4766 10.3798 83.1579 10.6947 82.7647 10.6947Z" fill="#89898F"/>
<path fill-rule="evenodd" clip-rule="evenodd" d="M83.9121 24.6079C83.3878 24.6079 82.9629 24.1881 82.9629 23.6702C82.9629 23.1523 83.3878 22.7324 83.9121 22.7324C84.4363 22.7324 84.8613 23.1523 84.8613 23.6702C84.8613 24.1881 84.4363 24.6079 83.9121 24.6079ZM83.9121 24.3732C83.5189 24.3732 83.2002 24.0583 83.2002 23.6699C83.2002 23.2814 83.5189 22.9665 83.9121 22.9665C84.3053 22.9665 84.624 23.2814 84.624 23.6699C84.624 24.0583 84.3053 24.3732 83.9121 24.3732Z" fill="#89898F"/>
<path fill-rule="evenodd" clip-rule="evenodd" d="M89.0073 37.7661C88.4831 37.7661 88.0581 37.3463 88.0581 36.8284C88.0581 36.3105 88.4831 35.8906 89.0073 35.8906C89.5316 35.8906 89.9565 36.3105 89.9565 36.8284C89.9565 37.3463 89.5316 37.7661 89.0073 37.7661ZM89.0074 37.5314C88.6142 37.5314 88.2954 37.2166 88.2954 36.8281C88.2954 36.4397 88.6142 36.1248 89.0074 36.1248C89.4006 36.1248 89.7193 36.4397 89.7193 36.8281C89.7193 37.2166 89.4006 37.5314 89.0074 37.5314Z" fill="#89898F"/>
<path fill-rule="evenodd" clip-rule="evenodd" d="M82.4348 26.773C81.9105 26.773 81.4856 26.3531 81.4856 25.8352C81.4856 25.3173 81.9105 24.8975 82.4348 24.8975C82.959 24.8975 83.384 25.3173 83.384 25.8352C83.384 26.3531 82.959 26.773 82.4348 26.773ZM82.4348 26.5385C82.0416 26.5385 81.7229 26.2236 81.7229 25.8351C81.7229 25.4467 82.0416 25.1318 82.4348 25.1318C82.828 25.1318 83.1467 25.4467 83.1467 25.8351C83.1467 26.2236 82.828 26.5385 82.4348 26.5385Z" fill="#89898F"/>
<path fill-rule="evenodd" clip-rule="evenodd" d="M89.0073 18.689C88.4831 18.689 88.0581 18.2691 88.0581 17.7512C88.0581 17.2333 88.4831 16.8135 89.0073 16.8135C89.5316 16.8135 89.9565 17.2333 89.9565 17.7512C89.9565 18.2691 89.5316 18.689 89.0073 18.689ZM89.0074 18.4541C88.6142 18.4541 88.2954 18.1392 88.2954 17.7508C88.2954 17.3624 88.6142 17.0475 89.0074 17.0475C89.4006 17.0475 89.7193 17.3624 89.7193 17.7508C89.7193 18.1392 89.4006 18.4541 89.0074 18.4541Z" fill="#89898F"/>
<path fill-rule="evenodd" clip-rule="evenodd" d="M92.6218 19.6597C92.0976 19.6597 91.6726 19.2398 91.6726 18.7219C91.6726 18.204 92.0976 17.7842 92.6218 17.7842C93.1461 17.7842 93.571 18.204 93.571 18.7219C93.571 19.2398 93.1461 19.6597 92.6218 19.6597ZM92.6218 19.4251C92.2286 19.4251 91.9099 19.1102 91.9099 18.7217C91.9099 18.3333 92.2286 18.0184 92.6218 18.0184C93.015 18.0184 93.3337 18.3333 93.3337 18.7217C93.3337 19.1102 93.015 19.4251 92.6218 19.4251Z" fill="#89898F"/>
<path fill-rule="evenodd" clip-rule="evenodd" d="M112.965 37.5564C112.204 37.5564 111.587 36.9468 111.587 36.1947C111.587 35.4427 112.204 34.833 112.965 34.833C113.727 34.833 114.344 35.4427 114.344 36.1947C114.344 36.9468 113.727 37.5564 112.965 37.5564ZM112.965 37.2159C112.394 37.2159 111.931 36.7586 111.931 36.1946C111.931 35.6306 112.394 35.1733 112.965 35.1733C113.536 35.1733 113.999 35.6306 113.999 36.1946C113.999 36.7586 113.536 37.2159 112.965 37.2159Z" fill="#89898F"/>
<path fill-rule="evenodd" clip-rule="evenodd" d="M116.188 39.3775C115.664 39.3775 115.239 38.9576 115.239 38.4397C115.239 37.9218 115.664 37.502 116.188 37.502C116.712 37.502 117.137 37.9218 117.137 38.4397C117.137 38.9576 116.712 39.3775 116.188 39.3775ZM116.188 39.1426C115.795 39.1426 115.476 38.8277 115.476 38.4393C115.476 38.0509 115.795 37.736 116.188 37.736C116.581 37.736 116.9 38.0509 116.9 38.4393C116.9 38.8277 116.581 39.1426 116.188 39.1426Z" fill="#89898F"/>
<path fill-rule="evenodd" clip-rule="evenodd" d="M122.851 44.2329C122.327 44.2329 121.902 43.8131 121.902 43.2952C121.902 42.7773 122.327 42.3574 122.851 42.3574C123.376 42.3574 123.801 42.7773 123.801 43.2952C123.801 43.8131 123.376 44.2329 122.851 44.2329ZM122.851 43.9981C122.458 43.9981 122.139 43.6832 122.139 43.2948C122.139 42.9064 122.458 42.5915 122.851 42.5915C123.245 42.5915 123.563 42.9064 123.563 43.2948C123.563 43.6832 123.245 43.9981 122.851 43.9981Z" fill="#89898F"/>
<path fill-rule="evenodd" clip-rule="evenodd" d="M86.0493 44.2329C85.525 44.2329 85.1001 43.8131 85.1001 43.2952C85.1001 42.7773 85.525 42.3574 86.0493 42.3574C86.5735 42.3574 86.9985 42.7773 86.9985 43.2952C86.9985 43.8131 86.5735 44.2329 86.0493 44.2329ZM86.0494 43.9981C85.6562 43.9981 85.3374 43.6832 85.3374 43.2948C85.3374 42.9064 85.6562 42.5915 86.0494 42.5915C86.4426 42.5915 86.7613 42.9064 86.7613 43.2948C86.7613 43.6832 86.4426 43.9981 86.0494 43.9981Z" fill="#89898F"/>
<path fill-rule="evenodd" clip-rule="evenodd" d="M119.747 41.9556C119.223 41.9556 118.798 41.5357 118.798 41.0178C118.798 40.4999 119.223 40.0801 119.747 40.0801C120.271 40.0801 120.696 40.4999 120.696 41.0178C120.696 41.5357 120.271 41.9556 119.747 41.9556ZM119.747 41.7211C119.354 41.7211 119.035 41.4062 119.035 41.0178C119.035 40.6293 119.354 40.3145 119.747 40.3145C120.14 40.3145 120.459 40.6293 120.459 41.0178C120.459 41.4062 120.14 41.7211 119.747 41.7211Z" fill="#89898F"/>
<path fill-rule="evenodd" clip-rule="evenodd" d="M100.049 57.898C99.525 57.898 99.1001 57.4781 99.1001 56.9602C99.1001 56.4423 99.525 56.0225 100.049 56.0225C100.574 56.0225 100.999 56.4423 100.999 56.9602C100.999 57.4781 100.574 57.898 100.049 57.898ZM100.049 57.6631C99.6562 57.6631 99.3374 57.3482 99.3374 56.9598C99.3374 56.5714 99.6562 56.2565 100.049 56.2565C100.443 56.2565 100.761 56.5714 100.761 56.9598C100.761 57.3482 100.443 57.6631 100.049 57.6631Z" fill="#89898F"/>
<path fill-rule="evenodd" clip-rule="evenodd" d="M125.441 58.2202C124.917 58.2202 124.492 57.8004 124.492 57.2825C124.492 56.7646 124.917 56.3447 125.441 56.3447C125.965 56.3447 126.39 56.7646 126.39 57.2825C126.39 57.8004 125.965 58.2202 125.441 58.2202ZM125.441 57.9857C125.048 57.9857 124.729 57.6709 124.729 57.2824C124.729 56.894 125.048 56.5791 125.441 56.5791C125.834 56.5791 126.153 56.894 126.153 57.2824C126.153 57.6709 125.834 57.9857 125.441 57.9857Z" fill="#89898F"/>
<path fill-rule="evenodd" clip-rule="evenodd" d="M103.501 17.4681C102.956 17.4681 102.515 17.0321 102.515 16.4943C102.515 15.9565 102.956 15.5205 103.501 15.5205C104.045 15.5205 104.487 15.9565 104.487 16.4943C104.487 17.0321 104.045 17.4681 103.501 17.4681ZM103.502 17.2247C103.093 17.2247 102.762 16.8978 102.762 16.4944C102.762 16.091 103.093 15.7641 103.502 15.7641C103.91 15.7641 104.241 16.091 104.241 16.4944C104.241 16.8978 103.91 17.2247 103.502 17.2247Z" fill="#89898F"/>
<path fill-rule="evenodd" clip-rule="evenodd" d="M94.6298 17.4681C94.0854 17.4681 93.644 17.0321 93.644 16.4943C93.644 15.9565 94.0854 15.5205 94.6298 15.5205C95.1742 15.5205 95.6155 15.9565 95.6155 16.4943C95.6155 17.0321 95.1742 17.4681 94.6298 17.4681ZM94.6289 17.2247C94.2206 17.2247 93.8896 16.8978 93.8896 16.4944C93.8896 16.091 94.2206 15.7641 94.6289 15.7641C95.0372 15.7641 95.3682 16.091 95.3682 16.4944C95.3682 16.8978 95.0372 17.2247 94.6289 17.2247Z" fill="#89898F"/>
<path fill-rule="evenodd" clip-rule="evenodd" d="M16.4139 104.581C16.8744 104.581 17.2477 104.214 17.2477 103.761C17.2477 103.308 16.8744 102.94 16.4139 102.94C15.9534 102.94 15.5801 103.308 15.5801 103.761C15.5801 104.214 15.9534 104.581 16.4139 104.581ZM16.4141 104.377C16.7595 104.377 17.0395 104.101 17.0395 103.761C17.0395 103.421 16.7595 103.146 16.4141 103.146C16.0687 103.146 15.7888 103.421 15.7888 103.761C15.7888 104.101 16.0687 104.377 16.4141 104.377Z" fill="#89898F"/>
<path fill-rule="evenodd" clip-rule="evenodd" d="M16.413 105.402C17.334 105.402 18.0806 104.668 18.0806 103.761C18.0806 102.855 17.334 102.12 16.413 102.12C15.492 102.12 14.7454 102.855 14.7454 103.761C14.7454 104.668 15.492 105.402 16.413 105.402ZM16.4117 104.992C17.1024 104.992 17.6624 104.441 17.6624 103.761C17.6624 103.081 17.1024 102.53 16.4117 102.53C15.7209 102.53 15.1609 103.081 15.1609 103.761C15.1609 104.441 15.7209 104.992 16.4117 104.992Z" fill="#89898F"/>
<path fill-rule="evenodd" clip-rule="evenodd" d="M34.9954 120.171C35.5217 120.171 35.9483 119.752 35.9483 119.234C35.9483 118.716 35.5217 118.296 34.9954 118.296C34.4691 118.296 34.0425 118.716 34.0425 119.234C34.0425 119.752 34.4691 120.171 34.9954 120.171ZM34.9945 119.937C35.3892 119.937 35.7092 119.622 35.7092 119.233C35.7092 118.845 35.3892 118.53 34.9945 118.53C34.5998 118.53 34.2798 118.845 34.2798 119.233C34.2798 119.622 34.5998 119.937 34.9945 119.937Z" fill="#89898F"/>
<path fill-rule="evenodd" clip-rule="evenodd" d="M11.2527 110.326C11.779 110.326 12.2057 109.906 12.2057 109.388C12.2057 108.87 11.779 108.45 11.2527 108.45C10.7264 108.45 10.2998 108.87 10.2998 109.388C10.2998 109.906 10.7264 110.326 11.2527 110.326ZM11.2517 110.091C11.6465 110.091 11.9664 109.776 11.9664 109.388C11.9664 108.999 11.6465 108.684 11.2517 108.684C10.857 108.684 10.537 108.999 10.537 109.388C10.537 109.776 10.857 110.091 11.2517 110.091Z" fill="#89898F"/>
<path fill-rule="evenodd" clip-rule="evenodd" d="M32.4966 130.565C33.0229 130.565 33.4496 130.145 33.4496 129.627C33.4496 129.109 33.0229 128.689 32.4966 128.689C31.9703 128.689 31.5437 129.109 31.5437 129.627C31.5437 130.145 31.9703 130.565 32.4966 130.565ZM32.4956 130.33C32.8904 130.33 33.2103 130.016 33.2103 129.627C33.2103 129.239 32.8904 128.924 32.4956 128.924C32.1009 128.924 31.7809 129.239 31.7809 129.627C31.7809 130.016 32.1009 130.33 32.4956 130.33Z" fill="#89898F"/>
<path fill-rule="evenodd" clip-rule="evenodd" d="M34.4688 132.505C34.9951 132.505 35.4217 132.086 35.4217 131.568C35.4217 131.05 34.9951 130.63 34.4688 130.63C33.9425 130.63 33.5159 131.05 33.5159 131.568C33.5159 132.086 33.9425 132.505 34.4688 132.505ZM34.4678 132.271C34.8625 132.271 35.1825 131.956 35.1825 131.568C35.1825 131.179 34.8625 130.864 34.4678 130.864C34.0731 130.864 33.7531 131.179 33.7531 131.568C33.7531 131.956 34.0731 132.271 34.4678 132.271Z" fill="#89898F"/>
<path fill-rule="evenodd" clip-rule="evenodd" d="M36.4393 134.445C36.9655 134.445 37.3922 134.025 37.3922 133.507C37.3922 132.989 36.9655 132.569 36.4393 132.569C35.913 132.569 35.4863 132.989 35.4863 133.507C35.4863 134.025 35.913 134.445 36.4393 134.445ZM36.4383 134.21C36.833 134.21 37.153 133.895 37.153 133.507C37.153 133.119 36.833 132.804 36.4383 132.804C36.0436 132.804 35.7236 133.119 35.7236 133.507C35.7236 133.895 36.0436 134.21 36.4383 134.21Z" fill="#89898F"/>
<path fill-rule="evenodd" clip-rule="evenodd" d="M38.4114 136.385C38.9377 136.385 39.3644 135.965 39.3644 135.448C39.3644 134.93 38.9377 134.51 38.4114 134.51C37.8851 134.51 37.4585 134.93 37.4585 135.448C37.4585 135.965 37.8851 136.385 38.4114 136.385ZM38.4104 136.151C38.8052 136.151 39.1251 135.836 39.1251 135.447C39.1251 135.059 38.8052 134.744 38.4104 134.744C38.0157 134.744 37.6957 135.059 37.6957 135.447C37.6957 135.836 38.0157 136.151 38.4104 136.151Z" fill="#89898F"/>
<path fill-rule="evenodd" clip-rule="evenodd" d="M38.4114 131.859C38.9377 131.859 39.3644 131.439 39.3644 130.921C39.3644 130.403 38.9377 129.983 38.4114 129.983C37.8851 129.983 37.4585 130.403 37.4585 130.921C37.4585 131.439 37.8851 131.859 38.4114 131.859ZM38.4104 131.624C38.8052 131.624 39.1251 131.309 39.1251 130.921C39.1251 130.532 38.8052 130.217 38.4104 130.217C38.0157 130.217 37.6957 130.532 37.6957 130.921C37.6957 131.309 38.0157 131.624 38.4104 131.624Z" fill="#89898F"/>
<path d="M6.4066 77.6099H36.5427M61.3189 74.3277H50.3602L45.3573 79.2509M61.3189 72.8039H49.2881L42.8559 79.1337H40.4735L46.9058 72.8039H1.14941V74.3277H40.9069M54.5293 101.523V102.929L47.6205 109.728V101.523M28.7496 21.0171H40.9069M64.7733 62.0167V18.297L62.7483 16.3043M60.1277 103.631V149.383M61.9145 105.732V148.898M61.3189 3.07168V11.4983M24.1496 30.605H44.8808L59.0557 16.656V49.7117H6.4066M25.2996 28.3779H44.6426L56.2297 16.9753M27.5996 26.6196H44.047L52.9807 17.8281M29.0782 24.7441H43.4514L49.7646 18.5315M27.5996 22.8686H42.7367L46.072 19.5864M57.8645 3.07168V14.6632H32.0354M55.3631 11.8019V1.77832L52.9807 1.77832V11.4983H44.1926M63.3439 62.0167V50.7667L61.3189 48.774V62.0167M57.9091 64.0125H54.5293L42.1412 51.8217H5.91374M57.7474 65.6535H54.5293M5.0923 54.2833H41.3073L54.1719 66.9429H61.3189M43.4514 49.7117L55.2439 61.3164H58.2219L58.9366 60.6131V51.8217L56.6733 54.0488M40.9069 17.8281H32.0354M46.7867 49.7117L49.9921 52.8661M49.7646 49.7117L51.6705 51.5872M61.3189 68.584H53.8146M4.43515 58.7376H43.8088L39.2824 54.2833M8.37804 56.5845H38.2783M64.0586 81.7125V95.7788L58.2219 101.523M58.2219 101.523H11.1709V99.1038M58.2219 101.523L32.3736 126.49V118.05L42.2603 108.321V101.523H43.3323M62.6292 81.7125V95.0755L57.6263 99.9987H21.1767L15.4591 94.3722V89.2419M17.8414 89.2419V93.7861L22.1296 98.006H56.7925V95.7788H24.7502M22.1781 33.5355H45.3573L54.6484 24.3924M57.1713 26.1905V47.8543H11.1709L13.9638 45.3746H55.3631V27.909L46.7867 36.3488H26.9425M60.9615 81.7125V91.5589M42.7367 116.48V148.664L44.5235 148.898V119.223L57.1498 106.797L57.6641 149.383H54.8866V111.44M63.8203 108.907V147.12M46.3102 149.383L46.4293 120.395L51.194 115.706L53.3381 117.816V149.383H51.194V119.223M48.6926 149.383V120.746M48.2998 43.4991H13.6352M19.9855 41.3892H52.7425L55.3631 38.8104M55.3631 35.1766L51.6705 38.8104H23.559M38.4426 130.241V120.628M21.4149 101.523V103.046L17.8414 106.563H13.3067M25.7031 101.523V103.046L19.1517 109.493H11.9924M27.8472 101.523V103.164L10.3371 120.395M29.8722 101.523V103.164L20.462 112.424V130.241M32.3736 101.523V103.75L22.8443 113.127V128.689L24.6311 130.791V113.948L34.1604 104.57V101.523H36.3045V105.508L26.7752 114.886V137.096M38.6868 101.523V106.797L29.0384 116.292V139.198M44.7617 101.523V109.728L35.5898 118.754M57.9091 79.0165H53.4572L45.1191 87.2218H1.14941M54.8866 80.7748L46.164 89.3584M20.3429 89.449V92.0278H47.0249L56.5542 82.6503L59.0557 85.1119V93.9033H48.9308L56.5542 86.4013V89.449M61.3189 69.8734H53.5763L45.2382 61.6681H4.43515M61.3189 71.1628H1.14941M1.14941 69.4045H50.4793L44.4044 63.4263H1.47799M1.14941 67.4118H43.2069M57.9091 77.6099H52.8616L44.6426 85.698H1.14941M61.3189 75.9688H51.6705L43.8088 83.7052H1.14941M1.47799 81.7125H41.9029" stroke="#858D8E" stroke-width="0.6"/>
<path d="M1.64233 65.4766L40.2498 65.4766" stroke="#89898F" stroke-width="0.6"/>
<path fill-rule="evenodd" clip-rule="evenodd" d="M60.961 93.2114C61.4873 93.2114 61.9139 92.7916 61.9139 92.2737C61.9139 91.7558 61.4873 91.3359 60.961 91.3359C60.4347 91.3359 60.0081 91.7558 60.0081 92.2737C60.0081 92.7916 60.4347 93.2114 60.961 93.2114ZM60.9601 92.9769C61.3548 92.9769 61.6748 92.662 61.6748 92.2736C61.6748 91.8852 61.3548 91.5703 60.9601 91.5703C60.5653 91.5703 60.2454 91.8852 60.2454 92.2736C60.2454 92.662 60.5653 92.9769 60.9601 92.9769Z" fill="#89898F"/>
<path fill-rule="evenodd" clip-rule="evenodd" d="M55.4839 81.2554C56.0102 81.2554 56.4369 80.8355 56.4369 80.3176C56.4369 79.7997 56.0102 79.3799 55.4839 79.3799C54.9576 79.3799 54.531 79.7997 54.531 80.3176C54.531 80.8355 54.9576 81.2554 55.4839 81.2554ZM55.4829 81.0207C55.8777 81.0207 56.1976 80.7058 56.1976 80.3174C56.1976 79.9289 55.8777 79.6141 55.4829 79.6141C55.0882 79.6141 54.7682 79.9289 54.7682 80.3174C54.7682 80.7058 55.0882 81.0207 55.4829 81.0207Z" fill="#89898F"/>
<path fill-rule="evenodd" clip-rule="evenodd" d="M56.5533 92.5088C57.5401 92.5088 58.3401 91.7215 58.3401 90.7505C58.3401 89.7794 57.5401 88.9922 56.5533 88.9922C55.5666 88.9922 54.7666 89.7794 54.7666 90.7505C54.7666 91.7215 55.5666 92.5088 56.5533 92.5088ZM56.5526 92.0691C57.2927 92.0691 57.8926 91.4787 57.8926 90.7504C57.8926 90.0221 57.2927 89.4317 56.5526 89.4317C55.8125 89.4317 55.2125 90.0221 55.2125 90.7504C55.2125 91.4787 55.8125 92.0691 56.5526 92.0691Z" fill="#89898F"/>
<path fill-rule="evenodd" clip-rule="evenodd" d="M24.0359 96.4946C24.5622 96.4946 24.9889 96.0748 24.9889 95.5569C24.9889 95.039 24.5622 94.6191 24.0359 94.6191C23.5096 94.6191 23.083 95.039 23.083 95.5569C23.083 96.0748 23.5096 96.4946 24.0359 96.4946ZM24.0367 96.2598C24.4314 96.2598 24.7514 95.945 24.7514 95.5565C24.7514 95.1681 24.4314 94.8532 24.0367 94.8532C23.6419 94.8532 23.322 95.1681 23.322 95.5565C23.322 95.945 23.6419 96.2598 24.0367 96.2598Z" fill="#89898F"/>
<path fill-rule="evenodd" clip-rule="evenodd" d="M42.618 82.4273C43.1443 82.4273 43.5709 82.0074 43.5709 81.4895C43.5709 80.9716 43.1443 80.5518 42.618 80.5518C42.0917 80.5518 41.665 80.9716 41.665 81.4895C41.665 82.0074 42.0917 82.4273 42.618 82.4273ZM42.617 82.1925C43.0117 82.1925 43.3317 81.8776 43.3317 81.4892C43.3317 81.1008 43.0117 80.7859 42.617 80.7859C42.2223 80.7859 41.9023 81.1008 41.9023 81.4892C41.9023 81.8776 42.2223 82.1925 42.617 82.1925Z" fill="#89898F"/>
<path fill-rule="evenodd" clip-rule="evenodd" d="M37.9891 78.6441C38.5154 78.6441 38.942 78.2242 38.942 77.7063C38.942 77.1884 38.5154 76.7686 37.9891 76.7686C37.4628 76.7686 37.0361 77.1884 37.0361 77.7063C37.0361 78.2242 37.4628 78.6441 37.9891 78.6441ZM37.9881 78.4094C38.3828 78.4094 38.7028 78.0945 38.7028 77.706C38.7028 77.3176 38.3828 77.0027 37.9881 77.0027C37.5934 77.0027 37.2734 77.3176 37.2734 77.706C37.2734 78.0945 37.5934 78.4094 37.9881 78.4094Z" fill="#89898F"/>
<path fill-rule="evenodd" clip-rule="evenodd" d="M37.9879 79.5821C39.0405 79.5821 39.8938 78.7424 39.8938 77.7066C39.8938 76.6707 39.0405 75.8311 37.9879 75.8311C36.9353 75.8311 36.082 76.6707 36.082 77.7066C36.082 78.7424 36.9353 79.5821 37.9879 79.5821ZM37.9876 79.1134C38.7771 79.1134 39.417 78.4836 39.417 77.7068C39.417 76.9299 38.7771 76.3001 37.9876 76.3001C37.1982 76.3001 36.5582 76.9299 36.5582 77.7068C36.5582 78.4836 37.1982 79.1134 37.9876 79.1134Z" fill="#89898F"/>
<path fill-rule="evenodd" clip-rule="evenodd" d="M4.75908 78.6441C5.28537 78.6441 5.71201 78.2242 5.71201 77.7063C5.71201 77.1884 5.28537 76.7686 4.75908 76.7686C4.23279 76.7686 3.80615 77.1884 3.80615 77.7063C3.80615 78.2242 4.23279 78.6441 4.75908 78.6441ZM4.75974 78.4094C5.15446 78.4094 5.47444 78.0945 5.47444 77.706C5.47444 77.3176 5.15446 77.0027 4.75974 77.0027C4.36503 77.0027 4.04504 77.3176 4.04504 77.706C4.04504 78.0945 4.36503 78.4094 4.75974 78.4094Z" fill="#89898F"/>
<path fill-rule="evenodd" clip-rule="evenodd" d="M4.75962 79.5821C5.8122 79.5821 6.66548 78.7424 6.66548 77.7066C6.66548 76.6707 5.8122 75.8311 4.75962 75.8311C3.70704 75.8311 2.85376 76.6707 2.85376 77.7066C2.85376 78.7424 3.70704 79.5821 4.75962 79.5821ZM4.75935 79.1134C5.54879 79.1134 6.18875 78.4836 6.18875 77.7068C6.18875 76.9299 5.54879 76.3001 4.75935 76.3001C3.96992 76.3001 3.32996 76.9299 3.32996 77.7068C3.32996 78.4836 3.96992 79.1134 4.75935 79.1134Z" fill="#89898F"/>
<path fill-rule="evenodd" clip-rule="evenodd" d="M11.1715 97.9715C11.8973 97.9715 12.4858 97.3924 12.4858 96.6781C12.4858 95.9638 11.8973 95.3848 11.1715 95.3848C10.4456 95.3848 9.85718 95.9638 9.85718 96.6781C9.85718 97.3924 10.4456 97.9715 11.1715 97.9715ZM11.171 97.648C11.7154 97.648 12.1567 97.2137 12.1567 96.678C12.1567 96.1423 11.7154 95.708 11.171 95.708C10.6266 95.708 10.1853 96.1423 10.1853 96.678C10.1853 97.2137 10.6266 97.648 11.171 97.648Z" fill="#89898F"/>
<path fill-rule="evenodd" clip-rule="evenodd" d="M11.1716 99.2652C12.6233 99.2652 13.8002 98.1071 13.8002 96.6785C13.8002 95.2499 12.6233 94.0918 11.1716 94.0918C9.71983 94.0918 8.54297 95.2499 8.54297 96.6785C8.54297 98.1071 9.71983 99.2652 11.1716 99.2652ZM11.1707 98.6187C12.2595 98.6187 13.1421 97.7502 13.1421 96.6787C13.1421 95.6072 12.2595 94.7387 11.1707 94.7387C10.0819 94.7387 9.19922 95.6072 9.19922 96.6787C9.19922 97.7502 10.0819 98.6187 11.1707 98.6187Z" fill="#89898F"/>
<path fill-rule="evenodd" clip-rule="evenodd" d="M16.43 121.576C17.1559 121.576 17.7443 120.997 17.7443 120.283C17.7443 119.568 17.1559 118.989 16.43 118.989C15.7042 118.989 15.1157 119.568 15.1157 120.283C15.1157 120.997 15.7042 121.576 16.43 121.576ZM16.4296 121.252C16.974 121.252 17.4153 120.818 17.4153 120.282C17.4153 119.746 16.974 119.312 16.4296 119.312C15.8852 119.312 15.4438 119.746 15.4438 120.282C15.4438 120.818 15.8852 121.252 16.4296 121.252Z" fill="#89898F"/>
<path fill-rule="evenodd" clip-rule="evenodd" d="M16.4301 122.87C17.8818 122.87 19.0587 121.712 19.0587 120.283C19.0587 118.854 17.8818 117.696 16.4301 117.696C14.9784 117.696 13.8015 118.854 13.8015 120.283C13.8015 121.712 14.9784 122.87 16.4301 122.87ZM16.4291 122.223C17.5179 122.223 18.4006 121.355 18.4006 120.283C18.4006 119.212 17.5179 118.343 16.4291 118.343C15.3403 118.343 14.4577 119.212 14.4577 120.283C14.4577 121.355 15.3403 122.223 16.4291 122.223Z" fill="#89898F"/>
<path fill-rule="evenodd" clip-rule="evenodd" d="M55.0234 56.8757C55.7471 56.8757 56.3337 56.2984 56.3337 55.5863C56.3337 54.8742 55.7471 54.2969 55.0234 54.2969C54.2998 54.2969 53.7131 54.8742 53.7131 55.5863C53.7131 56.2984 54.2998 56.8757 55.0234 56.8757ZM55.024 56.5533C55.5667 56.5533 56.0067 56.1203 56.0067 55.5862C56.0067 55.0521 55.5667 54.6192 55.024 54.6192C54.4812 54.6192 54.0413 55.0521 54.0413 55.5862C54.0413 56.1203 54.4812 56.5533 55.024 56.5533Z" fill="#89898F"/>
<path fill-rule="evenodd" clip-rule="evenodd" d="M55.0246 58.1655C56.4719 58.1655 57.6452 57.0109 57.6452 55.5866C57.6452 54.1624 56.4719 53.0078 55.0246 53.0078C53.5773 53.0078 52.4041 54.1624 52.4041 55.5866C52.4041 57.0109 53.5773 58.1655 55.0246 58.1655ZM55.0243 57.6967C56.2085 57.6967 57.1684 56.752 57.1684 55.5867C57.1684 54.4214 56.2085 53.4768 55.0243 53.4768C53.8402 53.4768 52.8802 54.4214 52.8802 55.5867C52.8802 56.752 53.8402 57.6967 55.0243 57.6967Z" fill="#89898F"/>
<path fill-rule="evenodd" clip-rule="evenodd" d="M42.6922 12.0962C43.2185 12.0962 43.6451 11.6764 43.6451 11.1585C43.6451 10.6405 43.2185 10.2207 42.6922 10.2207C42.1659 10.2207 41.7393 10.6405 41.7393 11.1585C41.7393 11.6764 42.1659 12.0962 42.6922 12.0962ZM42.6912 11.8615C43.0859 11.8615 43.4059 11.5466 43.4059 11.1581C43.4059 10.7697 43.0859 10.4548 42.6912 10.4548C42.2965 10.4548 41.9765 10.7697 41.9765 11.1581C41.9765 11.5466 42.2965 11.8615 42.6912 11.8615Z" fill="#89898F"/>
<path fill-rule="evenodd" clip-rule="evenodd" d="M42.691 13.0342C43.7436 13.0342 44.5969 12.1945 44.5969 11.1587C44.5969 10.1229 43.7436 9.2832 42.691 9.2832C41.6384 9.2832 40.7852 10.1229 40.7852 11.1587C40.7852 12.1945 41.6384 13.0342 42.691 13.0342ZM42.6907 12.5654C43.4802 12.5654 44.1201 11.9357 44.1201 11.1588C44.1201 10.3819 43.4802 9.75218 42.6907 9.75218C41.9013 9.75218 41.2614 10.3819 41.2614 11.1588C41.2614 11.9357 41.9013 12.5654 42.6907 12.5654Z" fill="#89898F"/>
<path fill-rule="evenodd" clip-rule="evenodd" d="M62.2432 16.7847C62.7695 16.7847 63.1961 16.3648 63.1961 15.8469C63.1961 15.329 62.7695 14.9092 62.2432 14.9092C61.7169 14.9092 61.2903 15.329 61.2903 15.8469C61.2903 16.3648 61.7169 16.7847 62.2432 16.7847ZM62.2439 16.55C62.6387 16.55 62.9586 16.2351 62.9586 15.8467C62.9586 15.4583 62.6387 15.1434 62.2439 15.1434C61.8492 15.1434 61.5292 15.4583 61.5292 15.8467C61.5292 16.2351 61.8492 16.55 62.2439 16.55Z" fill="#89898F"/>
<path fill-rule="evenodd" clip-rule="evenodd" d="M53.5757 18.2808C54.102 18.2808 54.5287 17.8609 54.5287 17.343C54.5287 16.8251 54.102 16.4053 53.5757 16.4053C53.0494 16.4053 52.6228 16.8251 52.6228 17.343C52.6228 17.8609 53.0494 18.2808 53.5757 18.2808ZM53.5748 18.0463C53.9695 18.0463 54.2895 17.7314 54.2895 17.343C54.2895 16.9545 53.9695 16.6397 53.5748 16.6397C53.1801 16.6397 52.8601 16.9545 52.8601 17.343C52.8601 17.7314 53.1801 18.0463 53.5748 18.0463Z" fill="#89898F"/>
<path fill-rule="evenodd" clip-rule="evenodd" d="M56.8116 17.396C57.3379 17.396 57.7645 16.9762 57.7645 16.4583C57.7645 15.9404 57.3379 15.5205 56.8116 15.5205C56.2853 15.5205 55.8586 15.9404 55.8586 16.4583C55.8586 16.9762 56.2853 17.396 56.8116 17.396ZM56.8106 17.1614C57.2053 17.1614 57.5253 16.8465 57.5253 16.4581C57.5253 16.0697 57.2053 15.7548 56.8106 15.7548C56.4159 15.7548 56.0959 16.0697 56.0959 16.4581C56.0959 16.8465 56.4159 17.1614 56.8106 17.1614Z" fill="#89898F"/>
<path fill-rule="evenodd" clip-rule="evenodd" d="M55.2449 24.7554C55.7712 24.7554 56.1979 24.3355 56.1979 23.8176C56.1979 23.2997 55.7712 22.8799 55.2449 22.8799C54.7186 22.8799 54.292 23.2997 54.292 23.8176C54.292 24.3355 54.7186 24.7554 55.2449 24.7554ZM55.2439 24.5208C55.6387 24.5208 55.9586 24.2059 55.9586 23.8175C55.9586 23.4291 55.6387 23.1142 55.2439 23.1142C54.8492 23.1142 54.5292 23.4291 54.5292 23.8175C54.5292 24.2059 54.8492 24.5208 55.2439 24.5208Z" fill="#89898F"/>
<path fill-rule="evenodd" clip-rule="evenodd" d="M48.9246 44.5562C49.4509 44.5562 49.8775 44.1363 49.8775 43.6184C49.8775 43.1005 49.4509 42.6807 48.9246 42.6807C48.3983 42.6807 47.9717 43.1005 47.9717 43.6184C47.9717 44.1363 48.3983 44.5562 48.9246 44.5562ZM48.9253 44.3213C49.32 44.3213 49.64 44.0064 49.64 43.618C49.64 43.2296 49.32 42.9147 48.9253 42.9147C48.5306 42.9147 48.2106 43.2296 48.2106 43.618C48.2106 44.0064 48.5306 44.3213 48.9253 44.3213Z" fill="#89898F"/>
<path fill-rule="evenodd" clip-rule="evenodd" d="M50.5687 54.2564C51.0949 54.2564 51.5216 53.8365 51.5216 53.3186C51.5216 52.8007 51.0949 52.3809 50.5687 52.3809C50.0424 52.3809 49.6157 52.8007 49.6157 53.3186C49.6157 53.8365 50.0424 54.2564 50.5687 54.2564ZM50.5694 54.0215C50.9641 54.0215 51.2841 53.7067 51.2841 53.3182C51.2841 52.9298 50.9641 52.6149 50.5694 52.6149C50.1747 52.6149 49.8547 52.9298 49.8547 53.3182C49.8547 53.7067 50.1747 54.0215 50.5694 54.0215Z" fill="#89898F"/>
<path fill-rule="evenodd" clip-rule="evenodd" d="M52.211 52.9634C52.7373 52.9634 53.1639 52.5435 53.1639 52.0256C53.1639 51.5077 52.7373 51.0879 52.211 51.0879C51.6847 51.0879 51.2581 51.5077 51.2581 52.0256C51.2581 52.5435 51.6847 52.9634 52.211 52.9634ZM52.21 52.7288C52.6047 52.7288 52.9247 52.414 52.9247 52.0255C52.9247 51.6371 52.6047 51.3222 52.21 51.3222C51.8153 51.3222 51.4953 51.6371 51.4953 52.0255C51.4953 52.414 51.8153 52.7288 52.21 52.7288Z" fill="#89898F"/>
<path fill-rule="evenodd" clip-rule="evenodd" d="M57.1397 26.4497C57.666 26.4497 58.0926 26.0299 58.0926 25.512C58.0926 24.9941 57.666 24.5742 57.1397 24.5742C56.6134 24.5742 56.1868 24.9941 56.1868 25.512C56.1868 26.0299 56.6134 26.4497 57.1397 26.4497ZM57.1387 26.2149C57.5334 26.2149 57.8534 25.9 57.8534 25.5116C57.8534 25.1232 57.5334 24.8083 57.1387 24.8083C56.744 24.8083 56.424 25.1232 56.424 25.5116C56.424 25.9 56.744 26.2149 57.1387 26.2149Z" fill="#89898F"/>
<path fill-rule="evenodd" clip-rule="evenodd" d="M50.2405 18.9839C50.7668 18.9839 51.1935 18.5641 51.1935 18.0462C51.1935 17.5282 50.7668 17.1084 50.2405 17.1084C49.7142 17.1084 49.2876 17.5282 49.2876 18.0462C49.2876 18.5641 49.7142 18.9839 50.2405 18.9839ZM50.2395 18.7494C50.6343 18.7494 50.9542 18.4345 50.9542 18.0461C50.9542 17.6577 50.6343 17.3428 50.2395 17.3428C49.8448 17.3428 49.5248 17.6577 49.5248 18.0461C49.5248 18.4345 49.8448 18.7494 50.2395 18.7494Z" fill="#89898F"/>
<path fill-rule="evenodd" clip-rule="evenodd" d="M46.6666 19.8325C47.1928 19.8325 47.6195 19.4127 47.6195 18.8948C47.6195 18.3769 47.1928 17.957 46.6666 17.957C46.1403 17.957 45.7136 18.3769 45.7136 18.8948C45.7136 19.4127 46.1403 19.8325 46.6666 19.8325ZM46.6656 19.5977C47.0603 19.5977 47.3803 19.2828 47.3803 18.8944C47.3803 18.506 47.0603 18.1911 46.6656 18.1911C46.2708 18.1911 45.9509 18.506 45.9509 18.8944C45.9509 19.2828 46.2708 19.5977 46.6656 19.5977Z" fill="#89898F"/>
<path d="M58.7489 2.23072C58.7489 2.74863 58.3222 3.16847 57.7959 3.16847C57.2697 3.16847 56.843 2.74863 56.843 2.23072C56.843 1.71281 57.2697 1.29297 57.7959 1.29297C58.3222 1.29297 58.7489 1.71281 58.7489 2.23072Z" fill="#89898F"/>
<path d="M56.5146 12.4481C56.5146 13.0731 55.9997 13.5798 55.3646 13.5798C54.7295 13.5798 54.2146 13.0731 54.2146 12.4481C54.2146 11.8231 54.7295 11.3164 55.3646 11.3164C55.9997 11.3164 56.5146 11.8231 56.5146 12.4481Z" fill="#89898F"/>
<path d="M62.4294 12.4481C62.4294 13.0731 61.9145 13.5798 61.2794 13.5798C60.6443 13.5798 60.1294 13.0731 60.1294 12.4481C60.1294 11.8231 60.6443 11.3164 61.2794 11.3164C61.9145 11.3164 62.4294 11.8231 62.4294 12.4481Z" fill="#89898F"/>
<path d="M62.4294 20.2088C62.4294 20.8339 61.9145 21.3405 61.2794 21.3405C60.6443 21.3405 60.1294 20.8339 60.1294 20.2088C60.1294 19.5838 60.6443 19.0771 61.2794 19.0771C61.9145 19.0771 62.4294 19.5838 62.4294 20.2088Z" fill="#89898F"/>
<path d="M62.4294 45.7528C62.4294 46.3778 61.9145 46.8845 61.2794 46.8845C60.6443 46.8845 60.1294 46.3778 60.1294 45.7528C60.1294 45.1278 60.6443 44.6211 61.2794 44.6211C61.9145 44.6211 62.4294 45.1278 62.4294 45.7528Z" fill="#89898F"/>
<path d="M73.5359 3.71851C73.5359 4.16495 73.1682 4.52686 72.7145 4.52686C72.2608 4.52686 71.8931 4.16495 71.8931 3.71851C71.8931 3.27207 72.2608 2.91016 72.7145 2.91016C73.1682 2.91016 73.5359 3.27207 73.5359 3.71851Z" fill="#89898F"/>
<path d="M75.242 2.10132C75.242 2.54776 74.8742 2.90967 74.4206 2.90967C73.9669 2.90967 73.5991 2.54776 73.5991 2.10132C73.5991 1.65488 73.9669 1.29297 74.4206 1.29297C74.8742 1.29297 75.242 1.65488 75.242 2.10132Z" fill="#89898F"/>
<path d="M107.116 14.5501C107.116 15.0858 106.675 15.5201 106.13 15.5201C105.586 15.5201 105.145 15.0858 105.145 14.5501C105.145 14.0144 105.586 13.5801 106.13 13.5801C106.675 13.5801 107.116 14.0144 107.116 14.5501Z" fill="#89898F"/>
<path d="M109.743 22.6341C109.743 23.1698 109.301 23.6041 108.757 23.6041C108.213 23.6041 107.771 23.1698 107.771 22.6341C107.771 22.0984 108.213 21.6641 108.757 21.6641C109.301 21.6641 109.743 22.0984 109.743 22.6341Z" fill="#89898F"/>
<path d="M106.458 20.0472C106.458 20.5829 106.017 21.0172 105.472 21.0172C104.928 21.0172 104.487 20.5829 104.487 20.0472C104.487 19.5114 104.928 19.0771 105.472 19.0771C106.017 19.0771 106.458 19.5114 106.458 20.0472Z" fill="#89898F"/>
<path d="M88.0579 51.7347C88.0579 52.2704 87.6165 52.7047 87.0721 52.7047C86.5277 52.7047 86.0864 52.2704 86.0864 51.7347C86.0864 51.1989 86.5277 50.7646 87.0721 50.7646C87.6165 50.7646 88.0579 51.1989 88.0579 51.7347Z" fill="#89898F"/>
<path d="M88.7158 53.9974C88.7158 54.5331 88.2745 54.9674 87.7301 54.9674C87.1857 54.9674 86.7444 54.5331 86.7444 53.9974C86.7444 53.4616 87.1857 53.0273 87.7301 53.0273C88.2745 53.0273 88.7158 53.4616 88.7158 53.9974Z" fill="#89898F"/>
<path d="M97.5869 64.9915C97.5869 65.5272 97.1456 65.9615 96.6012 65.9615C96.0568 65.9615 95.6155 65.5272 95.6155 64.9915C95.6155 64.4558 96.0568 64.0215 96.6012 64.0215C97.1456 64.0215 97.5869 64.4558 97.5869 64.9915Z" fill="#89898F"/>
<path d="M94.6304 67.2552C94.6304 67.7909 94.1891 68.2252 93.6447 68.2252C93.1003 68.2252 92.6589 67.7909 92.6589 67.2552C92.6589 66.7194 93.1003 66.2852 93.6447 66.2852C94.1891 66.2852 94.6304 66.7194 94.6304 67.2552Z" fill="#89898F"/>
<path d="M90.0283 68.8714C90.0283 69.4071 89.587 69.8414 89.0426 69.8414C88.4982 69.8414 88.0569 69.4071 88.0569 68.8714C88.0569 68.3357 88.4982 67.9014 89.0426 67.9014C89.587 67.9014 90.0283 68.3357 90.0283 68.8714Z" fill="#89898F"/>
<path d="M95.9429 63.0511C95.9429 63.5868 95.5016 64.0211 94.9572 64.0211C94.4128 64.0211 93.9714 63.5868 93.9714 63.0511C93.9714 62.5153 94.4128 62.0811 94.9572 62.0811C95.5016 62.0811 95.9429 62.5153 95.9429 63.0511Z" fill="#89898F"/>
<path d="M136.686 67.2552C136.686 67.7909 136.244 68.2252 135.7 68.2252C135.156 68.2252 134.714 67.7909 134.714 67.2552C134.714 66.7194 135.156 66.2852 135.7 66.2852C136.244 66.2852 136.686 66.7194 136.686 67.2552Z" fill="#89898F"/>
<path d="M136.686 71.1351C136.686 71.6708 136.244 72.1051 135.7 72.1051C135.156 72.1051 134.714 71.6708 134.714 71.1351C134.714 70.5993 135.156 70.165 135.7 70.165C136.244 70.165 136.686 70.5993 136.686 71.1351Z" fill="#89898F"/>
<path d="M136.686 64.9915C136.686 65.5272 136.244 65.9615 135.7 65.9615C135.156 65.9615 134.714 65.5272 134.714 64.9915C134.714 64.4558 135.156 64.0215 135.7 64.0215C136.244 64.0215 136.686 64.4558 136.686 64.9915Z" fill="#89898F"/>
<path d="M134.716 61.4349C134.716 61.9706 134.274 62.4049 133.73 62.4049C133.185 62.4049 132.744 61.9706 132.744 61.4349C132.744 60.8991 133.185 60.4648 133.73 60.4648C134.274 60.4648 134.716 60.8991 134.716 61.4349Z" fill="#89898F"/>
<path d="M134.716 59.1712C134.716 59.7069 134.274 60.1412 133.73 60.1412C133.185 60.1412 132.744 59.7069 132.744 59.1712C132.744 58.6355 133.185 58.2012 133.73 58.2012C134.274 58.2012 134.716 58.6355 134.716 59.1712Z" fill="#89898F"/>
<path d="M134.716 55.6146C134.716 56.1503 134.274 56.5846 133.73 56.5846C133.185 56.5846 132.744 56.1503 132.744 55.6146C132.744 55.0788 133.185 54.6445 133.73 54.6445C134.274 54.6445 134.716 55.0788 134.716 55.6146Z" fill="#89898F"/>
<path d="M134.716 51.7347C134.716 52.2704 134.274 52.7047 133.73 52.7047C133.185 52.7047 132.744 52.2704 132.744 51.7347C132.744 51.1989 133.185 50.7646 133.73 50.7646C134.274 50.7646 134.716 51.1989 134.716 51.7347Z" fill="#89898F"/>
<path d="M133.073 49.471C133.073 50.0067 132.632 50.441 132.088 50.441C131.543 50.441 131.102 50.0067 131.102 49.471C131.102 48.9353 131.543 48.501 132.088 48.501C132.632 48.501 133.073 48.9353 133.073 49.471Z" fill="#89898F"/>
<path d="M97.915 20.0472C97.915 20.5829 97.4737 21.0172 96.9293 21.0172C96.3849 21.0172 95.9436 20.5829 95.9436 20.0472C95.9436 19.5114 96.3849 19.0771 96.9293 19.0771C97.4737 19.0771 97.915 19.5114 97.915 20.0472Z" fill="#89898F"/>
<path d="M112.045 24.5735C112.045 25.1093 111.603 25.5436 111.059 25.5436C110.515 25.5436 110.073 25.1093 110.073 24.5735C110.073 24.0378 110.515 23.6035 111.059 23.6035C111.603 23.6035 112.045 24.0378 112.045 24.5735Z" fill="#89898F"/>
<path d="M114.015 26.514C114.015 27.0497 113.574 27.484 113.029 27.484C112.485 27.484 112.043 27.0497 112.043 26.514C112.043 25.9782 112.485 25.5439 113.029 25.5439C113.574 25.5439 114.015 25.9782 114.015 26.514Z" fill="#89898F"/>
<path d="M115.657 28.1302C115.657 28.6659 115.216 29.1002 114.672 29.1002C114.127 29.1002 113.686 28.6659 113.686 28.1302C113.686 27.5944 114.127 27.1602 114.672 27.1602C115.216 27.1602 115.657 27.5944 115.657 28.1302Z" fill="#89898F"/>
<path d="M115.657 33.6272C115.657 34.163 115.216 34.5973 114.672 34.5973C114.127 34.5973 113.686 34.163 113.686 33.6272C113.686 33.0915 114.127 32.6572 114.672 32.6572C115.216 32.6572 115.657 33.0915 115.657 33.6272Z" fill="#89898F"/>
<path d="M77.5444 0.970021C77.5444 1.50575 77.1031 1.94004 76.5587 1.94004C76.0143 1.94004 75.573 1.50575 75.573 0.970021C75.573 0.434293 76.0143 0 76.5587 0C77.1031 0 77.5444 0.434293 77.5444 0.970021Z" fill="#89898F"/>
<path d="M81.1589 0.970021C81.1589 1.50575 80.7176 1.94004 80.1732 1.94004C79.6288 1.94004 79.1875 1.50575 79.1875 0.970021C79.1875 0.434293 79.6288 0 80.1732 0C80.7176 0 81.1589 0.434293 81.1589 0.970021Z" fill="#89898F"/>
<path d="M33.1214 14.5178C33.1214 15.0357 32.6948 15.4556 32.1685 15.4556C31.6422 15.4556 31.2156 15.0357 31.2156 14.5178C31.2156 13.9999 31.6422 13.5801 32.1685 13.5801C32.6948 13.5801 33.1214 13.9999 33.1214 14.5178Z" fill="#89898F"/>
<path d="M29.5069 20.9846C29.5069 21.5025 29.0803 21.9224 28.554 21.9224C28.0277 21.9224 27.6011 21.5025 27.6011 20.9846C27.6011 20.4667 28.0277 20.0469 28.554 20.0469C29.0803 20.0469 29.5069 20.4667 29.5069 20.9846Z" fill="#89898F"/>
<path d="M22.9344 33.595C22.9344 34.1129 22.5078 34.5327 21.9815 34.5327C21.4552 34.5327 21.0286 34.1129 21.0286 33.595C21.0286 33.0771 21.4552 32.6572 21.9815 32.6572C22.5078 32.6572 22.9344 33.0771 22.9344 33.595Z" fill="#89898F"/>
<path d="M26.2191 28.4212C26.2191 28.9391 25.7925 29.3589 25.2662 29.3589C24.7399 29.3589 24.3132 28.9391 24.3132 28.4212C24.3132 27.9032 24.7399 27.4834 25.2662 27.4834C25.7925 27.4834 26.2191 27.9032 26.2191 28.4212Z" fill="#89898F"/>
<path d="M27.8629 26.4817C27.8629 26.9996 27.4363 27.4194 26.91 27.4194C26.3837 27.4194 25.957 26.9996 25.957 26.4817C25.957 25.9638 26.3837 25.5439 26.91 25.5439C27.4363 25.5439 27.8629 25.9638 27.8629 26.4817Z" fill="#89898F"/>
<path d="M29.5069 24.5413C29.5069 25.0592 29.0803 25.479 28.554 25.479C28.0277 25.479 27.6011 25.0592 27.6011 24.5413C27.6011 24.0234 28.0277 23.6035 28.554 23.6035C29.0803 23.6035 29.5069 24.0234 29.5069 24.5413Z" fill="#89898F"/>
<path d="M2.56211 63.343C2.56211 63.8609 2.13547 64.2808 1.60918 64.2808C1.08289 64.2808 0.65625 63.8609 0.65625 63.343C0.65625 62.8251 1.08289 62.4053 1.60918 62.4053C2.13547 62.4053 2.56211 62.8251 2.56211 63.343Z" fill="#89898F"/>
<path d="M11.1068 120.573C11.1068 121.091 10.6801 121.511 10.1539 121.511C9.62757 121.511 9.20093 121.091 9.20093 120.573C9.20093 120.056 9.62757 119.636 10.1539 119.636C10.6801 119.636 11.1068 120.056 11.1068 120.573Z" fill="#89898F"/>
<path d="M21.6845 130.791C21.6845 131.416 21.1697 131.923 20.5345 131.923C19.8994 131.923 19.3845 131.416 19.3845 130.791C19.3845 130.166 19.8994 129.659 20.5345 129.659C21.1697 129.659 21.6845 130.166 21.6845 130.791Z" fill="#89898F"/>
<path d="M27.9289 137.259C27.9289 137.884 27.414 138.39 26.7789 138.39C26.1438 138.39 25.6289 137.884 25.6289 137.259C25.6289 136.634 26.1438 136.127 26.7789 136.127C27.414 136.127 27.9289 136.634 27.9289 137.259Z" fill="#89898F"/>
<path d="M30.2278 139.845C30.2278 140.47 29.7129 140.976 29.0777 140.976C28.4426 140.976 27.9277 140.47 27.9277 139.845C27.9277 139.22 28.4426 138.713 29.0777 138.713C29.7129 138.713 30.2278 139.22 30.2278 139.845Z" fill="#89898F"/>
<path d="M33.5156 142.755C33.5156 143.38 33.0007 143.886 32.3656 143.886C31.7305 143.886 31.2156 143.38 31.2156 142.755C31.2156 142.13 31.7305 141.623 32.3656 141.623C33.0007 141.623 33.5156 142.13 33.5156 142.755Z" fill="#89898F"/>
<path d="M35.4873 145.18C35.4873 145.716 35.046 146.15 34.5016 146.15C33.9572 146.15 33.5159 145.716 33.5159 145.18C33.5159 144.644 33.9572 144.21 34.5016 144.21C35.046 144.21 35.4873 144.644 35.4873 145.18Z" fill="#89898F"/>
<path d="M37.4578 147.119C37.4578 147.655 37.0164 148.089 36.4721 148.089C35.9277 148.089 35.4863 147.655 35.4863 147.119C35.4863 146.584 35.9277 146.149 36.4721 146.149C37.0164 146.149 37.4578 146.584 37.4578 147.119Z" fill="#89898F"/>
<path d="M39.4299 149.06C39.4299 149.596 38.9886 150.03 38.4442 150.03C37.8998 150.03 37.4585 149.596 37.4585 149.06C37.4585 148.524 37.8998 148.09 38.4442 148.09C38.9886 148.09 39.4299 148.524 39.4299 149.06Z" fill="#89898F"/>
<path d="M47.3149 150.03C47.3149 150.565 46.8736 151 46.3292 151C45.7848 151 45.3435 150.565 45.3435 150.03C45.3435 149.494 45.7848 149.06 46.3292 149.06C46.8736 149.06 47.3149 149.494 47.3149 150.03Z" fill="#89898F"/>
<path d="M49.6135 150.03C49.6135 150.565 49.1722 151 48.6278 151C48.0834 151 47.6421 150.565 47.6421 150.03C47.6421 149.494 48.0834 149.06 48.6278 149.06C49.1722 149.06 49.6135 149.494 49.6135 150.03Z" fill="#89898F"/>
<path d="M62.7581 148.575C62.7581 149.021 62.3903 149.383 61.9367 149.383C61.483 149.383 61.1152 149.021 61.1152 148.575C61.1152 148.129 61.483 147.767 61.9367 147.767C62.3903 147.767 62.7581 148.129 62.7581 148.575Z" fill="#89898F"/>
<path d="M60.7859 149.868C60.7859 150.314 60.4182 150.676 59.9645 150.676C59.5108 150.676 59.1431 150.314 59.1431 149.868C59.1431 149.421 59.5108 149.06 59.9645 149.06C60.4182 149.06 60.7859 149.421 60.7859 149.868Z" fill="#89898F"/>
<path d="M2.30038 89.2414C2.30038 89.5986 2.00616 89.8881 1.64323 89.8881C1.2803 89.8881 0.986084 89.5986 0.986084 89.2414C0.986084 88.8843 1.2803 88.5947 1.64323 88.5947C2.00616 88.5947 2.30038 88.8843 2.30038 89.2414Z" fill="#89898F"/>
<path d="M1.3143 87.302C1.3143 87.6591 1.02008 87.9486 0.657148 87.9486C0.294215 87.9486 0 87.6591 0 87.302C0 86.9448 0.294215 86.6553 0.657148 86.6553C1.02008 86.6553 1.3143 86.9448 1.3143 87.302Z" fill="#89898F"/>
<path d="M1.3143 85.6848C1.3143 86.0419 1.02008 86.3314 0.657148 86.3314C0.294215 86.3314 0 86.0419 0 85.6848C0 85.3276 0.294215 85.0381 0.657148 85.0381C1.02008 85.0381 1.3143 85.3276 1.3143 85.6848Z" fill="#89898F"/>
<path d="M1.3143 83.7453C1.3143 84.1025 1.02008 84.392 0.657148 84.392C0.294215 84.392 0 84.1025 0 83.7453C0 83.3882 0.294215 83.0986 0.657148 83.0986C1.02008 83.0986 1.3143 83.3882 1.3143 83.7453Z" fill="#89898F"/>
<path d="M1.97055 81.8049C1.97055 82.162 1.67633 82.4516 1.3134 82.4516C0.950465 82.4516 0.65625 82.162 0.65625 81.8049C0.65625 81.4477 0.950465 81.1582 1.3134 81.1582C1.67633 81.1582 1.97055 81.4477 1.97055 81.8049Z" fill="#89898F"/>
<path d="M1.64413 71.135C1.64413 71.4921 1.34991 71.7816 0.986982 71.7816C0.624049 71.7816 0.329834 71.4921 0.329834 71.135C0.329834 70.7778 0.624049 70.4883 0.986982 70.4883C1.34991 70.4883 1.64413 70.7778 1.64413 71.135Z" fill="#89898F"/>
<path d="M1.9727 69.3572C1.9727 69.8036 1.60493 70.1655 1.15127 70.1655C0.697603 70.1655 0.329834 69.8036 0.329834 69.3572C0.329834 68.9107 0.697603 68.5488 1.15127 68.5488C1.60493 68.5488 1.9727 68.9107 1.9727 69.3572Z" fill="#89898F"/>
<path d="M1.9727 67.4167C1.9727 67.8632 1.60493 68.2251 1.15127 68.2251C0.697603 68.2251 0.329834 67.8632 0.329834 67.4167C0.329834 66.9703 0.697603 66.6084 1.15127 66.6084C1.60493 66.6084 1.9727 66.9703 1.9727 67.4167Z" fill="#89898F"/>
<path d="M1.9727 65.4763C1.9727 65.9228 1.60493 66.2847 1.15127 66.2847C0.697603 66.2847 0.329834 65.9228 0.329834 65.4763C0.329834 65.0299 0.697603 64.668 1.15127 64.668C1.60493 64.668 1.9727 65.0299 1.9727 65.4763Z" fill="#89898F"/>
<path d="M64.7303 147.281C64.7303 147.727 64.3625 148.089 63.9088 148.089C63.4552 148.089 63.0874 147.727 63.0874 147.281C63.0874 146.835 63.4552 146.473 63.9088 146.473C64.3625 146.473 64.7303 146.835 64.7303 147.281Z" fill="#89898F"/>
<path d="M64.7303 108.157C64.7303 108.603 64.3625 108.965 63.9088 108.965C63.4552 108.965 63.0874 108.603 63.0874 108.157C63.0874 107.711 63.4552 107.349 63.9088 107.349C64.3625 107.349 64.7303 107.711 64.7303 108.157Z" fill="#89898F"/>
<path d="M62.7581 106.218C62.7581 106.664 62.3903 107.026 61.9367 107.026C61.483 107.026 61.1152 106.664 61.1152 106.218C61.1152 105.771 61.483 105.409 61.9367 105.409C62.3903 105.409 62.7581 105.771 62.7581 106.218Z" fill="#89898F"/>
<path d="M61.1145 104.439C61.1145 104.974 60.6732 105.409 60.1288 105.409C59.5844 105.409 59.1431 104.974 59.1431 104.439C59.1431 103.903 59.5844 103.469 60.1288 103.469C60.6732 103.469 61.1145 103.903 61.1145 104.439Z" fill="#89898F"/>
<path d="M55.8562 111.875C55.8562 112.411 55.4149 112.845 54.8705 112.845C54.3261 112.845 53.8848 112.411 53.8848 111.875C53.8848 111.34 54.3261 110.905 54.8705 110.905C55.4149 110.905 55.8562 111.34 55.8562 111.875Z" fill="#89898F"/>
<path d="M49.6135 121.252C49.6135 121.788 49.1722 122.222 48.6278 122.222C48.0834 122.222 47.6421 121.788 47.6421 121.252C47.6421 120.717 48.0834 120.282 48.6278 120.282C49.1722 120.282 49.6135 120.717 49.6135 121.252Z" fill="#89898F"/>
<path d="M52.2434 119.313C52.2434 119.849 51.8021 120.283 51.2577 120.283C50.7133 120.283 50.272 119.849 50.272 119.313C50.272 118.777 50.7133 118.343 51.2577 118.343C51.8021 118.343 52.2434 118.777 52.2434 119.313Z" fill="#89898F"/>
<path d="M14.3915 43.2952C14.3915 43.8131 13.9648 44.2329 13.4385 44.2329C12.9122 44.2329 12.4856 43.8131 12.4856 43.2952C12.4856 42.7773 12.9122 42.3574 13.4385 42.3574C13.9648 42.3574 14.3915 42.7773 14.3915 43.2952Z" fill="#89898F"/>
<path d="M6.83457 49.762C6.83457 50.2799 6.40793 50.6997 5.88164 50.6997C5.35535 50.6997 4.92871 50.2799 4.92871 49.762C4.92871 49.2441 5.35535 48.8242 5.88164 48.8242C6.40793 48.8242 6.83457 49.2441 6.83457 49.762Z" fill="#89898F"/>
<path d="M5.19053 58.8157C5.19053 59.3336 4.76389 59.7534 4.2376 59.7534C3.71131 59.7534 3.28467 59.3336 3.28467 58.8157C3.28467 58.2978 3.71131 57.8779 4.2376 57.8779C4.76389 57.8779 5.19053 58.2978 5.19053 58.8157Z" fill="#89898F"/>
<path d="M5.19053 61.7258C5.19053 62.2437 4.76389 62.6636 4.2376 62.6636C3.71131 62.6636 3.28467 62.2437 3.28467 61.7258C3.28467 61.2079 3.71131 60.7881 4.2376 60.7881C4.76389 60.7881 5.19053 61.2079 5.19053 61.7258Z" fill="#89898F"/>
<path d="M6.17832 51.7024C6.17832 52.2203 5.75168 52.6402 5.22539 52.6402C4.6991 52.6402 4.27246 52.2203 4.27246 51.7024C4.27246 51.1845 4.6991 50.7646 5.22539 50.7646C5.75168 50.7646 6.17832 51.1845 6.17832 51.7024Z" fill="#89898F"/>
<path d="M5.84849 54.2893C5.84849 54.8072 5.42185 55.2271 4.89556 55.2271C4.36927 55.2271 3.94263 54.8072 3.94263 54.2893C3.94263 53.7714 4.36927 53.3516 4.89556 53.3516C5.42185 53.3516 5.84849 53.7714 5.84849 54.2893Z" fill="#89898F"/>
<path d="M24.5785 30.6848C24.5785 31.2027 24.1518 31.6226 23.6255 31.6226C23.0992 31.6226 22.6726 31.2027 22.6726 30.6848C22.6726 30.1669 23.0992 29.7471 23.6255 29.7471C24.1518 29.7471 24.5785 30.1669 24.5785 30.6848Z" fill="#89898F"/>
<path d="M62.3638 2.07013C62.3638 2.67732 61.8636 3.16955 61.2466 3.16955C60.6296 3.16955 60.1294 2.67732 60.1294 2.07013C60.1294 1.46293 60.6296 0.970703 61.2466 0.970703C61.8636 0.970703 62.3638 1.46293 62.3638 2.07013Z" fill="#89898F"/>
<path fill-rule="evenodd" clip-rule="evenodd" d="M41.6639 21.8862C42.1902 21.8862 42.6168 21.4664 42.6168 20.9485C42.6168 20.4306 42.1902 20.0107 41.6639 20.0107C41.1376 20.0107 40.7109 20.4306 40.7109 20.9485C40.7109 21.4664 41.1376 21.8862 41.6639 21.8862ZM41.6629 21.6516C42.0576 21.6516 42.3776 21.3368 42.3776 20.9483C42.3776 20.5599 42.0576 20.245 41.6629 20.245C41.2682 20.245 40.9482 20.5599 40.9482 20.9483C40.9482 21.3368 41.2682 21.6516 41.6629 21.6516Z" fill="#89898F"/>
<path fill-rule="evenodd" clip-rule="evenodd" d="M26.91 23.8628C27.4363 23.8628 27.8629 23.443 27.8629 22.9251C27.8629 22.4072 27.4363 21.9873 26.91 21.9873C26.3837 21.9873 25.957 22.4072 25.957 22.9251C25.957 23.443 26.3837 23.8628 26.91 23.8628ZM26.909 23.6281C27.3038 23.6281 27.6237 23.3132 27.6237 22.9248C27.6237 22.5364 27.3038 22.2215 26.909 22.2215C26.5143 22.2215 26.1943 22.5364 26.1943 22.9248C26.1943 23.3132 26.5143 23.6281 26.909 23.6281Z" fill="#89898F"/>
<path fill-rule="evenodd" clip-rule="evenodd" d="M26.1797 37.1802C26.706 37.1802 27.1327 36.7603 27.1327 36.2424C27.1327 35.7245 26.706 35.3047 26.1797 35.3047C25.6534 35.3047 25.2268 35.7245 25.2268 36.2424C25.2268 36.7603 25.6534 37.1802 26.1797 37.1802ZM26.1805 36.9457C26.5752 36.9457 26.8952 36.6309 26.8952 36.2424C26.8952 35.854 26.5752 35.5391 26.1805 35.5391C25.7857 35.5391 25.4658 35.854 25.4658 36.2424C25.4658 36.6309 25.7857 36.9457 26.1805 36.9457Z" fill="#89898F"/>
<path fill-rule="evenodd" clip-rule="evenodd" d="M22.8448 39.5259C23.3711 39.5259 23.7977 39.106 23.7977 38.5881C23.7977 38.0702 23.3711 37.6504 22.8448 37.6504C22.3185 37.6504 21.8918 38.0702 21.8918 38.5881C21.8918 39.106 22.3185 39.5259 22.8448 39.5259ZM22.8438 39.2911C23.2385 39.2911 23.5585 38.9763 23.5585 38.5878C23.5585 38.1994 23.2385 37.8845 22.8438 37.8845C22.4491 37.8845 22.1291 38.1994 22.1291 38.5878C22.1291 38.9763 22.4491 39.2911 22.8438 39.2911Z" fill="#89898F"/>
<path fill-rule="evenodd" clip-rule="evenodd" d="M19.2708 42.104C19.7971 42.104 20.2237 41.6842 20.2237 41.1663C20.2237 40.6484 19.7971 40.2285 19.2708 40.2285C18.7445 40.2285 18.3179 40.6484 18.3179 41.1663C18.3179 41.6842 18.7445 42.104 19.2708 42.104ZM19.2698 41.8693C19.6645 41.8693 19.9845 41.5544 19.9845 41.166C19.9845 40.7775 19.6645 40.4626 19.2698 40.4626C18.8751 40.4626 18.5551 40.7775 18.5551 41.166C18.5551 41.5544 18.8751 41.8693 19.2698 41.8693Z" fill="#89898F"/>
<path fill-rule="evenodd" clip-rule="evenodd" d="M39.044 57.3989C39.5703 57.3989 39.9969 56.9791 39.9969 56.4612C39.9969 55.9433 39.5703 55.5234 39.044 55.5234C38.5177 55.5234 38.0911 55.9433 38.0911 56.4612C38.0911 56.9791 38.5177 57.3989 39.044 57.3989ZM39.043 57.1643C39.4377 57.1643 39.7577 56.8495 39.7577 56.461C39.7577 56.0726 39.4377 55.7577 39.043 55.7577C38.6483 55.7577 38.3283 56.0726 38.3283 56.461C38.3283 56.8495 38.6483 57.1643 39.043 57.1643Z" fill="#89898F"/>
<path fill-rule="evenodd" clip-rule="evenodd" d="M41.0379 66.5435C41.5642 66.5435 41.9908 66.1236 41.9908 65.6057C41.9908 65.0878 41.5642 64.668 41.0379 64.668C40.5116 64.668 40.085 65.0878 40.085 65.6057C40.085 66.1236 40.5116 66.5435 41.0379 66.5435ZM41.037 66.309C41.4317 66.309 41.7517 65.9941 41.7517 65.6057C41.7517 65.2172 41.4317 64.9023 41.037 64.9023C40.6422 64.9023 40.3223 65.2172 40.3223 65.6057C40.3223 65.9941 40.6422 66.309 41.037 66.309Z" fill="#89898F"/>
<path fill-rule="evenodd" clip-rule="evenodd" d="M43.9961 68.1607C44.5224 68.1607 44.9491 67.7408 44.9491 67.2229C44.9491 66.705 44.5224 66.2852 43.9961 66.2852C43.4699 66.2852 43.0432 66.705 43.0432 67.2229C43.0432 67.7408 43.4699 68.1607 43.9961 68.1607ZM43.9969 67.9259C44.3916 67.9259 44.7116 67.611 44.7116 67.2225C44.7116 66.8341 44.3916 66.5192 43.9969 66.5192C43.6021 66.5192 43.2822 66.8341 43.2822 67.2225C43.2822 67.611 43.6021 67.9259 43.9969 67.9259Z" fill="#89898F"/>
<path fill-rule="evenodd" clip-rule="evenodd" d="M41.6959 75.2739C42.2221 75.2739 42.6488 74.8541 42.6488 74.3362C42.6488 73.8183 42.2221 73.3984 41.6959 73.3984C41.1696 73.3984 40.7429 73.8183 40.7429 74.3362C40.7429 74.8541 41.1696 75.2739 41.6959 75.2739ZM41.6949 75.0393C42.0896 75.0393 42.4096 74.7244 42.4096 74.336C42.4096 73.9476 42.0896 73.6327 41.6949 73.6327C41.3001 73.6327 40.9802 73.9476 40.9802 74.336C40.9802 74.7244 41.3001 75.0393 41.6949 75.0393Z" fill="#89898F"/>
<path fill-rule="evenodd" clip-rule="evenodd" d="M44.9805 80.77C45.5068 80.77 45.9334 80.3502 45.9334 79.8323C45.9334 79.3144 45.5068 78.8945 44.9805 78.8945C44.4542 78.8945 44.0276 79.3144 44.0276 79.8323C44.0276 80.3502 44.4542 80.77 44.9805 80.77ZM44.9795 80.5355C45.3742 80.5355 45.6942 80.2206 45.6942 79.8322C45.6942 79.4437 45.3742 79.1289 44.9795 79.1289C44.5848 79.1289 44.2648 79.4437 44.2648 79.8322C44.2648 80.2206 44.5848 80.5355 44.9795 80.5355Z" fill="#89898F"/>
<path fill-rule="evenodd" clip-rule="evenodd" d="M7.63994 57.3989C8.16623 57.3989 8.59287 56.9791 8.59287 56.4612C8.59287 55.9433 8.16623 55.5234 7.63994 55.5234C7.11365 55.5234 6.68701 55.9433 6.68701 56.4612C6.68701 56.9791 7.11365 57.3989 7.63994 57.3989ZM7.63895 57.1643C8.03367 57.1643 8.35365 56.8495 8.35365 56.461C8.35365 56.0726 8.03367 55.7577 7.63895 55.7577C7.24424 55.7577 6.92426 56.0726 6.92426 56.461C6.92426 56.8495 7.24424 57.1643 7.63895 57.1643Z" fill="#89898F"/>
<path fill-rule="evenodd" clip-rule="evenodd" d="M30.8889 19.0163C31.5468 19.0163 32.0801 18.4914 32.0801 17.8441C32.0801 17.1967 31.5468 16.6719 30.8889 16.6719C30.2311 16.6719 29.6978 17.1967 29.6978 17.8441C29.6978 18.4914 30.2311 19.0163 30.8889 19.0163ZM30.8889 18.7233C31.3823 18.7233 31.7823 18.3297 31.7823 17.8441C31.7823 17.3586 31.3823 16.965 30.8889 16.965C30.3955 16.965 29.9955 17.3586 29.9955 17.8441C29.9955 18.3297 30.3955 18.7233 30.8889 18.7233Z" fill="#89898F"/>
<path fill-rule="evenodd" clip-rule="evenodd" d="M41.9341 19.1579C42.5919 19.1579 43.1252 18.633 43.1252 17.9857C43.1252 17.3383 42.5919 16.8135 41.9341 16.8135C41.2762 16.8135 40.7429 17.3383 40.7429 17.9857C40.7429 18.633 41.2762 19.1579 41.9341 19.1579ZM41.9341 18.8646C42.4275 18.8646 42.8275 18.471 42.8275 17.9854C42.8275 17.4999 42.4275 17.1063 41.9341 17.1063C41.4407 17.1063 41.0408 17.4999 41.0408 17.9854C41.0408 18.471 41.4407 18.8646 41.9341 18.8646Z" fill="#89898F"/>
<path fill-rule="evenodd" clip-rule="evenodd" d="M12.4776 107.278C13.0039 107.278 13.4305 106.858 13.4305 106.34C13.4305 105.822 13.0039 105.402 12.4776 105.402C11.9513 105.402 11.5247 105.822 11.5247 106.34C11.5247 106.858 11.9513 107.278 12.4776 107.278ZM12.4767 107.043C12.8714 107.043 13.1914 106.728 13.1914 106.34C13.1914 105.952 12.8714 105.637 12.4767 105.637C12.0819 105.637 11.762 105.952 11.762 106.34C11.762 106.728 12.0819 107.043 12.4767 107.043Z" fill="#89898F"/>
<path d="M61.2786 19.4004V45.7526" stroke="#89898F" stroke-width="0.6"/>
<path d="M77.2153 19.4004V45.7526" stroke="#89898F" stroke-width="0.6"/>
<path d="M32.3647 130.306V142.431" stroke="#89898F" stroke-width="0.6"/>
<path d="M34.5002 132.246V144.371" stroke="#89898F" stroke-width="0.6"/>
<path d="M36.4722 134.187V146.312" stroke="#89898F" stroke-width="0.6"/>
<path d="M38.4429 136.127V148.252" stroke="#89898F" stroke-width="0.6"/>
<path d="M1.64233 89.2422H46.3284" stroke="#89898F" stroke-width="0.6"/>
<path d="M97.5859 20.0469H104.815" stroke="#89898F" stroke-width="0.6"/>
<defs>
<filter id="filter0_f_1302_40265" x="56.78" y="60.5117" width="22.3198" height="22.1006" filterUnits="userSpaceOnUse" color-interpolation-filters="sRGB">
<feFlood flood-opacity="0" result="BackgroundImageFix"/>
<feBlend mode="normal" in="SourceGraphic" in2="BackgroundImageFix" result="shape"/>
<feGaussianBlur stdDeviation="2" result="effect1_foregroundBlur_1302_40265"/>
</filter>
<filter id="filter1_f_1302_40265" x="53.5642" y="57.5576" width="28.5366" height="28.2188" filterUnits="userSpaceOnUse" color-interpolation-filters="sRGB">
<feFlood flood-opacity="0" result="BackgroundImageFix"/>
<feBlend mode="normal" in="SourceGraphic" in2="BackgroundImageFix" result="shape"/>
<feGaussianBlur stdDeviation="2" result="effect1_foregroundBlur_1302_40265"/>
</filter>
<linearGradient id="paint0_linear_1302_40265" x1="171.571" y1="112.559" x2="187.414" y2="120.086" gradientUnits="userSpaceOnUse">
<stop stop-color="#3E556E"/>
<stop offset="0.239583" stop-color="#41586F"/>
<stop offset="0.427083" stop-color="#334A67"/>
<stop offset="0.572917" stop-color="#28415E"/>
<stop offset="0.822917" stop-color="#1B3556"/>
<stop offset="1" stop-color="#213959"/>
</linearGradient>
<linearGradient id="paint1_linear_1302_40265" x1="177.986" y1="90.9108" x2="184.728" y2="94.886" gradientUnits="userSpaceOnUse">
<stop stop-color="#3E556E"/>
<stop offset="0.239583" stop-color="#41586F"/>
<stop offset="0.427083" stop-color="#334A67"/>
<stop offset="0.572917" stop-color="#28415E"/>
<stop offset="0.822917" stop-color="#1B3556"/>
<stop offset="1" stop-color="#213959"/>
</linearGradient>
<linearGradient id="paint2_linear_1302_40265" x1="186.92" y1="124.31" x2="188.279" y2="128.936" gradientUnits="userSpaceOnUse">
<stop stop-color="#3E556E"/>
<stop offset="0.239583" stop-color="#41586F"/>
<stop offset="0.427083" stop-color="#334A67"/>
<stop offset="0.572917" stop-color="#28415E"/>
<stop offset="0.822917" stop-color="#1B3556"/>
<stop offset="1" stop-color="#213959"/>
</linearGradient>
<linearGradient id="paint3_linear_1302_40265" x1="180.573" y1="69.4267" x2="239.316" y2="97.9483" gradientUnits="userSpaceOnUse">
<stop stop-color="#3E556E"/>
<stop offset="0.239583" stop-color="#41586F"/>
<stop offset="0.427083" stop-color="#334A67"/>
<stop offset="0.572917" stop-color="#28415E"/>
<stop offset="0.822917" stop-color="#1B3556"/>
<stop offset="1" stop-color="#213959"/>
</linearGradient>
<linearGradient id="paint4_linear_1302_40265" x1="179.938" y1="88.7984" x2="196.321" y2="97.4324" gradientUnits="userSpaceOnUse">
<stop stop-color="#3E556E"/>
<stop offset="0.239583" stop-color="#41586F"/>
<stop offset="0.427083" stop-color="#334A67"/>
<stop offset="0.572917" stop-color="#28415E"/>
<stop offset="0.822917" stop-color="#1B3556"/>
<stop offset="1" stop-color="#213959"/>
</linearGradient>
<linearGradient id="paint5_linear_1302_40265" x1="180.573" y1="69.4657" x2="239.316" y2="97.9873" gradientUnits="userSpaceOnUse">
<stop stop-color="#3E556E"/>
<stop offset="0.239583" stop-color="#41586F"/>
<stop offset="0.427083" stop-color="#334A67"/>
<stop offset="0.572917" stop-color="#28415E"/>
<stop offset="0.822917" stop-color="#1B3556"/>
<stop offset="1" stop-color="#213959"/>
</linearGradient>
<linearGradient id="paint6_linear_1302_40265" x1="182.974" y1="116.175" x2="194.414" y2="136.556" gradientUnits="userSpaceOnUse">
<stop stop-color="#3E556E"/>
<stop offset="0.239583" stop-color="#41586F"/>
<stop offset="0.427083" stop-color="#334A67"/>
<stop offset="0.572917" stop-color="#28415E"/>
<stop offset="0.822917" stop-color="#1B3556"/>
<stop offset="1" stop-color="#213959"/>
</linearGradient>
<linearGradient id="paint7_linear_1302_40265" x1="189.221" y1="90.3172" x2="192.963" y2="92.307" gradientUnits="userSpaceOnUse">
<stop stop-color="#3E556E"/>
<stop offset="0.239583" stop-color="#41586F"/>
<stop offset="0.427083" stop-color="#334A67"/>
<stop offset="0.572917" stop-color="#28415E"/>
<stop offset="0.822917" stop-color="#1B3556"/>
<stop offset="1" stop-color="#213959"/>
</linearGradient>
<linearGradient id="paint8_linear_1302_40265" x1="191.177" y1="130.163" x2="194.204" y2="131.773" gradientUnits="userSpaceOnUse">
<stop stop-color="#3E556E"/>
<stop offset="0.239583" stop-color="#41586F"/>
<stop offset="0.427083" stop-color="#334A67"/>
<stop offset="0.572917" stop-color="#28415E"/>
<stop offset="0.822917" stop-color="#1B3556"/>
<stop offset="1" stop-color="#213959"/>
</linearGradient>
<linearGradient id="paint9_linear_1302_40265" x1="196.668" y1="83.7501" x2="210.583" y2="95.7305" gradientUnits="userSpaceOnUse">
<stop stop-color="#3E556E"/>
<stop offset="0.239583" stop-color="#41586F"/>
<stop offset="0.427083" stop-color="#334A67"/>
<stop offset="0.572917" stop-color="#28415E"/>
<stop offset="0.822917" stop-color="#1B3556"/>
<stop offset="1" stop-color="#213959"/>
</linearGradient>
<linearGradient id="paint10_linear_1302_40265" x1="190.571" y1="84.5576" x2="193.598" y2="86.1671" gradientUnits="userSpaceOnUse">
<stop stop-color="#3E556E"/>
<stop offset="0.239583" stop-color="#41586F"/>
<stop offset="0.427083" stop-color="#334A67"/>
<stop offset="0.572917" stop-color="#28415E"/>
<stop offset="0.822917" stop-color="#1B3556"/>
<stop offset="1" stop-color="#213959"/>
</linearGradient>
<linearGradient id="paint11_linear_1302_40265" x1="175.483" y1="82.8675" x2="195.686" y2="91.8868" gradientUnits="userSpaceOnUse">
<stop stop-color="#3E556E"/>
<stop offset="0.239583" stop-color="#41586F"/>
<stop offset="0.427083" stop-color="#334A67"/>
<stop offset="0.572917" stop-color="#28415E"/>
<stop offset="0.822917" stop-color="#1B3556"/>
<stop offset="1" stop-color="#213959"/>
</linearGradient>
<linearGradient id="paint12_linear_1302_40265" x1="170.374" y1="104.648" x2="173.401" y2="106.258" gradientUnits="userSpaceOnUse">
<stop stop-color="#3E556E"/>
<stop offset="0.239583" stop-color="#41586F"/>
<stop offset="0.427083" stop-color="#334A67"/>
<stop offset="0.572917" stop-color="#28415E"/>
<stop offset="0.822917" stop-color="#1B3556"/>
<stop offset="1" stop-color="#213959"/>
</linearGradient>
<linearGradient id="paint13_linear_1302_40265" x1="185.961" y1="85.8545" x2="188.987" y2="87.464" gradientUnits="userSpaceOnUse">
<stop stop-color="#3E556E"/>
<stop offset="0.239583" stop-color="#41586F"/>
<stop offset="0.427083" stop-color="#334A67"/>
<stop offset="0.572917" stop-color="#28415E"/>
<stop offset="0.822917" stop-color="#1B3556"/>
<stop offset="1" stop-color="#213959"/>
</linearGradient>
<linearGradient id="paint14_linear_1302_40265" x1="194.467" y1="123.478" x2="196.412" y2="124.512" gradientUnits="userSpaceOnUse">
<stop stop-color="#3E556E"/>
<stop offset="0.239583" stop-color="#41586F"/>
<stop offset="0.427083" stop-color="#334A67"/>
<stop offset="0.572917" stop-color="#28415E"/>
<stop offset="0.822917" stop-color="#1B3556"/>
<stop offset="1" stop-color="#213959"/>
</linearGradient>
<linearGradient id="paint15_linear_1302_40265" x1="194.625" y1="124.166" x2="195.458" y2="124.609" gradientUnits="userSpaceOnUse">
<stop stop-color="#3E556E"/>
<stop offset="0.239583" stop-color="#41586F"/>
<stop offset="0.427083" stop-color="#334A67"/>
<stop offset="0.572917" stop-color="#28415E"/>
<stop offset="0.822917" stop-color="#1B3556"/>
<stop offset="1" stop-color="#213959"/>
</linearGradient>
<linearGradient id="paint16_linear_1302_40265" x1="172.874" y1="116.436" x2="175.374" y2="117.766" gradientUnits="userSpaceOnUse">
<stop stop-color="#3E556E"/>
<stop offset="0.239583" stop-color="#41586F"/>
<stop offset="0.427083" stop-color="#334A67"/>
<stop offset="0.572917" stop-color="#28415E"/>
<stop offset="0.822917" stop-color="#1B3556"/>
<stop offset="1" stop-color="#213959"/>
</linearGradient>
<linearGradient id="paint17_linear_1302_40265" x1="173.076" y1="117.322" x2="174.148" y2="117.892" gradientUnits="userSpaceOnUse">
<stop stop-color="#3E556E"/>
<stop offset="0.239583" stop-color="#41586F"/>
<stop offset="0.427083" stop-color="#334A67"/>
<stop offset="0.572917" stop-color="#28415E"/>
<stop offset="0.822917" stop-color="#1B3556"/>
<stop offset="1" stop-color="#213959"/>
</linearGradient>
<linearGradient id="paint18_linear_1302_40265" x1="175.29" y1="96.5611" x2="177.79" y2="97.8905" gradientUnits="userSpaceOnUse">
<stop stop-color="#3E556E"/>
<stop offset="0.239583" stop-color="#41586F"/>
<stop offset="0.427083" stop-color="#334A67"/>
<stop offset="0.572917" stop-color="#28415E"/>
<stop offset="0.822917" stop-color="#1B3556"/>
<stop offset="1" stop-color="#213959"/>
</linearGradient>
<linearGradient id="paint19_linear_1302_40265" x1="175.493" y1="97.4468" x2="176.564" y2="98.0166" gradientUnits="userSpaceOnUse">
<stop stop-color="#3E556E"/>
<stop offset="0.239583" stop-color="#41586F"/>
<stop offset="0.427083" stop-color="#334A67"/>
<stop offset="0.572917" stop-color="#28415E"/>
<stop offset="0.822917" stop-color="#1B3556"/>
<stop offset="1" stop-color="#213959"/>
</linearGradient>
<linearGradient id="paint20_linear_1302_40265" x1="182.314" y1="90.5123" x2="184.814" y2="91.8417" gradientUnits="userSpaceOnUse">
<stop stop-color="#3E556E"/>
<stop offset="0.239583" stop-color="#41586F"/>
<stop offset="0.427083" stop-color="#334A67"/>
<stop offset="0.572917" stop-color="#28415E"/>
<stop offset="0.822917" stop-color="#1B3556"/>
<stop offset="1" stop-color="#213959"/>
</linearGradient>
<linearGradient id="paint21_linear_1302_40265" x1="182.516" y1="91.398" x2="183.588" y2="91.9677" gradientUnits="userSpaceOnUse">
<stop stop-color="#3E556E"/>
<stop offset="0.239583" stop-color="#41586F"/>
<stop offset="0.427083" stop-color="#334A67"/>
<stop offset="0.572917" stop-color="#28415E"/>
<stop offset="0.822917" stop-color="#1B3556"/>
<stop offset="1" stop-color="#213959"/>
</linearGradient>
<linearGradient id="paint22_linear_1302_40265" x1="203.169" y1="120.973" x2="205.669" y2="122.303" gradientUnits="userSpaceOnUse">
<stop stop-color="#3E556E"/>
<stop offset="0.239583" stop-color="#41586F"/>
<stop offset="0.427083" stop-color="#334A67"/>
<stop offset="0.572917" stop-color="#28415E"/>
<stop offset="0.822917" stop-color="#1B3556"/>
<stop offset="1" stop-color="#213959"/>
</linearGradient>
<linearGradient id="paint23_linear_1302_40265" x1="203.372" y1="121.859" x2="204.443" y2="122.429" gradientUnits="userSpaceOnUse">
<stop stop-color="#3E556E"/>
<stop offset="0.239583" stop-color="#41586F"/>
<stop offset="0.427083" stop-color="#334A67"/>
<stop offset="0.572917" stop-color="#28415E"/>
<stop offset="0.822917" stop-color="#1B3556"/>
<stop offset="1" stop-color="#213959"/>
</linearGradient>
<linearGradient id="paint24_linear_1302_40265" x1="105.921" y1="90.7012" x2="178.482" y2="168.67" gradientUnits="userSpaceOnUse">
<stop stop-color="#585C62"/>
<stop offset="0.166667" stop-color="white"/>
<stop offset="0.25" stop-color="#858D8E"/>
<stop offset="0.442708" stop-color="#2B2F2F"/>
<stop offset="0.635417" stop-color="#E9E9E9"/>
<stop offset="0.78125" stop-color="#343939"/>
<stop offset="0.869792" stop-color="white"/>
<stop offset="0.979167" stop-color="#141515"/>
</linearGradient>
<linearGradient id="paint25_linear_1302_40265" x1="105.921" y1="90.7012" x2="178.482" y2="168.67" gradientUnits="userSpaceOnUse">
<stop stop-color="#585C62"/>
<stop offset="0.166667" stop-color="white"/>
<stop offset="0.25" stop-color="#858D8E"/>
<stop offset="0.442708" stop-color="#2B2F2F"/>
<stop offset="0.635417" stop-color="#E9E9E9"/>
<stop offset="0.78125" stop-color="#343939"/>
<stop offset="0.869792" stop-color="white"/>
<stop offset="0.979167" stop-color="#141515"/>
</linearGradient>
<linearGradient id="paint26_linear_1302_40265" x1="121.073" y1="142.146" x2="122.084" y2="157.877" gradientUnits="userSpaceOnUse">
<stop stop-color="#3E556E"/>
<stop offset="0.239583" stop-color="#41586F"/>
<stop offset="0.427083" stop-color="#334A67"/>
<stop offset="0.572917" stop-color="#28415E"/>
<stop offset="0.822917" stop-color="#1B3556"/>
<stop offset="1" stop-color="#213959"/>
</linearGradient>
<linearGradient id="paint27_linear_1302_40265" x1="121.073" y1="142.146" x2="122.084" y2="157.877" gradientUnits="userSpaceOnUse">
<stop stop-color="#3E556E"/>
<stop offset="0.239583" stop-color="#41586F"/>
<stop offset="0.427083" stop-color="#334A67"/>
<stop offset="0.572917" stop-color="#28415E"/>
<stop offset="0.822917" stop-color="#1B3556"/>
<stop offset="1" stop-color="#213959"/>
</linearGradient>
<linearGradient id="paint28_linear_1302_40265" x1="121.073" y1="142.146" x2="122.084" y2="157.877" gradientUnits="userSpaceOnUse">
<stop stop-color="#3E556E"/>
<stop offset="0.239583" stop-color="#41586F"/>
<stop offset="0.427083" stop-color="#334A67"/>
<stop offset="0.572917" stop-color="#28415E"/>
<stop offset="0.822917" stop-color="#1B3556"/>
<stop offset="1" stop-color="#213959"/>
</linearGradient>
<linearGradient id="paint29_linear_1302_40265" x1="121.073" y1="142.146" x2="122.084" y2="157.877" gradientUnits="userSpaceOnUse">
<stop stop-color="#3E556E"/>
<stop offset="0.239583" stop-color="#41586F"/>
<stop offset="0.427083" stop-color="#334A67"/>
<stop offset="0.572917" stop-color="#28415E"/>
<stop offset="0.822917" stop-color="#1B3556"/>
<stop offset="1" stop-color="#213959"/>
</linearGradient>
<linearGradient id="paint30_linear_1302_40265" x1="121.073" y1="142.146" x2="122.084" y2="157.877" gradientUnits="userSpaceOnUse">
<stop stop-color="#3E556E"/>
<stop offset="0.239583" stop-color="#41586F"/>
<stop offset="0.427083" stop-color="#334A67"/>
<stop offset="0.572917" stop-color="#28415E"/>
<stop offset="0.822917" stop-color="#1B3556"/>
<stop offset="1" stop-color="#213959"/>
</linearGradient>
<linearGradient id="paint31_linear_1302_40265" x1="121.073" y1="142.146" x2="122.084" y2="157.877" gradientUnits="userSpaceOnUse">
<stop stop-color="#3E556E"/>
<stop offset="0.239583" stop-color="#41586F"/>
<stop offset="0.427083" stop-color="#334A67"/>
<stop offset="0.572917" stop-color="#28415E"/>
<stop offset="0.822917" stop-color="#1B3556"/>
<stop offset="1" stop-color="#213959"/>
</linearGradient>
<linearGradient id="paint32_linear_1302_40265" x1="121.073" y1="142.146" x2="122.084" y2="157.877" gradientUnits="userSpaceOnUse">
<stop stop-color="#3E556E"/>
<stop offset="0.239583" stop-color="#41586F"/>
<stop offset="0.427083" stop-color="#334A67"/>
<stop offset="0.572917" stop-color="#28415E"/>
<stop offset="0.822917" stop-color="#1B3556"/>
<stop offset="1" stop-color="#213959"/>
</linearGradient>
<linearGradient id="paint33_linear_1302_40265" x1="121.073" y1="142.146" x2="122.084" y2="157.877" gradientUnits="userSpaceOnUse">
<stop stop-color="#3E556E"/>
<stop offset="0.239583" stop-color="#41586F"/>
<stop offset="0.427083" stop-color="#334A67"/>
<stop offset="0.572917" stop-color="#28415E"/>
<stop offset="0.822917" stop-color="#1B3556"/>
<stop offset="1" stop-color="#213959"/>
</linearGradient>
<linearGradient id="paint34_linear_1302_40265" x1="121.073" y1="142.146" x2="122.084" y2="157.877" gradientUnits="userSpaceOnUse">
<stop stop-color="#3E556E"/>
<stop offset="0.239583" stop-color="#41586F"/>
<stop offset="0.427083" stop-color="#334A67"/>
<stop offset="0.572917" stop-color="#28415E"/>
<stop offset="0.822917" stop-color="#1B3556"/>
<stop offset="1" stop-color="#213959"/>
</linearGradient>
<linearGradient id="paint35_linear_1302_40265" x1="121.073" y1="142.146" x2="122.084" y2="157.877" gradientUnits="userSpaceOnUse">
<stop stop-color="#3E556E"/>
<stop offset="0.239583" stop-color="#41586F"/>
<stop offset="0.427083" stop-color="#334A67"/>
<stop offset="0.572917" stop-color="#28415E"/>
<stop offset="0.822917" stop-color="#1B3556"/>
<stop offset="1" stop-color="#213959"/>
</linearGradient>
<linearGradient id="paint36_linear_1302_40265" x1="121.073" y1="142.146" x2="122.084" y2="157.877" gradientUnits="userSpaceOnUse">
<stop stop-color="#3E556E"/>
<stop offset="0.239583" stop-color="#41586F"/>
<stop offset="0.427083" stop-color="#334A67"/>
<stop offset="0.572917" stop-color="#28415E"/>
<stop offset="0.822917" stop-color="#1B3556"/>
<stop offset="1" stop-color="#213959"/>
</linearGradient>
<linearGradient id="paint37_linear_1302_40265" x1="121.073" y1="142.146" x2="122.084" y2="157.877" gradientUnits="userSpaceOnUse">
<stop stop-color="#3E556E"/>
<stop offset="0.239583" stop-color="#41586F"/>
<stop offset="0.427083" stop-color="#334A67"/>
<stop offset="0.572917" stop-color="#28415E"/>
<stop offset="0.822917" stop-color="#1B3556"/>
<stop offset="1" stop-color="#213959"/>
</linearGradient>
<linearGradient id="paint38_linear_1302_40265" x1="121.073" y1="142.146" x2="122.084" y2="157.877" gradientUnits="userSpaceOnUse">
<stop stop-color="#3E556E"/>
<stop offset="0.239583" stop-color="#41586F"/>
<stop offset="0.427083" stop-color="#334A67"/>
<stop offset="0.572917" stop-color="#28415E"/>
<stop offset="0.822917" stop-color="#1B3556"/>
<stop offset="1" stop-color="#213959"/>
</linearGradient>
<linearGradient id="paint39_linear_1302_40265" x1="121.073" y1="142.146" x2="122.084" y2="157.877" gradientUnits="userSpaceOnUse">
<stop stop-color="#3E556E"/>
<stop offset="0.239583" stop-color="#41586F"/>
<stop offset="0.427083" stop-color="#334A67"/>
<stop offset="0.572917" stop-color="#28415E"/>
<stop offset="0.822917" stop-color="#1B3556"/>
<stop offset="1" stop-color="#213959"/>
</linearGradient>
<linearGradient id="paint40_linear_1302_40265" x1="121.073" y1="142.146" x2="122.084" y2="157.877" gradientUnits="userSpaceOnUse">
<stop stop-color="#3E556E"/>
<stop offset="0.239583" stop-color="#41586F"/>
<stop offset="0.427083" stop-color="#334A67"/>
<stop offset="0.572917" stop-color="#28415E"/>
<stop offset="0.822917" stop-color="#1B3556"/>
<stop offset="1" stop-color="#213959"/>
</linearGradient>
</defs>
</svg>
