<svg width="45" height="46" viewBox="0 0 45 46" fill="none" xmlns="http://www.w3.org/2000/svg">
<rect x="0.833374" y="0.647461" width="43" height="44.813" rx="4.5" stroke="#00538b"/>
<g clip-path="url(#clip0_1155_61358)">
<path d="M17.7552 11.6006C18.9652 11.6006 20.1381 11.9542 21.1487 12.6056C22.6582 12.4383 24.1844 12.6237 25.6164 13.1483C27.0483 13.6728 28.3499 14.5233 29.4262 15.6379C30.3698 16.6174 31.1186 17.7809 31.6299 19.0621C32.1411 20.3432 32.4048 21.7166 32.4058 23.1039C32.4058 23.5964 32.3728 24.0875 32.3068 24.5728C32.8461 25.5697 33.1302 26.6943 33.1318 27.8384C33.1318 28.715 32.9654 29.5829 32.6421 30.3922C32.3188 31.2015 31.8451 31.9363 31.2481 32.5543C30.0421 33.8064 28.4081 34.5088 26.7051 34.5071C25.5501 34.5071 24.4253 34.1835 23.4463 33.5851C21.9173 33.7752 20.3668 33.6026 18.9109 33.0802C17.455 32.5578 16.1315 31.6991 15.0396 30.5686C14.0963 29.5892 13.3476 28.4258 12.8364 27.145C12.3251 25.8642 12.0613 24.491 12.06 23.1039C12.06 22.5843 12.0957 22.0674 12.17 21.5563C11.4763 20.2879 11.2027 18.817 11.3916 17.3707C11.5805 15.9244 12.2212 14.5829 13.215 13.5534C14.4205 12.3033 16.0524 11.6012 17.7538 11.6006H17.7552ZM18.3698 21.6365C18.6173 22.0789 18.9611 22.4554 19.3722 22.7374C19.9168 23.1085 20.4958 23.4217 21.1006 23.6723C21.7771 23.9658 22.301 24.2163 22.675 24.4211C22.9898 24.5814 23.2758 24.799 23.5206 25.0625C23.7062 25.2657 23.8093 25.5363 23.8093 25.8184C23.8171 26.0166 23.7793 26.2139 23.6992 26.3939C23.6191 26.5739 23.499 26.7314 23.3487 26.8535C22.9486 27.1341 22.4687 27.2672 21.9875 27.2314C21.4928 27.2372 21.0022 27.1369 20.5465 26.9365C20.2997 26.8223 20.0558 26.7015 19.815 26.5743C19.5662 26.4367 19.2895 26.3631 19.0078 26.3595C18.7557 26.3486 18.5091 26.4388 18.319 26.6115C18.2281 26.7015 18.157 26.8109 18.1107 26.9323C18.0644 27.0537 18.044 27.1841 18.0508 27.3144C18.0451 27.5613 18.1165 27.8035 18.2543 28.0045C18.4206 28.224 18.6358 28.398 18.8813 28.5113C19.8398 28.9441 20.8788 29.149 21.9228 29.1112C22.6831 29.1269 23.4398 28.9984 24.1558 28.7318C24.7496 28.5124 25.2668 28.113 25.6408 27.585C26.008 27.0267 26.1936 26.361 26.1716 25.6852C26.1859 25.133 26.0531 24.5874 25.788 24.109C25.5188 23.6541 25.1563 23.2669 24.7265 22.9751C24.1817 22.6092 23.6037 22.2999 23.0008 22.0517C22.9364 22.0189 22.8698 21.9911 22.8015 21.9686C22.331 21.7701 21.8665 21.5567 21.4086 21.3287C21.1306 21.1928 20.879 21.005 20.6661 20.7746C20.4871 20.5786 20.3885 20.3178 20.3911 20.0474C20.3823 19.8413 20.4268 19.6365 20.5199 19.4545C20.613 19.2724 20.7513 19.1197 20.9205 19.0123C21.322 18.763 21.7843 18.6402 22.2515 18.6587C22.609 18.6544 22.9665 18.7016 23.313 18.7961C23.6897 18.9092 24.0582 19.0495 24.4157 19.2156C24.5601 19.2857 24.7182 19.3229 24.8777 19.3244C24.9941 19.3274 25.1097 19.3047 25.2171 19.2578C25.3245 19.2109 25.4211 19.1409 25.5006 19.0524C25.6702 18.8591 25.7592 18.6037 25.7481 18.3423C25.7522 18.0931 25.6691 17.8509 25.5143 17.6608C25.3028 17.4298 25.0404 17.2558 24.7498 17.154C24.4345 17.0333 24.1084 16.9455 23.7763 16.892C23.3119 16.8128 22.8417 16.7755 22.3711 16.7803C21.6519 16.7756 20.9373 16.9005 20.2591 17.1497C19.6352 17.3688 19.0782 17.756 18.6448 18.2721C18.2279 18.7861 18.0076 19.4421 18.0261 20.1146C18.0123 20.6444 18.1306 21.1683 18.3698 21.6365Z" fill="#00538b"/>
</g>
<defs>
<clipPath id="clip0_1155_61358">
<rect x="11.3334" y="11.6006" width="22" height="22.9065" rx="5" fill="white"/>
</clipPath>
</defs>
</svg>
