<svg width="44" height="46" viewBox="0 0 44 46" fill="none" xmlns="http://www.w3.org/2000/svg">
<rect x="0.5" y="0.647461" width="43" height="44.813" rx="4.5" stroke="#0139B7"/>
<rect x="11" y="11.6006" width="22" height="22.9065" rx="10" fill="#0139B7"/>
<path d="M30.9375 17.2892C30.2801 17.5845 29.5646 17.797 28.8277 17.8798C29.5928 17.4065 30.1658 16.6588 30.4391 15.777C29.7211 16.2217 28.9346 16.5335 28.1144 16.6987C27.7717 16.3171 27.3571 16.0131 26.8965 15.8057C26.4359 15.5982 25.9393 15.4918 25.4375 15.4929C23.4072 15.4929 21.7744 17.2064 21.7744 19.3092C21.7744 19.6045 21.8088 19.8998 21.8647 20.1838C18.8246 20.0183 16.1133 18.5061 14.3108 16.1909C13.9823 16.775 13.8102 17.44 13.8123 18.1169C13.8123 19.4412 14.459 20.6089 15.4451 21.2956C14.864 21.2718 14.2965 21.1055 13.7887 20.8102V20.8572C13.7887 22.7116 15.0477 24.2484 16.7256 24.6019C16.4105 24.6871 16.0864 24.7306 15.7609 24.7316C15.5225 24.7316 15.2969 24.707 15.0692 24.6734C15.5332 26.1856 16.8846 27.284 18.4938 27.3198C17.2348 28.3465 15.6578 28.9505 13.9455 28.9505C13.6383 28.9505 13.3547 28.9393 13.0604 28.9035C14.6846 29.9885 16.6117 30.6148 18.6871 30.6148C25.4246 30.6148 29.1113 24.8032 29.1113 19.7588C29.1113 19.5933 29.1113 19.4278 29.1006 19.2622C29.8139 18.7186 30.4391 18.0453 30.9375 17.2892Z" fill="white"/>
</svg>
