<svg width="1381" height="656" viewBox="0 0 1381 656" fill="none" xmlns="http://www.w3.org/2000/svg">
<path d="M1357 127L1272.01 42.0147C1269.76 39.7643 1266.71 38.5 1263.53 38.5H1068" stroke="#00538B" stroke-width="0.5" stroke-dasharray="4 4"/>
<circle cx="1014" cy="10" r="9.5" stroke="#00538B"/>
<circle cx="1058" cy="38" r="9.5" stroke="#00538B"/>
<circle cx="834" cy="167" r="9.5" stroke="#00538B"/>
<path d="M1023.5 10H1275.03C1278.21 10 1281.26 11.2643 1283.51 13.5147L1376.49 106.485C1378.74 108.736 1380 111.788 1380 114.971V155.5C1380 162.127 1374.63 167.5 1368 167.5H844" stroke="#00538B" stroke-width="0.5" stroke-dasharray="4 4"/>
<path d="M0 301.5L55.9853 245.515C58.2357 243.264 61.288 242 64.4706 242H702.529C705.712 242 708.764 243.264 711.015 245.515L764 298.5" stroke="#00538B" stroke-width="0.5"/>
<circle cx="771.5" cy="305" r="9.5" stroke="#00538B"/>
<path d="M0.5 527.5H479.029C482.212 527.5 485.264 528.764 487.515 531.015L592.485 635.985C594.736 638.236 597.788 639.5 600.971 639.5H1180" stroke="#00538B" stroke-width="0.5" stroke-dasharray="4 4"/>
<mask id="path-9-inside-1_2011_65878" fill="white">
<path fill-rule="evenodd" clip-rule="evenodd" d="M1196 656C1204.84 656 1212 648.837 1212 640C1212 631.163 1204.84 624 1196 624C1187.16 624 1180 631.163 1180 640C1180 648.837 1187.16 656 1196 656ZM1196 655.273C1204.43 655.273 1211.27 648.435 1211.27 640C1211.27 631.565 1204.43 624.727 1196 624.727C1187.57 624.727 1180.73 631.565 1180.73 640C1180.73 648.435 1187.57 655.273 1196 655.273Z"/>
</mask>
<path fill-rule="evenodd" clip-rule="evenodd" d="M1196 656C1204.84 656 1212 648.837 1212 640C1212 631.163 1204.84 624 1196 624C1187.16 624 1180 631.163 1180 640C1180 648.837 1187.16 656 1196 656ZM1196 655.273C1204.43 655.273 1211.27 648.435 1211.27 640C1211.27 631.565 1204.43 624.727 1196 624.727C1187.57 624.727 1180.73 631.565 1180.73 640C1180.73 648.435 1187.57 655.273 1196 655.273Z" fill="#525259"/>
<path d="M1211 640C1211 648.284 1204.28 655 1196 655V657C1205.39 657 1213 649.389 1213 640H1211ZM1196 625C1204.28 625 1211 631.716 1211 640H1213C1213 630.611 1205.39 623 1196 623V625ZM1181 640C1181 631.716 1187.72 625 1196 625V623C1186.61 623 1179 630.611 1179 640H1181ZM1196 655C1187.72 655 1181 648.284 1181 640H1179C1179 649.389 1186.61 657 1196 657V655ZM1210.27 640C1210.27 647.883 1203.88 654.273 1196 654.273V656.273C1204.99 656.273 1212.27 648.987 1212.27 640H1210.27ZM1196 625.727C1203.88 625.727 1210.27 632.117 1210.27 640H1212.27C1212.27 631.013 1204.99 623.727 1196 623.727V625.727ZM1181.73 640C1181.73 632.117 1188.12 625.727 1196 625.727V623.727C1187.01 623.727 1179.73 631.013 1179.73 640H1181.73ZM1196 654.273C1188.12 654.273 1181.73 647.883 1181.73 640H1179.73C1179.73 648.987 1187.01 656.273 1196 656.273V654.273Z" fill="#525259" mask="url(#path-9-inside-1_2011_65878)"/>
</svg>
