<svg width="408" height="68" viewBox="0 0 408 68" fill="none" xmlns="http://www.w3.org/2000/svg">
<path d="M58.5 34.5H407.5" stroke="#D9D9D9" stroke-dasharray="4 4"/>
<circle cx="34" cy="33.9995" r="8" fill="#D9D9D9"/>
<path d="M34 2C29.7977 2 25.6365 2.8277 21.7541 4.43586C17.8717 6.04401 14.3441 8.40111 11.3726 11.3726C8.40111 14.3441 6.044 17.8717 4.43585 21.7541C2.8277 25.6366 2 29.7977 2 34C2 38.2023 2.8277 42.3635 4.43585 46.2459C6.04401 50.1283 8.40111 53.6559 11.3726 56.6274C14.3441 59.5989 17.8717 61.956 21.7541 63.5641C25.6366 65.1723 29.7977 66 34 66" stroke="#D9D9D9" stroke-width="4"/>
<circle cx="34" cy="33.9995" r="23.5" stroke="#D9D9D9"/>
</svg>
