<svg width="475" height="187" viewBox="0 0 475 187" fill="none" xmlns="http://www.w3.org/2000/svg">
<g filter="url(#filter0_f_1332_61214)">
<circle cx="216" cy="14" r="4.54545" fill="url(#paint0_linear_1332_61214)"/>
<circle cx="216" cy="14" r="9.5" stroke="url(#paint1_linear_1332_61214)"/>
</g>
<circle cx="216" cy="14" r="4.54545" fill="white"/>
<circle cx="216" cy="14" r="9.5" stroke="url(#paint2_linear_1332_61214)"/>
<g filter="url(#filter1_f_1332_61214)">
<path d="M455.5 177L86.9506 177C65.216 177 44.3715 168.361 29.0027 152.983C13.634 137.605 5 116.748 5 95.0001C5 73.2523 13.634 52.3953 29.0027 37.0173C44.3715 21.6393 65.216 13 86.9506 13L206.878 13" stroke="url(#paint3_linear_1332_61214)"/>
</g>
<path d="M455.5 177L86.9506 177C65.216 177 44.3715 168.361 29.0027 152.983C13.634 137.605 5 116.748 5 95.0001C5 73.2523 13.634 52.3953 29.0027 37.0173C44.3715 21.6393 65.216 13 86.9506 13L206.878 13" stroke="url(#paint4_linear_1332_61214)" stroke-width="0.5"/>
<circle cx="465" cy="177" r="9.5" stroke="url(#paint5_linear_1332_61214)"/>
<circle cx="397" cy="158" r="9.5" stroke="url(#paint6_linear_1332_61214)"/>
<circle cx="107" cy="33" r="9.5" stroke="url(#paint7_linear_1332_61214)"/>
<path d="M97 33C88.0701 33 79.2277 34.6166 70.9775 37.7575C62.7274 40.8984 55.2311 45.5021 48.9167 51.3058C42.6024 57.1095 37.5935 63.9994 34.1762 71.5823C30.7589 79.1651 29 87.2924 29 95.5C29 103.708 30.7589 111.835 34.1762 119.418C37.5935 127.001 42.6024 133.89 48.9167 139.694C55.2311 145.498 62.7274 150.102 70.9775 153.242C79.2277 156.383 88.0701 158 97 158L387 158" stroke="url(#paint8_linear_1332_61214)" stroke-width="0.5" stroke-dasharray="4 4"/>
<defs>
<filter id="filter0_f_1332_61214" x="202" y="0" width="28" height="28" filterUnits="userSpaceOnUse" color-interpolation-filters="sRGB">
<feFlood flood-opacity="0" result="BackgroundImageFix"/>
<feBlend mode="normal" in="SourceGraphic" in2="BackgroundImageFix" result="shape"/>
<feGaussianBlur stdDeviation="2" result="effect1_foregroundBlur_1332_61214"/>
</filter>
<filter id="filter1_f_1332_61214" x="0.5" y="8.5" width="459" height="173" filterUnits="userSpaceOnUse" color-interpolation-filters="sRGB">
<feFlood flood-opacity="0" result="BackgroundImageFix"/>
<feBlend mode="normal" in="SourceGraphic" in2="BackgroundImageFix" result="shape"/>
<feGaussianBlur stdDeviation="2" result="effect1_foregroundBlur_1332_61214"/>
</filter>
<linearGradient id="paint0_linear_1332_61214" x1="211.455" y1="14" x2="220.545" y2="14" gradientUnits="userSpaceOnUse">
<stop stop-color="#67696E"/>
<stop offset="1" stop-color="#F4F4F9"/>
</linearGradient>
<linearGradient id="paint1_linear_1332_61214" x1="206" y1="14" x2="226" y2="14" gradientUnits="userSpaceOnUse">
<stop stop-color="#67696E"/>
<stop offset="1" stop-color="#F4F4F9"/>
</linearGradient>
<linearGradient id="paint2_linear_1332_61214" x1="206" y1="14" x2="226" y2="14" gradientUnits="userSpaceOnUse">
<stop stop-color="#67696E"/>
<stop offset="1" stop-color="#F4F4F9"/>
</linearGradient>
<linearGradient id="paint3_linear_1332_61214" x1="230.25" y1="177" x2="230.25" y2="13" gradientUnits="userSpaceOnUse">
<stop stop-color="#67696E"/>
<stop offset="1" stop-color="#F4F4F9"/>
</linearGradient>
<linearGradient id="paint4_linear_1332_61214" x1="494.215" y1="217.226" x2="492.724" y2="7.05115" gradientUnits="userSpaceOnUse">
<stop offset="0.394225" stop-color="#6E676A"/>
<stop offset="0.792275" stop-color="#A8A5A8"/>
<stop offset="1" stop-color="#F4F4F9"/>
</linearGradient>
<linearGradient id="paint5_linear_1332_61214" x1="455" y1="177" x2="475" y2="177" gradientUnits="userSpaceOnUse">
<stop stop-color="#67696E"/>
<stop offset="1" stop-color="#F4F4F9"/>
</linearGradient>
<linearGradient id="paint6_linear_1332_61214" x1="387" y1="158" x2="407" y2="158" gradientUnits="userSpaceOnUse">
<stop stop-color="#67696E"/>
<stop offset="1" stop-color="#F4F4F9"/>
</linearGradient>
<linearGradient id="paint7_linear_1332_61214" x1="97" y1="33" x2="117" y2="33" gradientUnits="userSpaceOnUse">
<stop stop-color="#67696E"/>
<stop offset="1" stop-color="#F4F4F9"/>
</linearGradient>
<linearGradient id="paint8_linear_1332_61214" x1="208" y1="33" x2="208" y2="158" gradientUnits="userSpaceOnUse">
<stop stop-color="#67696E"/>
<stop offset="1" stop-color="#F4F4F9"/>
</linearGradient>
</defs>
</svg>
