<svg width="855" height="188" viewBox="0 0 855 188" fill="none" xmlns="http://www.w3.org/2000/svg">
<g filter="url(#filter0_f_1332_61216)">
<path d="M19.5 178L768 178C789.748 178 810.605 169.361 825.983 153.983C841.361 138.605 850 117.748 850 96C850 74.2522 841.361 53.3952 825.983 38.0172C810.605 22.6392 789.748 14 768 14L648 14" stroke="url(#paint0_linear_1332_61216)"/>
</g>
<path d="M19.5 178L768 178C789.748 178 810.605 169.361 825.983 153.983C841.361 138.605 850 117.748 850 96C850 74.2522 841.361 53.3952 825.983 38.0172C810.605 22.6392 789.748 14 768 14L648 14" stroke="url(#paint1_linear_1332_61216)" stroke-width="0.5" stroke-dasharray="4 4"/>
<g filter="url(#filter1_f_1332_61216)">
<circle cx="638" cy="14" r="4.54545" fill="url(#paint2_linear_1332_61216)"/>
<circle cx="638" cy="14" r="9.5" stroke="url(#paint3_linear_1332_61216)"/>
</g>
<circle cx="638" cy="14" r="4.04545" fill="white" stroke="url(#paint4_linear_1332_61216)"/>
<circle cx="638" cy="14" r="9.5" stroke="url(#paint5_linear_1332_61216)"/>
<circle cx="10" cy="178" r="9.5" stroke="url(#paint6_linear_1332_61216)"/>
<defs>
<filter id="filter0_f_1332_61216" x="15.5" y="9.5" width="839" height="173" filterUnits="userSpaceOnUse" color-interpolation-filters="sRGB">
<feFlood flood-opacity="0" result="BackgroundImageFix"/>
<feBlend mode="normal" in="SourceGraphic" in2="BackgroundImageFix" result="shape"/>
<feGaussianBlur stdDeviation="2" result="effect1_foregroundBlur_1332_61216"/>
</filter>
<filter id="filter1_f_1332_61216" x="624" y="0" width="28" height="28" filterUnits="userSpaceOnUse" color-interpolation-filters="sRGB">
<feFlood flood-opacity="0" result="BackgroundImageFix"/>
<feBlend mode="normal" in="SourceGraphic" in2="BackgroundImageFix" result="shape"/>
<feGaussianBlur stdDeviation="2" result="effect1_foregroundBlur_1332_61216"/>
</filter>
<linearGradient id="paint0_linear_1332_61216" x1="-227.199" y1="125.513" x2="-199.982" y2="-137.866" gradientUnits="userSpaceOnUse">
<stop stop-color="#73B7C1"/>
<stop offset="0.239583" stop-color="#AFEDF8"/>
<stop offset="0.494792" stop-color="#92CCE3"/>
<stop offset="0.963542" stop-color="#88EAFF"/>
</linearGradient>
<linearGradient id="paint1_linear_1332_61216" x1="434.75" y1="178" x2="434.75" y2="14" gradientUnits="userSpaceOnUse">
<stop stop-color="#67696E"/>
<stop offset="1" stop-color="#F4F4F9"/>
</linearGradient>
<linearGradient id="paint2_linear_1332_61216" x1="636.364" y1="6.75414" x2="647.948" y2="12.8158" gradientUnits="userSpaceOnUse">
<stop stop-color="#73B7C1"/>
<stop offset="0.239583" stop-color="#AFEDF8"/>
<stop offset="0.494792" stop-color="#92CCE3"/>
<stop offset="0.963542" stop-color="#88EAFF"/>
</linearGradient>
<linearGradient id="paint3_linear_1332_61216" x1="634.401" y1="-1.94098" x2="659.885" y2="11.3948" gradientUnits="userSpaceOnUse">
<stop stop-color="#73B7C1"/>
<stop offset="0.239583" stop-color="#AFEDF8"/>
<stop offset="0.494792" stop-color="#92CCE3"/>
<stop offset="0.963542" stop-color="#88EAFF"/>
</linearGradient>
<linearGradient id="paint4_linear_1332_61216" x1="633.455" y1="14" x2="642.545" y2="14" gradientUnits="userSpaceOnUse">
<stop stop-color="#67696E"/>
<stop offset="1" stop-color="#F4F4F9"/>
</linearGradient>
<linearGradient id="paint5_linear_1332_61216" x1="628" y1="14" x2="648" y2="14" gradientUnits="userSpaceOnUse">
<stop stop-color="#67696E"/>
<stop offset="1" stop-color="#F4F4F9"/>
</linearGradient>
<linearGradient id="paint6_linear_1332_61216" x1="0" y1="178" x2="20" y2="178" gradientUnits="userSpaceOnUse">
<stop stop-color="#67696E"/>
<stop offset="1" stop-color="#F4F4F9"/>
</linearGradient>
</defs>
</svg>
