<svg width="130" height="89" viewBox="0 0 130 89" fill="none" xmlns="http://www.w3.org/2000/svg">
<path d="M97.3506 68.1252L99.9624 69.9508C100.26 70.7901 101.377 72.6954 103.466 73.6018L104.294 75.8051" stroke="url(#paint0_linear_996_54330)" stroke-width="0.4"/>
<path d="M102.256 56.9831C102.596 56.3746 103.721 54.9435 105.505 54.0874" stroke="url(#paint1_linear_996_54330)" stroke-width="0.4"/>
<path d="M98.8796 56.7944V55.0947C96.5863 57.8141 96.3952 62.6906 96.5863 64.789L97.6055 63.7818C97.2488 60.7602 98.3063 57.8645 98.8796 56.7944Z" fill="url(#paint2_linear_996_54330)"/>
<path d="M112.639 72.9722H107.479L106.523 73.9164" stroke="url(#paint3_linear_996_54330)" stroke-width="0.4"/>
<path d="M119.646 74.1684C115.671 77.7943 109.369 77.3579 106.715 76.6864L107.224 74.1055C111.709 75.3141 115.506 73.7698 116.844 72.8465C117.396 72.175 118.729 71.0587 119.646 71.9652C120.564 72.8717 120.029 73.8117 119.646 74.1684Z" fill="url(#paint4_linear_996_54330)"/>
<path d="M119.965 54.717L118.054 55.913C115.2 53.0929 112.448 52.7656 111.429 52.9544C112.448 51.9472 111.853 51.024 111.429 50.6882H111.684C116.066 50.8393 119.031 53.437 119.965 54.717Z" fill="url(#paint5_linear_996_54330)"/>
<path d="M110.697 77.1429C106.586 77.1429 103.191 75.7924 100.51 73.0913C97.8303 70.3902 96.4902 67.0588 96.4902 63.0972C96.4902 59.1099 97.8303 55.7785 100.51 53.1032C103.191 50.4021 106.586 49.0515 110.697 49.0515C113.169 49.0515 115.446 49.6303 117.528 50.7879C119.635 51.9198 121.275 53.4633 122.446 55.4184L117.801 58.0809C117.124 56.8718 116.162 55.9329 114.913 55.264C113.664 54.5695 112.259 54.2222 110.697 54.2222M121.613 70.1776L117.801 68.1135C117.151 69.2969 116.188 70.2358 114.913 70.9304C113.664 71.5992 112.259 71.9337 110.697 71.9337C108.043 71.9337 105.897 71.1105 104.257 69.4641C103.051 68.2334 102.296 66.7369 101.992 64.9744" stroke="url(#paint6_linear_996_54330)" stroke-width="0.4"/>
<path d="M109.518 54.2134C104.035 55.0147 102.288 59.261 102.033 61.6768" stroke="url(#paint7_linear_996_54330)" stroke-width="0.4"/>
<path d="M110.697 77.1656C106.586 77.1656 103.191 75.8151 100.51 73.114C97.8303 70.4129 96.4902 67.0815 96.4902 63.1199C96.4902 59.1326 97.8303 55.8012 100.51 53.1259C103.191 50.4248 106.586 49.0742 110.697 49.0742C113.169 49.0742 115.446 49.653 117.528 50.8106C119.635 51.9425 121.275 53.486 122.446 55.4411L117.801 58.1036C117.124 56.8945 116.162 55.9556 114.913 55.2867C113.664 54.5922 112.353 54.2336 110.792 54.2336M121.613 70.2003L117.801 68.1362C117.151 69.3196 116.188 70.2585 114.913 70.9531C113.664 71.6219 112.259 71.9564 110.697 71.9564C108.043 71.9564 105.897 71.1332 104.257 69.4868C103.046 68.2509 102.29 66.7468 101.988 64.9745" stroke="white" stroke-width="0.4"/>
<path d="M100.727 69.447C101.206 70.364 101.867 71.1897 102.709 71.924C104.698 73.63 107.301 74.483 110.52 74.483C112.414 74.483 114.118 74.1365 115.633 73.4434C116.464 73.0565 117.186 72.5964 117.799 72.0631" stroke="url(#paint8_linear_996_54330)" stroke-width="0.4"/>
<path d="M110.783 54.2335C110.783 54.5891 110.49 54.8814 110.125 54.8814C109.759 54.8814 109.467 54.5891 109.467 54.2335C109.467 53.8778 109.759 53.5855 110.125 53.5855C110.49 53.5855 110.783 53.8778 110.783 54.2335Z" fill="white" stroke="url(#paint9_linear_996_54330)" stroke-width="0.4"/>
<path d="M111.695 77.1964C111.695 77.4625 111.476 77.6823 111.201 77.6823C110.926 77.6823 110.707 77.4625 110.707 77.1964C110.707 76.9303 110.926 76.7105 111.201 76.7105C111.476 76.7105 111.695 76.9303 111.695 77.1964Z" fill="white" stroke="url(#paint10_linear_996_54330)" stroke-width="0.4"/>
<path d="M118.054 55.913L120.029 54.717C118.967 53.3531 115.748 50.6252 111.365 50.6252" stroke="url(#paint11_linear_996_54330)" stroke-width="0.4"/>
<path d="M112.8 51.7466C112.8 52.4646 112.218 53.0466 111.5 53.0466C110.782 53.0466 110.2 52.4646 110.2 51.7466C110.2 51.0286 110.782 50.4466 111.5 50.4466C112.218 50.4466 112.8 51.0286 112.8 51.7466Z" fill="white" stroke="url(#paint12_linear_996_54330)" stroke-width="0.4"/>
<path d="M99.0703 61.7674C99.2614 59.2914 101.262 53.7854 107.734 51.5696" stroke="url(#paint13_linear_996_54330)" stroke-width="0.4"/>
<path d="M99.6218 62.3273C99.6218 62.5934 99.4028 62.8132 99.1277 62.8132C98.8526 62.8132 98.6336 62.5934 98.6336 62.3273C98.6336 62.0611 98.8526 61.8414 99.1277 61.8414C99.4028 61.8414 99.6218 62.0611 99.6218 62.3273Z" fill="white" stroke="url(#paint14_linear_996_54330)" stroke-width="0.4"/>
<path d="M108.668 51.3741C108.668 51.6403 108.449 51.8601 108.174 51.8601C107.898 51.8601 107.679 51.6403 107.679 51.3741C107.679 51.108 107.898 50.8882 108.174 50.8882C108.449 50.8882 108.668 51.108 108.668 51.3741Z" fill="white" stroke="url(#paint15_linear_996_54330)" stroke-width="0.4"/>
<path d="M113.267 72.9094C113.267 73.0401 113.159 73.15 113.021 73.15C112.883 73.15 112.775 73.0401 112.775 72.9094C112.775 72.7787 112.883 72.6688 113.021 72.6688C113.159 72.6688 113.267 72.7787 113.267 72.9094Z" fill="white" stroke="url(#paint16_linear_996_54330)" stroke-width="0.4"/>
<path d="M113.012 72.9093C113.012 72.901 113.018 72.8982 113.021 72.8982C113.024 72.8982 113.03 72.901 113.03 72.9093C113.03 72.9176 113.024 72.9205 113.021 72.9205C113.018 72.9205 113.012 72.9176 113.012 72.9093Z" fill="white" stroke="url(#paint17_linear_996_54330)" stroke-width="0.4"/>
<path d="M100.909 69.0065C100.909 69.2067 100.744 69.373 100.535 69.373C100.327 69.373 100.162 69.2067 100.162 69.0065C100.162 68.8063 100.327 68.6399 100.535 68.6399C100.744 68.6399 100.909 68.8063 100.909 69.0065Z" fill="white" stroke="url(#paint18_linear_996_54330)" stroke-width="0.4"/>
<path d="M100.58 69.0065C100.58 69.0279 100.562 69.0493 100.535 69.0493C100.507 69.0493 100.489 69.0279 100.489 69.0065C100.489 68.9851 100.507 68.9637 100.535 68.9637C100.562 68.9637 100.58 68.9851 100.58 69.0065Z" fill="white" stroke="url(#paint19_linear_996_54330)" stroke-width="0.4"/>
<path d="M102.311 57.4237C102.311 57.6239 102.146 57.7903 101.938 57.7903C101.729 57.7903 101.564 57.6239 101.564 57.4237C101.564 57.2235 101.729 57.0572 101.938 57.0572C102.146 57.0572 102.311 57.2235 102.311 57.4237Z" fill="white" stroke="url(#paint20_linear_996_54330)" stroke-width="0.4"/>
<path d="M101.983 57.4237C101.983 57.4451 101.965 57.4665 101.937 57.4665C101.91 57.4665 101.891 57.4451 101.891 57.4237C101.891 57.4023 101.91 57.3809 101.937 57.3809C101.965 57.3809 101.983 57.4023 101.983 57.4237Z" fill="white" stroke="url(#paint21_linear_996_54330)" stroke-width="0.4"/>
<path d="M106.387 53.8986C106.387 54.0988 106.222 54.2651 106.014 54.2651C105.805 54.2651 105.64 54.0988 105.64 53.8986C105.64 53.6984 105.805 53.532 106.014 53.532C106.222 53.532 106.387 53.6984 106.387 53.8986Z" fill="white" stroke="url(#paint22_linear_996_54330)" stroke-width="0.4"/>
<path d="M106.059 53.8986C106.059 53.92 106.041 53.9414 106.013 53.9414C105.986 53.9414 105.968 53.92 105.968 53.8986C105.968 53.8772 105.986 53.8558 106.013 53.8558C106.041 53.8558 106.059 53.8772 106.059 53.8986Z" fill="white" stroke="url(#paint23_linear_996_54330)" stroke-width="0.4"/>
<path d="M118.491 71.6503C118.491 71.8505 118.326 72.0168 118.117 72.0168C117.909 72.0168 117.744 71.8505 117.744 71.6503C117.744 71.4501 117.909 71.2837 118.117 71.2837C118.326 71.2837 118.491 71.4501 118.491 71.6503Z" fill="white" stroke="url(#paint24_linear_996_54330)" stroke-width="0.4"/>
<path d="M118.163 71.6503C118.163 71.6717 118.144 71.6931 118.117 71.6931C118.089 71.6931 118.071 71.6717 118.071 71.6503C118.071 71.6289 118.089 71.6075 118.117 71.6075C118.144 71.6075 118.163 71.6289 118.163 71.6503Z" fill="white" stroke="url(#paint25_linear_996_54330)" stroke-width="0.4"/>
<path d="M45.1191 45.9172H119.959L128.123 54.2813V70.9101H125.093" stroke="#EDEDFF" stroke-width="0.4"/>
<path fill-rule="evenodd" clip-rule="evenodd" d="M60.4061 70.1938C60.1019 70.1938 59.8552 69.9492 59.8552 69.6473C59.8552 69.3455 60.1019 69.1008 60.4061 69.1008C60.7104 69.1008 60.957 69.3455 60.957 69.6473C60.957 69.9492 60.7104 70.1938 60.4061 70.1938ZM60.4062 70.057C60.178 70.057 59.993 69.8735 59.993 69.6471C59.993 69.4208 60.178 69.2373 60.4062 69.2373C60.6344 69.2373 60.8193 69.4208 60.8193 69.6471C60.8193 69.8735 60.6344 70.057 60.4062 70.057Z" fill="#89898F"/>
<path d="M59.3528 49.2583L69.4496 77.553H63.8032L62.1118 72.5557L62.0428 72.3519H61.8276H50.1335H49.9184L49.8494 72.5557L48.158 77.553H42.5529L52.6087 49.2583H59.3528ZM51.6938 67.2302L51.5586 67.627H51.9778H60.0253H60.4445L60.3093 67.2302L56.2855 55.4247L56.0015 54.5916L55.7176 55.4247L51.6938 67.2302ZM90.2676 62.6337L89.9181 62.9101L90.3057 63.1299C92.7829 64.5354 94.0098 66.6375 94.0098 69.4735C94.0098 71.8409 93.1634 73.7669 91.4696 75.2761C89.7693 76.7911 87.6769 77.553 85.1725 77.553H73.024V49.2583H84.2923C86.7404 49.2583 88.7762 50.006 90.4202 51.4924L90.4201 51.4924L90.424 51.4958C92.0891 52.9505 92.92 54.8072 92.92 57.09C92.92 59.3944 92.0384 61.2333 90.2676 62.6337ZM78.5082 53.9831H78.2082V54.2831V60.64V60.94H78.5082H84.2923C85.261 60.94 86.0801 60.609 86.7267 59.9432C87.4004 59.2785 87.7359 58.4441 87.7359 57.4615C87.7359 56.4821 87.4166 55.6484 86.7711 54.9825C86.1222 54.313 85.2872 53.9831 84.2923 53.9831H78.5082ZM87.814 71.7924L87.8141 71.7925L87.8185 71.7879C88.5201 71.067 88.8676 70.1644 88.8676 69.102C88.8676 68.0657 88.5189 67.1895 87.8164 66.4964C87.1138 65.7756 86.2249 65.4172 85.1725 65.4172H78.5082H78.2082V65.7172V72.5281V72.8281H78.5082H85.1725C86.222 72.8281 87.1102 72.4855 87.814 71.7924Z" stroke="white" stroke-width="0.6"/>
<path fill-rule="evenodd" clip-rule="evenodd" d="M102.131 64.3966C102.682 64.3966 103.13 63.9547 103.13 63.4095C103.13 62.8643 102.682 62.4224 102.131 62.4224C101.579 62.4224 101.132 62.8643 101.132 63.4095C101.132 63.9547 101.579 64.3966 102.131 64.3966ZM102.131 64.1498C102.545 64.1498 102.88 63.8183 102.88 63.4095C102.88 63.0006 102.545 62.6691 102.131 62.6691C101.717 62.6691 101.382 63.0006 101.382 63.4095C101.382 63.8183 101.717 64.1498 102.131 64.1498Z" fill="#89898F"/>
<path fill-rule="evenodd" clip-rule="evenodd" d="M102.131 65.3838C103.234 65.3838 104.129 64.4999 104.129 63.4096C104.129 62.3192 103.234 61.4353 102.131 61.4353C101.027 61.4353 100.133 62.3192 100.133 63.4096C100.133 64.4999 101.027 65.3838 102.131 65.3838ZM102.131 64.8901C102.959 64.8901 103.63 64.2272 103.63 63.4094C103.63 62.5917 102.959 61.9288 102.131 61.9288C101.304 61.9288 100.633 62.5917 100.633 63.4094C100.633 64.2272 101.304 64.8901 102.131 64.8901Z" fill="#89898F"/>
<path fill-rule="evenodd" clip-rule="evenodd" d="M123.277 71.7987C123.829 71.7987 124.276 71.3568 124.276 70.8116C124.276 70.2664 123.829 69.8245 123.277 69.8245C122.726 69.8245 122.278 70.2664 122.278 70.8116C122.278 71.3568 122.726 71.7987 123.277 71.7987ZM123.278 71.5519C123.691 71.5519 124.027 71.2205 124.027 70.8116C124.027 70.4027 123.691 70.0712 123.278 70.0712C122.864 70.0712 122.528 70.4027 122.528 70.8116C122.528 71.2205 122.864 71.5519 123.278 71.5519Z" fill="#89898F"/>
<path fill-rule="evenodd" clip-rule="evenodd" d="M123.277 72.7859C124.381 72.7859 125.275 71.902 125.275 70.8117C125.275 69.7213 124.381 68.8374 123.277 68.8374C122.174 68.8374 121.279 69.7213 121.279 70.8117C121.279 71.902 122.174 72.7859 123.277 72.7859ZM123.278 72.2923C124.105 72.2923 124.776 71.6293 124.776 70.8116C124.776 69.9938 124.105 69.3309 123.278 69.3309C122.45 69.3309 121.779 69.9938 121.779 70.8116C121.779 71.6293 122.45 72.2923 123.278 72.2923Z" fill="#89898F"/>
<path d="M42.7678 83.9685C42.4262 83.9755 42.1494 84.2498 42.1494 84.5874V86.9365H42.7786V85.245C42.8253 85.5369 43.0842 85.7619 43.4005 85.7619H44.702V86.9365H45.3312V83.9685H42.7678ZM44.702 85.1465H42.7786V84.067C42.8253 84.3624 43.0842 84.5874 43.4005 84.5874H44.702V85.1465Z" fill="white"/>
<path d="M51.1668 83.9685H48.607V86.9365H51.1668C51.5119 86.9329 51.7888 86.6586 51.7888 86.3211V84.5874C51.7888 84.2498 51.5119 83.9755 51.1668 83.9685ZM50.5377 84.5874C50.8504 84.5874 51.1093 84.3624 51.1596 84.067V85.1465H49.2362V84.5874H50.5377ZM50.5377 86.3211H49.2362V85.7619H51.1596V86.8415C51.1093 86.5461 50.8504 86.3211 50.5377 86.3211Z" fill="white"/>
<path d="M56.2586 84.5874H58.1892V83.9685H55.6258C55.2843 83.9755 55.0075 84.2498 55.0075 84.5874V86.3211C55.0075 86.6586 55.2843 86.9329 55.6258 86.9365H58.1892V86.3211H56.2586C55.9422 86.3211 55.6834 86.5461 55.6366 86.8415V84.067C55.6834 84.3624 55.9422 84.5874 56.2586 84.5874Z" fill="white"/>
<path d="M63.8736 83.9685H61.943C61.5942 83.9685 61.3138 84.2463 61.3138 84.5874V86.3211C61.3138 86.6586 61.5906 86.9329 61.9322 86.9365H63.8664C64.2151 86.9365 64.4955 86.6622 64.4955 86.3211V84.5874C64.4955 84.2498 64.2187 83.9755 63.8736 83.9685ZM63.8664 86.3211H62.5649C62.2485 86.3211 61.9897 86.5461 61.943 86.8415V84.5874H63.2444C63.5572 84.5874 63.816 84.3624 63.8664 84.067V86.3211Z" fill="white"/>
<path d="M70.458 83.9685V83.972L69.5592 85.66C69.4622 85.8358 69.4154 86.0292 69.4154 86.2296C69.4154 86.0292 69.3651 85.8358 69.2716 85.66L68.3728 83.972V83.9685H67.7437V86.9365H68.3728V84.8195C68.4088 85.0973 68.4987 85.3681 68.6425 85.6142L69.4154 86.9365L70.1884 85.6142C70.3286 85.3681 70.4221 85.0973 70.458 84.8195V86.9365H71.0872V83.9685H70.458Z" fill="white"/>
<path d="M77.0768 83.9685V83.972L76.178 85.66C76.081 85.8358 76.0342 86.0292 76.0342 86.2296C76.0342 86.0292 75.9839 85.8358 75.8904 85.66L74.9916 83.972V83.9685H74.3625V86.9365H74.9916V84.8195C75.0276 85.0973 75.1174 85.3681 75.2613 85.6142L76.0342 86.9365L76.8072 85.6142C76.9474 85.3681 77.0409 85.0973 77.0768 84.8195V86.9365H77.706V83.9685H77.0768Z" fill="white"/>
<path d="M83.5195 83.9685V86.8415C83.4691 86.5461 83.2103 86.3211 82.8975 86.3211H81.596V83.9685H80.9669V86.3211C80.9669 86.6622 81.2473 86.9365 81.596 86.9365H83.5266C83.8718 86.9329 84.1486 86.6586 84.1486 86.3211V83.9685H83.5195Z" fill="white"/>
<path d="M89.963 83.9685V86.5848C89.9307 86.2015 89.7725 85.8323 89.5028 85.5439L88.0396 83.9685H87.4104V86.9365H88.0396V84.3659C88.0756 84.7386 88.2373 85.0938 88.4998 85.3751L89.963 86.9365H90.5922V83.9685H89.963Z" fill="white"/>
<path d="M94.4825 86.9365V83.9685H93.8534V86.9365H94.4825Z" fill="white"/>
<path d="M98.9634 84.5874H100.894V83.9685H98.3306C97.9891 83.9755 97.7122 84.2498 97.7122 84.5874V86.3211C97.7122 86.6586 97.9891 86.9329 98.3306 86.9365H100.894V86.3211H98.9634C98.647 86.3211 98.3881 86.5461 98.3414 86.8415V84.067C98.3881 84.3624 98.647 84.5874 98.9634 84.5874Z" fill="white"/>
<path d="M104.651 83.9685C104.31 83.9755 104.033 84.2498 104.033 84.5874V86.9365H104.662V85.245C104.709 85.5369 104.968 85.7619 105.284 85.7619H106.586V86.9365H107.215V83.9685H104.651ZM106.586 85.1465H104.662V84.067C104.709 84.3624 104.968 84.5874 105.284 84.5874H106.586V85.1465Z" fill="white"/>
<path d="M110.289 83.9685V84.5874H111.986C111.742 84.6718 111.566 84.8969 111.566 85.1676V86.9365H112.195V84.5874H113.471V83.9685H110.289Z" fill="white"/>
<path d="M117.159 86.9365V83.9685H116.53V86.9365H117.159Z" fill="white"/>
<path d="M122.948 83.9685H121.018C120.669 83.9685 120.389 84.2463 120.389 84.5874V86.3211C120.389 86.6586 120.665 86.9329 121.007 86.9365H122.941C123.29 86.9365 123.57 86.6622 123.57 86.3211V84.5874C123.57 84.2498 123.293 83.9755 122.948 83.9685ZM122.941 86.3211H121.64C121.323 86.3211 121.064 86.5461 121.018 86.8415V84.5874H122.319C122.632 84.5874 122.891 84.3624 122.941 84.067V86.3211Z" fill="white"/>
<path d="M129.371 83.9685V86.5848C129.339 86.2015 129.18 85.8323 128.911 85.5439L127.448 83.9685H126.818V86.9365H127.448V84.3659C127.484 84.7386 127.645 85.0938 127.908 85.3751L129.371 86.9365H130V83.9685H129.371Z" fill="white"/>
<g filter="url(#filter0_f_996_54330)">
<path d="M35.4482 38.9112V44.9912L36.3531 45.8854H42.5058L43.4106 44.9912V38.9112L42.5058 38.0171H36.3531L35.4482 38.9112Z" stroke="#89898F" stroke-width="0.4"/>
</g>
<g filter="url(#filter1_f_996_54330)">
<path d="M33.582 37.5952V46.4302L34.8968 47.7295H43.8376L45.1524 46.4302V37.5952L43.8376 36.2959H34.8968L33.582 37.5952Z" stroke="#89898F" stroke-width="0.4"/>
</g>
<path d="M36.705 38.7786L36.2236 39.2543V44.6457L36.705 45.1214H42.161L42.6424 44.6457V39.2543L42.161 38.7786H36.705Z" fill="url(#paint26_linear_996_54330)"/>
<path d="M35.4482 38.9112V44.9912L36.3531 45.8854H42.5058L43.4106 44.9912V38.9112L42.5058 38.0171H36.3531L35.4482 38.9112Z" stroke="#89898F" stroke-width="0.4"/>
<path d="M33.582 37.5952V46.4302L34.8968 47.7295H43.8376L45.1524 46.4302V37.5952L43.8376 36.2959H34.8968L33.582 37.5952Z" stroke="#89898F" stroke-width="0.4"/>
<path d="M43.1907 36.302V10.8229L44.3613 9.66163M42.2266 36.302V9.86657M42.2266 9.86657L44.4302 7.68055V1.28266M42.2266 9.86657V2.0364M46.4961 1V9.86657M46.4961 9.86657L54.6907 17.9958H60.7505V19.8437M46.4961 9.86657V29.1309H76.467M48.382 10.3276L54.8284 16.6979H66.0743M65.3116 15.6732H55.1727L50.008 10.5497M64.0721 14.5802H55.517L51.8673 10.9596M63.5953 13.4872H55.9302L54.0021 11.5744M47.1847 2.60171V8.70524H61.2117M48.011 5.71092V1H49.1817V6.57813L52.1428 6.86079M77.3251 30.3605H56.2817L49.1128 37.4651H45.1877V28.5844L44.017 29.7457V36.302M45.1877 38.4214H49.1128M49.3194 39.1729H43.4775M55.5435 29.1309L48.6997 35.8939H46.9781L46.5649 35.484V30.3605L47.8733 31.6584M55.3957 9.86657H59.5908M53.5988 29.1309L51.041 31.6584M51.8738 29.1309L50.2146 30.7704M43.4775 40.1293H49.526M77.3251 34.7302H54.9661L57.1008 32.6148H77.3251M72.3883 33.5712H58.4781M49.044 14.3752L54.4152 19.7037L60.7505 19.8437M47.8045 15.6732V27.6963H74.1787L73.2252 26.6033H48.6308V18.6188M64.9511 21.3432H53.5889L48.6308 16.4246V18.6188M50.3424 25.5103H70.8416M69.0829 24.2806H50.1458L48.6308 22.7777M48.6308 20.66L50.7655 22.7777H67.017M43.4775 40.8807H49.6637L54.4841 36.0988H77.7064M43.4775 41.6322H78.8506M51.4541 40.6075L54.9661 37.1235M78.4692 38.1482H55.9991M78.4692 39.4461H54.4152M60.7505 19.8437H66.0743M48.6308 18.6188L51.3164 21.3432M43.1907 8.91019V1.75375" stroke="url(#paint27_linear_996_54330)" stroke-width="0.4"/>
<path fill-rule="evenodd" clip-rule="evenodd" d="M48.8275 33.3064C48.4091 33.3064 48.07 32.9699 48.07 32.5549C48.07 32.1399 48.4091 31.8035 48.8275 31.8035C49.2458 31.8035 49.585 32.1399 49.585 32.5549C49.585 32.9699 49.2458 33.3064 48.8275 33.3064ZM48.8274 33.1184C48.5136 33.1184 48.2593 32.8661 48.2593 32.5548C48.2593 32.2436 48.5136 31.9912 48.8274 31.9912C49.1412 31.9912 49.3955 32.2436 49.3955 32.5548C49.3955 32.8661 49.1412 33.1184 48.8274 33.1184Z" fill="#89898F"/>
<path fill-rule="evenodd" clip-rule="evenodd" d="M48.8278 34.0578C47.9911 34.0578 47.3128 33.3849 47.3128 32.5549C47.3128 31.7249 47.9911 31.052 48.8278 31.052C49.6645 31.052 50.3428 31.7249 50.3428 32.5549C50.3428 33.3849 49.6645 34.0578 48.8278 34.0578ZM48.8279 33.7845C48.1433 33.7845 47.5883 33.234 47.5883 32.5549C47.5883 31.8758 48.1433 31.3253 48.8279 31.3253C49.5124 31.3253 50.0674 31.8758 50.0674 32.5549C50.0674 33.234 49.5124 33.7845 48.8279 33.7845Z" fill="#89898F"/>
<path fill-rule="evenodd" clip-rule="evenodd" d="M53.1073 7.20898C52.8031 7.20898 52.5564 6.9643 52.5564 6.66247C52.5564 6.36065 52.8031 6.11597 53.1073 6.11597C53.4116 6.11597 53.6582 6.36065 53.6582 6.66247C53.6582 6.9643 53.4116 7.20898 53.1073 7.20898ZM53.1073 7.07233C52.8791 7.07233 52.6942 6.88883 52.6942 6.66246C52.6942 6.43609 52.8791 6.25258 53.1073 6.25258C53.3355 6.25258 53.5205 6.43609 53.5205 6.66246C53.5205 6.88883 53.3355 7.07233 53.1073 7.07233Z" fill="#89898F"/>
<path fill-rule="evenodd" clip-rule="evenodd" d="M53.1072 7.7556C52.4987 7.7556 52.0054 7.26624 52.0054 6.66259C52.0054 6.05894 52.4987 5.56958 53.1072 5.56958C53.7157 5.56958 54.209 6.05894 54.209 6.66259C54.209 7.26624 53.7157 7.7556 53.1072 7.7556ZM53.1072 7.4826C52.6509 7.4826 52.2809 7.11558 52.2809 6.66284C52.2809 6.2101 52.6509 5.84309 53.1072 5.84309C53.5636 5.84309 53.9336 6.2101 53.9336 6.66284C53.9336 7.11558 53.5636 7.4826 53.1072 7.4826Z" fill="#89898F"/>
<path fill-rule="evenodd" clip-rule="evenodd" d="M44.6532 9.94189C44.349 9.94189 44.1023 9.69721 44.1023 9.39538C44.1023 9.09356 44.349 8.84888 44.6532 8.84888C44.9575 8.84888 45.2041 9.09356 45.2041 9.39538C45.2041 9.69721 44.9575 9.94189 44.6532 9.94189ZM44.6532 9.80508C44.425 9.80508 44.2401 9.62157 44.2401 9.3952C44.2401 9.16883 44.425 8.98533 44.6532 8.98533C44.8814 8.98533 45.0664 9.16883 45.0664 9.3952C45.0664 9.62157 44.8814 9.80508 44.6532 9.80508Z" fill="#89898F"/>
<path fill-rule="evenodd" clip-rule="evenodd" d="M44.7919 11.7034C44.4876 11.7034 44.241 11.4587 44.241 11.1569C44.241 10.855 44.4876 10.6104 44.7919 10.6104C45.0961 10.6104 45.3428 10.855 45.3428 11.1569C45.3428 11.4587 45.0961 11.7034 44.7919 11.7034ZM44.7919 11.5666C44.5637 11.5666 44.3787 11.3831 44.3787 11.1567C44.3787 10.9304 44.5637 10.7469 44.7919 10.7469C45.0201 10.7469 45.2051 10.9304 45.2051 11.1567C45.2051 11.3831 45.0201 11.5666 44.7919 11.5666Z" fill="#89898F"/>
<path fill-rule="evenodd" clip-rule="evenodd" d="M44.7919 27.9089C44.4876 27.9089 44.241 27.6642 44.241 27.3624C44.241 27.0606 44.4876 26.8159 44.7919 26.8159C45.0961 26.8159 45.3428 27.0606 45.3428 27.3624C45.3428 27.6642 45.0961 27.9089 44.7919 27.9089ZM44.7919 27.7722C44.5637 27.7722 44.3787 27.5887 44.3787 27.3623C44.3787 27.1359 44.5637 26.9524 44.7919 26.9524C45.0201 26.9524 45.2051 27.1359 45.2051 27.3623C45.2051 27.5887 45.0201 27.7722 44.7919 27.7722Z" fill="#89898F"/>
<path fill-rule="evenodd" clip-rule="evenodd" d="M49.7499 10.7612C49.4456 10.7612 49.199 10.5165 49.199 10.2147C49.199 9.91289 49.4456 9.66821 49.7499 9.66821C50.0541 9.66821 50.3008 9.91289 50.3008 10.2147C50.3008 10.5165 50.0541 10.7612 49.7499 10.7612ZM49.7499 10.6244C49.5217 10.6244 49.3367 10.4409 49.3367 10.2146C49.3367 9.98819 49.5217 9.80468 49.7499 9.80468C49.9781 9.80468 50.1631 9.98819 50.1631 10.2146C50.1631 10.4409 49.9781 10.6244 49.7499 10.6244Z" fill="#89898F"/>
<path fill-rule="evenodd" clip-rule="evenodd" d="M48.0331 10.5727C47.7288 10.5727 47.4822 10.3281 47.4822 10.0262C47.4822 9.72441 47.7288 9.47974 48.0331 9.47974C48.3373 9.47974 48.584 9.72441 48.584 10.0262C48.584 10.3281 48.3373 10.5727 48.0331 10.5727ZM48.0331 10.436C47.8049 10.436 47.6199 10.2525 47.6199 10.0261C47.6199 9.79975 47.8049 9.61624 48.0331 9.61624C48.2613 9.61624 48.4463 9.79975 48.4463 10.0261C48.4463 10.2525 48.2613 10.436 48.0331 10.436Z" fill="#89898F"/>
<path fill-rule="evenodd" clip-rule="evenodd" d="M48.0331 6.61547C47.7288 6.61547 47.4822 6.37079 47.4822 6.06897C47.4822 5.76714 47.7288 5.52246 48.0331 5.52246C48.3373 5.52246 48.584 5.76714 48.584 6.06897C48.584 6.37079 48.3373 6.61547 48.0331 6.61547ZM48.0331 6.47882C47.8049 6.47882 47.6199 6.29531 47.6199 6.06894C47.6199 5.84258 47.8049 5.65907 48.0331 5.65907C48.2613 5.65907 48.4463 5.84258 48.4463 6.06894C48.4463 6.29531 48.2613 6.47882 48.0331 6.47882Z" fill="#89898F"/>
<path fill-rule="evenodd" clip-rule="evenodd" d="M48.6991 14.5871C48.3949 14.5871 48.1482 14.3425 48.1482 14.0406C48.1482 13.7388 48.3949 13.4941 48.6991 13.4941C49.0034 13.4941 49.25 13.7388 49.25 14.0406C49.25 14.3425 49.0034 14.5871 48.6991 14.5871ZM48.6991 14.4504C48.4709 14.4504 48.286 14.2668 48.286 14.0405C48.286 13.8141 48.4709 13.6306 48.6991 13.6306C48.9273 13.6306 49.1123 13.8141 49.1123 14.0405C49.1123 14.2668 48.9273 14.4504 48.6991 14.4504Z" fill="#89898F"/>
<path fill-rule="evenodd" clip-rule="evenodd" d="M51.6561 22.2559C51.3519 22.2559 51.1052 22.0112 51.1052 21.7093C51.1052 21.4075 51.3519 21.1628 51.6561 21.1628C51.9604 21.1628 52.207 21.4075 52.207 21.7093C52.207 22.0112 51.9604 22.2559 51.6561 22.2559ZM51.6562 22.1191C51.428 22.1191 51.243 21.9356 51.243 21.7092C51.243 21.4828 51.428 21.2993 51.6562 21.2993C51.8844 21.2993 52.0693 21.4828 52.0693 21.7092C52.0693 21.9356 51.8844 22.1191 51.6562 22.1191Z" fill="#89898F"/>
<path fill-rule="evenodd" clip-rule="evenodd" d="M47.8417 15.8489C47.5374 15.8489 47.2908 15.6042 47.2908 15.3024C47.2908 15.0005 47.5374 14.7559 47.8417 14.7559C48.1459 14.7559 48.3926 15.0005 48.3926 15.3024C48.3926 15.6042 48.1459 15.8489 47.8417 15.8489ZM47.8417 15.7122C47.6135 15.7122 47.4285 15.5287 47.4285 15.3023C47.4285 15.076 47.6135 14.8925 47.8417 14.8925C48.0699 14.8925 48.2549 15.076 48.2549 15.3023C48.2549 15.5287 48.0699 15.7122 47.8417 15.7122Z" fill="#89898F"/>
<path fill-rule="evenodd" clip-rule="evenodd" d="M51.6561 11.1382C51.3519 11.1382 51.1052 10.8935 51.1052 10.5917C51.1052 10.2898 51.3519 10.0452 51.6561 10.0452C51.9604 10.0452 52.207 10.2898 52.207 10.5917C52.207 10.8935 51.9604 11.1382 51.6561 11.1382ZM51.6562 11.0013C51.428 11.0013 51.243 10.8178 51.243 10.5914C51.243 10.3651 51.428 10.1816 51.6562 10.1816C51.8844 10.1816 52.0693 10.3651 52.0693 10.5914C52.0693 10.8178 51.8844 11.0013 51.6562 11.0013Z" fill="#89898F"/>
<path fill-rule="evenodd" clip-rule="evenodd" d="M53.7538 11.7034C53.4495 11.7034 53.2029 11.4587 53.2029 11.1569C53.2029 10.855 53.4495 10.6104 53.7538 10.6104C54.058 10.6104 54.3047 10.855 54.3047 11.1569C54.3047 11.4587 54.058 11.7034 53.7538 11.7034ZM53.7538 11.5666C53.5256 11.5666 53.3406 11.3831 53.3406 11.1567C53.3406 10.9304 53.5256 10.7469 53.7538 10.7469C53.982 10.7469 54.167 10.9304 54.167 11.1567C54.167 11.3831 53.982 11.5666 53.7538 11.5666Z" fill="#89898F"/>
<path fill-rule="evenodd" clip-rule="evenodd" d="M65.5604 22.1338C65.1186 22.1338 64.7604 21.7785 64.7604 21.3402C64.7604 20.9019 65.1186 20.5466 65.5604 20.5466C66.0022 20.5466 66.3604 20.9019 66.3604 21.3402C66.3604 21.7785 66.0022 22.1338 65.5604 22.1338ZM65.5602 21.9353C65.2288 21.9353 64.9602 21.6689 64.9602 21.3401C64.9602 21.0114 65.2288 20.745 65.5602 20.745C65.8915 20.745 66.1602 21.0114 66.1602 21.3401C66.1602 21.6689 65.8915 21.9353 65.5602 21.9353Z" fill="#89898F"/>
<path fill-rule="evenodd" clip-rule="evenodd" d="M67.4305 23.1948C67.1263 23.1948 66.8797 22.9501 66.8797 22.6483C66.8797 22.3465 67.1263 22.1018 67.4305 22.1018C67.7348 22.1018 67.9814 22.3465 67.9814 22.6483C67.9814 22.9501 67.7348 23.1948 67.4305 23.1948ZM67.4306 23.058C67.2024 23.058 67.0174 22.8744 67.0174 22.6481C67.0174 22.4217 67.2024 22.2382 67.4306 22.2382C67.6588 22.2382 67.8438 22.4217 67.8438 22.6481C67.8438 22.8744 67.6588 23.058 67.4306 23.058Z" fill="#89898F"/>
<path fill-rule="evenodd" clip-rule="evenodd" d="M71.2977 26.0246C70.9935 26.0246 70.7468 25.78 70.7468 25.4781C70.7468 25.1763 70.9935 24.9316 71.2977 24.9316C71.602 24.9316 71.8486 25.1763 71.8486 25.4781C71.8486 25.78 71.602 26.0246 71.2977 26.0246ZM71.2978 25.8878C71.0696 25.8878 70.8846 25.7043 70.8846 25.4779C70.8846 25.2516 71.0696 25.0681 71.2978 25.0681C71.526 25.0681 71.7109 25.2516 71.7109 25.4779C71.7109 25.7043 71.526 25.8878 71.2978 25.8878Z" fill="#89898F"/>
<path fill-rule="evenodd" clip-rule="evenodd" d="M49.9393 26.0246C49.6351 26.0246 49.3884 25.78 49.3884 25.4781C49.3884 25.1763 49.6351 24.9316 49.9393 24.9316C50.2436 24.9316 50.4902 25.1763 50.4902 25.4781C50.4902 25.78 50.2436 26.0246 49.9393 26.0246ZM49.9394 25.8878C49.7112 25.8878 49.5262 25.7043 49.5262 25.4779C49.5262 25.2516 49.7112 25.0681 49.9394 25.0681C50.1676 25.0681 50.3525 25.2516 50.3525 25.4779C50.3525 25.7043 50.1676 25.8878 49.9394 25.8878Z" fill="#89898F"/>
<path fill-rule="evenodd" clip-rule="evenodd" d="M69.496 24.6973C69.1917 24.6973 68.9451 24.4526 68.9451 24.1508C68.9451 23.8489 69.1917 23.6042 69.496 23.6042C69.8002 23.6042 70.0469 23.8489 70.0469 24.1508C70.0469 24.4526 69.8002 24.6973 69.496 24.6973ZM69.496 24.5606C69.2678 24.5606 69.0828 24.3771 69.0828 24.1507C69.0828 23.9244 69.2678 23.7409 69.496 23.7409C69.7242 23.7409 69.9092 23.9244 69.9092 24.1507C69.9092 24.3771 69.7242 24.5606 69.496 24.5606Z" fill="#89898F"/>
<path fill-rule="evenodd" clip-rule="evenodd" d="M58.0643 33.988C57.7601 33.988 57.5134 33.7434 57.5134 33.4415C57.5134 33.1397 57.7601 32.895 58.0643 32.895C58.3686 32.895 58.6152 33.1397 58.6152 33.4415C58.6152 33.7434 58.3686 33.988 58.0643 33.988ZM58.0644 33.8512C57.8362 33.8512 57.6512 33.6677 57.6512 33.4413C57.6512 33.2149 57.8362 33.0314 58.0644 33.0314C58.2926 33.0314 58.4775 33.2149 58.4775 33.4413C58.4775 33.6677 58.2926 33.8512 58.0644 33.8512Z" fill="#89898F"/>
<path fill-rule="evenodd" clip-rule="evenodd" d="M72.8007 34.1763C72.4964 34.1763 72.2498 33.9316 72.2498 33.6298C72.2498 33.3279 72.4964 33.0833 72.8007 33.0833C73.1049 33.0833 73.3516 33.3279 73.3516 33.6298C73.3516 33.9316 73.1049 34.1763 72.8007 34.1763ZM72.8007 34.0396C72.5725 34.0396 72.3875 33.8561 72.3875 33.6297C72.3875 33.4033 72.5725 33.2198 72.8007 33.2198C73.0289 33.2198 73.2139 33.4033 73.2139 33.6297C73.2139 33.8561 73.0289 34.0396 72.8007 34.0396Z" fill="#89898F"/>
<path fill-rule="evenodd" clip-rule="evenodd" d="M60.0676 10.4263C59.7516 10.4263 59.4955 10.1722 59.4955 9.85877C59.4955 9.54534 59.7516 9.29126 60.0676 9.29126C60.3835 9.29126 60.6396 9.54534 60.6396 9.85877C60.6396 10.1722 60.3835 10.4263 60.0676 10.4263ZM60.068 10.2844C59.8311 10.2844 59.639 10.0939 59.639 9.85882C59.639 9.62375 59.8311 9.43319 60.068 9.43319C60.305 9.43319 60.4971 9.62375 60.4971 9.85882C60.4971 10.0939 60.305 10.2844 60.068 10.2844Z" fill="#89898F"/>
<path fill-rule="evenodd" clip-rule="evenodd" d="M54.9191 10.4263C54.6032 10.4263 54.3471 10.1722 54.3471 9.85877C54.3471 9.54534 54.6032 9.29126 54.9191 9.29126C55.2351 9.29126 55.4912 9.54534 55.4912 9.85877C55.4912 10.1722 55.2351 10.4263 54.9191 10.4263ZM54.9186 10.2844C54.6816 10.2844 54.4896 10.0939 54.4896 9.85882C54.4896 9.62375 54.6816 9.43319 54.9186 9.43319C55.1556 9.43319 55.3477 9.62375 55.3477 9.85882C55.3477 10.0939 55.1556 10.2844 54.9186 10.2844Z" fill="#89898F"/>
<path fill-rule="evenodd" clip-rule="evenodd" d="M9.5259 61.1947C9.79316 61.1947 10.0098 60.9806 10.0098 60.7165C10.0098 60.4524 9.79316 60.2383 9.5259 60.2383C9.25865 60.2383 9.04199 60.4524 9.04199 60.7165C9.04199 60.9806 9.25865 61.1947 9.5259 61.1947ZM9.52602 61.0753C9.72646 61.0753 9.88895 60.9147 9.88895 60.7166C9.88895 60.5185 9.72646 60.358 9.52602 60.358C9.32558 60.358 9.16309 60.5185 9.16309 60.7166C9.16309 60.9147 9.32558 61.0753 9.52602 61.0753Z" fill="#89898F"/>
<path fill-rule="evenodd" clip-rule="evenodd" d="M9.52544 61.673C10.06 61.673 10.4933 61.2448 10.4933 60.7166C10.4933 60.1884 10.06 59.7603 9.52544 59.7603C8.99093 59.7603 8.55762 60.1884 8.55762 60.7166C8.55762 61.2448 8.99093 61.673 9.52544 61.673ZM9.52469 61.4339C9.92558 61.4339 10.2506 61.1128 10.2506 60.7166C10.2506 60.3205 9.92558 59.9994 9.52469 59.9994C9.12381 59.9994 8.79883 60.3205 8.79883 60.7166C8.79883 61.1128 9.12381 61.4339 9.52469 61.4339Z" fill="#89898F"/>
<path fill-rule="evenodd" clip-rule="evenodd" d="M20.3099 70.2803C20.6153 70.2803 20.8629 70.0356 20.8629 69.7338C20.8629 69.4319 20.6153 69.1873 20.3099 69.1873C20.0044 69.1873 19.7568 69.4319 19.7568 69.7338C19.7568 70.0356 20.0044 70.2803 20.3099 70.2803ZM20.3093 70.1435C20.5384 70.1435 20.7241 69.96 20.7241 69.7336C20.7241 69.5073 20.5384 69.3238 20.3093 69.3238C20.0802 69.3238 19.8945 69.5073 19.8945 69.7336C19.8945 69.96 20.0802 70.1435 20.3093 70.1435Z" fill="#89898F"/>
<path fill-rule="evenodd" clip-rule="evenodd" d="M6.53058 64.5422C6.83602 64.5422 7.08362 64.2975 7.08362 63.9957C7.08362 63.6939 6.83602 63.4492 6.53058 63.4492C6.22514 63.4492 5.97754 63.6939 5.97754 63.9957C5.97754 64.2975 6.22514 64.5422 6.53058 64.5422ZM6.53001 64.4055C6.75909 64.4055 6.9448 64.222 6.9448 63.9956C6.9448 63.7692 6.75909 63.5857 6.53001 63.5857C6.30094 63.5857 6.11523 63.7692 6.11523 63.9956C6.11523 64.222 6.30094 64.4055 6.53001 64.4055Z" fill="#89898F"/>
<path fill-rule="evenodd" clip-rule="evenodd" d="M18.8597 76.3371C19.1651 76.3371 19.4127 76.0925 19.4127 75.7906C19.4127 75.4888 19.1651 75.2441 18.8597 75.2441C18.5542 75.2441 18.3066 75.4888 18.3066 75.7906C18.3066 76.0925 18.5542 76.3371 18.8597 76.3371ZM18.8591 76.2005C19.0882 76.2005 19.2739 76.0169 19.2739 75.7906C19.2739 75.5642 19.0882 75.3807 18.8591 75.3807C18.63 75.3807 18.4443 75.5642 18.4443 75.7906C18.4443 76.0169 18.63 76.2005 18.8591 76.2005Z" fill="#89898F"/>
<path fill-rule="evenodd" clip-rule="evenodd" d="M20.0042 77.4678C20.3096 77.4678 20.5573 77.2231 20.5573 76.9213C20.5573 76.6194 20.3096 76.3748 20.0042 76.3748C19.6988 76.3748 19.4512 76.6194 19.4512 76.9213C19.4512 77.2231 19.6988 77.4678 20.0042 77.4678ZM20.0036 77.3311C20.2327 77.3311 20.4184 77.1476 20.4184 76.9212C20.4184 76.6948 20.2327 76.5113 20.0036 76.5113C19.7746 76.5113 19.5889 76.6948 19.5889 76.9212C19.5889 77.1476 19.7746 77.3311 20.0036 77.3311Z" fill="#89898F"/>
<path fill-rule="evenodd" clip-rule="evenodd" d="M21.1478 78.5984C21.4532 78.5984 21.7008 78.3537 21.7008 78.0519C21.7008 77.75 21.4532 77.5054 21.1478 77.5054C20.8423 77.5054 20.5947 77.75 20.5947 78.0519C20.5947 78.3537 20.8423 78.5984 21.1478 78.5984ZM21.1472 78.4617C21.3763 78.4617 21.562 78.2782 21.562 78.0518C21.562 77.8254 21.3763 77.6419 21.1472 77.6419C20.9181 77.6419 20.7324 77.8254 20.7324 78.0518C20.7324 78.2782 20.9181 78.4617 21.1472 78.4617Z" fill="#89898F"/>
<path fill-rule="evenodd" clip-rule="evenodd" d="M22.2923 79.729C22.5977 79.729 22.8453 79.4843 22.8453 79.1825C22.8453 78.8807 22.5977 78.636 22.2923 78.636C21.9869 78.636 21.7393 78.8807 21.7393 79.1825C21.7393 79.4843 21.9869 79.729 22.2923 79.729ZM22.2917 79.5923C22.5208 79.5923 22.7065 79.4088 22.7065 79.1824C22.7065 78.9561 22.5208 78.7726 22.2917 78.7726C22.0627 78.7726 21.877 78.9561 21.877 79.1824C21.877 79.4088 22.0627 79.5923 22.2917 79.5923Z" fill="#89898F"/>
<path fill-rule="evenodd" clip-rule="evenodd" d="M22.2923 77.0911C22.5977 77.0911 22.8453 76.8464 22.8453 76.5446C22.8453 76.2427 22.5977 75.998 22.2923 75.998C21.9869 75.998 21.7393 76.2427 21.7393 76.5446C21.7393 76.8464 21.9869 77.0911 22.2923 77.0911ZM22.2917 76.9542C22.5208 76.9542 22.7065 76.7707 22.7065 76.5443C22.7065 76.3179 22.5208 76.1344 22.2917 76.1344C22.0627 76.1344 21.877 76.3179 21.877 76.5443C21.877 76.7707 22.0627 76.9542 22.2917 76.9542Z" fill="#89898F"/>
<path d="M3.71804 45.4759H21.2078M35.5868 43.5632H29.2269L26.3234 46.4323M35.5868 42.6751H28.6047L24.8717 46.364H23.4891L27.2221 42.6751H0.666992V43.5632H23.7405M31.6464 59.4118V60.2316L27.6369 64.1937V59.4118M16.685 12.4947H23.7405M37.5916 36.3885V10.9095L36.4164 9.74819M34.8955 60.6403V87.3041M35.9325 61.8652V87.0215M35.5868 2.03646V6.94735M14.0153 18.0824H26.0469L34.2734 9.95313V29.2174H3.71804M14.6827 16.7844H25.9086L32.6333 10.1392M16.0176 15.7597H25.563L30.7477 10.6363M16.8757 14.6667H25.2173L28.8812 11.0461M16.0176 13.5737H24.8025L26.7382 11.661M33.582 2.03646V8.7918H18.5919M32.1303 7.12426V1.28271L30.7477 1.28271V6.94735H25.6474M36.762 36.3885V29.8322L35.5868 28.6709V36.3885M33.6079 37.5516H31.6464L24.4569 30.4471H3.432M33.5141 38.508H31.6464M2.95528 31.8816H23.973L31.439 39.2594H35.5868M25.2173 29.2174L32.0612 35.9804H33.7894L34.2042 35.5705V30.4471L32.8907 31.745M23.7405 10.6363H18.5919M27.153 29.2174L29.0133 31.0557M28.8812 29.2174L29.9873 30.3104M35.5868 40.2158H31.2316M2.5739 34.4775H25.4247L22.7978 31.8816M4.86218 33.2228H22.215M37.1768 47.8669V56.0645L33.7894 59.4118M33.7894 59.4118H6.48305V58.0022M33.7894 59.4118L18.7882 73.9625V69.044L24.526 63.374V59.4118H25.1482M36.3473 47.8669V55.6546L33.4438 58.5237H12.29L8.97174 55.2447V52.2549M10.3543 52.2549V54.9031L12.843 57.3624H32.9599V56.0645H14.3639M12.8712 19.7902H26.3234L31.7155 14.4618M33.1797 15.5097V28.135H6.48305L8.10392 26.6898H32.1303V16.5112L27.1529 21.4297H15.6362M35.3794 47.8669V53.6052M24.8025 68.1288V86.8849L25.8395 87.0215V69.7271L33.1673 62.4859L33.4658 87.3041H31.8538V65.1914M37.0386 63.7155V85.9851M26.8764 87.3041L26.9456 70.4102L29.7108 67.6777L30.9551 68.9073V87.3041H29.7108V69.7271M28.259 87.3041V70.6151M28.0311 25.5968H7.91323M11.5987 24.3672H30.6095L32.1303 22.8643M32.1303 20.7466L29.9873 22.8643H13.6726M22.3104 76.1485V70.5461M12.4282 59.4118V60.2999L10.3543 62.3493H7.72254M14.9169 59.4118V60.2999L11.1148 64.0571H6.95978M16.1613 59.4118V60.3682L5.99915 70.4102M17.3365 59.4118V60.3682L11.8752 65.7649V76.1485M18.7882 59.4118V60.7098L13.2578 66.1748V75.2442L14.2948 76.469V66.653L19.8252 61.1879V59.4118H21.0695V61.7345L15.5391 67.1995V80.1435M22.4521 59.4118V62.4859L16.8526 68.0193V81.3684M25.9777 59.4118V64.1937L20.6547 69.4538M33.6079 46.2957H31.0242L26.1851 51.0776H0.666992M31.8538 47.3204L26.7916 52.3228M11.8061 52.3756V53.8784H27.2912L32.8216 48.4134L34.2734 49.848V54.9715H28.3973L32.8216 50.5994V52.3756M35.5868 40.9673H31.0934L26.2543 36.1854H2.5739M35.5868 41.7187H0.666992M0.666992 40.694H29.296L25.7704 37.21H0.857683M0.666992 39.5327H25.0754M33.6079 45.4759H30.6786L25.9086 50.1895H0.666992M35.5868 44.5195H29.9873L25.4247 49.0282H0.666992M0.857683 47.8669H24.3186" stroke="url(#paint28_linear_996_54330)" stroke-width="0.4"/>
<path d="M0.953125 38.4048L23.3593 38.4048" stroke="#89898F" stroke-width="0.4"/>
<path fill-rule="evenodd" clip-rule="evenodd" d="M35.3792 54.5684C35.6846 54.5684 35.9323 54.3237 35.9323 54.0218C35.9323 53.72 35.6846 53.4753 35.3792 53.4753C35.0738 53.4753 34.8262 53.72 34.8262 54.0218C34.8262 54.3237 35.0738 54.5684 35.3792 54.5684ZM35.3786 54.4317C35.6077 54.4317 35.7934 54.2482 35.7934 54.0218C35.7934 53.7954 35.6077 53.6119 35.3786 53.6119C35.1496 53.6119 34.9639 53.7954 34.9639 54.0218C34.9639 54.2482 35.1496 54.4317 35.3786 54.4317Z" fill="#89898F"/>
<path fill-rule="evenodd" clip-rule="evenodd" d="M32.2005 47.6003C32.5059 47.6003 32.7535 47.3557 32.7535 47.0538C32.7535 46.752 32.5059 46.5073 32.2005 46.5073C31.8951 46.5073 31.6475 46.752 31.6475 47.0538C31.6475 47.3557 31.8951 47.6003 32.2005 47.6003ZM32.1999 47.4636C32.429 47.4636 32.6147 47.28 32.6147 47.0537C32.6147 46.8273 32.429 46.6438 32.1999 46.6438C31.9709 46.6438 31.7852 46.8273 31.7852 47.0537C31.7852 47.28 31.9709 47.4636 32.1999 47.4636Z" fill="#89898F"/>
<path fill-rule="evenodd" clip-rule="evenodd" d="M32.8211 54.1585C33.3938 54.1585 33.8581 53.6998 33.8581 53.1338C33.8581 52.5679 33.3938 52.1091 32.8211 52.1091C32.2484 52.1091 31.7842 52.5679 31.7842 53.1338C31.7842 53.6998 32.2484 54.1585 32.8211 54.1585ZM32.8207 53.9023C33.2502 53.9023 33.5984 53.5582 33.5984 53.1338C33.5984 52.7093 33.2502 52.3653 32.8207 52.3653C32.3912 52.3653 32.043 52.7093 32.043 53.1338C32.043 53.5582 32.3912 53.9023 32.8207 53.9023Z" fill="#89898F"/>
<path fill-rule="evenodd" clip-rule="evenodd" d="M13.9495 56.4814C14.255 56.4814 14.5026 56.2368 14.5026 55.9349C14.5026 55.6331 14.255 55.3884 13.9495 55.3884C13.6441 55.3884 13.3965 55.6331 13.3965 55.9349C13.3965 56.2368 13.6441 56.4814 13.9495 56.4814ZM13.9499 56.3446C14.179 56.3446 14.3647 56.1611 14.3647 55.9347C14.3647 55.7084 14.179 55.5249 13.9499 55.5249C13.7209 55.5249 13.5352 55.7084 13.5352 55.9347C13.5352 56.1611 13.7209 56.3446 13.9499 56.3446Z" fill="#89898F"/>
<path fill-rule="evenodd" clip-rule="evenodd" d="M24.7337 48.2837C25.0391 48.2837 25.2867 48.039 25.2867 47.7372C25.2867 47.4354 25.0391 47.1907 24.7337 47.1907C24.4283 47.1907 24.1807 47.4354 24.1807 47.7372C24.1807 48.039 24.4283 48.2837 24.7337 48.2837ZM24.7331 48.1469C24.9622 48.1469 25.1479 47.9634 25.1479 47.737C25.1479 47.5106 24.9622 47.3271 24.7331 47.3271C24.5041 47.3271 24.3184 47.5106 24.3184 47.737C24.3184 47.9634 24.5041 48.1469 24.7331 48.1469Z" fill="#89898F"/>
<path fill-rule="evenodd" clip-rule="evenodd" d="M22.0472 46.0788C22.3526 46.0788 22.6002 45.8342 22.6002 45.5323C22.6002 45.2305 22.3526 44.9858 22.0472 44.9858C21.7417 44.9858 21.4941 45.2305 21.4941 45.5323C21.4941 45.8342 21.7417 46.0788 22.0472 46.0788ZM22.0466 45.9421C22.2757 45.9421 22.4614 45.7586 22.4614 45.5322C22.4614 45.3058 22.2757 45.1223 22.0466 45.1223C21.8175 45.1223 21.6318 45.3058 21.6318 45.5322C21.6318 45.7586 21.8175 45.9421 22.0466 45.9421Z" fill="#89898F"/>
<path fill-rule="evenodd" clip-rule="evenodd" d="M22.0465 46.6255C22.6574 46.6255 23.1526 46.1361 23.1526 45.5325C23.1526 44.9288 22.6574 44.4395 22.0465 44.4395C21.4356 44.4395 20.9404 44.9288 20.9404 45.5325C20.9404 46.1361 21.4356 46.6255 22.0465 46.6255ZM22.0464 46.3523C22.5045 46.3523 22.8759 45.9853 22.8759 45.5326C22.8759 45.0798 22.5045 44.7128 22.0464 44.7128C21.5882 44.7128 21.2168 45.0798 21.2168 45.5326C21.2168 45.9853 21.5882 46.3523 22.0464 46.3523Z" fill="#89898F"/>
<path fill-rule="evenodd" clip-rule="evenodd" d="M2.76203 46.0788C3.06746 46.0788 3.31507 45.8342 3.31507 45.5323C3.31507 45.2305 3.06746 44.9858 2.76203 44.9858C2.45659 44.9858 2.20898 45.2305 2.20898 45.5323C2.20898 45.8342 2.45659 46.0788 2.76203 46.0788ZM2.76244 45.9421C2.99151 45.9421 3.17722 45.7586 3.17722 45.5322C3.17722 45.3058 2.99151 45.1223 2.76244 45.1223C2.53336 45.1223 2.34766 45.3058 2.34766 45.5322C2.34766 45.7586 2.53336 45.9421 2.76244 45.9421Z" fill="#89898F"/>
<path fill-rule="evenodd" clip-rule="evenodd" d="M2.76233 46.6255C3.3732 46.6255 3.86841 46.1361 3.86841 45.5325C3.86841 44.9288 3.3732 44.4395 2.76233 44.4395C2.15146 44.4395 1.65625 44.9288 1.65625 45.5325C1.65625 46.1361 2.15146 46.6255 2.76233 46.6255ZM2.76218 46.3523C3.22033 46.3523 3.59174 45.9853 3.59174 45.5326C3.59174 45.0798 3.22033 44.7128 2.76218 44.7128C2.30402 44.7128 1.93262 45.0798 1.93262 45.5326C1.93262 45.9853 2.30402 46.3523 2.76218 46.3523Z" fill="#89898F"/>
<path fill-rule="evenodd" clip-rule="evenodd" d="M6.48347 57.3425C6.90473 57.3425 7.24623 57.005 7.24623 56.5887C7.24623 56.1724 6.90473 55.835 6.48347 55.835C6.0622 55.835 5.7207 56.1724 5.7207 56.5887C5.7207 57.005 6.0622 57.3425 6.48347 57.3425ZM6.4832 57.1539C6.79915 57.1539 7.05528 56.9008 7.05528 56.5886C7.05528 56.2764 6.79915 56.0233 6.4832 56.0233C6.16726 56.0233 5.91113 56.2764 5.91113 56.5886C5.91113 56.9008 6.16726 57.1539 6.4832 57.1539Z" fill="#89898F"/>
<path fill-rule="evenodd" clip-rule="evenodd" d="M6.48353 58.0965C7.32606 58.0965 8.00906 57.4216 8.00906 56.589C8.00906 55.7565 7.32606 55.0815 6.48353 55.0815C5.64101 55.0815 4.95801 55.7565 4.95801 56.589C4.95801 57.4216 5.64101 58.0965 6.48353 58.0965ZM6.48301 57.7198C7.1149 57.7198 7.62715 57.2136 7.62715 56.5891C7.62715 55.9647 7.1149 55.4585 6.48301 55.4585C5.85112 55.4585 5.33887 55.9647 5.33887 56.5891C5.33887 57.2136 5.85112 57.7198 6.48301 57.7198Z" fill="#89898F"/>
<path fill-rule="evenodd" clip-rule="evenodd" d="M9.53522 71.0986C9.95648 71.0986 10.298 70.7611 10.298 70.3448C10.298 69.9285 9.95648 69.5911 9.53522 69.5911C9.11396 69.5911 8.77246 69.9285 8.77246 70.3448C8.77246 70.7611 9.11396 71.0986 9.53522 71.0986ZM9.53496 70.9098C9.85091 70.9098 10.107 70.6567 10.107 70.3445C10.107 70.0323 9.85091 69.7792 9.53496 69.7792C9.21902 69.7792 8.96289 70.0323 8.96289 70.3445C8.96289 70.6567 9.21902 70.9098 9.53496 70.9098Z" fill="#89898F"/>
<path fill-rule="evenodd" clip-rule="evenodd" d="M9.53529 71.8524C10.3778 71.8524 11.0608 71.1775 11.0608 70.3449C11.0608 69.5123 10.3778 68.8374 9.53529 68.8374C8.69277 68.8374 8.00977 69.5123 8.00977 70.3449C8.00977 71.1775 8.69277 71.8524 9.53529 71.8524ZM9.53477 71.4756C10.1667 71.4756 10.6789 70.9694 10.6789 70.345C10.6789 69.7206 10.1667 69.2144 9.53477 69.2144C8.90288 69.2144 8.39062 69.7206 8.39062 70.345C8.39062 70.9694 8.90288 71.4756 9.53477 71.4756Z" fill="#89898F"/>
<path fill-rule="evenodd" clip-rule="evenodd" d="M31.9333 33.3928C32.3533 33.3928 32.6937 33.0563 32.6937 32.6413C32.6937 32.2263 32.3533 31.8899 31.9333 31.8899C31.5133 31.8899 31.1729 32.2263 31.1729 32.6413C31.1729 33.0563 31.5133 33.3928 31.9333 33.3928ZM31.9336 33.2049C32.2486 33.2049 32.5039 32.9526 32.5039 32.6413C32.5039 32.33 32.2486 32.0777 31.9336 32.0777C31.6186 32.0777 31.3633 32.33 31.3633 32.6413C31.3633 32.9526 31.6186 33.2049 31.9336 33.2049Z" fill="#89898F"/>
<path fill-rule="evenodd" clip-rule="evenodd" d="M31.9339 34.1442C32.7739 34.1442 33.4548 33.4713 33.4548 32.6413C33.4548 31.8113 32.7739 31.1384 31.9339 31.1384C31.094 31.1384 30.4131 31.8113 30.4131 32.6413C30.4131 33.4713 31.094 34.1442 31.9339 34.1442ZM31.9338 33.871C32.621 33.871 33.1781 33.3205 33.1781 32.6414C33.1781 31.9623 32.621 31.4117 31.9338 31.4117C31.2466 31.4117 30.6895 31.9623 30.6895 32.6414C30.6895 33.3205 31.2466 33.871 31.9338 33.871Z" fill="#89898F"/>
<path fill-rule="evenodd" clip-rule="evenodd" d="M24.7767 7.29565C25.0821 7.29565 25.3297 7.05097 25.3297 6.74914C25.3297 6.44732 25.0821 6.20264 24.7767 6.20264C24.4712 6.20264 24.2236 6.44732 24.2236 6.74914C24.2236 7.05097 24.4712 7.29565 24.7767 7.29565ZM24.7761 7.15882C25.0052 7.15882 25.1909 6.97532 25.1909 6.74895C25.1909 6.52258 25.0052 6.33907 24.7761 6.33907C24.547 6.33907 24.3613 6.52258 24.3613 6.74895C24.3613 6.97532 24.547 7.15882 24.7761 7.15882Z" fill="#89898F"/>
<path fill-rule="evenodd" clip-rule="evenodd" d="M24.776 7.84227C25.3869 7.84227 25.8821 7.35291 25.8821 6.74926C25.8821 6.14561 25.3869 5.65625 24.776 5.65625C24.1651 5.65625 23.6699 6.14561 23.6699 6.74926C23.6699 7.35291 24.1651 7.84227 24.776 7.84227ZM24.7759 7.56909C25.234 7.56909 25.6054 7.20207 25.6054 6.74933C25.6054 6.29659 25.234 5.92958 24.7759 5.92958C24.3177 5.92958 23.9463 6.29659 23.9463 6.74933C23.9463 7.20207 24.3177 7.56909 24.7759 7.56909Z" fill="#89898F"/>
<path fill-rule="evenodd" clip-rule="evenodd" d="M36.1234 10.0283C36.4288 10.0283 36.6764 9.78363 36.6764 9.48181C36.6764 9.17998 36.4288 8.9353 36.1234 8.9353C35.8179 8.9353 35.5703 9.17998 35.5703 9.48181C35.5703 9.78363 35.8179 10.0283 36.1234 10.0283ZM36.1238 9.89157C36.3528 9.89157 36.5385 9.70806 36.5385 9.48169C36.5385 9.25532 36.3528 9.07182 36.1238 9.07182C35.8947 9.07182 35.709 9.25532 35.709 9.48169C35.709 9.70806 35.8947 9.89157 36.1238 9.89157Z" fill="#89898F"/>
<path fill-rule="evenodd" clip-rule="evenodd" d="M31.0931 10.8999C31.3985 10.8999 31.6461 10.6552 31.6461 10.3534C31.6461 10.0516 31.3985 9.80688 31.0931 9.80688C30.7876 9.80688 30.54 10.0516 30.54 10.3534C30.54 10.6552 30.7876 10.8999 31.0931 10.8999ZM31.0925 10.7632C31.3216 10.7632 31.5073 10.5797 31.5073 10.3534C31.5073 10.127 31.3216 9.94347 31.0925 9.94347C30.8634 9.94347 30.6777 10.127 30.6777 10.3534C30.6777 10.5797 30.8634 10.7632 31.0925 10.7632Z" fill="#89898F"/>
<path fill-rule="evenodd" clip-rule="evenodd" d="M32.971 10.3843C33.2764 10.3843 33.5241 10.1396 33.5241 9.83776C33.5241 9.53594 33.2764 9.29126 32.971 9.29126C32.6656 9.29126 32.418 9.53594 32.418 9.83776C32.418 10.1396 32.6656 10.3843 32.971 10.3843ZM32.9704 10.2476C33.1995 10.2476 33.3852 10.0641 33.3852 9.83768C33.3852 9.61131 33.1995 9.4278 32.9704 9.4278C32.7414 9.4278 32.5557 9.61131 32.5557 9.83768C32.5557 10.0641 32.7414 10.2476 32.9704 10.2476Z" fill="#89898F"/>
<path fill-rule="evenodd" clip-rule="evenodd" d="M32.0618 14.6736C32.3673 14.6736 32.6149 14.4289 32.6149 14.1271C32.6149 13.8252 32.3673 13.5806 32.0618 13.5806C31.7564 13.5806 31.5088 13.8252 31.5088 14.1271C31.5088 14.4289 31.7564 14.6736 32.0618 14.6736ZM32.0613 14.5368C32.2903 14.5368 32.476 14.3533 32.476 14.127C32.476 13.9006 32.2903 13.7171 32.0613 13.7171C31.8322 13.7171 31.6465 13.9006 31.6465 14.127C31.6465 14.3533 31.8322 14.5368 32.0613 14.5368Z" fill="#89898F"/>
<path fill-rule="evenodd" clip-rule="evenodd" d="M28.3939 26.2131C28.6993 26.2131 28.9469 25.9684 28.9469 25.6666C28.9469 25.3648 28.6993 25.1201 28.3939 25.1201C28.0884 25.1201 27.8408 25.3648 27.8408 25.6666C27.8408 25.9684 28.0884 26.2131 28.3939 26.2131ZM28.3943 26.0763C28.6233 26.0763 28.8091 25.8927 28.8091 25.6664C28.8091 25.44 28.6233 25.2565 28.3943 25.2565C28.1652 25.2565 27.9795 25.44 27.9795 25.6664C27.9795 25.8927 28.1652 26.0763 28.3943 26.0763Z" fill="#89898F"/>
<path fill-rule="evenodd" clip-rule="evenodd" d="M29.348 31.8662C29.6534 31.8662 29.901 31.6215 29.901 31.3197C29.901 31.0179 29.6534 30.7732 29.348 30.7732C29.0425 30.7732 28.7949 31.0179 28.7949 31.3197C28.7949 31.6215 29.0425 31.8662 29.348 31.8662ZM29.3484 31.7294C29.5775 31.7294 29.7632 31.5458 29.7632 31.3195C29.7632 31.0931 29.5775 30.9096 29.3484 30.9096C29.1193 30.9096 28.9336 31.0931 28.9336 31.3195C28.9336 31.5458 29.1193 31.7294 29.3484 31.7294Z" fill="#89898F"/>
<path fill-rule="evenodd" clip-rule="evenodd" d="M30.3011 31.1123C30.6065 31.1123 30.8541 30.8676 30.8541 30.5658C30.8541 30.264 30.6065 30.0193 30.3011 30.0193C29.9957 30.0193 29.748 30.264 29.748 30.5658C29.748 30.8676 29.9957 31.1123 30.3011 31.1123ZM30.3005 30.9756C30.5296 30.9756 30.7153 30.7921 30.7153 30.5657C30.7153 30.3394 30.5296 30.1559 30.3005 30.1559C30.0714 30.1559 29.8857 30.3394 29.8857 30.5657C29.8857 30.7921 30.0714 30.9756 30.3005 30.9756Z" fill="#89898F"/>
<path fill-rule="evenodd" clip-rule="evenodd" d="M33.1614 15.6606C33.4669 15.6606 33.7145 15.416 33.7145 15.1141C33.7145 14.8123 33.4669 14.5676 33.1614 14.5676C32.856 14.5676 32.6084 14.8123 32.6084 15.1141C32.6084 15.416 32.856 15.6606 33.1614 15.6606ZM33.1609 15.5238C33.39 15.5238 33.5757 15.3403 33.5757 15.1139C33.5757 14.8875 33.39 14.704 33.1609 14.704C32.9318 14.704 32.7461 14.8875 32.7461 15.1139C32.7461 15.3403 32.9318 15.5238 33.1609 15.5238Z" fill="#89898F"/>
<path fill-rule="evenodd" clip-rule="evenodd" d="M29.1575 11.3098C29.463 11.3098 29.7106 11.0651 29.7106 10.7633C29.7106 10.4615 29.463 10.2168 29.1575 10.2168C28.8521 10.2168 28.6045 10.4615 28.6045 10.7633C28.6045 11.0651 28.8521 11.3098 29.1575 11.3098ZM29.157 11.1731C29.386 11.1731 29.5717 10.9896 29.5717 10.7633C29.5717 10.5369 29.386 10.3534 29.157 10.3534C28.9279 10.3534 28.7422 10.5369 28.7422 10.7633C28.7422 10.9896 28.9279 11.1731 29.157 11.1731Z" fill="#89898F"/>
<path fill-rule="evenodd" clip-rule="evenodd" d="M27.0833 11.8044C27.3888 11.8044 27.6364 11.5598 27.6364 11.2579C27.6364 10.9561 27.3888 10.7114 27.0833 10.7114C26.7779 10.7114 26.5303 10.9561 26.5303 11.2579C26.5303 11.5598 26.7779 11.8044 27.0833 11.8044ZM27.0827 11.6676C27.3118 11.6676 27.4975 11.4841 27.4975 11.2577C27.4975 11.0314 27.3118 10.8478 27.0827 10.8478C26.8537 10.8478 26.668 11.0314 26.668 11.2577C26.668 11.4841 26.8537 11.6676 27.0827 11.6676Z" fill="#89898F"/>
<path d="M32.7987 7.50108C32.7987 7.86533 32.4999 8.16061 32.1313 8.16061C31.7627 8.16061 31.4639 7.86533 31.4639 7.50108C31.4639 7.13683 31.7627 6.84155 32.1313 6.84155C32.4999 6.84155 32.7987 7.13683 32.7987 7.50108Z" fill="#89898F"/>
<path d="M36.2313 7.50108C36.2313 7.86533 35.9325 8.16061 35.5639 8.16061C35.1953 8.16061 34.8965 7.86533 34.8965 7.50108C34.8965 7.13683 35.1953 6.84155 35.5639 6.84155C35.9325 6.84155 36.2313 7.13683 36.2313 7.50108Z" fill="#89898F"/>
<path d="M36.2313 12.0235C36.2313 12.3878 35.9325 12.6831 35.5639 12.6831C35.1953 12.6831 34.8965 12.3878 34.8965 12.0235C34.8965 11.6593 35.1953 11.364 35.5639 11.364C35.9325 11.364 36.2313 11.6593 36.2313 12.0235Z" fill="#89898F"/>
<path d="M36.2313 26.9103C36.2313 27.2745 35.9325 27.5698 35.5639 27.5698C35.1953 27.5698 34.8965 27.2745 34.8965 26.9103C34.8965 26.546 35.1953 26.2507 35.5639 26.2507C35.9325 26.2507 36.2313 26.546 36.2313 26.9103Z" fill="#89898F"/>
<path d="M62.1656 8.72596C62.1656 9.03817 61.9095 9.29127 61.5936 9.29127C61.2776 9.29127 61.0215 9.03817 61.0215 8.72596C61.0215 8.41374 61.2776 8.16064 61.5936 8.16064C61.9095 8.16064 62.1656 8.41374 62.1656 8.72596Z" fill="#89898F"/>
<path d="M63.69 13.4369C63.69 13.7491 63.4339 14.0022 63.118 14.0022C62.802 14.0022 62.5459 13.7491 62.5459 13.4369C62.5459 13.1247 62.802 12.8716 63.118 12.8716C63.4339 12.8716 63.69 13.1247 63.69 13.4369Z" fill="#89898F"/>
<path d="M61.7838 11.9293C61.7838 12.2415 61.5277 12.4946 61.2117 12.4946C60.8958 12.4946 60.6396 12.2415 60.6396 11.9293C60.6396 11.6171 60.8958 11.364 61.2117 11.364C61.5277 11.364 61.7838 11.6171 61.7838 11.9293Z" fill="#89898F"/>
<path d="M51.1051 30.3961C51.1051 30.7083 50.849 30.9614 50.533 30.9614C50.2171 30.9614 49.9609 30.7083 49.9609 30.3961C49.9609 30.0839 50.2171 29.8308 50.533 29.8308C50.849 29.8308 51.1051 30.0839 51.1051 30.3961Z" fill="#89898F"/>
<path d="M51.4869 31.7152C51.4869 32.0274 51.2308 32.2805 50.9148 32.2805C50.5989 32.2805 50.3428 32.0274 50.3428 31.7152C50.3428 31.403 50.5989 31.1499 50.9148 31.1499C51.2308 31.1499 51.4869 31.403 51.4869 31.7152Z" fill="#89898F"/>
<path d="M56.6354 38.1222C56.6354 38.4344 56.3792 38.6875 56.0633 38.6875C55.7473 38.6875 55.4912 38.4344 55.4912 38.1222C55.4912 37.81 55.7473 37.5569 56.0633 37.5569C56.3792 37.5569 56.6354 37.81 56.6354 38.1222Z" fill="#89898F"/>
<path d="M54.9195 39.4413C54.9195 39.7535 54.6634 40.0066 54.3475 40.0066C54.0315 40.0066 53.7754 39.7535 53.7754 39.4413C53.7754 39.1291 54.0315 38.876 54.3475 38.876C54.6634 38.876 54.9195 39.1291 54.9195 39.4413Z" fill="#89898F"/>
<path d="M52.2486 40.3834C52.2486 40.6956 51.9925 40.9487 51.6766 40.9487C51.3606 40.9487 51.1045 40.6956 51.1045 40.3834C51.1045 40.0712 51.3606 39.8181 51.6766 39.8181C51.9925 39.8181 52.2486 40.0712 52.2486 40.3834Z" fill="#89898F"/>
<path d="M55.6813 36.9916C55.6813 37.3038 55.4251 37.5569 55.1092 37.5569C54.7932 37.5569 54.5371 37.3038 54.5371 36.9916C54.5371 36.6794 54.7932 36.4263 55.1092 36.4263C55.4251 36.4263 55.6813 36.6794 55.6813 36.9916Z" fill="#89898F"/>
<path d="M79.3268 39.4413C79.3268 39.7535 79.0706 40.0066 78.7547 40.0066C78.4387 40.0066 78.1826 39.7535 78.1826 39.4413C78.1826 39.1291 78.4387 38.876 78.7547 38.876C79.0706 38.876 79.3268 39.1291 79.3268 39.4413Z" fill="#89898F"/>
<path d="M79.3268 41.7025C79.3268 42.0147 79.0706 42.2678 78.7547 42.2678C78.4387 42.2678 78.1826 42.0147 78.1826 41.7025C78.1826 41.3903 78.4387 41.1372 78.7547 41.1372C79.0706 41.1372 79.3268 41.3903 79.3268 41.7025Z" fill="#89898F"/>
<path d="M79.3268 38.1222C79.3268 38.4344 79.0706 38.6875 78.7547 38.6875C78.4387 38.6875 78.1826 38.4344 78.1826 38.1222C78.1826 37.81 78.4387 37.5569 78.7547 37.5569C79.0706 37.5569 79.3268 37.81 79.3268 38.1222Z" fill="#89898F"/>
<path d="M78.1832 36.0494C78.1832 36.3617 77.9271 36.6148 77.6111 36.6148C77.2952 36.6148 77.0391 36.3617 77.0391 36.0494C77.0391 35.7372 77.2952 35.4841 77.6111 35.4841C77.9271 35.4841 78.1832 35.7372 78.1832 36.0494Z" fill="#89898F"/>
<path d="M78.1832 34.7303C78.1832 35.0426 77.9271 35.2957 77.6111 35.2957C77.2952 35.2957 77.0391 35.0426 77.0391 34.7303C77.0391 34.4181 77.2952 34.165 77.6111 34.165C77.9271 34.165 78.1832 34.4181 78.1832 34.7303Z" fill="#89898F"/>
<path d="M78.1832 32.6574C78.1832 32.9696 77.9271 33.2227 77.6111 33.2227C77.2952 33.2227 77.0391 32.9696 77.0391 32.6574C77.0391 32.3451 77.2952 32.092 77.6111 32.092C77.9271 32.092 78.1832 32.3451 78.1832 32.6574Z" fill="#89898F"/>
<path d="M78.1832 30.3961C78.1832 30.7083 77.9271 30.9614 77.6111 30.9614C77.2952 30.9614 77.0391 30.7083 77.0391 30.3961C77.0391 30.0839 77.2952 29.8308 77.6111 29.8308C77.9271 29.8308 78.1832 30.0839 78.1832 30.3961Z" fill="#89898F"/>
<path d="M77.2301 29.0773C77.2301 29.3895 76.974 29.6426 76.658 29.6426C76.3421 29.6426 76.0859 29.3895 76.0859 29.0773C76.0859 28.7651 76.3421 28.512 76.658 28.512C76.974 28.512 77.2301 28.7651 77.2301 29.0773Z" fill="#89898F"/>
<path d="M56.8258 11.9293C56.8258 12.2415 56.5697 12.4946 56.2537 12.4946C55.9378 12.4946 55.6816 12.2415 55.6816 11.9293C55.6816 11.6171 55.9378 11.364 56.2537 11.364C56.5697 11.364 56.8258 11.6171 56.8258 11.9293Z" fill="#89898F"/>
<path d="M65.026 14.5675C65.026 14.8797 64.7699 15.1328 64.4539 15.1328C64.138 15.1328 63.8818 14.8797 63.8818 14.5675C63.8818 14.2553 64.138 14.0022 64.4539 14.0022C64.7699 14.0022 65.026 14.2553 65.026 14.5675Z" fill="#89898F"/>
<path d="M66.1695 15.6981C66.1695 16.0103 65.9134 16.2634 65.5975 16.2634C65.2815 16.2634 65.0254 16.0103 65.0254 15.6981C65.0254 15.3859 65.2815 15.1328 65.5975 15.1328C65.9134 15.1328 66.1695 15.3859 66.1695 15.6981Z" fill="#89898F"/>
<path d="M67.1227 16.6403C67.1227 16.9525 66.8665 17.2056 66.5506 17.2056C66.2346 17.2056 65.9785 16.9525 65.9785 16.6403C65.9785 16.328 66.2346 16.075 66.5506 16.075C66.8665 16.075 67.1227 16.328 67.1227 16.6403Z" fill="#89898F"/>
<path d="M67.1227 19.8439C67.1227 20.1561 66.8665 20.4092 66.5506 20.4092C66.2346 20.4092 65.9785 20.1561 65.9785 19.8439C65.9785 19.5317 66.2346 19.2786 66.5506 19.2786C66.8665 19.2786 67.1227 19.5317 67.1227 19.8439Z" fill="#89898F"/>
<path d="M19.2223 8.70715C19.2223 9.00898 18.9747 9.25365 18.6693 9.25365C18.3638 9.25365 18.1162 9.00898 18.1162 8.70715C18.1162 8.40532 18.3638 8.16064 18.6693 8.16064C18.9747 8.16064 19.2223 8.40532 19.2223 8.70715Z" fill="#89898F"/>
<path d="M17.1246 12.4759C17.1246 12.7778 16.877 13.0225 16.5716 13.0225C16.2662 13.0225 16.0186 12.7778 16.0186 12.4759C16.0186 12.1741 16.2662 11.9294 16.5716 11.9294C16.877 11.9294 17.1246 12.1741 17.1246 12.4759Z" fill="#89898F"/>
<path d="M13.3102 19.8251C13.3102 20.1269 13.0626 20.3716 12.7571 20.3716C12.4517 20.3716 12.2041 20.1269 12.2041 19.8251C12.2041 19.5232 12.4517 19.2786 12.7571 19.2786C13.0626 19.2786 13.3102 19.5232 13.3102 19.8251Z" fill="#89898F"/>
<path d="M15.2164 16.8099C15.2164 17.1118 14.9688 17.3564 14.6634 17.3564C14.358 17.3564 14.1104 17.1118 14.1104 16.8099C14.1104 16.5081 14.358 16.2634 14.6634 16.2634C14.9688 16.2634 15.2164 16.5081 15.2164 16.8099Z" fill="#89898F"/>
<path d="M16.1705 15.6793C16.1705 15.9811 15.9229 16.2258 15.6175 16.2258C15.3121 16.2258 15.0645 15.9811 15.0645 15.6793C15.0645 15.3775 15.3121 15.1328 15.6175 15.1328C15.9229 15.1328 16.1705 15.3775 16.1705 15.6793Z" fill="#89898F"/>
<path d="M17.1246 14.5487C17.1246 14.8505 16.877 15.0952 16.5716 15.0952C16.2662 15.0952 16.0186 14.8505 16.0186 14.5487C16.0186 14.2469 16.2662 14.0022 16.5716 14.0022C16.877 14.0022 17.1246 14.2469 17.1246 14.5487Z" fill="#89898F"/>
<path d="M1.48694 37.1613C1.48694 37.4631 1.23934 37.7078 0.9339 37.7078C0.628464 37.7078 0.380859 37.4631 0.380859 37.1613C0.380859 36.8594 0.628464 36.6147 0.9339 36.6147C1.23934 36.6147 1.48694 36.8594 1.48694 37.1613Z" fill="#89898F"/>
<path d="M6.44593 70.5145C6.44593 70.8163 6.19832 71.061 5.89288 71.061C5.58745 71.061 5.33984 70.8163 5.33984 70.5145C5.33984 70.2127 5.58745 69.968 5.89288 69.968C6.19832 69.968 6.44593 70.2127 6.44593 70.5145Z" fill="#89898F"/>
<path d="M12.5848 76.4691C12.5848 76.8333 12.286 77.1286 11.9174 77.1286C11.5488 77.1286 11.25 76.8333 11.25 76.4691C11.25 76.1049 11.5488 75.8096 11.9174 75.8096C12.286 75.8096 12.5848 76.1049 12.5848 76.4691Z" fill="#89898F"/>
<path d="M16.2089 80.2379C16.2089 80.6021 15.91 80.8974 15.5414 80.8974C15.1728 80.8974 14.874 80.6021 14.874 80.2379C14.874 79.8737 15.1728 79.5784 15.5414 79.5784C15.91 79.5784 16.2089 79.8737 16.2089 80.2379Z" fill="#89898F"/>
<path d="M17.5428 81.7452C17.5428 82.1095 17.244 82.4048 16.8754 82.4048C16.5068 82.4048 16.208 82.1095 16.208 81.7452C16.208 81.381 16.5068 81.0857 16.8754 81.0857C17.244 81.0857 17.5428 81.381 17.5428 81.7452Z" fill="#89898F"/>
<path d="M19.451 83.4413C19.451 83.8055 19.1522 84.1008 18.7836 84.1008C18.415 84.1008 18.1162 83.8055 18.1162 83.4413C18.1162 83.077 18.415 82.7817 18.7836 82.7817C19.1522 82.7817 19.451 83.077 19.451 83.4413Z" fill="#89898F"/>
<path d="M20.5953 84.8544C20.5953 85.1666 20.3392 85.4197 20.0232 85.4197C19.7073 85.4197 19.4512 85.1666 19.4512 84.8544C19.4512 84.5422 19.7073 84.2891 20.0232 84.2891C20.3392 84.2891 20.5953 84.5422 20.5953 84.8544Z" fill="#89898F"/>
<path d="M21.7389 85.985C21.7389 86.2972 21.4827 86.5503 21.1668 86.5503C20.8509 86.5503 20.5947 86.2972 20.5947 85.985C20.5947 85.6728 20.8509 85.4197 21.1668 85.4197C21.4827 85.4197 21.7389 85.6728 21.7389 85.985Z" fill="#89898F"/>
<path d="M22.8834 87.1156C22.8834 87.4278 22.6273 87.6809 22.3113 87.6809C21.9954 87.6809 21.7393 87.4278 21.7393 87.1156C21.7393 86.8034 21.9954 86.5503 22.3113 86.5503C22.6273 86.5503 22.8834 86.8034 22.8834 87.1156Z" fill="#89898F"/>
<path d="M27.4596 87.681C27.4596 87.9932 27.2034 88.2463 26.8875 88.2463C26.5716 88.2463 26.3154 87.9932 26.3154 87.681C26.3154 87.3688 26.5716 87.1157 26.8875 87.1157C27.2034 87.1157 27.4596 87.3688 27.4596 87.681Z" fill="#89898F"/>
<path d="M28.7936 87.681C28.7936 87.9932 28.5374 88.2463 28.2215 88.2463C27.9055 88.2463 27.6494 87.9932 27.6494 87.681C27.6494 87.3688 27.9055 87.1157 28.2215 87.1157C28.5374 87.1157 28.7936 87.3688 28.7936 87.681Z" fill="#89898F"/>
<path d="M36.4222 86.8332C36.4222 87.0933 36.2088 87.3042 35.9455 87.3042C35.6822 87.3042 35.4688 87.0933 35.4688 86.8332C35.4688 86.573 35.6822 86.3621 35.9455 86.3621C36.2088 86.3621 36.4222 86.573 36.4222 86.8332Z" fill="#89898F"/>
<path d="M35.2777 87.5868C35.2777 87.847 35.0642 88.0579 34.8009 88.0579C34.5377 88.0579 34.3242 87.847 34.3242 87.5868C34.3242 87.3266 34.5377 87.1157 34.8009 87.1157C35.0642 87.1157 35.2777 87.3266 35.2777 87.5868Z" fill="#89898F"/>
<path d="M1.33503 52.2548C1.33503 52.4629 1.16428 52.6317 0.953647 52.6317C0.743016 52.6317 0.572266 52.4629 0.572266 52.2548C0.572266 52.0467 0.743016 51.8779 0.953647 51.8779C1.16428 51.8779 1.33503 52.0467 1.33503 52.2548Z" fill="#89898F"/>
<path d="M0.762762 51.1242C0.762762 51.3323 0.592012 51.5011 0.381381 51.5011C0.17075 51.5011 0 51.3323 0 51.1242C0 50.916 0.17075 50.7473 0.381381 50.7473C0.592012 50.7473 0.762762 50.916 0.762762 51.1242Z" fill="#89898F"/>
<path d="M0.762762 50.182C0.762762 50.3902 0.592012 50.5589 0.381381 50.5589C0.17075 50.5589 0 50.3902 0 50.182C0 49.9739 0.17075 49.8052 0.381381 49.8052C0.592012 49.8052 0.762762 49.9739 0.762762 50.182Z" fill="#89898F"/>
<path d="M0.762762 49.0514C0.762762 49.2596 0.592012 49.4283 0.381381 49.4283C0.17075 49.4283 0 49.2596 0 49.0514C0 48.8433 0.17075 48.6746 0.381381 48.6746C0.592012 48.6746 0.762762 48.8433 0.762762 49.0514Z" fill="#89898F"/>
<path d="M1.14362 47.9208C1.14362 48.129 0.972871 48.2977 0.76224 48.2977C0.551609 48.2977 0.380859 48.129 0.380859 47.9208C0.380859 47.7127 0.551609 47.5439 0.76224 47.5439C0.972871 47.5439 1.14362 47.7127 1.14362 47.9208Z" fill="#89898F"/>
<path d="M0.954168 41.7026C0.954168 41.9107 0.783418 42.0794 0.572787 42.0794C0.362156 42.0794 0.191406 41.9107 0.191406 41.7026C0.191406 41.4944 0.362156 41.3257 0.572787 41.3257C0.783418 41.3257 0.954168 41.4944 0.954168 41.7026Z" fill="#89898F"/>
<path d="M1.14486 40.6662C1.14486 40.9263 0.931421 41.1373 0.668133 41.1373C0.404844 41.1373 0.191406 40.9263 0.191406 40.6662C0.191406 40.406 0.404844 40.1951 0.668133 40.1951C0.931421 40.1951 1.14486 40.406 1.14486 40.6662Z" fill="#89898F"/>
<path d="M1.14486 39.5353C1.14486 39.7955 0.931421 40.0064 0.668133 40.0064C0.404844 40.0064 0.191406 39.7955 0.191406 39.5353C0.191406 39.2751 0.404844 39.0642 0.668133 39.0642C0.931421 39.0642 1.14486 39.2751 1.14486 39.5353Z" fill="#89898F"/>
<path d="M1.14486 38.4047C1.14486 38.6649 0.931421 38.8758 0.668133 38.8758C0.404844 38.8758 0.191406 38.6649 0.191406 38.4047C0.191406 38.1445 0.404844 37.9336 0.668133 37.9336C0.931421 37.9336 1.14486 38.1445 1.14486 38.4047Z" fill="#89898F"/>
<path d="M37.5667 86.0792C37.5667 86.3394 37.3533 86.5503 37.09 86.5503C36.8267 86.5503 36.6133 86.3394 36.6133 86.0792C36.6133 85.8191 36.8267 85.6082 37.09 85.6082C37.3533 85.6082 37.5667 85.8191 37.5667 86.0792Z" fill="#89898F"/>
<path d="M37.5667 63.2785C37.5667 63.5386 37.3533 63.7496 37.09 63.7496C36.8267 63.7496 36.6133 63.5386 36.6133 63.2785C36.6133 63.0183 36.8267 62.8074 37.09 62.8074C37.3533 62.8074 37.5667 63.0183 37.5667 63.2785Z" fill="#89898F"/>
<path d="M36.4222 62.1478C36.4222 62.408 36.2088 62.6189 35.9455 62.6189C35.6822 62.6189 35.4688 62.408 35.4688 62.1478C35.4688 61.8877 35.6822 61.6768 35.9455 61.6768C36.2088 61.6768 36.4222 61.8877 36.4222 62.1478Z" fill="#89898F"/>
<path d="M35.4684 61.1115C35.4684 61.4237 35.2122 61.6768 34.8963 61.6768C34.5803 61.6768 34.3242 61.4237 34.3242 61.1115C34.3242 60.7992 34.5803 60.5461 34.8963 60.5461C35.2122 60.5461 35.4684 60.7992 35.4684 61.1115Z" fill="#89898F"/>
<path d="M32.4166 65.4454C32.4166 65.7576 32.1605 66.0107 31.8445 66.0107C31.5286 66.0107 31.2725 65.7576 31.2725 65.4454C31.2725 65.1332 31.5286 64.8801 31.8445 64.8801C32.1605 64.8801 32.4166 65.1332 32.4166 65.4454Z" fill="#89898F"/>
<path d="M28.7936 70.91C28.7936 71.2222 28.5374 71.4753 28.2215 71.4753C27.9055 71.4753 27.6494 71.2222 27.6494 70.91C27.6494 70.5978 27.9055 70.3447 28.2215 70.3447C28.5374 70.3447 28.7936 70.5978 28.7936 70.91Z" fill="#89898F"/>
<path d="M30.3199 69.7794C30.3199 70.0916 30.0638 70.3447 29.7479 70.3447C29.4319 70.3447 29.1758 70.0916 29.1758 69.7794C29.1758 69.4672 29.4319 69.2141 29.7479 69.2141C30.0638 69.2141 30.3199 69.4672 30.3199 69.7794Z" fill="#89898F"/>
<path d="M8.35218 25.4781C8.35218 25.78 8.10457 26.0246 7.79913 26.0246C7.4937 26.0246 7.24609 25.78 7.24609 25.4781C7.24609 25.1763 7.4937 24.9316 7.79913 24.9316C8.10457 24.9316 8.35218 25.1763 8.35218 25.4781Z" fill="#89898F"/>
<path d="M3.96643 29.2467C3.96643 29.5485 3.71883 29.7932 3.41339 29.7932C3.10796 29.7932 2.86035 29.5485 2.86035 29.2467C2.86035 28.9449 3.10796 28.7002 3.41339 28.7002C3.71883 28.7002 3.96643 28.9449 3.96643 29.2467Z" fill="#89898F"/>
<path d="M3.01233 34.5231C3.01233 34.8249 2.76473 35.0696 2.45929 35.0696C2.15385 35.0696 1.90625 34.8249 1.90625 34.5231C1.90625 34.2212 2.15385 33.9766 2.45929 33.9766C2.76473 33.9766 3.01233 34.2212 3.01233 34.5231Z" fill="#89898F"/>
<path d="M3.01233 36.2189C3.01233 36.5207 2.76473 36.7654 2.45929 36.7654C2.15385 36.7654 1.90625 36.5207 1.90625 36.2189C1.90625 35.917 2.15385 35.6724 2.45929 35.6724C2.76473 35.6724 3.01233 35.917 3.01233 36.2189Z" fill="#89898F"/>
<path d="M3.58557 30.3773C3.58557 30.6791 3.33797 30.9238 3.03253 30.9238C2.7271 30.9238 2.47949 30.6791 2.47949 30.3773C2.47949 30.0755 2.7271 29.8308 3.03253 29.8308C3.33797 29.8308 3.58557 30.0755 3.58557 30.3773Z" fill="#89898F"/>
<path d="M3.39417 31.8849C3.39417 32.1867 3.14656 32.4314 2.84113 32.4314C2.53569 32.4314 2.28809 32.1867 2.28809 31.8849C2.28809 31.5831 2.53569 31.3384 2.84113 31.3384C3.14656 31.3384 3.39417 31.5831 3.39417 31.8849Z" fill="#89898F"/>
<path d="M14.2643 18.129C14.2643 18.4309 14.0167 18.6755 13.7112 18.6755C13.4058 18.6755 13.1582 18.4309 13.1582 18.129C13.1582 17.8272 13.4058 17.5825 13.7112 17.5825C14.0167 17.5825 14.2643 17.8272 14.2643 18.129Z" fill="#89898F"/>
<path fill-rule="evenodd" clip-rule="evenodd" d="M24.18 13.001C24.4854 13.001 24.733 12.7563 24.733 12.4545C24.733 12.1526 24.4854 11.908 24.18 11.908C23.8746 11.908 23.627 12.1526 23.627 12.4545C23.627 12.7563 23.8746 13.001 24.18 13.001ZM24.1794 12.8642C24.4085 12.8642 24.5942 12.6807 24.5942 12.4544C24.5942 12.228 24.4085 12.0445 24.1794 12.0445C23.9504 12.0445 23.7646 12.228 23.7646 12.4544C23.7646 12.6807 23.9504 12.8642 24.1794 12.8642Z" fill="#89898F"/>
<path fill-rule="evenodd" clip-rule="evenodd" d="M15.6175 14.1531C15.9229 14.1531 16.1705 13.9084 16.1705 13.6066C16.1705 13.3047 15.9229 13.0601 15.6175 13.0601C15.3121 13.0601 15.0645 13.3047 15.0645 13.6066C15.0645 13.9084 15.3121 14.1531 15.6175 14.1531ZM15.6169 14.0163C15.846 14.0163 16.0317 13.8328 16.0317 13.6064C16.0317 13.38 15.846 13.1965 15.6169 13.1965C15.3879 13.1965 15.2021 13.38 15.2021 13.6064C15.2021 13.8328 15.3879 14.0163 15.6169 14.0163Z" fill="#89898F"/>
<path fill-rule="evenodd" clip-rule="evenodd" d="M15.1937 21.9145C15.4991 21.9145 15.7467 21.6699 15.7467 21.368C15.7467 21.0662 15.4991 20.8215 15.1937 20.8215C14.8882 20.8215 14.6406 21.0662 14.6406 21.368C14.6406 21.6699 14.8882 21.9145 15.1937 21.9145ZM15.1941 21.7779C15.4232 21.7779 15.6089 21.5944 15.6089 21.368C15.6089 21.1417 15.4232 20.9581 15.1941 20.9581C14.965 20.9581 14.7793 21.1417 14.7793 21.368C14.7793 21.5944 14.965 21.7779 15.1941 21.7779Z" fill="#89898F"/>
<path fill-rule="evenodd" clip-rule="evenodd" d="M13.2581 23.2812C13.5636 23.2812 13.8112 23.0366 13.8112 22.7347C13.8112 22.4329 13.5636 22.1882 13.2581 22.1882C12.9527 22.1882 12.7051 22.4329 12.7051 22.7347C12.7051 23.0366 12.9527 23.2812 13.2581 23.2812ZM13.2576 23.1444C13.4866 23.1444 13.6723 22.9609 13.6723 22.7346C13.6723 22.5082 13.4866 22.3247 13.2576 22.3247C13.0285 22.3247 12.8428 22.5082 12.8428 22.7346C12.8428 22.9609 13.0285 23.1444 13.2576 23.1444Z" fill="#89898F"/>
<path fill-rule="evenodd" clip-rule="evenodd" d="M11.1839 24.7839C11.4893 24.7839 11.7369 24.5392 11.7369 24.2374C11.7369 23.9356 11.4893 23.6909 11.1839 23.6909C10.8785 23.6909 10.6309 23.9356 10.6309 24.2374C10.6309 24.5392 10.8785 24.7839 11.1839 24.7839ZM11.1833 24.6471C11.4124 24.6471 11.5981 24.4636 11.5981 24.2372C11.5981 24.0109 11.4124 23.8273 11.1833 23.8273C10.9543 23.8273 10.7686 24.0109 10.7686 24.2372C10.7686 24.4636 10.9543 24.6471 11.1833 24.6471Z" fill="#89898F"/>
<path fill-rule="evenodd" clip-rule="evenodd" d="M22.6595 33.6975C22.9649 33.6975 23.2125 33.4528 23.2125 33.151C23.2125 32.8492 22.9649 32.6045 22.6595 32.6045C22.3541 32.6045 22.1064 32.8492 22.1064 33.151C22.1064 33.4528 22.3541 33.6975 22.6595 33.6975ZM22.6589 33.5608C22.888 33.5608 23.0737 33.3773 23.0737 33.1509C23.0737 32.9245 22.888 32.741 22.6589 32.741C22.4298 32.741 22.2441 32.9245 22.2441 33.1509C22.2441 33.3773 22.4298 33.5608 22.6589 33.5608Z" fill="#89898F"/>
<path fill-rule="evenodd" clip-rule="evenodd" d="M23.8167 39.0266C24.1221 39.0266 24.3698 38.7819 24.3698 38.4801C24.3698 38.1783 24.1221 37.9336 23.8167 37.9336C23.5113 37.9336 23.2637 38.1783 23.2637 38.4801C23.2637 38.7819 23.5113 39.0266 23.8167 39.0266ZM23.8161 38.89C24.0452 38.89 24.2309 38.7064 24.2309 38.4801C24.2309 38.2537 24.0452 38.0702 23.8161 38.0702C23.5871 38.0702 23.4014 38.2537 23.4014 38.4801C23.4014 38.7064 23.5871 38.89 23.8161 38.89Z" fill="#89898F"/>
<path fill-rule="evenodd" clip-rule="evenodd" d="M25.5335 39.969C25.8389 39.969 26.0866 39.7243 26.0866 39.4225C26.0866 39.1207 25.8389 38.876 25.5335 38.876C25.2281 38.876 24.9805 39.1207 24.9805 39.4225C24.9805 39.7243 25.2281 39.969 25.5335 39.969ZM25.5339 39.8321C25.763 39.8321 25.9487 39.6486 25.9487 39.4223C25.9487 39.1959 25.763 39.0124 25.5339 39.0124C25.3048 39.0124 25.1191 39.1959 25.1191 39.4223C25.1191 39.6486 25.3048 39.8321 25.5339 39.8321Z" fill="#89898F"/>
<path fill-rule="evenodd" clip-rule="evenodd" d="M24.1985 44.1145C24.504 44.1145 24.7516 43.8698 24.7516 43.568C24.7516 43.2662 24.504 43.0215 24.1985 43.0215C23.8931 43.0215 23.6455 43.2662 23.6455 43.568C23.6455 43.8698 23.8931 44.1145 24.1985 44.1145ZM24.198 43.9778C24.4271 43.9778 24.6128 43.7942 24.6128 43.5679C24.6128 43.3415 24.4271 43.158 24.198 43.158C23.9689 43.158 23.7832 43.3415 23.7832 43.5679C23.7832 43.7942 23.9689 43.9778 24.198 43.9778Z" fill="#89898F"/>
<path fill-rule="evenodd" clip-rule="evenodd" d="M26.1048 47.3179C26.4102 47.3179 26.6578 47.0732 26.6578 46.7714C26.6578 46.4695 26.4102 46.2249 26.1048 46.2249C25.7994 46.2249 25.5518 46.4695 25.5518 46.7714C25.5518 47.0732 25.7994 47.3179 26.1048 47.3179ZM26.1042 47.1812C26.3333 47.1812 26.519 46.9977 26.519 46.7713C26.519 46.5449 26.3333 46.3614 26.1042 46.3614C25.8752 46.3614 25.6895 46.5449 25.6895 46.7713C25.6895 46.9977 25.8752 47.1812 26.1042 47.1812Z" fill="#89898F"/>
<path fill-rule="evenodd" clip-rule="evenodd" d="M4.4339 33.6975C4.73934 33.6975 4.98694 33.4528 4.98694 33.151C4.98694 32.8492 4.73934 32.6045 4.4339 32.6045C4.12846 32.6045 3.88086 32.8492 3.88086 33.151C3.88086 33.4528 4.12846 33.6975 4.4339 33.6975ZM4.43334 33.5608C4.66241 33.5608 4.84812 33.3773 4.84812 33.1509C4.84812 32.9245 4.66241 32.741 4.43334 32.741C4.20426 32.741 4.01855 32.9245 4.01855 33.1509C4.01855 33.3773 4.20426 33.5608 4.43334 33.5608Z" fill="#89898F"/>
<path fill-rule="evenodd" clip-rule="evenodd" d="M17.9267 11.3287C18.3084 11.3287 18.618 11.0228 18.618 10.6455C18.618 10.2683 18.3084 9.9624 17.9267 9.9624C17.5449 9.9624 17.2354 10.2683 17.2354 10.6455C17.2354 11.0228 17.5449 11.3287 17.9267 11.3287ZM17.9267 11.1579C18.213 11.1579 18.4452 10.9285 18.4452 10.6455C18.4452 10.3626 18.213 10.1332 17.9267 10.1332C17.6403 10.1332 17.4082 10.3626 17.4082 10.6455C17.4082 10.9285 17.6403 11.1579 17.9267 11.1579Z" fill="#89898F"/>
<path fill-rule="evenodd" clip-rule="evenodd" d="M24.3368 11.4114C24.7186 11.4114 25.0281 11.1056 25.0281 10.7283C25.0281 10.351 24.7186 10.0452 24.3368 10.0452C23.955 10.0452 23.6455 10.351 23.6455 10.7283C23.6455 11.1056 23.955 11.4114 24.3368 11.4114ZM24.3368 11.2405C24.6232 11.2405 24.8553 11.0111 24.8553 10.7282C24.8553 10.4452 24.6232 10.2158 24.3368 10.2158C24.0505 10.2158 23.8184 10.4452 23.8184 10.7282C23.8184 11.0111 24.0505 11.2405 24.3368 11.2405Z" fill="#89898F"/>
<path fill-rule="evenodd" clip-rule="evenodd" d="M7.24152 62.7661C7.54695 62.7661 7.79456 62.5214 7.79456 62.2196C7.79456 61.9178 7.54695 61.6731 7.24152 61.6731C6.93608 61.6731 6.68848 61.9178 6.68848 62.2196C6.68848 62.5214 6.93608 62.7661 7.24152 62.7661ZM7.24095 62.6294C7.47003 62.6294 7.65573 62.4459 7.65573 62.2195C7.65573 61.9932 7.47003 61.8097 7.24095 61.8097C7.01188 61.8097 6.82617 61.9932 6.82617 62.2195C6.82617 62.4459 7.01188 62.6294 7.24095 62.6294Z" fill="#89898F"/>
<path d="M35.5635 11.5525V26.9101" stroke="#89898F" stroke-width="0.2"/>
<path d="M44.8125 11.5525V26.9101" stroke="#89898F" stroke-width="0.4"/>
<path d="M18.7832 76.1863V83.2527" stroke="#89898F" stroke-width="0.4"/>
<path d="M20.0225 77.3169V84.3833" stroke="#89898F" stroke-width="0.4"/>
<path d="M21.167 78.4475V85.5139" stroke="#89898F" stroke-width="0.4"/>
<path d="M22.3105 79.5784V86.6447" stroke="#89898F" stroke-width="0.4"/>
<path d="M0.953125 52.2549H26.887" stroke="#89898F" stroke-width="0.4"/>
<path d="M56.6348 11.9294H60.83" stroke="#89898F" stroke-width="0.4"/>
<defs>
<filter id="filter0_f_996_54330" x="31.2483" y="33.8171" width="16.3623" height="16.2683" filterUnits="userSpaceOnUse" color-interpolation-filters="sRGB">
<feFlood flood-opacity="0" result="BackgroundImageFix"/>
<feBlend mode="normal" in="SourceGraphic" in2="BackgroundImageFix" result="shape"/>
<feGaussianBlur stdDeviation="2" result="effect1_foregroundBlur_996_54330"/>
</filter>
<filter id="filter1_f_996_54330" x="29.3821" y="32.0959" width="19.9702" height="19.8335" filterUnits="userSpaceOnUse" color-interpolation-filters="sRGB">
<feFlood flood-opacity="0" result="BackgroundImageFix"/>
<feBlend mode="normal" in="SourceGraphic" in2="BackgroundImageFix" result="shape"/>
<feGaussianBlur stdDeviation="2" result="effect1_foregroundBlur_996_54330"/>
</filter>
<linearGradient id="paint0_linear_996_54330" x1="95.6474" y1="67.4653" x2="104.544" y2="67.622" gradientUnits="userSpaceOnUse">
<stop offset="0.394225" stop-color="#6E676A"/>
<stop offset="0.792275" stop-color="#A8A5A8"/>
<stop offset="1" stop-color="#F4F4F9"/>
</linearGradient>
<linearGradient id="paint1_linear_996_54330" x1="101.459" y1="53.8386" x2="105.621" y2="53.9295" gradientUnits="userSpaceOnUse">
<stop offset="0.394225" stop-color="#6E676A"/>
<stop offset="0.792275" stop-color="#A8A5A8"/>
<stop offset="1" stop-color="#F4F4F9"/>
</linearGradient>
<linearGradient id="paint2_linear_996_54330" x1="95.954" y1="54.2616" x2="98.9649" y2="54.2758" gradientUnits="userSpaceOnUse">
<stop offset="0.394225" stop-color="#6E676A"/>
<stop offset="0.792275" stop-color="#A8A5A8"/>
<stop offset="1" stop-color="#F4F4F9"/>
</linearGradient>
<linearGradient id="paint3_linear_996_54330" x1="105.023" y1="72.891" x2="112.738" y2="73.8646" gradientUnits="userSpaceOnUse">
<stop offset="0.394225" stop-color="#6E676A"/>
<stop offset="0.792275" stop-color="#A8A5A8"/>
<stop offset="1" stop-color="#F4F4F9"/>
</linearGradient>
<linearGradient id="paint4_linear_996_54330" x1="103.419" y1="71.1506" x2="120.603" y2="71.9662" gradientUnits="userSpaceOnUse">
<stop offset="0.394225" stop-color="#6E676A"/>
<stop offset="0.792275" stop-color="#A8A5A8"/>
<stop offset="1" stop-color="#F4F4F9"/>
</linearGradient>
<linearGradient id="paint5_linear_996_54330" x1="109.335" y1="50.2392" x2="120.264" y2="50.5872" gradientUnits="userSpaceOnUse">
<stop offset="0.394225" stop-color="#6E676A"/>
<stop offset="0.792275" stop-color="#A8A5A8"/>
<stop offset="1" stop-color="#F4F4F9"/>
</linearGradient>
<linearGradient id="paint6_linear_996_54330" x1="104.797" y1="40.707" x2="138.943" y2="57.217" gradientUnits="userSpaceOnUse">
<stop stop-color="#3E556E"/>
<stop offset="0.239583" stop-color="#41586F"/>
<stop offset="0.427083" stop-color="#334A67"/>
<stop offset="0.572917" stop-color="#28415E"/>
<stop offset="0.822917" stop-color="#1B3556"/>
<stop offset="1" stop-color="#213959"/>
</linearGradient>
<linearGradient id="paint7_linear_996_54330" x1="100.197" y1="53.572" x2="109.786" y2="53.7594" gradientUnits="userSpaceOnUse">
<stop offset="0.394225" stop-color="#6E676A"/>
<stop offset="0.792275" stop-color="#A8A5A8"/>
<stop offset="1" stop-color="#F4F4F9"/>
</linearGradient>
<linearGradient id="paint8_linear_996_54330" x1="96.539" y1="69.0142" x2="118.324" y2="70.4533" gradientUnits="userSpaceOnUse">
<stop offset="0.394225" stop-color="#6E676A"/>
<stop offset="0.792275" stop-color="#A8A5A8"/>
<stop offset="1" stop-color="#F4F4F9"/>
</linearGradient>
<linearGradient id="paint9_linear_996_54330" x1="108.846" y1="53.2398" x2="111.044" y2="53.2831" gradientUnits="userSpaceOnUse">
<stop offset="0.394225" stop-color="#6E676A"/>
<stop offset="0.792275" stop-color="#A8A5A8"/>
<stop offset="1" stop-color="#F4F4F9"/>
</linearGradient>
<linearGradient id="paint10_linear_996_54330" x1="110.166" y1="76.3926" x2="111.945" y2="76.4277" gradientUnits="userSpaceOnUse">
<stop offset="0.394225" stop-color="#6E676A"/>
<stop offset="0.792275" stop-color="#A8A5A8"/>
<stop offset="1" stop-color="#F4F4F9"/>
</linearGradient>
<linearGradient id="paint11_linear_996_54330" x1="109.24" y1="50.1708" x2="120.332" y2="50.5249" gradientUnits="userSpaceOnUse">
<stop offset="0.394225" stop-color="#6E676A"/>
<stop offset="0.792275" stop-color="#A8A5A8"/>
<stop offset="1" stop-color="#F4F4F9"/>
</linearGradient>
<linearGradient id="paint12_linear_996_54330" x1="109.264" y1="49.9885" x2="113.108" y2="50.0634" gradientUnits="userSpaceOnUse">
<stop offset="0.394225" stop-color="#6E676A"/>
<stop offset="0.792275" stop-color="#A8A5A8"/>
<stop offset="1" stop-color="#F4F4F9"/>
</linearGradient>
<linearGradient id="paint13_linear_996_54330" x1="96.9453" y1="50.6932" x2="108.046" y2="50.877" gradientUnits="userSpaceOnUse">
<stop offset="0.394225" stop-color="#6E676A"/>
<stop offset="0.792275" stop-color="#A8A5A8"/>
<stop offset="1" stop-color="#F4F4F9"/>
</linearGradient>
<linearGradient id="paint14_linear_996_54330" x1="98.0931" y1="61.5235" x2="99.8716" y2="61.5585" gradientUnits="userSpaceOnUse">
<stop offset="0.394225" stop-color="#6E676A"/>
<stop offset="0.792275" stop-color="#A8A5A8"/>
<stop offset="1" stop-color="#F4F4F9"/>
</linearGradient>
<linearGradient id="paint15_linear_996_54330" x1="107.139" y1="50.5703" x2="108.917" y2="50.6054" gradientUnits="userSpaceOnUse">
<stop offset="0.394225" stop-color="#6E676A"/>
<stop offset="0.792275" stop-color="#A8A5A8"/>
<stop offset="1" stop-color="#F4F4F9"/>
</linearGradient>
<linearGradient id="paint16_linear_996_54330" x1="112.356" y1="72.393" x2="113.499" y2="72.4155" gradientUnits="userSpaceOnUse">
<stop offset="0.394225" stop-color="#6E676A"/>
<stop offset="0.792275" stop-color="#A8A5A8"/>
<stop offset="1" stop-color="#F4F4F9"/>
</linearGradient>
<linearGradient id="paint17_linear_996_54330" x1="112.736" y1="72.688" x2="113.226" y2="72.6976" gradientUnits="userSpaceOnUse">
<stop offset="0.394225" stop-color="#6E676A"/>
<stop offset="0.792275" stop-color="#A8A5A8"/>
<stop offset="1" stop-color="#F4F4F9"/>
</linearGradient>
<linearGradient id="paint18_linear_996_54330" x1="99.6807" y1="68.3426" x2="101.15" y2="68.3715" gradientUnits="userSpaceOnUse">
<stop offset="0.394225" stop-color="#6E676A"/>
<stop offset="0.792275" stop-color="#A8A5A8"/>
<stop offset="1" stop-color="#F4F4F9"/>
</linearGradient>
<linearGradient id="paint19_linear_996_54330" x1="100.169" y1="68.7219" x2="100.798" y2="68.7344" gradientUnits="userSpaceOnUse">
<stop offset="0.394225" stop-color="#6E676A"/>
<stop offset="0.792275" stop-color="#A8A5A8"/>
<stop offset="1" stop-color="#F4F4F9"/>
</linearGradient>
<linearGradient id="paint20_linear_996_54330" x1="101.083" y1="56.7598" x2="102.552" y2="56.7888" gradientUnits="userSpaceOnUse">
<stop offset="0.394225" stop-color="#6E676A"/>
<stop offset="0.792275" stop-color="#A8A5A8"/>
<stop offset="1" stop-color="#F4F4F9"/>
</linearGradient>
<linearGradient id="paint21_linear_996_54330" x1="101.571" y1="57.1392" x2="102.2" y2="57.1516" gradientUnits="userSpaceOnUse">
<stop offset="0.394225" stop-color="#6E676A"/>
<stop offset="0.792275" stop-color="#A8A5A8"/>
<stop offset="1" stop-color="#F4F4F9"/>
</linearGradient>
<linearGradient id="paint22_linear_996_54330" x1="105.159" y1="53.2347" x2="106.628" y2="53.2636" gradientUnits="userSpaceOnUse">
<stop offset="0.394225" stop-color="#6E676A"/>
<stop offset="0.792275" stop-color="#A8A5A8"/>
<stop offset="1" stop-color="#F4F4F9"/>
</linearGradient>
<linearGradient id="paint23_linear_996_54330" x1="105.647" y1="53.614" x2="106.277" y2="53.6264" gradientUnits="userSpaceOnUse">
<stop offset="0.394225" stop-color="#6E676A"/>
<stop offset="0.792275" stop-color="#A8A5A8"/>
<stop offset="1" stop-color="#F4F4F9"/>
</linearGradient>
<linearGradient id="paint24_linear_996_54330" x1="117.263" y1="70.9864" x2="118.732" y2="71.0153" gradientUnits="userSpaceOnUse">
<stop offset="0.394225" stop-color="#6E676A"/>
<stop offset="0.792275" stop-color="#A8A5A8"/>
<stop offset="1" stop-color="#F4F4F9"/>
</linearGradient>
<linearGradient id="paint25_linear_996_54330" x1="117.751" y1="71.3657" x2="118.38" y2="71.3782" gradientUnits="userSpaceOnUse">
<stop offset="0.394225" stop-color="#6E676A"/>
<stop offset="0.792275" stop-color="#A8A5A8"/>
<stop offset="1" stop-color="#F4F4F9"/>
</linearGradient>
<linearGradient id="paint26_linear_996_54330" x1="38.6031" y1="39.6889" x2="46.8124" y2="44.6114" gradientUnits="userSpaceOnUse">
<stop stop-color="#585C62"/>
<stop offset="0.166667" stop-color="white"/>
<stop offset="0.25" stop-color="#858D8E"/>
<stop offset="0.442708" stop-color="#2B2F2F"/>
<stop offset="0.635417" stop-color="#E9E9E9"/>
<stop offset="0.78125" stop-color="#343939"/>
<stop offset="0.869792" stop-color="white"/>
<stop offset="0.979167" stop-color="#141515"/>
</linearGradient>
<linearGradient id="paint27_linear_996_54330" x1="87.8338" y1="-2.49183" x2="40.9102" y2="-1.66768" gradientUnits="userSpaceOnUse">
<stop offset="0.394225" stop-color="#6E676A"/>
<stop offset="0.792275" stop-color="#A8A5A8"/>
<stop offset="1" stop-color="#F4F4F9"/>
</linearGradient>
<linearGradient id="paint28_linear_996_54330" x1="-8.38999" y1="-6.10975" x2="38.9301" y2="-5.71396" gradientUnits="userSpaceOnUse">
<stop offset="0.394225" stop-color="#6E676A"/>
<stop offset="0.792275" stop-color="#A8A5A8"/>
<stop offset="1" stop-color="#F4F4F9"/>
</linearGradient>
</defs>
</svg>
