<svg width="200" height="59" viewBox="0 0 200 59" fill="none" xmlns="http://www.w3.org/2000/svg">
<path d="M64.251 49.8858L61.0844 55.067C59.5912 57.5085 56.9223 58.9998 54.0474 58.9998C47.6283 58.9998 43.6765 52.029 47.0105 46.5794L50.1771 41.3982C53.3824 36.1531 61.0501 36.1531 64.2553 41.3982C65.8472 44.0058 65.8472 47.2782 64.2553 49.8815L64.251 49.8858Z" fill="#CDDE00"/>
<path d="M38.0972 55.1707C40.5794 51.3253 39.488 46.2325 35.6595 43.7955C31.8309 41.3586 26.715 42.5003 24.2328 46.3457C21.7505 50.1911 22.8419 55.2839 26.6705 57.7209C30.499 60.1578 35.6149 59.0161 38.0972 55.1707Z" fill="#CDDE00"/>
<path d="M52.8033 22.6676C49.8812 17.8869 43.2562 17.4651 39.6776 21.3978C39.5832 21.5044 39.4459 21.6833 39.3 21.8836C38.8109 22.5611 37.8712 22.74 37.1632 22.2884L37.1375 22.2713C36.4166 21.8111 36.1935 20.861 36.6397 20.1324L41.3553 12.416C42.9472 9.80832 42.9472 6.53599 41.3553 3.93261C38.1501 -1.3125 30.4824 -1.3125 27.2771 3.93261L1.21032 46.5795C-2.11937 52.0291 1.8282 58.9998 8.24728 58.9998C11.1264 58.9998 13.791 57.5086 15.2843 55.0671L31.3577 28.7691C31.8168 28.0149 32.8166 27.7849 33.5632 28.2621L33.5761 28.2706C34.2712 28.7137 34.5072 29.617 34.1124 30.3414C33.915 30.7078 33.7348 31.0572 33.6662 31.2319C31.6881 36.4088 35.4984 42.2717 41.3854 42.2717C44.2645 42.2717 46.9291 40.7804 48.4223 38.339L52.799 31.1594C54.3909 28.5518 54.3909 25.2837 52.799 22.6761L52.8033 22.6676Z" fill="#CDDE00"/>
<path d="M115.769 39.9111L113.1 34.7427H93.7226L91.0107 39.9111H82L97.6573 9.76562H109.161L124.823 39.9111H115.769ZM103.519 16.1058L97.0008 28.4835H109.903L103.519 16.1058Z" fill="white"/>
<path d="M151.465 39.9111H127.449V9.76562H151.289C157.326 9.76562 160.87 10.8948 160.87 17.4991C160.87 21.3211 160.128 23.7966 156.103 24.4485V24.751C160.608 25.0536 161.351 27.7464 161.351 31.5258C161.351 38.9098 157.896 39.9111 151.465 39.9111ZM150.237 16.3657H135.537V21.8366H149.272C152.07 21.8366 152.773 21.3594 152.773 18.9265C152.773 17.1454 152.511 16.3614 150.237 16.3614V16.3657ZM149.714 27.397H135.541V33.3068H149.538C152.164 33.3068 153.258 32.6975 153.258 30.2646C153.258 27.8316 152.34 27.397 149.714 27.397Z" fill="white"/>
<path d="M197.127 37.9554C194.373 40.2137 191.352 40.1711 187.503 40.1711H177.574C170.443 40.1711 164.015 39.7365 164.015 28.7477V20.9291C164.015 10.98 169.748 9.54834 177.445 9.54834H188.383C195.424 9.54834 199.886 10.3749 199.886 19.4079V20.5797H191.532V19.4079C191.27 16.7151 189.301 16.5404 186.632 16.5404H176.57C173.202 16.5404 172.369 17.9294 172.369 22.2329V26.9241C172.369 31.4406 172.94 33.179 176.699 33.179H186.628C189.953 33.179 191.571 32.9191 191.571 29.3996V28.4878H199.925V29.3996C199.925 32.7018 199.882 35.6972 197.123 37.9554H197.127Z" fill="white"/>
<path d="M85.2958 47.2579H83.5324L83.2037 48.0606H82L83.8389 43.9189H85.0026L86.8504 48.0606H85.6245L85.2958 47.2579ZM84.9493 46.3934L84.4119 45.0701L83.8744 46.3934H84.9449H84.9493Z" fill="white"/>
<path d="M87.0288 45.992C87.0288 44.7306 88.0016 43.8396 89.3208 43.8396C90.0892 43.8396 90.7066 44.1175 91.1152 44.6203L90.3646 45.2951C90.1025 44.982 89.7827 44.81 89.3829 44.81C88.6989 44.81 88.2192 45.2819 88.2192 45.992C88.2192 46.7022 88.6945 47.1741 89.3829 47.1741C89.7827 47.1741 90.1025 47.0021 90.3646 46.6889L91.1152 47.3638C90.711 47.8666 90.0892 48.1445 89.3208 48.1445C87.9971 48.1445 87.0288 47.2491 87.0288 45.992Z" fill="white"/>
<path d="M92.6069 44.8542H91.3276V43.9236H95.0632V44.8542H93.7884V48.0653H92.6069V44.8542Z" fill="white"/>
<path d="M95.6187 43.9236H96.8002V48.0653H95.6187V43.9236Z" fill="white"/>
<path d="M101.974 43.9236L100.189 48.0653H99.0248L97.2437 43.9236H98.5184L99.6511 46.6229L100.806 43.9236H101.974Z" fill="white"/>
<path d="M105.688 47.1611V48.0653H102.339V43.9236H105.608V44.8278H103.503V45.5247H105.355V46.4024H103.503V47.1611H105.684H105.688Z" fill="white"/>
<path d="M112.279 46.9273C112.279 47.6418 111.684 48.0653 110.564 48.0653H108.312V43.9236H110.445C111.542 43.9236 112.079 44.3691 112.079 45.0042C112.079 45.4012 111.875 45.7188 111.519 45.904C111.99 46.0716 112.283 46.4245 112.283 46.9273H112.279ZM109.481 44.766V45.5644H110.289C110.684 45.5644 110.884 45.4276 110.884 45.163C110.884 44.8984 110.68 44.766 110.289 44.766H109.481ZM111.089 46.795C111.089 46.5127 110.875 46.3759 110.467 46.3759H109.476V47.214H110.467C110.871 47.214 111.089 47.0773 111.089 46.795Z" fill="white"/>
<path d="M112.973 46.2172V43.9236H114.154V46.1819C114.154 46.892 114.452 47.1743 114.945 47.1743C115.438 47.1743 115.731 46.892 115.731 46.1819V43.9236H116.895V46.2172C116.895 47.4522 116.166 48.1447 114.936 48.1447C113.706 48.1447 112.977 47.4522 112.977 46.2172H112.973Z" fill="white"/>
<path d="M117.517 47.6902L117.903 46.8257C118.272 47.0683 118.796 47.2315 119.28 47.2315C119.764 47.2315 119.96 47.0947 119.96 46.8962C119.96 46.239 117.588 46.7198 117.588 45.1805C117.588 44.4395 118.196 43.8396 119.435 43.8396C119.977 43.8396 120.537 43.9631 120.95 44.2013L120.586 45.0702C120.186 44.8585 119.795 44.7526 119.431 44.7526C118.938 44.7526 118.756 44.9202 118.756 45.1231C118.756 45.7583 121.123 45.2819 121.123 46.808C121.123 47.5314 120.515 48.1445 119.276 48.1445C118.592 48.1445 117.912 47.9592 117.517 47.6902Z" fill="white"/>
<path d="M121.781 43.9236H122.962V48.0653H121.781V43.9236Z" fill="white"/>
<path d="M127.888 43.9236V48.0653H126.916L125.077 45.8599V48.0653H123.922V43.9236H124.895L126.734 46.1289V43.9236H127.888Z" fill="white"/>
<path d="M132.188 47.1611V48.0653H128.839V43.9236H132.108V44.8278H130.003V45.5247H131.855V46.4024H130.003V47.1611H132.184H132.188Z" fill="white"/>
<path d="M132.667 47.6902L133.054 46.8257C133.423 47.0683 133.947 47.2315 134.431 47.2315C134.915 47.2315 135.11 47.0947 135.11 46.8962C135.11 46.239 132.739 46.7198 132.739 45.1805C132.739 44.4395 133.347 43.8396 134.586 43.8396C135.128 43.8396 135.688 43.9631 136.101 44.2013L135.737 45.0702C135.337 44.8585 134.946 44.7526 134.582 44.7526C134.089 44.7526 133.907 44.9202 133.907 45.1231C133.907 45.7583 136.274 45.2819 136.274 46.808C136.274 47.5314 135.666 48.1445 134.426 48.1445C133.742 48.1445 133.063 47.9592 132.667 47.6902Z" fill="white"/>
<path d="M136.643 47.6902L137.029 46.8257C137.398 47.0683 137.922 47.2315 138.406 47.2315C138.89 47.2315 139.086 47.0947 139.086 46.8962C139.086 46.239 136.714 46.7198 136.714 45.1805C136.714 44.4395 137.322 43.8396 138.561 43.8396C139.103 43.8396 139.663 43.9631 140.076 44.2013L139.712 45.0702C139.312 44.8585 138.921 44.7526 138.557 44.7526C138.064 44.7526 137.882 44.9202 137.882 45.1231C137.882 45.7583 140.249 45.2819 140.249 46.808C140.249 47.5314 139.641 48.1445 138.402 48.1445C137.717 48.1445 137.038 47.9592 136.643 47.6902Z" fill="white"/>
<path d="M142.541 45.992C142.541 44.7306 143.513 43.8396 144.832 43.8396C145.601 43.8396 146.218 44.1175 146.627 44.6203L145.876 45.2951C145.614 44.982 145.294 44.81 144.895 44.81C144.211 44.81 143.731 45.2819 143.731 45.992C143.731 46.7022 144.206 47.1741 144.895 47.1741C145.294 47.1741 145.614 47.0021 145.876 46.6889L146.627 47.3638C146.223 47.8666 145.601 48.1445 144.832 48.1445C143.509 48.1445 142.541 47.2491 142.541 45.992Z" fill="white"/>
<path d="M146.97 45.992C146.97 44.7482 147.952 43.8396 149.289 43.8396C150.626 43.8396 151.607 44.7526 151.607 45.992C151.607 47.2315 150.626 48.1445 149.289 48.1445C147.952 48.1445 146.97 47.2315 146.97 45.992ZM150.413 45.992C150.413 45.2775 149.92 44.81 149.289 44.81C148.658 44.81 148.161 45.2775 148.161 45.992C148.161 46.7066 148.654 47.1741 149.289 47.1741C149.924 47.1741 150.413 46.7066 150.413 45.992Z" fill="white"/>
<path d="M156.106 48.065L156.093 45.8685L155.023 47.6548H154.499L153.433 45.9258V48.0606H152.34V43.9189H153.313L154.778 46.3096L156.209 43.9189H157.181L157.195 48.0606H156.111L156.106 48.065Z" fill="white"/>
<path d="M161.907 48.065L161.894 45.8685L160.823 47.6548H160.299L159.233 45.9258V48.0606H158.141V43.9189H159.113L160.579 46.3096L162.009 43.9189H162.982L162.995 48.0606H161.912L161.907 48.065Z" fill="white"/>
<path d="M163.906 46.2172V43.9236H165.088V46.1819C165.088 46.892 165.385 47.1743 165.878 47.1743C166.371 47.1743 166.665 46.892 166.665 46.1819V43.9236H167.828V46.2172C167.828 47.4522 167.1 48.1447 165.87 48.1447C164.639 48.1447 163.911 47.4522 163.911 46.2172H163.906Z" fill="white"/>
<path d="M172.71 43.9236V48.0653H171.737L169.899 45.8599V48.0653H168.744V43.9236H169.716L171.555 46.1289V43.9236H172.71Z" fill="white"/>
<path d="M173.66 43.9236H174.842V48.0653H173.66V43.9236Z" fill="white"/>
<path d="M175.583 45.992C175.583 44.7306 176.556 43.8396 177.875 43.8396C178.643 43.8396 179.261 44.1175 179.669 44.6203L178.919 45.2951C178.657 44.982 178.337 44.81 177.937 44.81C177.253 44.81 176.773 45.2819 176.773 45.992C176.773 46.7022 177.249 47.1741 177.937 47.1741C178.337 47.1741 178.657 47.0021 178.919 46.6889L179.669 47.3638C179.265 47.8666 178.643 48.1445 177.875 48.1445C176.551 48.1445 175.583 47.2491 175.583 45.992Z" fill="white"/>
<path d="M183.037 47.2579H181.274L180.945 48.0606H179.741L181.58 43.9189H182.744L184.592 48.0606H183.366L183.037 47.2579ZM182.691 46.3934L182.153 45.0701L181.616 46.3934H182.686H182.691Z" fill="white"/>
<path d="M185.72 44.8542H184.44V43.9236H188.176V44.8542H186.901V48.0653H185.72V44.8542Z" fill="white"/>
<path d="M188.736 43.9236H189.917V48.0653H188.736V43.9236Z" fill="white"/>
<path d="M190.659 45.992C190.659 44.7482 191.641 43.8396 192.978 43.8396C194.315 43.8396 195.296 44.7526 195.296 45.992C195.296 47.2315 194.315 48.1445 192.978 48.1445C191.641 48.1445 190.659 47.2315 190.659 45.992ZM194.102 45.992C194.102 45.2775 193.609 44.81 192.978 44.81C192.347 44.81 191.85 45.2775 191.85 45.992C191.85 46.7066 192.343 47.1741 192.978 47.1741C193.613 47.1741 194.102 46.7066 194.102 45.992Z" fill="white"/>
<path d="M200 43.9236V48.0653H199.027L197.188 45.8599V48.0653H196.033V43.9236H197.006L198.845 46.1289V43.9236H200Z" fill="white"/>
</svg>
