<svg width="1440" height="766" viewBox="0 0 1440 766" fill="none" xmlns="http://www.w3.org/2000/svg">
<path d="M0.5 752.5L56.4853 696.515C58.7357 694.264 61.788 693 64.9706 693H703.029C706.212 693 709.264 694.264 711.515 696.515L764.5 749.5" stroke="#D9D9D9" stroke-width="0.5" stroke-dasharray="4 4"/>
<circle cx="772" cy="756" r="9.5" stroke="#D9D9D9"/>
<path d="M-2.5 0.5L56.4853 59.4853C58.7357 61.7357 60 64.788 60 67.9706V376C60 382.627 65.3726 388 72 388H1287.03C1290.21 388 1293.26 389.264 1295.51 391.515L1449 545" stroke="#D9D9D9" stroke-width="0.5"/>
<path d="M0.5 37L34.9853 71.4853C37.2357 73.7357 38.5 76.788 38.5 79.9706V395.529C38.5 398.712 37.2357 401.764 34.9853 404.015L-3.5 442.5" stroke="#0139B7" stroke-width="0.5" stroke-dasharray="4 4"/>
<path d="M1357 531L1272.01 446.015C1269.76 443.764 1266.71 442.5 1263.53 442.5H1068" stroke="#D9D9D9" stroke-width="0.5" stroke-dasharray="4 4"/>
<circle cx="1014" cy="414" r="9.5" stroke="#D9D9D9"/>
<circle cx="1058" cy="442" r="9.5" stroke="#D9D9D9"/>
<circle cx="834" cy="571" r="9.5" stroke="#D9D9D9"/>
<path d="M1023.5 414H1275.03C1278.21 414 1281.26 415.264 1283.51 417.515L1376.49 510.485C1378.74 512.736 1380 515.788 1380 518.971V559.5C1380 566.127 1374.63 571.5 1368 571.5H844" stroke="#D9D9D9" stroke-width="0.5" stroke-dasharray="4 4"/>
</svg>
