<svg width="144" height="61" viewBox="0 0 144 61" fill="none" xmlns="http://www.w3.org/2000/svg">
<g filter="url(#filter0_f_1302_19107)">
<path d="M12.416 16L11.632 13.744H6.864L6.08 16H4.08L8.144 4.8H10.352L14.4 16H12.416ZM7.472 12.016H11.024L9.248 6.96L7.472 12.016Z" fill="white"/>
</g>
<path d="M12.416 16L11.632 13.744H6.864L6.08 16H4.08L8.144 4.8H10.352L14.4 16H12.416ZM7.472 12.016H11.024L9.248 6.96L7.472 12.016Z" fill="white"/>
<path d="M21.512 16.192C19.816 16.192 18.4133 15.632 17.304 14.512C16.1947 13.392 15.64 12.0213 15.64 10.4C15.64 8.77867 16.1947 7.408 17.304 6.288C18.4133 5.168 19.816 4.608 21.512 4.608C22.5467 4.608 23.496 4.85867 24.36 5.36C25.224 5.85067 25.8907 6.51733 26.36 7.36L25.368 7.936C25.016 7.25333 24.4933 6.70933 23.8 6.304C23.1067 5.89867 22.344 5.696 21.512 5.696C20.1147 5.696 18.9733 6.14933 18.088 7.056C17.2027 7.96267 16.76 9.07733 16.76 10.4C16.76 11.7227 17.2027 12.8373 18.088 13.744C18.9733 14.6507 20.1147 15.104 21.512 15.104C22.344 15.104 23.1067 14.9013 23.8 14.496C24.4933 14.0907 25.016 13.5467 25.368 12.864L26.36 13.424C25.9013 14.2667 25.2347 14.9387 24.36 15.44C23.496 15.9413 22.5467 16.192 21.512 16.192ZM35.7256 4.8V5.856H32.2856V16H31.1656V5.856H27.7256V4.8H35.7256ZM37.9663 4.8H39.0863V16H37.9663V4.8ZM45.3018 16L41.1738 4.8H42.3898L45.8778 14.512L49.3658 4.8H50.5818L46.4538 16H45.3018ZM53.7881 14.944H59.2281V16H52.6681V4.8H59.1481V5.856H53.7881V9.824H58.7481V10.88H53.7881V14.944Z" fill="white"/>
<path d="M22.288 35.104C21.52 35.8293 20.5173 36.192 19.28 36.192C18.0427 36.192 17.04 35.8293 16.272 35.104C15.504 34.3787 15.12 33.408 15.12 32.192V24.8H16.24V32.192C16.24 33.088 16.5067 33.7973 17.04 34.32C17.5733 34.8427 18.32 35.104 19.28 35.104C20.24 35.104 20.9867 34.8427 21.52 34.32C22.0533 33.7973 22.32 33.088 22.32 32.192V24.8H23.44V32.192C23.44 33.408 23.056 34.3787 22.288 35.104ZM30.0025 36.192C28.9785 36.192 28.0985 35.952 27.3625 35.472C26.6372 34.9813 26.1305 34.3093 25.8425 33.456L26.8025 32.896C27.0052 33.5893 27.3785 34.1333 27.9225 34.528C28.4665 34.912 29.1652 35.104 30.0185 35.104C30.8505 35.104 31.4958 34.9227 31.9545 34.56C32.4238 34.1867 32.6585 33.696 32.6585 33.088C32.6585 32.5013 32.4452 32.0587 32.0185 31.76C31.5918 31.4613 30.8878 31.152 29.9065 30.832C28.7438 30.448 27.9758 30.1387 27.6025 29.904C26.7492 29.392 26.3225 28.6507 26.3225 27.68C26.3225 26.7307 26.6532 25.984 27.3145 25.44C27.9758 24.8853 28.7918 24.608 29.7625 24.608C30.6372 24.608 31.3945 24.8373 32.0345 25.296C32.6745 25.744 33.1492 26.32 33.4585 27.024L32.5145 27.552C32.0025 26.3147 31.0852 25.696 29.7625 25.696C29.0692 25.696 28.5092 25.8667 28.0825 26.208C27.6558 26.5493 27.4425 27.024 27.4425 27.632C27.4425 28.1867 27.6345 28.6027 28.0185 28.88C28.4025 29.1573 29.0372 29.44 29.9225 29.728C30.3278 29.8667 30.6158 29.968 30.7865 30.032C30.9678 30.0853 31.2238 30.1813 31.5545 30.32C31.8958 30.448 32.1465 30.5653 32.3065 30.672C32.4665 30.768 32.6585 30.9067 32.8825 31.088C33.1172 31.2587 33.2825 31.4347 33.3785 31.616C33.4852 31.7867 33.5758 32 33.6505 32.256C33.7358 32.5013 33.7785 32.768 33.7785 33.056C33.7785 34.0053 33.4318 34.768 32.7385 35.344C32.0452 35.9093 31.1332 36.192 30.0025 36.192ZM36.2631 24.8H37.3831V36H36.2631V24.8ZM47.7906 24.8H48.9106V36H47.9506L41.7106 26.88V36H40.5906V24.8H41.5506L47.7906 33.92V24.8ZM53.2256 34.944H58.6656V36H52.1056V24.8H58.5856V25.856H53.2256V29.824H58.1856V30.88H53.2256V34.944ZM64.75 36.192C63.726 36.192 62.846 35.952 62.11 35.472C61.3847 34.9813 60.878 34.3093 60.59 33.456L61.55 32.896C61.7527 33.5893 62.126 34.1333 62.67 34.528C63.214 34.912 63.9127 35.104 64.766 35.104C65.598 35.104 66.2433 34.9227 66.702 34.56C67.1713 34.1867 67.406 33.696 67.406 33.088C67.406 32.5013 67.1927 32.0587 66.766 31.76C66.3393 31.4613 65.6353 31.152 64.654 30.832C63.4913 30.448 62.7233 30.1387 62.35 29.904C61.4967 29.392 61.07 28.6507 61.07 27.68C61.07 26.7307 61.4007 25.984 62.062 25.44C62.7233 24.8853 63.5393 24.608 64.51 24.608C65.3847 24.608 66.142 24.8373 66.782 25.296C67.422 25.744 67.8967 26.32 68.206 27.024L67.262 27.552C66.75 26.3147 65.8327 25.696 64.51 25.696C63.8167 25.696 63.2567 25.8667 62.83 26.208C62.4033 26.5493 62.19 27.024 62.19 27.632C62.19 28.1867 62.382 28.6027 62.766 28.88C63.15 29.1573 63.7847 29.44 64.67 29.728C65.0753 29.8667 65.3633 29.968 65.534 30.032C65.7153 30.0853 65.9713 30.1813 66.302 30.32C66.6433 30.448 66.894 30.5653 67.054 30.672C67.214 30.768 67.406 30.9067 67.63 31.088C67.8647 31.2587 68.03 31.4347 68.126 31.616C68.2327 31.7867 68.3233 32 68.398 32.256C68.4833 32.5013 68.526 32.768 68.526 33.056C68.526 34.0053 68.1793 34.768 67.486 35.344C66.7927 35.9093 65.8807 36.192 64.75 36.192ZM74.2025 36.192C73.1785 36.192 72.2985 35.952 71.5625 35.472C70.8372 34.9813 70.3305 34.3093 70.0425 33.456L71.0025 32.896C71.2052 33.5893 71.5785 34.1333 72.1225 34.528C72.6665 34.912 73.3652 35.104 74.2185 35.104C75.0505 35.104 75.6958 34.9227 76.1545 34.56C76.6238 34.1867 76.8585 33.696 76.8585 33.088C76.8585 32.5013 76.6452 32.0587 76.2185 31.76C75.7918 31.4613 75.0878 31.152 74.1065 30.832C72.9438 30.448 72.1758 30.1387 71.8025 29.904C70.9492 29.392 70.5225 28.6507 70.5225 27.68C70.5225 26.7307 70.8532 25.984 71.5145 25.44C72.1758 24.8853 72.9918 24.608 73.9625 24.608C74.8372 24.608 75.5945 24.8373 76.2345 25.296C76.8745 25.744 77.3492 26.32 77.6585 27.024L76.7145 27.552C76.2025 26.3147 75.2852 25.696 73.9625 25.696C73.2692 25.696 72.7092 25.8667 72.2825 26.208C71.8558 26.5493 71.6425 27.024 71.6425 27.632C71.6425 28.1867 71.8345 28.6027 72.2185 28.88C72.6025 29.1573 73.2372 29.44 74.1225 29.728C74.5278 29.8667 74.8158 29.968 74.9865 30.032C75.1678 30.0853 75.4238 30.1813 75.7545 30.32C76.0958 30.448 76.3465 30.5653 76.5065 30.672C76.6665 30.768 76.8585 30.9067 77.0825 31.088C77.3172 31.2587 77.4825 31.4347 77.5785 31.616C77.6852 31.7867 77.7758 32 77.8505 32.256C77.9358 32.5013 77.9785 32.768 77.9785 33.056C77.9785 34.0053 77.6318 34.768 76.9385 35.344C76.2452 35.9093 75.3332 36.192 74.2025 36.192Z" fill="white"/>
<g filter="url(#filter1_f_1302_19107)">
<path d="M11.712 30.192C12.2027 30.448 12.5867 30.8 12.864 31.248C13.1413 31.696 13.28 32.2133 13.28 32.8C13.28 33.7173 12.9547 34.48 12.304 35.088C11.6533 35.696 10.8587 36 9.92 36H5.12V24.8H9.568C10.4853 24.8 11.2587 25.0987 11.888 25.696C12.528 26.2827 12.848 27.0187 12.848 27.904C12.848 28.8747 12.4693 29.6373 11.712 30.192ZM9.568 26.528H6.96V29.472H9.568C9.97333 29.472 10.3147 29.3333 10.592 29.056C10.8693 28.768 11.008 28.416 11.008 28C11.008 27.584 10.8693 27.2373 10.592 26.96C10.3147 26.672 9.97333 26.528 9.568 26.528ZM9.92 34.272C10.3467 34.272 10.704 34.1227 10.992 33.824C11.2907 33.5147 11.44 33.1413 11.44 32.704C11.44 32.2667 11.2907 31.8987 10.992 31.6C10.704 31.2907 10.3467 31.136 9.92 31.136H6.96V34.272H9.92Z" fill="white"/>
</g>
<path d="M11.712 30.192C12.2027 30.448 12.5867 30.8 12.864 31.248C13.1413 31.696 13.28 32.2133 13.28 32.8C13.28 33.7173 12.9547 34.48 12.304 35.088C11.6533 35.696 10.8587 36 9.92 36H5.12V24.8H9.568C10.4853 24.8 11.2587 25.0987 11.888 25.696C12.528 26.2827 12.848 27.0187 12.848 27.904C12.848 28.8747 12.4693 29.6373 11.712 30.192ZM9.568 26.528H6.96V29.472H9.568C9.97333 29.472 10.3147 29.3333 10.592 29.056C10.8693 28.768 11.008 28.416 11.008 28C11.008 27.584 10.8693 27.2373 10.592 26.96C10.3147 26.672 9.97333 26.528 9.568 26.528ZM9.92 34.272C10.3467 34.272 10.704 34.1227 10.992 33.824C11.2907 33.5147 11.44 33.1413 11.44 32.704C11.44 32.2667 11.2907 31.8987 10.992 31.6C10.704 31.2907 10.3467 31.136 9.92 31.136H6.96V34.272H9.92Z" fill="white"/>
<path d="M26.544 54.512C25.424 55.632 24.0533 56.192 22.432 56.192C20.8107 56.192 19.44 55.632 18.32 54.512C17.2 53.3813 16.64 52.0107 16.64 50.4C16.64 48.7893 17.2 47.424 18.32 46.304C19.44 45.1733 20.8107 44.608 22.432 44.608C24.0533 44.608 25.424 45.1733 26.544 46.304C27.664 47.424 28.224 48.7893 28.224 50.4C28.224 52.0107 27.664 53.3813 26.544 54.512ZM19.104 53.744C20 54.6507 21.1093 55.104 22.432 55.104C23.7547 55.104 24.864 54.6507 25.76 53.744C26.656 52.8267 27.104 51.712 27.104 50.4C27.104 49.088 26.656 47.9787 25.76 47.072C24.864 46.1547 23.7547 45.696 22.432 45.696C21.1093 45.696 20 46.1547 19.104 47.072C18.208 47.9787 17.76 49.088 17.76 50.4C17.76 51.712 18.208 52.8267 19.104 53.744ZM41.0194 44.8V56H39.8994V46.496L35.9794 53.056H35.8194L31.8994 46.496V56H30.7794V44.8H32.1714L35.8994 51.04L39.6274 44.8H41.0194ZM54.4563 44.8V56H53.3363V46.496L49.4163 53.056H49.2563L45.3363 46.496V56H44.2163V44.8H45.6083L49.3363 51.04L53.0643 44.8H54.4563ZM64.6611 55.104C63.8931 55.8293 62.8905 56.192 61.6531 56.192C60.4158 56.192 59.4131 55.8293 58.6451 55.104C57.8771 54.3787 57.4931 53.408 57.4931 52.192V44.8H58.6131V52.192C58.6131 53.088 58.8798 53.7973 59.4131 54.32C59.9465 54.8427 60.6931 55.104 61.6531 55.104C62.6131 55.104 63.3598 54.8427 63.8931 54.32C64.4265 53.7973 64.6931 53.088 64.6931 52.192V44.8H65.8131V52.192C65.8131 53.408 65.4291 54.3787 64.6611 55.104ZM76.0556 44.8H77.1756V56H76.2156L69.9756 46.88V56H68.8556V44.8H69.8156L76.0556 53.92V44.8ZM80.3706 44.8H81.4906V56H80.3706V44.8ZM89.9301 56.192C88.2341 56.192 86.8315 55.632 85.7221 54.512C84.6128 53.392 84.0581 52.0213 84.0581 50.4C84.0581 48.7787 84.6128 47.408 85.7221 46.288C86.8315 45.168 88.2341 44.608 89.9301 44.608C90.9648 44.608 91.9141 44.8587 92.7781 45.36C93.6421 45.8507 94.3088 46.5173 94.7781 47.36L93.7861 47.936C93.4341 47.2533 92.9115 46.7093 92.2181 46.304C91.5248 45.8987 90.7621 45.696 89.9301 45.696C88.5328 45.696 87.3915 46.1493 86.5061 47.056C85.6208 47.9627 85.1781 49.0773 85.1781 50.4C85.1781 51.7227 85.6208 52.8373 86.5061 53.744C87.3915 54.6507 88.5328 55.104 89.9301 55.104C90.7621 55.104 91.5248 54.9013 92.2181 54.496C92.9115 54.0907 93.4341 53.5467 93.7861 52.864L94.7781 53.424C94.3195 54.2667 93.6528 54.9387 92.7781 55.44C91.9141 55.9413 90.9648 56.192 89.9301 56.192ZM104.56 56L103.52 53.248H98.2078L97.1678 56H95.9838L100.288 44.8H101.44L105.744 56H104.56ZM98.6078 52.192H103.12L100.864 46.192L98.6078 52.192ZM114.065 44.8V45.856H110.625V56H109.505V45.856H106.065V44.8H114.065ZM116.306 44.8H117.426V56H116.306V44.8ZM129.897 54.512C128.777 55.632 127.406 56.192 125.785 56.192C124.164 56.192 122.793 55.632 121.673 54.512C120.553 53.3813 119.993 52.0107 119.993 50.4C119.993 48.7893 120.553 47.424 121.673 46.304C122.793 45.1733 124.164 44.608 125.785 44.608C127.406 44.608 128.777 45.1733 129.897 46.304C131.017 47.424 131.577 48.7893 131.577 50.4C131.577 52.0107 131.017 53.3813 129.897 54.512ZM122.457 53.744C123.353 54.6507 124.462 55.104 125.785 55.104C127.108 55.104 128.217 54.6507 129.113 53.744C130.009 52.8267 130.457 51.712 130.457 50.4C130.457 49.088 130.009 47.9787 129.113 47.072C128.217 46.1547 127.108 45.696 125.785 45.696C124.462 45.696 123.353 46.1547 122.457 47.072C121.561 47.9787 121.113 49.088 121.113 50.4C121.113 51.712 121.561 52.8267 122.457 53.744ZM141.333 44.8H142.453V56H141.493L135.253 46.88V56H134.133V44.8H135.093L141.333 53.92V44.8Z" fill="white"/>
<g filter="url(#filter2_f_1302_19107)">
<path d="M10.416 56.208C8.73067 56.208 7.33333 55.6533 6.224 54.544C5.11467 53.424 4.56 52.0427 4.56 50.4C4.56 48.7573 5.11467 47.3813 6.224 46.272C7.33333 45.152 8.73067 44.592 10.416 44.592C11.4293 44.592 12.3627 44.832 13.216 45.312C14.08 45.792 14.752 46.4427 15.232 47.264L13.632 48.192C13.3333 47.6373 12.896 47.2 12.32 46.88C11.7547 46.5493 11.12 46.384 10.416 46.384C9.22133 46.384 8.25067 46.7627 7.504 47.52C6.768 48.2773 6.4 49.2373 6.4 50.4C6.4 51.5627 6.768 52.5227 7.504 53.28C8.25067 54.0373 9.22133 54.416 10.416 54.416C11.12 54.416 11.76 54.256 12.336 53.936C12.912 53.6053 13.344 53.1627 13.632 52.608L15.232 53.52C14.7627 54.3413 14.096 54.9973 13.232 55.488C12.3787 55.968 11.44 56.208 10.416 56.208Z" fill="white"/>
</g>
<path d="M10.416 56.208C8.73067 56.208 7.33333 55.6533 6.224 54.544C5.11467 53.424 4.56 52.0427 4.56 50.4C4.56 48.7573 5.11467 47.3813 6.224 46.272C7.33333 45.152 8.73067 44.592 10.416 44.592C11.4293 44.592 12.3627 44.832 13.216 45.312C14.08 45.792 14.752 46.4427 15.232 47.264L13.632 48.192C13.3333 47.6373 12.896 47.2 12.32 46.88C11.7547 46.5493 11.12 46.384 10.416 46.384C9.22133 46.384 8.25067 46.7627 7.504 47.52C6.768 48.2773 6.4 49.2373 6.4 50.4C6.4 51.5627 6.768 52.5227 7.504 53.28C8.25067 54.0373 9.22133 54.416 10.416 54.416C11.12 54.416 11.76 54.256 12.336 53.936C12.912 53.6053 13.344 53.1627 13.632 52.608L15.232 53.52C14.7627 54.3413 14.096 54.9973 13.232 55.488C12.3787 55.968 11.44 56.208 10.416 56.208Z" fill="white"/>
<defs>
<filter id="filter0_f_1302_19107" x="0.0799561" y="0.800049" width="18.3201" height="19.2" filterUnits="userSpaceOnUse" color-interpolation-filters="sRGB">
<feFlood flood-opacity="0" result="BackgroundImageFix"/>
<feBlend mode="normal" in="SourceGraphic" in2="BackgroundImageFix" result="shape"/>
<feGaussianBlur stdDeviation="2" result="effect1_foregroundBlur_1302_19107"/>
</filter>
<filter id="filter1_f_1302_19107" x="1.12" y="20.8" width="16.16" height="19.2" filterUnits="userSpaceOnUse" color-interpolation-filters="sRGB">
<feFlood flood-opacity="0" result="BackgroundImageFix"/>
<feBlend mode="normal" in="SourceGraphic" in2="BackgroundImageFix" result="shape"/>
<feGaussianBlur stdDeviation="2" result="effect1_foregroundBlur_1302_19107"/>
</filter>
<filter id="filter2_f_1302_19107" x="0.560059" y="40.592" width="18.672" height="19.616" filterUnits="userSpaceOnUse" color-interpolation-filters="sRGB">
<feFlood flood-opacity="0" result="BackgroundImageFix"/>
<feBlend mode="normal" in="SourceGraphic" in2="BackgroundImageFix" result="shape"/>
<feGaussianBlur stdDeviation="2" result="effect1_foregroundBlur_1302_19107"/>
</filter>
</defs>
</svg>
