<svg width="40" height="40" viewBox="0 0 40 40" fill="none" xmlns="http://www.w3.org/2000/svg">
<rect x="0.5" y="0.5" width="39" height="39" rx="4.5" stroke="#cdde00"/>
<path d="M22.5 20C22.5 20.4945 22.3534 20.9778 22.0787 21.3889C21.804 21.8 21.4135 22.1205 20.9567 22.3097C20.4999 22.4989 19.9972 22.5484 19.5123 22.452C19.0273 22.3555 18.5819 22.1174 18.2322 21.7678C17.8826 21.4181 17.6445 20.9727 17.548 20.4877C17.4516 20.0028 17.5011 19.5001 17.6903 19.0433C17.8795 18.5865 18.2 18.196 18.6111 17.9213C19.0222 17.6466 19.5055 17.5 20 17.5C20.6624 17.5021 21.2971 17.7661 21.7655 18.2345C22.2339 18.7029 22.4979 19.3376 22.5 20V20ZM27.8125 16.5625V23.4375C27.8125 24.5978 27.3516 25.7106 26.5311 26.5311C25.7106 27.3516 24.5978 27.8125 23.4375 27.8125H16.5625C15.4022 27.8125 14.2894 27.3516 13.4689 26.5311C12.6484 25.7106 12.1875 24.5978 12.1875 23.4375V16.5625C12.1875 15.4022 12.6484 14.2894 13.4689 13.4689C14.2894 12.6484 15.4022 12.1875 16.5625 12.1875H23.4375C24.5978 12.1875 25.7106 12.6484 26.5311 13.4689C27.3516 14.2894 27.8125 15.4022 27.8125 16.5625V16.5625ZM23.75 20C23.75 19.2583 23.5301 18.5333 23.118 17.9166C22.706 17.2999 22.1203 16.8193 21.4351 16.5355C20.7498 16.2516 19.9958 16.1774 19.2684 16.3221C18.541 16.4668 17.8728 16.8239 17.3483 17.3483C16.8239 17.8728 16.4668 18.541 16.3221 19.2684C16.1774 19.9958 16.2516 20.7498 16.5355 21.4351C16.8193 22.1203 17.2999 22.706 17.9166 23.118C18.5333 23.5301 19.2583 23.75 20 23.75C20.9946 23.75 21.9484 23.3549 22.6517 22.6517C23.3549 21.9484 23.75 20.9946 23.75 20ZM25 15.9375C25 15.7521 24.945 15.5708 24.842 15.4167C24.739 15.2625 24.5926 15.1423 24.4213 15.0714C24.25 15.0004 24.0615 14.9818 23.8796 15.018C23.6977 15.0542 23.5307 15.1435 23.3996 15.2746C23.2685 15.4057 23.1792 15.5727 23.143 15.7546C23.1068 15.9365 23.1254 16.125 23.1964 16.2963C23.2673 16.4676 23.3875 16.614 23.5417 16.717C23.6958 16.82 23.8771 16.875 24.0625 16.875C24.3111 16.875 24.5496 16.7762 24.7254 16.6004C24.9012 16.4246 25 16.1861 25 15.9375Z" fill="white"/>
<defs>
<linearGradient id="paint0_linear_1302_40238" x1="-9.81132" y1="-3.4375" x2="41.4341" y2="-2.43895" gradientUnits="userSpaceOnUse">
<stop offset="0.394225" stop-color="#6E676A"/>
<stop offset="0.792275" stop-color="#A8A5A8"/>
<stop offset="1" stop-color="#F4F4F9"/>
</linearGradient>
</defs>
</svg>
