<svg width="16" height="16" viewBox="0 0 16 16" fill="none" xmlns="http://www.w3.org/2000/svg">
<g clip-path="url(#clip0_504_3324)">
<path d="M14.6668 13.3333V8.11594C14.6669 7.75295 14.5928 7.39378 14.4492 7.06043C14.3055 6.72707 14.0953 6.42655 13.8315 6.17727L8.91616 1.53194C8.6686 1.29789 8.34084 1.16748 8.00016 1.16748C7.65948 1.16748 7.33172 1.29789 7.08416 1.53194L2.16883 6.17727C1.90498 6.42655 1.6948 6.72707 1.55116 7.06043C1.40752 7.39378 1.33346 7.75295 1.3335 8.11594V13.3333C1.3335 13.6869 1.47397 14.026 1.72402 14.2761C1.97407 14.5261 2.31321 14.6666 2.66683 14.6666H13.3335C13.6871 14.6666 14.0263 14.5261 14.2763 14.2761C14.5264 14.026 14.6668 13.6869 14.6668 13.3333Z" stroke="#00538b" stroke-linecap="round" stroke-linejoin="round"/>
</g>
<defs>
<linearGradient id="paint0_linear_504_3324" x1="-1.93694" y1="0.00739934" x2="15.145" y2="0.336165" gradientUnits="userSpaceOnUse">
<stop offset="0.394225" stop-color="#6E676A"/>
<stop offset="0.792275" stop-color="#A8A5A8"/>
<stop offset="1" stop-color="#F4F4F9"/>
</linearGradient>
<clipPath id="clip0_504_3324">
<rect width="16" height="16" fill="white"/>
</clipPath>
</defs>
</svg>
