<svg width="134" height="54" viewBox="0 0 134 54" fill="#A4A4AA" xmlns="http://www.w3.org/2000/svg">
<path fill-rule="evenodd" clip-rule="evenodd" d="M0 1.80751V3.57342H12.9298H25.8596V1.80751V0.0415981H12.9298H0V1.80751ZM29.7778 1.78671V3.57342H48.2839H66.79L65.4018 2.62846C61.8375 0.202886 62.3026 0.260963 45.3523 0.124791L29.7778 0V1.78671ZM74.4444 1.80751V3.57342H85.4152C91.4503 3.57342 96.386 3.41841 96.386 3.22887C96.386 3.03933 96.1191 2.24467 95.7932 1.46296L95.1999 0.0415981H84.8224H74.4444V1.80751ZM112.493 0.924554C112.312 1.40998 112.04 2.20504 111.888 2.69046L111.614 3.57342H122.611H133.608V1.80751V0.0415981H123.215H112.823L112.493 0.924554ZM0 9.06737V10.6371H12.9298H25.8596V9.06737V7.49767H12.9298H0V9.06737ZM29.7778 9.06737V10.6371H50.348C72.6966 10.6371 71.3977 10.7744 70.5361 8.50424L70.1541 7.49767H49.9659H29.7778V9.06737ZM74.4444 9.06737V10.6371H86.7916H99.1392L98.546 9.2157C98.22 8.43399 97.9532 7.72763 97.9532 7.646C97.9532 7.56438 92.6637 7.49767 86.1988 7.49767H74.4444V9.06737ZM109.686 8.57684C109.47 9.17058 109.215 9.87694 109.121 10.1465C108.985 10.5323 111.584 10.6371 121.278 10.6371H133.608V9.06737V7.49767H121.844H110.08L109.686 8.57684ZM7.44444 16.3272V18.0931H12.9298H18.4152V16.3272V14.5613H12.9298H7.44444V16.3272ZM37.2222 16.3272V18.0931H42.7076H48.193V16.3272V14.5613H42.7076H37.2222V16.3272ZM59.5556 16.3272V18.0931H65.191C70.7042 18.0931 70.8319 18.0739 71.0631 17.2102C71.1928 16.7248 71.3017 15.9297 71.3045 15.4443C71.3099 14.5676 71.268 14.5613 65.4327 14.5613H59.5556V16.3272ZM81.8889 16.3272V18.0931H91.6842C98.1566 18.0931 101.48 17.9558 101.48 17.6882C101.48 17.4653 101.224 16.6706 100.912 15.9222L100.344 14.5613H91.1165H81.8889V16.3272ZM107.141 15.9222C106.829 16.6706 106.573 17.4653 106.573 17.6882C106.573 17.9558 109.958 18.0931 116.564 18.0931H126.556V16.3272V14.5613H117.132H107.709L107.141 15.9222ZM7.44444 23.3909V25.1568H12.9298H18.4152V23.3909V21.625H12.9298H7.44444V23.3909ZM37.2222 23.3909V25.1568H51.7005H66.1788L67.5689 23.7233C68.3333 22.9345 68.9591 22.1398 68.9591 21.9573C68.9591 21.7745 61.8183 21.625 53.0906 21.625H37.2222V23.3909ZM81.8889 23.3909V25.1568H87.3743C92.3327 25.1568 92.8608 25.0909 92.8722 24.47C92.8839 23.8159 92.9094 23.8159 93.4051 24.47C93.8772 25.0932 94.87 25.1568 104.107 25.1568C114.28 25.1568 114.29 25.156 114.715 24.2738L115.14 23.3909L115.166 24.2738C115.193 25.1478 115.252 25.1568 120.874 25.1568H126.556V23.3909V21.625H115.812H105.068L104.811 22.7979C104.437 24.5006 103.957 24.5725 103.44 23.002L102.986 21.625H92.4373H81.8889V23.3909ZM7.44444 30.4545V32.2204H12.9298H18.4152V30.4545V28.6886H12.9298H7.44444V30.4545ZM37.2222 30.4545V32.2204H53.0906C61.8183 32.2204 68.9591 32.0795 68.9591 31.9077C68.9591 31.7358 68.2906 30.9411 67.4733 30.1418L65.9876 28.6886H51.6049H37.2222V30.4545ZM81.8889 30.4545V32.2204H87.3743H92.8596V30.4545V28.6886H87.3743H81.8889V30.4545ZM95.4323 29.5716C96.3358 32.4759 95.4926 32.2204 104.176 32.2204H111.985L112.585 30.4545L113.187 28.6886H104.172H95.1576L95.4323 29.5716ZM115.193 30.4545V32.2204H120.874H126.556V30.4545V28.6886H120.874H115.193V30.4545ZM7.44444 37.5182V39.2841H12.9298H18.4152V37.5182V35.7523H12.9298H7.44444V37.5182ZM37.2222 37.5182V39.2841H42.7076H48.193V37.5182V35.7523H42.7076H37.2222V37.5182ZM59.5556 37.5182V39.2841H65.4327C71.813 39.2841 71.547 39.3928 71.0651 36.9786L70.8202 35.7523H65.1879H59.5556V37.5182ZM81.8889 37.5182V39.2841H87.3743H92.8596V37.5182V35.7523H87.3743H81.8889V37.5182ZM98.2099 37.5182L98.8105 39.2841H104.073C109.875 39.2841 109.38 39.4956 110.269 36.6352L110.544 35.7523H104.076H97.6088L98.2099 37.5182ZM115.193 37.5182V39.2841H120.874H126.556V37.5182V35.7523H120.874H115.193V37.5182ZM0 44.9742V46.7401H13.1257H26.2515V44.9742V43.2083H13.1257H0V44.9742ZM29.7778 44.9742V46.7401H49.7124C71.4381 46.7401 70.2857 46.8657 70.7689 44.4464L71.0161 43.2083H50.3969H29.7778V44.9742ZM74.4444 44.9742V46.7401H83.652H92.8596V44.9742V43.2083H83.652H74.4444V44.9742ZM100.498 43.8951C100.651 44.273 100.952 45.0676 101.166 45.661C101.539 46.6931 101.672 46.7401 104.199 46.7401H106.841L107.295 45.223C107.544 44.3887 107.749 43.5941 107.749 43.4571C107.749 43.3202 106.055 43.2083 103.984 43.2083C100.555 43.2083 100.245 43.2695 100.498 43.8951ZM115.193 44.9742V46.7401H124.596H134V44.9742V43.2083H124.596H115.193V44.9742ZM0 52.0379V53.8038H13.1257H26.2515V52.0379V50.272H13.1257H0V52.0379ZM29.7778 52.0379V53.8038H44.2557C52.9692 53.8038 59.5038 53.6382 60.6687 53.3882C61.7333 53.1594 63.5493 52.3691 64.7044 51.6321L66.8041 50.292L48.2909 50.2822L29.7778 50.272V52.0379ZM74.4444 52.0379V53.8038H83.652H92.8596V52.0379V50.272H83.652H74.4444V52.0379ZM103.077 50.7625C103.093 51.0325 103.337 51.8711 103.619 52.6265L104.131 54L104.516 53.0189C105.549 50.3889 105.537 50.272 104.248 50.272C103.533 50.272 103.059 50.4701 103.077 50.7625ZM115.193 52.0379V53.8038H124.596H134V52.0379V50.272H124.596H115.193V52.0379Z" />
</svg>
