<svg width="180" height="36" viewBox="0 0 180 36" fill="#525259" xmlns="http://www.w3.org/2000/svg">
<path fill-rule="evenodd" clip-rule="evenodd" d="M0 17.7934V35.5869H12.7921H25.5841V32.1385V28.6902H16.7718H7.95951V14.3451V0H3.97975H0V17.7934ZM38.4473 7.93505C32.2187 9.05604 27.8846 13.1266 26.5553 19.1038C26.2482 20.4854 26.3228 23.8377 26.6931 25.2842C28.0833 30.7158 32.0964 34.3481 38.163 35.6658C39.7606 36.0128 43.1775 36.0815 44.933 35.8019C46.6004 35.5363 49.2696 34.72 50.6186 34.063C52.6224 33.0871 55.2974 31.1053 55.0771 30.7595C55.0313 30.6876 53.9451 29.8513 52.6634 28.9011L50.3328 27.1735L49.1653 27.9318C46.8943 29.407 45.4556 29.8945 42.9956 30.0224C41.1035 30.1209 39.4861 29.8631 38.1292 29.2469C37.2155 28.8319 36.1021 28.0752 36.1021 27.8692C36.1021 27.7563 37.0949 27.3482 48.5388 22.7573C52.3693 21.2205 55.5632 19.9103 55.6364 19.8458C55.9299 19.5867 55.0188 16.4269 54.1896 14.8279C53.1913 12.9025 51.2659 10.821 49.5543 9.8166C48.3441 9.10652 46.6372 8.43699 45.2509 8.12885C43.5452 7.74953 40.0335 7.64953 38.4473 7.93505ZM73.5544 7.88236C71.0827 8.32513 68.7689 9.5246 67.1228 11.2166L66.3766 11.9837V10.0609V8.13809H62.4679H58.5592V21.8625V35.5869H62.4679H66.3766V27.2636C66.3766 19.3846 66.3914 18.8986 66.6523 18.1621C67.5366 15.6683 69.799 14.2072 72.7768 14.2072C75.906 14.2072 78.5677 16.1531 79.1532 18.8692C79.2581 19.3557 79.3108 22.2737 79.3108 27.5935V35.5869H83.154H86.997L86.9511 26.035C86.9087 17.2485 86.884 16.4112 86.6428 15.5865C85.428 11.4321 82.2935 8.6683 77.9661 7.93601C76.6026 7.70525 74.6745 7.6818 73.5544 7.88236ZM102.55 7.94443C96.5878 8.96928 92.0166 12.9378 90.5886 18.3286C89.5291 22.3277 90.3442 26.7368 92.7497 30.0203C94.6594 32.627 97.8613 34.6975 101.352 35.5829C103.038 36.0105 106.051 36.1128 107.874 35.8044C113.005 34.9363 117.01 32.0412 119.11 27.6822C120.07 25.6914 120.305 24.5519 120.311 21.8625C120.316 19.8322 120.273 19.3616 119.989 18.3546C119.37 16.1576 118.345 14.2655 116.858 12.5747C115.403 10.9212 112.798 9.27066 110.422 8.49644C108.15 7.75615 104.951 7.53187 102.55 7.94443ZM162.246 7.93932C159.649 8.41409 157.482 9.3199 155.536 10.7442C151.707 13.5473 149.565 18.0548 149.858 22.693C150.338 30.3135 156.758 36.0018 164.876 36C171.885 35.9983 177.615 32.0019 179.606 25.7246C179.978 24.5532 180 24.3356 180 21.8625C180 19.4058 179.976 19.1641 179.613 18.0003C178.071 13.055 174.246 9.50542 169.037 8.18595C167.254 7.73422 164.012 7.61656 162.246 7.93932ZM119.898 9.61894C120.247 10.4355 122.86 16.5969 125.704 23.3108L130.875 35.5179L135.12 35.5543L139.365 35.5909L145.078 22.1058C148.219 14.6891 150.832 8.5123 150.883 8.37947C150.971 8.15285 150.708 8.13809 146.571 8.13809C143.176 8.13809 142.149 8.17767 142.097 8.3105C142.06 8.4054 140.509 12.5485 138.651 17.5176C136.793 22.4866 135.232 26.5973 135.182 26.6524C135.132 26.7074 133.526 22.5797 131.612 17.4798L128.134 8.20705L123.698 8.17064L119.262 8.13423L119.898 9.61894ZM42.6564 13.7941C43.7949 14.0003 45.0754 14.6692 45.9428 15.5112C46.6517 16.1991 47.484 17.4296 47.3264 17.5568C47.2896 17.5864 45.1489 18.4544 42.5691 19.4859C39.9894 20.5174 36.9833 21.7279 35.8888 22.1762L33.899 22.9912L33.7861 22.2888C33.536 20.7332 34.1608 18.2557 35.178 16.7682C36.7661 14.4465 39.7363 13.2652 42.6564 13.7941ZM107.612 14.535C112.099 16.0722 114.087 21.1746 111.919 25.5867C111.048 27.36 109.506 28.6737 107.617 29.2535C106.515 29.5917 104.481 29.6568 103.477 29.3862C101.077 28.7388 99.1507 26.995 98.2151 24.6212C97.7648 23.4787 97.6552 21.0099 97.9977 19.7245C98.6852 17.1449 100.35 15.3178 102.731 14.5306C104.097 14.0786 106.285 14.0805 107.612 14.535ZM167.18 14.481C171.198 15.6853 173.464 20.2418 172.13 24.4329C170.75 28.7673 165.996 30.7981 161.821 28.8366C159.091 27.5538 157.489 24.9492 157.489 21.7935C157.489 19.5412 158.294 17.5501 159.779 16.13C160.599 15.3465 161.962 14.5908 162.969 14.3615C164.019 14.1225 166.19 14.1841 167.18 14.481Z" />
</svg>
