<svg width="16" height="16" viewBox="0 0 16 16" fill="#0139B7" xmlns="http://www.w3.org/2000/svg">
<path fill-rule="evenodd" clip-rule="evenodd" d="M6.28616 5.9795H8.76216V7.21283C9.11883 6.5035 10.0335 5.86616 11.4075 5.86616C14.0415 5.86616 14.6668 7.27816 14.6668 9.86883V14.6668H12.0002V10.4588C12.0002 8.9835 11.6435 8.1515 10.7355 8.1515C9.47616 8.1515 8.95283 9.04816 8.95283 10.4582V14.6668H6.28616V5.9795ZM1.7135 14.5535H4.38016V5.86616H1.7135V14.5535ZM4.76216 3.0335C4.76226 3.25701 4.71793 3.47832 4.63175 3.68455C4.54557 3.89079 4.41926 4.07784 4.26016 4.23483C3.93776 4.55525 3.50137 4.7346 3.04683 4.7335C2.59309 4.73319 2.1577 4.5543 1.83483 4.2355C1.6763 4.07797 1.55042 3.89071 1.46439 3.68445C1.37836 3.47819 1.33388 3.25698 1.3335 3.0335C1.3335 2.58216 1.5135 2.15016 1.8355 1.8315C2.15809 1.51227 2.59366 1.3333 3.0475 1.3335C3.50216 1.3335 3.93816 1.51283 4.26016 1.8315C4.5815 2.15016 4.76216 2.58216 4.76216 3.0335Z" />
</svg>
