<svg width="896" height="308" viewBox="0 0 896 308" fill="none" xmlns="http://www.w3.org/2000/svg">
<path d="M130.32 287.72C124.667 293.32 117.787 296.12 109.68 296.12C101.573 296.12 94.6933 293.32 89.04 287.72C83.44 282.067 80.64 275.16 80.64 267C80.64 258.84 83.44 251.96 89.04 246.36C94.6933 240.707 101.573 237.88 109.68 237.88C117.787 237.88 124.667 240.707 130.32 246.36C135.973 251.96 138.8 258.84 138.8 267C138.8 275.16 135.973 282.067 130.32 287.72ZM96.8 280.2C100.267 283.613 104.56 285.32 109.68 285.32C114.8 285.32 119.093 283.613 122.56 280.2C126.027 276.733 127.76 272.333 127.76 267C127.76 261.667 126.027 257.267 122.56 253.8C119.093 250.333 114.8 248.6 109.68 248.6C104.56 248.6 100.267 250.333 96.8 253.8C93.3333 257.267 91.6 261.667 91.6 267C91.6 272.333 93.3333 276.733 96.8 280.2ZM201.359 239V295H190.399V258.68L174.639 284.68H173.359L157.599 258.76V295H146.559V239H157.919L173.999 265.48L189.999 239H201.359ZM266.594 239V295H255.634V258.68L239.874 284.68H238.594L222.834 258.76V295H211.794V239H223.154L239.234 265.48L255.234 239H266.594ZM297.908 296.12C291.668 296.12 286.548 294.36 282.548 290.84C278.548 287.32 276.548 282.6 276.548 276.68V239H287.508V275.8C287.508 278.733 288.335 281.053 289.988 282.76C291.695 284.467 294.335 285.32 297.908 285.32C301.481 285.32 304.095 284.467 305.748 282.76C307.455 281.053 308.308 278.733 308.308 275.8V239H319.348V276.68C319.348 282.6 317.348 287.32 313.348 290.84C309.348 294.36 304.201 296.12 297.908 296.12ZM361.694 239H372.734V295H364.334L340.334 260.76V295H329.294V239H337.694L361.694 273.16V239ZM383.122 239H394.162V295H383.122V239ZM431.088 296.12C422.661 296.12 415.701 293.32 410.208 287.72C404.715 282.12 401.968 275.213 401.968 267C401.968 258.733 404.715 251.827 410.208 246.28C415.701 240.68 422.661 237.88 431.088 237.88C436.155 237.88 440.821 239.08 445.088 241.48C449.408 243.827 452.768 247.027 455.168 251.08L445.648 256.6C444.261 254.093 442.288 252.147 439.728 250.76C437.168 249.32 434.288 248.6 431.088 248.6C425.648 248.6 421.248 250.307 417.888 253.72C414.581 257.133 412.928 261.56 412.928 267C412.928 272.387 414.581 276.787 417.888 280.2C421.248 283.613 425.648 285.32 431.088 285.32C434.288 285.32 437.168 284.627 439.728 283.24C442.341 281.8 444.315 279.853 445.648 277.4L455.168 282.92C452.768 286.973 449.435 290.2 445.168 292.6C440.901 294.947 436.208 296.12 431.088 296.12ZM497.716 295L494.356 284.92H472.036L468.676 295H456.756L476.356 239H490.036L509.716 295H497.716ZM475.556 274.6H490.916L483.236 251.72L475.556 274.6ZM548.131 239V249.56H533.011V295H521.971V249.56H506.931V239H548.131ZM554.294 239H565.334V295H554.294V239ZM622.82 287.72C617.167 293.32 610.287 296.12 602.18 296.12C594.073 296.12 587.193 293.32 581.54 287.72C575.94 282.067 573.14 275.16 573.14 267C573.14 258.84 575.94 251.96 581.54 246.36C587.193 240.707 594.073 237.88 602.18 237.88C610.287 237.88 617.167 240.707 622.82 246.36C628.473 251.96 631.3 258.84 631.3 267C631.3 275.16 628.473 282.067 622.82 287.72ZM589.3 280.2C592.767 283.613 597.06 285.32 602.18 285.32C607.3 285.32 611.593 283.613 615.06 280.2C618.527 276.733 620.26 272.333 620.26 267C620.26 261.667 618.527 257.267 615.06 253.8C611.593 250.333 607.3 248.6 602.18 248.6C597.06 248.6 592.767 250.333 589.3 253.8C585.833 257.267 584.1 261.667 584.1 267C584.1 272.333 585.833 276.733 589.3 280.2ZM671.459 239H682.499V295H674.099L650.099 260.76V295H639.059V239H647.459L671.459 273.16V239Z" fill="url(#paint0_linear_987_41881)"/>
<path d="M106.76 86.12C98.3333 86.12 91.3733 83.32 85.88 77.72C80.3867 72.12 77.64 65.2133 77.64 57C77.64 48.7333 80.3867 41.8267 85.88 36.28C91.3733 30.68 98.3333 27.88 106.76 27.88C111.827 27.88 116.493 29.08 120.76 31.48C125.08 33.8267 128.44 37.0267 130.84 41.08L121.32 46.6C119.933 44.0933 117.96 42.1467 115.4 40.76C112.84 39.32 109.96 38.6 106.76 38.6C101.32 38.6 96.92 40.3067 93.56 43.72C90.2533 47.1333 88.6 51.56 88.6 57C88.6 62.3867 90.2533 66.7867 93.56 70.2C96.92 73.6133 101.32 75.32 106.76 75.32C109.96 75.32 112.84 74.6267 115.4 73.24C118.013 71.8 119.987 69.8533 121.32 67.4L130.84 72.92C128.44 76.9733 125.107 80.2 120.84 82.6C116.573 84.9467 111.88 86.12 106.76 86.12ZM174.427 29V39.56H159.308V85H148.268V39.56H133.228V29H174.427ZM180.591 29H191.631V85H180.591V29ZM215.837 85L197.037 29H209.037L222.717 72.04L236.317 29H248.397L229.517 85H215.837ZM264.834 74.44H288.434V85H253.794V29H288.034V39.56H264.834V51.48H286.034V61.88H264.834V74.44Z" fill="url(#paint1_linear_987_41881)"/>
<path d="M90.08 192.12C83.84 192.12 78.72 190.36 74.72 186.84C70.72 183.32 68.72 178.6 68.72 172.68V135H79.68V171.8C79.68 174.733 80.5067 177.053 82.16 178.76C83.8667 180.467 86.5067 181.32 90.08 181.32C93.6533 181.32 96.2667 180.467 97.92 178.76C99.6267 177.053 100.48 174.733 100.48 171.8V135H111.52V172.68C111.52 178.6 109.52 183.32 105.52 186.84C101.52 190.36 96.3733 192.12 90.08 192.12ZM140.586 192.12C135.039 192.12 130.372 190.893 126.586 188.44C122.799 185.933 120.132 182.547 118.586 178.28L128.026 172.76C130.212 178.467 134.506 181.32 140.906 181.32C143.999 181.32 146.266 180.76 147.706 179.64C149.146 178.52 149.866 177.107 149.866 175.4C149.866 173.427 148.986 171.907 147.226 170.84C145.466 169.72 142.319 168.52 137.786 167.24C135.279 166.493 133.146 165.747 131.386 165C129.679 164.253 127.946 163.267 126.186 162.04C124.479 160.76 123.172 159.16 122.266 157.24C121.359 155.32 120.906 153.08 120.906 150.52C120.906 145.453 122.692 141.427 126.266 138.44C129.892 135.4 134.239 133.88 139.306 133.88C143.839 133.88 147.812 135 151.226 137.24C154.692 139.427 157.386 142.493 159.306 146.44L150.026 151.8C147.786 147 144.212 144.6 139.306 144.6C137.012 144.6 135.199 145.133 133.866 146.2C132.586 147.213 131.946 148.547 131.946 150.2C131.946 151.96 132.666 153.4 134.106 154.52C135.599 155.587 138.426 156.76 142.586 158.04C144.292 158.573 145.572 159 146.426 159.32C147.332 159.587 148.532 160.04 150.026 160.68C151.572 161.267 152.746 161.827 153.546 162.36C154.399 162.893 155.359 163.613 156.426 164.52C157.492 165.427 158.292 166.36 158.826 167.32C159.412 168.28 159.892 169.453 160.266 170.84C160.692 172.173 160.906 173.64 160.906 175.24C160.906 180.413 159.012 184.52 155.226 187.56C151.492 190.6 146.612 192.12 140.586 192.12ZM167.716 135H178.756V191H167.716V135ZM221.522 135H232.562V191H224.162L200.162 156.76V191H189.122V135H197.522L221.522 169.16V135ZM253.99 180.44H277.59V191H242.95V135H277.19V145.56H253.99V157.48H275.19V167.88H253.99V180.44ZM304.492 192.12C298.945 192.12 294.279 190.893 290.492 188.44C286.705 185.933 284.039 182.547 282.492 178.28L291.932 172.76C294.119 178.467 298.412 181.32 304.812 181.32C307.905 181.32 310.172 180.76 311.612 179.64C313.052 178.52 313.772 177.107 313.772 175.4C313.772 173.427 312.892 171.907 311.132 170.84C309.372 169.72 306.225 168.52 301.692 167.24C299.185 166.493 297.052 165.747 295.292 165C293.585 164.253 291.852 163.267 290.092 162.04C288.385 160.76 287.079 159.16 286.172 157.24C285.265 155.32 284.812 153.08 284.812 150.52C284.812 145.453 286.599 141.427 290.172 138.44C293.799 135.4 298.145 133.88 303.212 133.88C307.745 133.88 311.719 135 315.132 137.24C318.599 139.427 321.292 142.493 323.212 146.44L313.932 151.8C311.692 147 308.119 144.6 303.212 144.6C300.919 144.6 299.105 145.133 297.772 146.2C296.492 147.213 295.852 148.547 295.852 150.2C295.852 151.96 296.572 153.4 298.012 154.52C299.505 155.587 302.332 156.76 306.492 158.04C308.199 158.573 309.479 159 310.332 159.32C311.239 159.587 312.439 160.04 313.932 160.68C315.479 161.267 316.652 161.827 317.452 162.36C318.305 162.893 319.265 163.613 320.332 164.52C321.399 165.427 322.199 166.36 322.732 167.32C323.319 168.28 323.799 169.453 324.172 170.84C324.599 172.173 324.812 173.64 324.812 175.24C324.812 180.413 322.919 184.52 319.132 187.56C315.399 190.6 310.519 192.12 304.492 192.12ZM349.414 192.12C343.867 192.12 339.2 190.893 335.414 188.44C331.627 185.933 328.96 182.547 327.414 178.28L336.854 172.76C339.04 178.467 343.334 181.32 349.734 181.32C352.827 181.32 355.094 180.76 356.534 179.64C357.974 178.52 358.694 177.107 358.694 175.4C358.694 173.427 357.814 171.907 356.054 170.84C354.294 169.72 351.147 168.52 346.614 167.24C344.107 166.493 341.974 165.747 340.214 165C338.507 164.253 336.774 163.267 335.014 162.04C333.307 160.76 332 159.16 331.094 157.24C330.187 155.32 329.734 153.08 329.734 150.52C329.734 145.453 331.52 141.427 335.094 138.44C338.72 135.4 343.067 133.88 348.134 133.88C352.667 133.88 356.64 135 360.054 137.24C363.52 139.427 366.214 142.493 368.134 146.44L358.854 151.8C356.614 147 353.04 144.6 348.134 144.6C345.84 144.6 344.027 145.133 342.694 146.2C341.414 147.213 340.774 148.547 340.774 150.2C340.774 151.96 341.494 153.4 342.934 154.52C344.427 155.587 347.254 156.76 351.414 158.04C353.12 158.573 354.4 159 355.254 159.32C356.16 159.587 357.36 160.04 358.854 160.68C360.4 161.267 361.574 161.827 362.374 162.36C363.227 162.893 364.187 163.613 365.254 164.52C366.32 165.427 367.12 166.36 367.654 167.32C368.24 168.28 368.72 169.453 369.094 170.84C369.52 172.173 369.734 173.64 369.734 175.24C369.734 180.413 367.84 184.52 364.054 187.56C360.32 190.6 355.44 192.12 349.414 192.12Z" fill="url(#paint2_linear_987_41881)"/>
<path d="M52.4562 120.376C48.2322 116.152 43.4215 114.275 41.5441 113.864C41.5441 114.627 40.9105 116.152 38.3761 116.152C35.8417 116.152 35.0907 114.275 35.0321 113.336H23.064V120.376H37.6721C42.3185 119.954 46.6481 122.899 48.2322 124.424C49.4055 125.832 51.7522 129.246 51.7522 131.64C51.7522 134.034 53.8642 134.515 55.2722 134.456C56.9618 134.456 58.0882 133.048 58.0882 132.344C58.0882 126.994 54.3335 122.136 52.4562 120.376Z" fill="white"/>
<path d="M5.46387 189.017V167.896H13.7359V173.529C10.6383 174.514 12.4453 176.169 13.7359 176.873V184.441H37.3201C39.3148 183.854 43.3042 183.737 43.3042 186.271C43.3042 188.805 40.8401 189.017 39.6081 189.017H36.2641H5.46387Z" fill="white"/>
<path d="M37.5109 189.252C44.1195 189.252 49.6866 187.189 54.2121 183.065C58.7376 178.94 61.0003 173.658 61.0003 167.218C61.0003 159.475 57.696 153.686 51.0874 149.851C55.8283 146.016 58.1988 140.95 58.1988 134.655C58.1988 128.432 55.972 123.33 51.5183 119.35M5.50928 187.758V113.272H35.2482M37.5109 175.25C40.0251 175.25 42.1082 174.418 43.7604 172.753C45.4125 171.017 46.2386 168.846 46.2386 166.241C46.2386 163.708 45.4125 161.61 43.7604 159.945C42.1082 158.208 40.0251 157.34 37.5109 157.34H20.9379" stroke="white"/>
<path d="M44.5363 112.984C44.5363 109.679 41.7784 107 38.3763 107C36.0222 107 33.9765 108.283 32.9396 110.168H3V126.888L4.23201 128.12V140.616" stroke="url(#paint3_linear_987_41881)"/>
<path d="M39.8124 112.984C39.8124 113.874 39.0907 114.596 38.2004 114.596C37.3101 114.596 36.5884 113.874 36.5884 112.984C36.5884 112.094 37.3101 111.372 38.2004 111.372C39.0907 111.372 39.8124 112.094 39.8124 112.984Z" stroke="url(#paint4_linear_987_41881)"/>
<path d="M41.22 112.984C41.22 114.652 39.8679 116.004 38.2 116.004C36.532 116.004 35.1799 114.652 35.1799 112.984C35.1799 111.316 36.532 109.964 38.2 109.964C39.8679 109.964 41.22 111.316 41.22 112.984Z" stroke="url(#paint5_linear_987_41881)"/>
<path d="M43.1282 112.984C43.1282 110.262 40.9219 108.056 38.2002 108.056" stroke="url(#paint6_linear_987_41881)"/>
<path d="M19.1926 129.352V144.136H32.2167" stroke="white"/>
<path d="M35.3878 127.571L35.3878 128.072L35.4017 128.071L35.3878 127.571ZM20.6614 128.071H35.3878V127.071H20.6614V128.071ZM35.4017 128.071C36.6 128.038 38.4071 128.361 39.8999 129.425C41.3658 130.469 42.5712 132.254 42.5712 135.255H43.5712C43.5712 131.938 42.2155 129.846 40.48 128.61C38.7714 127.393 36.7368 127.034 35.374 127.072L35.4017 128.071ZM42.5712 135.255C42.5712 138.258 41.3621 140.2 39.8721 141.426C38.3631 142.669 36.544 143.194 35.3463 143.294L35.4294 144.29C36.7929 144.176 38.8154 143.592 40.5078 142.198C42.2192 140.789 43.5712 138.569 43.5712 135.255H42.5712Z" fill="white"/>
<path d="M20.8039 127.592C20.8039 128.385 20.161 129.028 19.3679 129.028C18.5748 129.028 17.9319 128.385 17.9319 127.592C17.9319 126.799 18.5748 126.156 19.3679 126.156C20.161 126.156 20.8039 126.799 20.8039 127.592Z" stroke="white"/>
<path d="M35.588 143.96C35.588 144.85 34.8663 145.572 33.976 145.572C33.0857 145.572 32.364 144.85 32.364 143.96C32.364 143.07 33.0857 142.348 33.976 142.348C34.8663 142.348 35.588 143.07 35.588 143.96Z" stroke="white"/>
<path d="M20.8204 157.634C20.8204 158.417 20.1856 159.051 19.4026 159.051C18.6196 159.051 17.9849 158.417 17.9849 157.634C17.9849 156.851 18.6196 156.216 19.4026 156.216C20.1856 156.216 20.8204 156.851 20.8204 157.634Z" stroke="white"/>
<path d="M37.6973 175.277C37.6973 176.06 37.0626 176.695 36.2796 176.695C35.4966 176.695 34.8618 176.06 34.8618 175.277C34.8618 174.494 35.4966 173.859 36.2796 173.859C37.0626 173.859 37.6973 174.494 37.6973 175.277Z" stroke="white"/>
<path d="M7.01324 189.085C7.01324 189.868 6.37849 190.502 5.59548 190.502C4.81248 190.502 4.17773 189.868 4.17773 189.085C4.17773 188.302 4.81248 187.667 5.59548 187.667C6.37849 187.667 7.01324 188.302 7.01324 189.085Z" stroke="url(#paint7_linear_987_41881)"/>
<path d="M28.6962 152.76C28.6962 153.344 28.2235 153.816 27.6402 153.816C27.057 153.816 26.5842 153.344 26.5842 152.76C26.5842 152.177 27.057 151.704 27.6402 151.704C28.2235 151.704 28.6962 152.177 28.6962 152.76Z" fill="white"/>
<path d="M9.51172 184.616V116.504L19.1918 116.504" stroke="url(#paint8_linear_987_41881)"/>
<path d="M13.5605 176.697V184.441H36.9687C39.7847 184.441 46.7896 183.068 52.2808 177.577" stroke="white"/>
<path d="M54.5601 176.15C54.5601 176.933 53.9254 177.568 53.1424 177.568C52.3594 177.568 51.7246 176.933 51.7246 176.15C51.7246 175.367 52.3594 174.733 53.1424 174.733C53.9254 174.733 54.5601 175.367 54.5601 176.15Z" stroke="white"/>
<path d="M15.1356 175.094C15.1356 175.877 14.5008 176.512 13.7178 176.512C12.9348 176.512 12.3 175.877 12.3 175.094C12.3 174.311 12.9348 173.677 13.7178 173.677C14.5008 173.677 15.1356 174.311 15.1356 175.094Z" stroke="url(#paint9_linear_987_41881)"/>
<path d="M13.5605 168.424V120.376H37.3207C42.2488 120.083 52.1048 122.629 52.1048 135.16" stroke="white"/>
<path d="M53.8558 136.374C53.8558 137.157 53.221 137.792 52.438 137.792C51.655 137.792 51.0203 137.157 51.0203 136.374C51.0203 135.591 51.655 134.956 52.438 134.956C53.221 134.956 53.8558 135.591 53.8558 136.374Z" stroke="white"/>
<path d="M19.0161 163.672V175.112H34.5042" stroke="white"/>
<path d="M18.4883 149.768H39.9604C41.3266 149.735 43.4686 149.228 45.0645 147.765" stroke="white"/>
<path d="M47.1675 146.582C47.1675 147.365 46.5328 148 45.7498 148C44.9668 148 44.332 147.365 44.332 146.582C44.332 145.799 44.9668 145.164 45.7498 145.164C46.5328 145.164 47.1675 145.799 47.1675 146.582Z" stroke="white"/>
<path d="M19.8956 127.592C19.8956 127.884 19.6592 128.12 19.3676 128.12C19.076 128.12 18.8396 127.884 18.8396 127.592C18.8396 127.301 19.076 127.064 19.3676 127.064C19.6592 127.064 19.8956 127.301 19.8956 127.592Z" fill="white"/>
<path d="M38.9039 112.984C38.9039 113.373 38.5887 113.688 38.1999 113.688C37.811 113.688 37.4958 113.373 37.4958 112.984C37.4958 112.595 37.811 112.28 38.1999 112.28C38.5887 112.28 38.9039 112.595 38.9039 112.984Z" fill="white"/>
<path d="M34.6805 143.96C34.6805 144.349 34.3653 144.664 33.9765 144.664C33.5877 144.664 33.2725 144.349 33.2725 143.96C33.2725 143.571 33.5877 143.256 33.9765 143.256C34.3653 143.256 34.6805 143.571 34.6805 143.96Z" fill="white"/>
<path d="M22.8884 155.048H38.3765C41.8379 155.166 48.7606 157.407 48.7606 165.432C48.7606 173.458 43.8326 176.755 41.3686 177.401" stroke="url(#paint10_linear_987_41881)"/>
<path d="M41.9243 177.4C41.9243 177.708 41.6753 177.956 41.3683 177.956C41.0612 177.956 40.8123 177.708 40.8123 177.4C40.8123 177.093 41.0612 176.844 41.3683 176.844C41.6753 176.844 41.9243 177.093 41.9243 177.4Z" stroke="url(#paint11_linear_987_41881)"/>
<path d="M41.8207 177.401C41.8207 177.651 41.6181 177.853 41.3681 177.853C41.1182 177.853 40.9155 177.651 40.9155 177.401C40.9155 177.151 41.1182 176.948 41.3681 176.948C41.6181 176.948 41.8207 177.151 41.8207 177.401Z" fill="url(#paint12_linear_987_41881)"/>
<path d="M22.5632 154.872C22.5632 155.179 22.3143 155.428 22.0072 155.428C21.7001 155.428 21.4512 155.179 21.4512 154.872C21.4512 154.565 21.7001 154.316 22.0072 154.316C22.3143 154.316 22.5632 154.565 22.5632 154.872Z" stroke="url(#paint13_linear_987_41881)"/>
<path d="M22.4596 154.872C22.4596 155.122 22.257 155.325 22.007 155.325C21.7571 155.325 21.5544 155.122 21.5544 154.872C21.5544 154.622 21.7571 154.42 22.007 154.42C22.257 154.42 22.4596 154.622 22.4596 154.872Z" fill="url(#paint14_linear_987_41881)"/>
<path d="M10.3926 129V134.808L12.3286 136.744V151.352L10.3926 153.288V159.448L12.3286 161.384" stroke="url(#paint15_linear_987_41881)"/>
<path d="M12.7077 161.208C12.7077 161.515 12.4588 161.764 12.1517 161.764C11.8446 161.764 11.5957 161.515 11.5957 161.208C11.5957 160.901 11.8446 160.652 12.1517 160.652C12.4588 160.652 12.7077 160.901 12.7077 161.208Z" stroke="url(#paint16_linear_987_41881)"/>
<path d="M12.6041 161.208C12.6041 161.458 12.4015 161.661 12.1515 161.661C11.9016 161.661 11.699 161.458 11.699 161.208C11.699 160.958 11.9016 160.756 12.1515 160.756C12.4015 160.756 12.6041 160.958 12.6041 161.208Z" fill="url(#paint17_linear_987_41881)"/>
<path d="M13.7361 171.416C14.9094 171.358 17.6081 172.121 17.6081 175.112C17.6081 175.816 17.4321 177.928 15.3201 178.632V182.68H33.8002" stroke="url(#paint18_linear_987_41881)"/>
<path d="M47.5046 151.352H27.8274C26.551 151.352 26.2319 152.056 26.2319 152.408C26.2319 153.535 27.2956 153.816 27.8274 153.816H47.5046C48.781 153.816 49.1001 153.112 49.1001 152.76C49.2419 151.634 48.0955 151.352 47.5046 151.352Z" fill="white"/>
<path d="M18.4883 147.656H40.8405L47.1765 141.32V136.92M47.1765 127.944V136.92M47.1765 136.92L45.4165 135.16V132.696" stroke="url(#paint19_linear_987_41881)"/>
<path d="M19.3964 147.656C19.3964 148.061 19.0687 148.388 18.6644 148.388C18.2601 148.388 17.9324 148.061 17.9324 147.656C17.9324 147.252 18.2601 146.924 18.6644 146.924C19.0687 146.924 19.3964 147.252 19.3964 147.656Z" stroke="url(#paint20_linear_987_41881)"/>
<path d="M19.1918 147.656C19.1918 147.948 18.9554 148.184 18.6637 148.184C18.3721 148.184 18.1357 147.948 18.1357 147.656C18.1357 147.365 18.3721 147.128 18.6637 147.128C18.9554 147.128 19.1918 147.365 19.1918 147.656Z" fill="url(#paint21_linear_987_41881)"/>
<path d="M47.9084 128.296C47.9084 128.7 47.5806 129.028 47.1763 129.028C46.7721 129.028 46.4443 128.7 46.4443 128.296C46.4443 127.892 46.7721 127.564 47.1763 127.564C47.5806 127.564 47.9084 127.892 47.9084 128.296Z" stroke="url(#paint22_linear_987_41881)"/>
<path d="M47.7047 128.296C47.7047 128.588 47.4683 128.824 47.1767 128.824C46.8851 128.824 46.6487 128.588 46.6487 128.296C46.6487 128.004 46.8851 127.768 47.1767 127.768C47.4683 127.768 47.7047 128.004 47.7047 128.296Z" fill="url(#paint23_linear_987_41881)"/>
<path d="M46.1479 132.52C46.1479 132.925 45.8201 133.252 45.4158 133.252C45.0116 133.252 44.6838 132.925 44.6838 132.52C44.6838 132.116 45.0116 131.788 45.4158 131.788C45.8201 131.788 46.1479 132.116 46.1479 132.52Z" stroke="url(#paint24_linear_987_41881)"/>
<path d="M45.9442 132.52C45.9442 132.812 45.7078 133.048 45.4162 133.048C45.1246 133.048 44.8882 132.812 44.8882 132.52C44.8882 132.229 45.1246 131.992 45.4162 131.992C45.7078 131.992 45.9442 132.229 45.9442 132.52Z" fill="url(#paint25_linear_987_41881)"/>
<path d="M38.0509 189.193C38.0509 189.597 37.7232 189.925 37.3189 189.925C36.9146 189.925 36.5869 189.597 36.5869 189.193C36.5869 188.788 36.9146 188.461 37.3189 188.461C37.7232 188.461 38.0509 188.788 38.0509 189.193Z" stroke="url(#paint26_linear_987_41881)"/>
<path d="M37.8473 189.193C37.8473 189.484 37.6109 189.721 37.3193 189.721C37.0277 189.721 36.7913 189.484 36.7913 189.193C36.7913 188.901 37.0277 188.665 37.3193 188.665C37.6109 188.665 37.8473 188.901 37.8473 189.193Z" fill="url(#paint27_linear_987_41881)"/>
<path d="M25.7141 63.0117L27.3365 64.8144H46.9855" stroke="url(#paint28_linear_987_41881)"/>
<path d="M59.4234 81.7591L52.5732 62.8311H58.522L63.5695 77.0722H70.059L62.6681 55.26L66.2735 54.3586L75.6473 81.7591H59.4234Z" fill="white"/>
<path d="M43.9207 12.7172L42.4786 8.93164H40.4957L27.5165 49.852H24.2717L24.9928 47.6888" stroke="url(#paint29_linear_987_41881)"/>
<path d="M20.4853 35.9716C19.7642 37.9906 20.1849 38.9761 20.4853 39.2164L27.6959 18.4858C26.6864 18.6301 25.9533 20.1082 25.713 20.8293C24.2709 25.0355 21.2064 33.9527 20.4853 35.9716Z" fill="white"/>
<path d="M50.0163 48.951L41.3965 21.7308C43.2977 19.508 41.1807 18.4495 39.962 18.3877L39.4136 16.1426C44.1005 14.5201 46.0834 19.5676 43.9202 21.7308L52.3927 48.2101L50.0163 48.951Z" fill="white"/>
<path d="M3 81.9393L12.5541 54.3586H18.6831L12.1936 74.7287L21.7477 75.0892L19.4042 81.9393H3Z" fill="white"/>
<path d="M55.0969 69.5012L59.4684 82.0001H76.0119L49.3556 5.22444M39.506 21.8555L28.9181 53.6509H48.8806M39.506 4.17896H30.021L3 82.0001H19.4332L24.0654 67.9923H39.506" stroke="white"/>
<path d="M42.5703 4.04576C42.5703 4.85443 41.9147 5.50998 41.1061 5.50998C40.2974 5.50998 39.6418 4.85443 39.6418 4.04576C39.6418 3.2371 40.2974 2.58154 41.1061 2.58154C41.9147 2.58154 42.5703 3.2371 42.5703 4.04576Z" stroke="white"/>
<path d="M49.6416 4.04576C49.6416 4.85443 48.986 5.50998 48.1774 5.50998C47.3687 5.50998 46.7131 4.85443 46.7131 4.04576C46.7131 3.2371 47.3687 2.58154 48.1774 2.58154C48.986 2.58154 49.6416 3.2371 49.6416 4.04576Z" stroke="white"/>
<path d="M28.4209 39.378C28.4209 40.1867 27.7653 40.8423 26.9567 40.8423C26.148 40.8423 25.4924 40.1867 25.4924 39.378C25.4924 38.5694 26.148 37.9138 26.9567 37.9138C27.7653 37.9138 28.4209 38.5694 28.4209 39.378Z" stroke="white"/>
<path d="M26.7948 28.5807L24.8119 34.7097L23.9106 34.3492L26.0738 27.8596L29.3186 28.9412L26.9751 35.9716C25.0835 35.9716 23.55 37.505 23.55 39.3966C23.55 41.2882 25.0835 42.8217 26.9751 42.8217L25.8935 46.0665" stroke="url(#paint30_linear_987_41881)"/>
<path d="M52.2527 53.6378C52.2527 54.5564 51.508 55.301 50.5895 55.301C49.6709 55.301 48.9263 54.5564 48.9263 53.6378C48.9263 52.7192 49.6709 51.9746 50.5895 51.9746C51.508 51.9746 52.2527 52.7192 52.2527 53.6378Z" fill="white" stroke="url(#paint31_linear_987_41881)"/>
<path d="M51.6715 53.6375C51.6715 54.2349 51.1872 54.7191 50.5899 54.7191C49.9925 54.7191 49.5083 54.2349 49.5083 53.6375C49.5083 53.0402 49.9925 52.5559 50.5899 52.5559C51.1872 52.5559 51.6715 53.0402 51.6715 53.6375Z" fill="white"/>
<path d="M42.5703 68.4723C42.5703 69.2809 41.9147 69.9365 41.1061 69.9365C40.2974 69.9365 39.6418 69.2809 39.6418 68.4723C39.6418 67.6636 40.2974 67.0081 41.1061 67.0081C41.9147 67.0081 42.5703 67.6636 42.5703 68.4723Z" stroke="white"/>
<path d="M55.9275 68.3429C55.9275 69.1515 55.2719 69.8071 54.4632 69.8071C53.6546 69.8071 52.999 69.1515 52.999 68.3429C52.999 67.5342 53.6546 66.8787 54.4632 66.8787C55.2719 66.8787 55.9275 67.5342 55.9275 68.3429Z" stroke="white"/>
<path d="M53.6955 53.6375C53.6955 55.3526 52.3052 56.7429 50.5902 56.7429C48.8752 56.7429 47.4849 55.3526 47.4849 53.6375C47.4849 51.9225 48.8752 50.5322 50.5902 50.5322C52.3052 50.5322 53.6955 51.9225 53.6955 53.6375Z" stroke="url(#paint32_linear_987_41881)"/>
<path d="M27.6974 38.3149L38.1528 6.58813H31.8435L6.9668 78.6945H14.538" stroke="white"/>
<path d="M22.468 57.7837H56.8988L63.5687 77.0722H70.0582L46.2631 8.93164" stroke="white"/>
<path d="M65.7327 74.0079L46.6245 19.7478" stroke="white"/>
<path d="M41.2163 21.7307L49.8691 48.9509" stroke="white"/>
<path d="M42.1579 20.1083C42.1579 21.0268 41.4133 21.7715 40.4947 21.7715C39.5762 21.7715 38.8315 21.0268 38.8315 20.1083C38.8315 19.1897 39.5762 18.4451 40.4947 18.4451C41.4133 18.4451 42.1579 19.1897 42.1579 20.1083Z" stroke="white"/>
<path d="M22.6523 57.4046C22.6523 58.2133 21.9968 58.8689 21.1881 58.8689C20.3794 58.8689 19.7239 58.2133 19.7239 57.4046C19.7239 56.596 20.3794 55.9404 21.1881 55.9404C21.9968 55.9404 22.6523 56.596 22.6523 57.4046Z" stroke="white"/>
<path d="M17.7815 73.467L21.3868 62.8313H53.8347" stroke="white"/>
<path d="M34.0056 9.29224L29.1384 23.8938" stroke="url(#paint33_linear_987_41881)"/>
<path d="M29.1789 24.615C29.1789 24.8366 28.9992 25.0163 28.7776 25.0163C28.5559 25.0163 28.3762 24.8366 28.3762 24.615C28.3762 24.3933 28.5559 24.2136 28.7776 24.2136C28.9992 24.2136 29.1789 24.3933 29.1789 24.615Z" stroke="url(#paint34_linear_987_41881)"/>
<path d="M27.5164 39.3968C27.5164 39.6954 27.2743 39.9376 26.9756 39.9376C26.6769 39.9376 26.4348 39.6954 26.4348 39.3968C26.4348 39.0981 26.6769 38.856 26.9756 38.856C27.2743 38.856 27.5164 39.0981 27.5164 39.3968Z" fill="white"/>
<path d="M18.8635 51.2943L19.7649 48.9508M19.7649 48.9508L19.4043 48.7706L19.9239 47.5087L20.6662 45.7061L21.3872 46.0666L20.645 47.8692L20.1254 49.1311L19.7649 48.9508Z" stroke="url(#paint35_linear_987_41881)"/>
<path d="M19.0853 52.1956C19.0853 52.5168 18.8249 52.7772 18.5037 52.7772C18.1825 52.7772 17.9221 52.5168 17.9221 52.1956C17.9221 51.8744 18.1825 51.614 18.5037 51.614C18.8249 51.614 19.0853 51.8744 19.0853 52.1956Z" stroke="url(#paint36_linear_987_41881)"/>
<path d="M18.9669 52.1957C18.9669 52.4517 18.7593 52.6593 18.5033 52.6593C18.2473 52.6593 18.0398 52.4517 18.0398 52.1957C18.0398 51.9397 18.2473 51.7322 18.5033 51.7322C18.7593 51.7322 18.9669 51.9397 18.9669 52.1957Z" fill="url(#paint37_linear_987_41881)"/>
<path d="M41.2161 20.1083C41.2161 20.5065 40.8932 20.8293 40.495 20.8293C40.0968 20.8293 39.7739 20.5065 39.7739 20.1083C39.7739 19.71 40.0968 19.3872 40.495 19.3872C40.8932 19.3872 41.2161 19.71 41.2161 20.1083Z" fill="white"/>
<path d="M48.0666 64.8143C48.0666 65.2126 47.7438 65.5354 47.3456 65.5354C46.9473 65.5354 46.6245 65.2126 46.6245 64.8143C46.6245 64.4161 46.9473 64.0933 47.3456 64.0933C47.7438 64.0933 48.0666 64.4161 48.0666 64.8143Z" fill="url(#paint38_linear_987_41881)"/>
<path d="M25.9339 46.7877C25.9339 47.1089 25.6736 47.3692 25.3523 47.3692C25.0311 47.3692 24.7708 47.1089 24.7708 46.7877C24.7708 46.4664 25.0311 46.2061 25.3523 46.2061C25.6736 46.2061 25.9339 46.4664 25.9339 46.7877Z" stroke="url(#paint39_linear_987_41881)"/>
<path d="M25.8167 46.7878C25.8167 47.0438 25.6092 47.2513 25.3532 47.2513C25.0972 47.2513 24.8896 47.0438 24.8896 46.7878C24.8896 46.5318 25.0972 46.3242 25.3532 46.3242C25.6092 46.3242 25.8167 46.5318 25.8167 46.7878Z" fill="url(#paint40_linear_987_41881)"/>
<path d="M44.6825 13.6182C44.6825 13.9394 44.4221 14.1998 44.1009 14.1998C43.7797 14.1998 43.5193 13.9394 43.5193 13.6182C43.5193 13.297 43.7797 13.0366 44.1009 13.0366C44.4221 13.0366 44.6825 13.297 44.6825 13.6182Z" stroke="url(#paint41_linear_987_41881)"/>
<path d="M44.565 13.6183C44.565 13.8743 44.3575 14.0819 44.1015 14.0819C43.8455 14.0819 43.6379 13.8743 43.6379 13.6183C43.6379 13.3623 43.8455 13.1548 44.1015 13.1548C44.3575 13.1548 44.565 13.3623 44.565 13.6183Z" fill="url(#paint42_linear_987_41881)"/>
<path d="M41.4372 4.06466C41.4372 4.28631 41.2575 4.46599 41.0359 4.46599C40.8142 4.46599 40.6345 4.28631 40.6345 4.06466C40.6345 3.84301 40.8142 3.66333 41.0359 3.66333C41.2575 3.66333 41.4372 3.84301 41.4372 4.06466Z" stroke="url(#paint43_linear_987_41881)"/>
<path d="M41.4225 4.06451C41.4225 4.27785 41.2495 4.45079 41.0362 4.45079C40.8228 4.45079 40.6499 4.27785 40.6499 4.06451C40.6499 3.85117 40.8228 3.67822 41.0362 3.67822C41.2495 3.67822 41.4225 3.85117 41.4225 4.06451Z" fill="url(#paint44_linear_987_41881)"/>
<path d="M44.0992 4.06452C44.0992 2.37203 42.7272 1 41.0347 1C39.938 1 38.9758 1.57607 38.4343 2.44213H28.9568L21.5659 22.9925V24.9754" stroke="url(#paint45_linear_987_41881)"/>
<path d="M17.6052 78.6756C17.6052 79.4843 16.9496 80.1399 16.141 80.1399C15.3323 80.1399 14.6768 79.4843 14.6768 78.6756C14.6768 77.867 15.3323 77.2114 16.141 77.2114C16.9496 77.2114 17.6052 77.867 17.6052 78.6756Z" stroke="url(#paint46_linear_987_41881)"/>
<path d="M3.47681 270.572L10.9965 275.891C11.8524 278.336 15.0681 283.888 21.0838 286.529L23.4681 292.948" stroke="url(#paint47_linear_987_41881)"/>
<path d="M17.5989 238.109C18.577 236.336 21.8172 232.167 26.9526 229.672" stroke="url(#paint48_linear_987_41881)"/>
<path d="M7.87867 237.559V232.607C1.27605 240.53 0.72582 254.738 1.27603 260.852L4.21054 257.917C3.18347 249.114 6.22801 240.677 7.87867 237.559Z" fill="white"/>
<path d="M47.4949 284.694H32.639L29.8879 287.445" stroke="url(#paint49_linear_987_41881)"/>
<path d="M67.6687 288.179C56.2242 298.743 38.0792 297.472 30.4373 295.515L31.9045 287.996C44.8163 291.517 55.7473 287.018 59.5989 284.328C61.1884 282.371 65.0277 279.119 67.6687 281.76C70.3098 284.401 68.7692 287.14 67.6687 288.179Z" fill="white"/>
<path d="M68.5865 231.507L63.0843 234.992C54.8677 226.775 46.9445 225.821 44.01 226.371C46.9445 223.437 45.2327 220.747 44.01 219.769H44.7436C57.362 220.209 65.8965 227.778 68.5865 231.507Z" fill="white"/>
<path d="M41.9041 296.846C30.0674 296.846 20.2909 292.911 12.5745 285.041C4.85817 277.171 1 267.465 1 255.923C1 244.306 4.85817 234.599 12.5745 226.805C20.2909 218.935 30.0674 215 41.9041 215C49.0211 215 55.5763 216.686 61.5695 220.059C67.6377 223.357 72.3574 227.854 75.7286 233.55L62.3562 241.308C60.4083 237.785 57.6364 235.049 54.0405 233.1C50.4445 231.077 46.3991 230.065 41.9041 230.065M16.3952 255.923C16.3952 263.493 18.7176 269.676 23.3624 274.473C28.0821 279.27 34.2627 281.668 41.9041 281.668C46.3991 281.668 50.4445 280.694 54.0405 278.745C57.7114 276.722 60.4833 273.986 62.3562 270.538L73.3305 276.552" stroke="white"/>
<path d="M16.8657 253.149C17.0523 246.485 21.6419 232.534 38.5077 230.039" stroke="white"/>
<path d="M41.9041 296.912C30.0674 296.912 20.2909 292.977 12.5745 285.107C4.85817 277.237 1 267.531 1 255.989C1 244.371 4.85817 234.665 12.5745 226.871C20.2909 219.001 30.0674 215.066 41.9041 215.066C49.0211 215.066 55.5763 216.752 61.5695 220.125C67.6377 223.423 72.3574 227.92 75.7286 233.616L62.3562 241.373C60.4083 237.851 57.6364 235.115 54.0405 233.166C50.4445 231.143 46.3991 230.131 41.9041 230.131M16.3952 255.989C16.3952 263.559 18.7176 269.742 23.3624 274.539C28.0821 279.336 34.2627 281.734 41.9041 281.734C46.3991 281.734 50.4445 280.76 54.0405 278.811C57.7114 276.787 60.4833 274.052 62.3562 270.604L73.3305 276.618" stroke="white"/>
<path d="M13.198 274.424C14.5791 277.096 16.482 279.501 18.9068 281.641C24.6312 286.611 32.1275 289.096 41.3957 289.096C46.8475 289.096 51.7541 288.087 56.1156 286.067C58.5092 284.94 60.5876 283.6 62.3509 282.046" stroke="url(#paint50_linear_987_41881)"/>
<path d="M18.4727 254.635C18.4727 255.462 17.8018 256.133 16.9743 256.133C16.1467 256.133 15.4758 255.462 15.4758 254.635C15.4758 253.807 16.1467 253.136 16.9743 253.136C17.8018 253.136 18.4727 253.807 18.4727 254.635Z" stroke="white"/>
<path d="M41.6551 229.854C41.6551 230.682 40.9842 231.353 40.1566 231.353C39.3291 231.353 38.6582 230.682 38.6582 229.854C38.6582 229.027 39.3291 228.356 40.1566 228.356C40.9842 228.356 41.6551 229.027 41.6551 229.854Z" stroke="white"/>
<path d="M44.8523 297.002C44.8523 297.829 44.1815 298.5 43.3539 298.5C42.5263 298.5 41.8555 297.829 41.8555 297.002C41.8555 296.174 42.5263 295.503 43.3539 295.503C44.1815 295.503 44.8523 296.174 44.8523 297.002Z" stroke="white"/>
<path d="M63.0838 234.991L68.7694 231.507C65.7127 227.533 56.4445 219.585 43.8262 219.585" stroke="url(#paint51_linear_987_41881)"/>
<path d="M43.8382 219.566C43.8382 220.394 43.1673 221.065 42.3397 221.065C41.5122 221.065 40.8413 220.394 40.8413 219.566C40.8413 218.738 41.5122 218.068 42.3397 218.068C43.1673 218.068 43.8382 218.738 43.8382 219.566Z" stroke="url(#paint52_linear_987_41881)"/>
<path d="M8.4292 252.048C8.97942 244.834 14.7384 228.792 33.3725 222.336" stroke="white"/>
<path d="M10.0918 253.68C10.0918 254.507 9.42097 255.178 8.59341 255.178C7.76584 255.178 7.09497 254.507 7.09497 253.68C7.09497 252.852 7.76584 252.181 8.59341 252.181C9.42097 252.181 10.0918 252.852 10.0918 253.68Z" stroke="white"/>
<path d="M36.1353 221.767C36.1353 222.595 35.4644 223.266 34.6369 223.266C33.8093 223.266 33.1384 222.595 33.1384 221.767C33.1384 220.94 33.8093 220.269 34.6369 220.269C35.4644 220.269 36.1353 220.94 36.1353 221.767Z" stroke="white"/>
<path d="M49.3782 284.511C49.3782 284.944 49.0273 285.295 48.5944 285.295C48.1615 285.295 47.8105 284.944 47.8105 284.511C47.8105 284.078 48.1615 283.727 48.5944 283.727C49.0273 283.727 49.3782 284.078 49.3782 284.511Z" stroke="url(#paint53_linear_987_41881)"/>
<path d="M49.1444 284.511C49.1444 284.815 48.898 285.061 48.5942 285.061C48.2903 285.061 48.0439 284.815 48.0439 284.511C48.0439 284.207 48.2903 283.961 48.5942 283.961C48.898 283.961 49.1444 284.207 49.1444 284.511Z" fill="url(#paint54_linear_987_41881)"/>
<path d="M13.7981 273.14C13.7981 273.775 13.283 274.291 12.6475 274.291C12.012 274.291 11.4968 273.775 11.4968 273.14C11.4968 272.504 12.012 271.989 12.6475 271.989C13.283 271.989 13.7981 272.504 13.7981 273.14Z" stroke="url(#paint55_linear_987_41881)"/>
<path d="M13.3543 273.14C13.3543 273.531 13.0376 273.847 12.6469 273.847C12.2562 273.847 11.9395 273.531 11.9395 273.14C11.9395 272.749 12.2562 272.433 12.6469 272.433C13.0376 272.433 13.3543 272.749 13.3543 273.14Z" fill="url(#paint56_linear_987_41881)"/>
<path d="M17.8335 239.393C17.8335 240.029 17.3184 240.544 16.6829 240.544C16.0474 240.544 15.5322 240.029 15.5322 239.393C15.5322 238.758 16.0474 238.242 16.6829 238.242C17.3184 238.242 17.8335 238.758 17.8335 239.393Z" stroke="url(#paint57_linear_987_41881)"/>
<path d="M17.3899 239.393C17.3899 239.784 17.0732 240.101 16.6825 240.101C16.2918 240.101 15.9751 239.784 15.9751 239.393C15.9751 239.003 16.2918 238.686 16.6825 238.686C17.0732 238.686 17.3899 239.003 17.3899 239.393Z" fill="url(#paint58_linear_987_41881)"/>
<path d="M29.5711 229.122C29.5711 229.758 29.0559 230.273 28.4204 230.273C27.7849 230.273 27.2698 229.758 27.2698 229.122C27.2698 228.487 27.7849 227.972 28.4204 227.972C29.0559 227.972 29.5711 228.487 29.5711 229.122Z" stroke="url(#paint59_linear_987_41881)"/>
<path d="M29.1275 229.122C29.1275 229.513 28.8108 229.83 28.4201 229.83C28.0294 229.83 27.7126 229.513 27.7126 229.122C27.7126 228.732 28.0294 228.415 28.4201 228.415C28.8108 228.415 29.1275 228.732 29.1275 229.122Z" fill="url(#paint60_linear_987_41881)"/>
<path d="M64.4175 280.843C64.4175 281.478 63.9024 281.993 63.2669 281.993C62.6314 281.993 62.1162 281.478 62.1162 280.843C62.1162 280.207 62.6314 279.692 63.2669 279.692C63.9024 279.692 64.4175 280.207 64.4175 280.843Z" stroke="url(#paint61_linear_987_41881)"/>
<path d="M63.9739 280.843C63.9739 281.234 63.6572 281.55 63.2665 281.55C62.8758 281.55 62.5591 281.234 62.5591 280.843C62.5591 280.452 62.8758 280.135 63.2665 280.135C63.6572 280.135 63.9739 280.452 63.9739 280.843Z" fill="url(#paint62_linear_987_41881)"/>
<path d="M77.6227 278.459C77.6227 279.398 76.8612 280.16 75.9218 280.16C74.9825 280.16 74.2209 279.398 74.2209 278.459C74.2209 277.519 74.9825 276.758 75.9218 276.758C76.8612 276.758 77.6227 277.519 77.6227 278.459Z" stroke="url(#paint63_linear_987_41881)"/>
<path d="M79.0904 278.458C79.0904 280.208 77.672 281.627 75.9223 281.627C74.1726 281.627 72.7542 280.208 72.7542 278.458C72.7542 276.709 74.1726 275.29 75.9223 275.29C77.672 275.29 79.0904 276.709 79.0904 278.458Z" stroke="url(#paint64_linear_987_41881)"/>
<path d="M76.6557 278.458C76.6557 278.864 76.3273 279.192 75.9221 279.192C75.5169 279.192 75.1885 278.864 75.1885 278.458C75.1885 278.053 75.5169 277.725 75.9221 277.725C76.3273 277.725 76.6557 278.053 76.6557 278.458Z" fill="white"/>
<defs>
<linearGradient id="paint0_linear_987_41881" x1="381.241" y1="239.482" x2="418.962" y2="468.018" gradientUnits="userSpaceOnUse">
<stop stop-color="#585C62"/>
<stop offset="0.166667" stop-color="white"/>
<stop offset="0.25" stop-color="#858D8E"/>
<stop offset="0.442708" stop-color="#2B2F2F"/>
<stop offset="0.635417" stop-color="#E9E9E9"/>
<stop offset="0.78125" stop-color="#343939"/>
<stop offset="0.869792" stop-color="white"/>
<stop offset="0.979167" stop-color="#141515"/>
</linearGradient>
<linearGradient id="paint1_linear_987_41881" x1="378.612" y1="29.4823" x2="416.289" y2="258.033" gradientUnits="userSpaceOnUse">
<stop stop-color="#585C62"/>
<stop offset="0.166667" stop-color="white"/>
<stop offset="0.25" stop-color="#858D8E"/>
<stop offset="0.442708" stop-color="#2B2F2F"/>
<stop offset="0.635417" stop-color="#E9E9E9"/>
<stop offset="0.78125" stop-color="#343939"/>
<stop offset="0.869792" stop-color="white"/>
<stop offset="0.979167" stop-color="#141515"/>
</linearGradient>
<linearGradient id="paint2_linear_987_41881" x1="367.241" y1="135.482" x2="404.962" y2="364.018" gradientUnits="userSpaceOnUse">
<stop stop-color="#585C62"/>
<stop offset="0.166667" stop-color="white"/>
<stop offset="0.25" stop-color="#858D8E"/>
<stop offset="0.442708" stop-color="#2B2F2F"/>
<stop offset="0.635417" stop-color="#E9E9E9"/>
<stop offset="0.78125" stop-color="#343939"/>
<stop offset="0.869792" stop-color="white"/>
<stop offset="0.979167" stop-color="#141515"/>
</linearGradient>
<linearGradient id="paint3_linear_987_41881" x1="-1.45838" y1="120.772" x2="56.6284" y2="135.28" gradientUnits="userSpaceOnUse">
<stop stop-color="#AFC7E6"/>
<stop offset="0.397708" stop-color="#92CCE3"/>
<stop offset="0.598391" stop-color="#71D1DF"/>
<stop offset="0.796056" stop-color="#47D7DA"/>
<stop offset="1" stop-color="#2471F3"/>
</linearGradient>
<linearGradient id="paint4_linear_987_41881" x1="35.635" y1="112.603" x2="41.6643" y2="113.821" gradientUnits="userSpaceOnUse">
<stop stop-color="#AFC7E6"/>
<stop offset="0.397708" stop-color="#92CCE3"/>
<stop offset="0.598391" stop-color="#71D1DF"/>
<stop offset="0.796056" stop-color="#47D7DA"/>
<stop offset="1" stop-color="#2471F3"/>
</linearGradient>
<linearGradient id="paint5_linear_987_41881" x1="33.9243" y1="112.348" x2="43.9731" y2="114.379" gradientUnits="userSpaceOnUse">
<stop stop-color="#AFC7E6"/>
<stop offset="0.397708" stop-color="#92CCE3"/>
<stop offset="0.598391" stop-color="#71D1DF"/>
<stop offset="0.796056" stop-color="#47D7DA"/>
<stop offset="1" stop-color="#2471F3"/>
</linearGradient>
<linearGradient id="paint6_linear_987_41881" x1="37.6712" y1="110.075" x2="44.7054" y2="111.497" gradientUnits="userSpaceOnUse">
<stop stop-color="#AFC7E6"/>
<stop offset="0.397708" stop-color="#92CCE3"/>
<stop offset="0.598391" stop-color="#71D1DF"/>
<stop offset="0.796056" stop-color="#47D7DA"/>
<stop offset="1" stop-color="#2471F3"/>
</linearGradient>
<linearGradient id="paint7_linear_987_41881" x1="3.26604" y1="188.738" x2="8.74073" y2="189.845" gradientUnits="userSpaceOnUse">
<stop stop-color="#AFC7E6"/>
<stop offset="0.397708" stop-color="#92CCE3"/>
<stop offset="0.598391" stop-color="#71D1DF"/>
<stop offset="0.796056" stop-color="#47D7DA"/>
<stop offset="1" stop-color="#2471F3"/>
</linearGradient>
<linearGradient id="paint8_linear_987_41881" x1="8.47269" y1="144.408" x2="22.8425" y2="144.821" gradientUnits="userSpaceOnUse">
<stop stop-color="#AFC7E6"/>
<stop offset="0.397708" stop-color="#92CCE3"/>
<stop offset="0.598391" stop-color="#71D1DF"/>
<stop offset="0.796056" stop-color="#47D7DA"/>
<stop offset="1" stop-color="#2471F3"/>
</linearGradient>
<linearGradient id="paint9_linear_987_41881" x1="11.3884" y1="174.748" x2="16.863" y2="175.854" gradientUnits="userSpaceOnUse">
<stop stop-color="#AFC7E6"/>
<stop offset="0.397708" stop-color="#92CCE3"/>
<stop offset="0.598391" stop-color="#71D1DF"/>
<stop offset="0.796056" stop-color="#47D7DA"/>
<stop offset="1" stop-color="#2471F3"/>
</linearGradient>
<linearGradient id="paint10_linear_987_41881" x1="20.1114" y1="164.206" x2="56.5546" y2="172.732" gradientUnits="userSpaceOnUse">
<stop stop-color="#AFC7E6"/>
<stop offset="0.397708" stop-color="#92CCE3"/>
<stop offset="0.598391" stop-color="#71D1DF"/>
<stop offset="0.796056" stop-color="#47D7DA"/>
<stop offset="1" stop-color="#2471F3"/>
</linearGradient>
<linearGradient id="paint11_linear_987_41881" x1="40.0856" y1="177.21" x2="43.1002" y2="177.819" gradientUnits="userSpaceOnUse">
<stop stop-color="#AFC7E6"/>
<stop offset="0.397708" stop-color="#92CCE3"/>
<stop offset="0.598391" stop-color="#71D1DF"/>
<stop offset="0.796056" stop-color="#47D7DA"/>
<stop offset="1" stop-color="#2471F3"/>
</linearGradient>
<linearGradient id="paint12_linear_987_41881" x1="40.8184" y1="177.319" x2="42.1104" y2="177.58" gradientUnits="userSpaceOnUse">
<stop stop-color="#AFC7E6"/>
<stop offset="0.397708" stop-color="#92CCE3"/>
<stop offset="0.598391" stop-color="#71D1DF"/>
<stop offset="0.796056" stop-color="#47D7DA"/>
<stop offset="1" stop-color="#2471F3"/>
</linearGradient>
<linearGradient id="paint13_linear_987_41881" x1="20.7245" y1="154.682" x2="23.7391" y2="155.291" gradientUnits="userSpaceOnUse">
<stop stop-color="#AFC7E6"/>
<stop offset="0.397708" stop-color="#92CCE3"/>
<stop offset="0.598391" stop-color="#71D1DF"/>
<stop offset="0.796056" stop-color="#47D7DA"/>
<stop offset="1" stop-color="#2471F3"/>
</linearGradient>
<linearGradient id="paint14_linear_987_41881" x1="21.4573" y1="154.79" x2="22.7493" y2="155.052" gradientUnits="userSpaceOnUse">
<stop stop-color="#AFC7E6"/>
<stop offset="0.397708" stop-color="#92CCE3"/>
<stop offset="0.598391" stop-color="#71D1DF"/>
<stop offset="0.796056" stop-color="#47D7DA"/>
<stop offset="1" stop-color="#2471F3"/>
</linearGradient>
<linearGradient id="paint15_linear_987_41881" x1="10.1848" y1="142.267" x2="13.0607" y2="142.302" gradientUnits="userSpaceOnUse">
<stop stop-color="#AFC7E6"/>
<stop offset="0.397708" stop-color="#92CCE3"/>
<stop offset="0.598391" stop-color="#71D1DF"/>
<stop offset="0.796056" stop-color="#47D7DA"/>
<stop offset="1" stop-color="#2471F3"/>
</linearGradient>
<linearGradient id="paint16_linear_987_41881" x1="10.869" y1="161.018" x2="13.8836" y2="161.627" gradientUnits="userSpaceOnUse">
<stop stop-color="#AFC7E6"/>
<stop offset="0.397708" stop-color="#92CCE3"/>
<stop offset="0.598391" stop-color="#71D1DF"/>
<stop offset="0.796056" stop-color="#47D7DA"/>
<stop offset="1" stop-color="#2471F3"/>
</linearGradient>
<linearGradient id="paint17_linear_987_41881" x1="11.6018" y1="161.126" x2="12.8938" y2="161.388" gradientUnits="userSpaceOnUse">
<stop stop-color="#AFC7E6"/>
<stop offset="0.397708" stop-color="#92CCE3"/>
<stop offset="0.598391" stop-color="#71D1DF"/>
<stop offset="0.796056" stop-color="#47D7DA"/>
<stop offset="1" stop-color="#2471F3"/>
</linearGradient>
<linearGradient id="paint18_linear_987_41881" x1="11.5825" y1="176.029" x2="37.9723" y2="185.528" gradientUnits="userSpaceOnUse">
<stop stop-color="#AFC7E6"/>
<stop offset="0.397708" stop-color="#92CCE3"/>
<stop offset="0.598391" stop-color="#71D1DF"/>
<stop offset="0.796056" stop-color="#47D7DA"/>
<stop offset="1" stop-color="#2471F3"/>
</linearGradient>
<linearGradient id="paint19_linear_987_41881" x1="15.409" y1="136.02" x2="54.6361" y2="147.56" gradientUnits="userSpaceOnUse">
<stop stop-color="#AFC7E6"/>
<stop offset="0.397708" stop-color="#92CCE3"/>
<stop offset="0.598391" stop-color="#71D1DF"/>
<stop offset="0.796056" stop-color="#47D7DA"/>
<stop offset="1" stop-color="#2471F3"/>
</linearGradient>
<linearGradient id="paint20_linear_987_41881" x1="17.1679" y1="147.434" x2="20.685" y2="148.145" gradientUnits="userSpaceOnUse">
<stop stop-color="#AFC7E6"/>
<stop offset="0.397708" stop-color="#92CCE3"/>
<stop offset="0.598391" stop-color="#71D1DF"/>
<stop offset="0.796056" stop-color="#47D7DA"/>
<stop offset="1" stop-color="#2471F3"/>
</linearGradient>
<linearGradient id="paint21_linear_987_41881" x1="18.0224" y1="147.561" x2="19.5297" y2="147.866" gradientUnits="userSpaceOnUse">
<stop stop-color="#AFC7E6"/>
<stop offset="0.397708" stop-color="#92CCE3"/>
<stop offset="0.598391" stop-color="#71D1DF"/>
<stop offset="0.796056" stop-color="#47D7DA"/>
<stop offset="1" stop-color="#2471F3"/>
</linearGradient>
<linearGradient id="paint22_linear_987_41881" x1="45.6799" y1="128.073" x2="49.1969" y2="128.784" gradientUnits="userSpaceOnUse">
<stop stop-color="#AFC7E6"/>
<stop offset="0.397708" stop-color="#92CCE3"/>
<stop offset="0.598391" stop-color="#71D1DF"/>
<stop offset="0.796056" stop-color="#47D7DA"/>
<stop offset="1" stop-color="#2471F3"/>
</linearGradient>
<linearGradient id="paint23_linear_987_41881" x1="46.5353" y1="128.201" x2="48.0426" y2="128.505" gradientUnits="userSpaceOnUse">
<stop stop-color="#AFC7E6"/>
<stop offset="0.397708" stop-color="#92CCE3"/>
<stop offset="0.598391" stop-color="#71D1DF"/>
<stop offset="0.796056" stop-color="#47D7DA"/>
<stop offset="1" stop-color="#2471F3"/>
</linearGradient>
<linearGradient id="paint24_linear_987_41881" x1="43.9194" y1="132.298" x2="47.4364" y2="133.009" gradientUnits="userSpaceOnUse">
<stop stop-color="#AFC7E6"/>
<stop offset="0.397708" stop-color="#92CCE3"/>
<stop offset="0.598391" stop-color="#71D1DF"/>
<stop offset="0.796056" stop-color="#47D7DA"/>
<stop offset="1" stop-color="#2471F3"/>
</linearGradient>
<linearGradient id="paint25_linear_987_41881" x1="44.7748" y1="132.425" x2="46.2822" y2="132.729" gradientUnits="userSpaceOnUse">
<stop stop-color="#AFC7E6"/>
<stop offset="0.397708" stop-color="#92CCE3"/>
<stop offset="0.598391" stop-color="#71D1DF"/>
<stop offset="0.796056" stop-color="#47D7DA"/>
<stop offset="1" stop-color="#2471F3"/>
</linearGradient>
<linearGradient id="paint26_linear_987_41881" x1="35.8224" y1="188.97" x2="39.3395" y2="189.681" gradientUnits="userSpaceOnUse">
<stop stop-color="#AFC7E6"/>
<stop offset="0.397708" stop-color="#92CCE3"/>
<stop offset="0.598391" stop-color="#71D1DF"/>
<stop offset="0.796056" stop-color="#47D7DA"/>
<stop offset="1" stop-color="#2471F3"/>
</linearGradient>
<linearGradient id="paint27_linear_987_41881" x1="36.6779" y1="189.097" x2="38.1852" y2="189.402" gradientUnits="userSpaceOnUse">
<stop stop-color="#AFC7E6"/>
<stop offset="0.397708" stop-color="#92CCE3"/>
<stop offset="0.598391" stop-color="#71D1DF"/>
<stop offset="0.796056" stop-color="#47D7DA"/>
<stop offset="1" stop-color="#2471F3"/>
</linearGradient>
<linearGradient id="paint28_linear_987_41881" x1="23.4309" y1="63.7502" x2="28.1553" y2="75.019" gradientUnits="userSpaceOnUse">
<stop stop-color="#AFC7E6"/>
<stop offset="0.397708" stop-color="#92CCE3"/>
<stop offset="0.598391" stop-color="#71D1DF"/>
<stop offset="0.796056" stop-color="#47D7DA"/>
<stop offset="1" stop-color="#2471F3"/>
</linearGradient>
<linearGradient id="paint29_linear_987_41881" x1="22.1627" y1="25.6958" x2="51.0826" y2="28.5028" gradientUnits="userSpaceOnUse">
<stop stop-color="#AFC7E6"/>
<stop offset="0.397708" stop-color="#92CCE3"/>
<stop offset="0.598391" stop-color="#71D1DF"/>
<stop offset="0.796056" stop-color="#47D7DA"/>
<stop offset="1" stop-color="#2471F3"/>
</linearGradient>
<linearGradient id="paint30_linear_987_41881" x1="22.9309" y1="35.3186" x2="31.4661" y2="35.8652" gradientUnits="userSpaceOnUse">
<stop stop-color="#AFC7E6"/>
<stop offset="0.397708" stop-color="#92CCE3"/>
<stop offset="0.598391" stop-color="#71D1DF"/>
<stop offset="0.796056" stop-color="#47D7DA"/>
<stop offset="1" stop-color="#2471F3"/>
</linearGradient>
<linearGradient id="paint31_linear_987_41881" x1="47.9619" y1="53.247" x2="54.1373" y2="54.4953" gradientUnits="userSpaceOnUse">
<stop stop-color="#AFC7E6"/>
<stop offset="0.397708" stop-color="#92CCE3"/>
<stop offset="0.598391" stop-color="#71D1DF"/>
<stop offset="0.796056" stop-color="#47D7DA"/>
<stop offset="1" stop-color="#2471F3"/>
</linearGradient>
<linearGradient id="paint32_linear_987_41881" x1="46.2109" y1="52.9863" x2="56.5032" y2="55.0667" gradientUnits="userSpaceOnUse">
<stop stop-color="#AFC7E6"/>
<stop offset="0.397708" stop-color="#92CCE3"/>
<stop offset="0.598391" stop-color="#71D1DF"/>
<stop offset="0.796056" stop-color="#47D7DA"/>
<stop offset="1" stop-color="#2471F3"/>
</linearGradient>
<linearGradient id="paint33_linear_987_41881" x1="28.616" y1="15.2742" x2="35.8145" y2="15.7592" gradientUnits="userSpaceOnUse">
<stop stop-color="#AFC7E6"/>
<stop offset="0.397708" stop-color="#92CCE3"/>
<stop offset="0.598391" stop-color="#71D1DF"/>
<stop offset="0.796056" stop-color="#47D7DA"/>
<stop offset="1" stop-color="#2471F3"/>
</linearGradient>
<linearGradient id="paint34_linear_987_41881" x1="27.6827" y1="24.4521" x2="30.2558" y2="24.9722" gradientUnits="userSpaceOnUse">
<stop stop-color="#AFC7E6"/>
<stop offset="0.397708" stop-color="#92CCE3"/>
<stop offset="0.598391" stop-color="#71D1DF"/>
<stop offset="0.796056" stop-color="#47D7DA"/>
<stop offset="1" stop-color="#2471F3"/>
</linearGradient>
<linearGradient id="paint35_linear_987_41881" x1="18.5926" y1="47.9954" x2="22.3111" y2="48.3349" gradientUnits="userSpaceOnUse">
<stop stop-color="#AFC7E6"/>
<stop offset="0.397708" stop-color="#92CCE3"/>
<stop offset="0.598391" stop-color="#71D1DF"/>
<stop offset="0.796056" stop-color="#47D7DA"/>
<stop offset="1" stop-color="#2471F3"/>
</linearGradient>
<linearGradient id="paint36_linear_987_41881" x1="17.1899" y1="52.0002" x2="20.2776" y2="52.6244" gradientUnits="userSpaceOnUse">
<stop stop-color="#AFC7E6"/>
<stop offset="0.397708" stop-color="#92CCE3"/>
<stop offset="0.598391" stop-color="#71D1DF"/>
<stop offset="0.796056" stop-color="#47D7DA"/>
<stop offset="1" stop-color="#2471F3"/>
</linearGradient>
<linearGradient id="paint37_linear_987_41881" x1="17.9403" y1="52.112" x2="19.2636" y2="52.3795" gradientUnits="userSpaceOnUse">
<stop stop-color="#AFC7E6"/>
<stop offset="0.397708" stop-color="#92CCE3"/>
<stop offset="0.598391" stop-color="#71D1DF"/>
<stop offset="0.796056" stop-color="#47D7DA"/>
<stop offset="1" stop-color="#2471F3"/>
</linearGradient>
<linearGradient id="paint38_linear_987_41881" x1="46.4697" y1="64.6841" x2="48.5282" y2="65.1002" gradientUnits="userSpaceOnUse">
<stop stop-color="#AFC7E6"/>
<stop offset="0.397708" stop-color="#92CCE3"/>
<stop offset="0.598391" stop-color="#71D1DF"/>
<stop offset="0.796056" stop-color="#47D7DA"/>
<stop offset="1" stop-color="#2471F3"/>
</linearGradient>
<linearGradient id="paint39_linear_987_41881" x1="24.0386" y1="46.5923" x2="27.1262" y2="47.2164" gradientUnits="userSpaceOnUse">
<stop stop-color="#AFC7E6"/>
<stop offset="0.397708" stop-color="#92CCE3"/>
<stop offset="0.598391" stop-color="#71D1DF"/>
<stop offset="0.796056" stop-color="#47D7DA"/>
<stop offset="1" stop-color="#2471F3"/>
</linearGradient>
<linearGradient id="paint40_linear_987_41881" x1="24.7901" y1="46.704" x2="26.1134" y2="46.9715" gradientUnits="userSpaceOnUse">
<stop stop-color="#AFC7E6"/>
<stop offset="0.397708" stop-color="#92CCE3"/>
<stop offset="0.598391" stop-color="#71D1DF"/>
<stop offset="0.796056" stop-color="#47D7DA"/>
<stop offset="1" stop-color="#2471F3"/>
</linearGradient>
<linearGradient id="paint41_linear_987_41881" x1="42.7871" y1="13.4228" x2="45.8748" y2="14.047" gradientUnits="userSpaceOnUse">
<stop stop-color="#AFC7E6"/>
<stop offset="0.397708" stop-color="#92CCE3"/>
<stop offset="0.598391" stop-color="#71D1DF"/>
<stop offset="0.796056" stop-color="#47D7DA"/>
<stop offset="1" stop-color="#2471F3"/>
</linearGradient>
<linearGradient id="paint42_linear_987_41881" x1="43.5384" y1="13.5346" x2="44.8617" y2="13.8021" gradientUnits="userSpaceOnUse">
<stop stop-color="#AFC7E6"/>
<stop offset="0.397708" stop-color="#92CCE3"/>
<stop offset="0.598391" stop-color="#71D1DF"/>
<stop offset="0.796056" stop-color="#47D7DA"/>
<stop offset="1" stop-color="#2471F3"/>
</linearGradient>
<linearGradient id="paint43_linear_987_41881" x1="39.941" y1="3.90184" x2="42.5141" y2="4.42195" gradientUnits="userSpaceOnUse">
<stop stop-color="#AFC7E6"/>
<stop offset="0.397708" stop-color="#92CCE3"/>
<stop offset="0.598391" stop-color="#71D1DF"/>
<stop offset="0.796056" stop-color="#47D7DA"/>
<stop offset="1" stop-color="#2471F3"/>
</linearGradient>
<linearGradient id="paint44_linear_987_41881" x1="40.567" y1="3.99473" x2="41.6697" y2="4.21763" gradientUnits="userSpaceOnUse">
<stop stop-color="#AFC7E6"/>
<stop offset="0.397708" stop-color="#92CCE3"/>
<stop offset="0.598391" stop-color="#71D1DF"/>
<stop offset="0.796056" stop-color="#47D7DA"/>
<stop offset="1" stop-color="#2471F3"/>
</linearGradient>
<linearGradient id="paint45_linear_987_41881" x1="19.1473" y1="10.8222" x2="51.4586" y2="16.9606" gradientUnits="userSpaceOnUse">
<stop stop-color="#AFC7E6"/>
<stop offset="0.397708" stop-color="#92CCE3"/>
<stop offset="0.598391" stop-color="#71D1DF"/>
<stop offset="0.796056" stop-color="#47D7DA"/>
<stop offset="1" stop-color="#2471F3"/>
</linearGradient>
<linearGradient id="paint46_linear_987_41881" x1="13.7551" y1="78.3208" x2="19.3624" y2="79.4543" gradientUnits="userSpaceOnUse">
<stop stop-color="#AFC7E6"/>
<stop offset="0.397708" stop-color="#92CCE3"/>
<stop offset="0.598391" stop-color="#71D1DF"/>
<stop offset="0.796056" stop-color="#47D7DA"/>
<stop offset="1" stop-color="#2471F3"/>
</linearGradient>
<linearGradient id="paint47_linear_987_41881" x1="1.331" y1="279.739" x2="30.0938" y2="284.934" gradientUnits="userSpaceOnUse">
<stop stop-color="#AFC7E6"/>
<stop offset="0.397708" stop-color="#92CCE3"/>
<stop offset="0.598391" stop-color="#71D1DF"/>
<stop offset="0.796056" stop-color="#47D7DA"/>
<stop offset="1" stop-color="#2471F3"/>
</linearGradient>
<linearGradient id="paint48_linear_987_41881" x1="16.5949" y1="233.129" x2="29.8271" y2="236.094" gradientUnits="userSpaceOnUse">
<stop stop-color="#AFC7E6"/>
<stop offset="0.397708" stop-color="#92CCE3"/>
<stop offset="0.598391" stop-color="#71D1DF"/>
<stop offset="0.796056" stop-color="#47D7DA"/>
<stop offset="1" stop-color="#2471F3"/>
</linearGradient>
<linearGradient id="paint49_linear_987_41881" x1="27.9981" y1="285.821" x2="37.7821" y2="298.479" gradientUnits="userSpaceOnUse">
<stop stop-color="#AFC7E6"/>
<stop offset="0.397708" stop-color="#92CCE3"/>
<stop offset="0.598391" stop-color="#71D1DF"/>
<stop offset="0.796056" stop-color="#47D7DA"/>
<stop offset="1" stop-color="#2471F3"/>
</linearGradient>
<linearGradient id="paint50_linear_987_41881" x1="7.92208" y1="280.435" x2="57.9899" y2="314.339" gradientUnits="userSpaceOnUse">
<stop stop-color="#AFC7E6"/>
<stop offset="0.397708" stop-color="#92CCE3"/>
<stop offset="0.598391" stop-color="#71D1DF"/>
<stop offset="0.796056" stop-color="#47D7DA"/>
<stop offset="1" stop-color="#2471F3"/>
</linearGradient>
<linearGradient id="paint51_linear_987_41881" x1="41.1488" y1="225.897" x2="74.6218" y2="236.851" gradientUnits="userSpaceOnUse">
<stop stop-color="#AFC7E6"/>
<stop offset="0.397708" stop-color="#92CCE3"/>
<stop offset="0.598391" stop-color="#71D1DF"/>
<stop offset="0.796056" stop-color="#47D7DA"/>
<stop offset="1" stop-color="#2471F3"/>
</linearGradient>
<linearGradient id="paint52_linear_987_41881" x1="39.9123" y1="219.205" x2="45.6173" y2="220.358" gradientUnits="userSpaceOnUse">
<stop stop-color="#AFC7E6"/>
<stop offset="0.397708" stop-color="#92CCE3"/>
<stop offset="0.598391" stop-color="#71D1DF"/>
<stop offset="0.796056" stop-color="#47D7DA"/>
<stop offset="1" stop-color="#2471F3"/>
</linearGradient>
<linearGradient id="paint53_linear_987_41881" x1="47.0349" y1="284.279" x2="50.7" y2="285.02" gradientUnits="userSpaceOnUse">
<stop stop-color="#AFC7E6"/>
<stop offset="0.397708" stop-color="#92CCE3"/>
<stop offset="0.598391" stop-color="#71D1DF"/>
<stop offset="0.796056" stop-color="#47D7DA"/>
<stop offset="1" stop-color="#2471F3"/>
</linearGradient>
<linearGradient id="paint54_linear_987_41881" x1="47.9258" y1="284.412" x2="49.4966" y2="284.729" gradientUnits="userSpaceOnUse">
<stop stop-color="#AFC7E6"/>
<stop offset="0.397708" stop-color="#92CCE3"/>
<stop offset="0.598391" stop-color="#71D1DF"/>
<stop offset="0.796056" stop-color="#47D7DA"/>
<stop offset="1" stop-color="#2471F3"/>
</linearGradient>
<linearGradient id="paint55_linear_987_41881" x1="10.6425" y1="272.842" x2="15.3547" y2="273.794" gradientUnits="userSpaceOnUse">
<stop stop-color="#AFC7E6"/>
<stop offset="0.397708" stop-color="#92CCE3"/>
<stop offset="0.598391" stop-color="#71D1DF"/>
<stop offset="0.796056" stop-color="#47D7DA"/>
<stop offset="1" stop-color="#2471F3"/>
</linearGradient>
<linearGradient id="paint56_linear_987_41881" x1="11.7876" y1="273.012" x2="13.8071" y2="273.42" gradientUnits="userSpaceOnUse">
<stop stop-color="#AFC7E6"/>
<stop offset="0.397708" stop-color="#92CCE3"/>
<stop offset="0.598391" stop-color="#71D1DF"/>
<stop offset="0.796056" stop-color="#47D7DA"/>
<stop offset="1" stop-color="#2471F3"/>
</linearGradient>
<linearGradient id="paint57_linear_987_41881" x1="14.6779" y1="239.095" x2="19.3901" y2="240.047" gradientUnits="userSpaceOnUse">
<stop stop-color="#AFC7E6"/>
<stop offset="0.397708" stop-color="#92CCE3"/>
<stop offset="0.598391" stop-color="#71D1DF"/>
<stop offset="0.796056" stop-color="#47D7DA"/>
<stop offset="1" stop-color="#2471F3"/>
</linearGradient>
<linearGradient id="paint58_linear_987_41881" x1="15.8232" y1="239.265" x2="17.8427" y2="239.674" gradientUnits="userSpaceOnUse">
<stop stop-color="#AFC7E6"/>
<stop offset="0.397708" stop-color="#92CCE3"/>
<stop offset="0.598391" stop-color="#71D1DF"/>
<stop offset="0.796056" stop-color="#47D7DA"/>
<stop offset="1" stop-color="#2471F3"/>
</linearGradient>
<linearGradient id="paint59_linear_987_41881" x1="26.4154" y1="228.824" x2="31.1276" y2="229.777" gradientUnits="userSpaceOnUse">
<stop stop-color="#AFC7E6"/>
<stop offset="0.397708" stop-color="#92CCE3"/>
<stop offset="0.598391" stop-color="#71D1DF"/>
<stop offset="0.796056" stop-color="#47D7DA"/>
<stop offset="1" stop-color="#2471F3"/>
</linearGradient>
<linearGradient id="paint60_linear_987_41881" x1="27.5608" y1="228.994" x2="29.5803" y2="229.403" gradientUnits="userSpaceOnUse">
<stop stop-color="#AFC7E6"/>
<stop offset="0.397708" stop-color="#92CCE3"/>
<stop offset="0.598391" stop-color="#71D1DF"/>
<stop offset="0.796056" stop-color="#47D7DA"/>
<stop offset="1" stop-color="#2471F3"/>
</linearGradient>
<linearGradient id="paint61_linear_987_41881" x1="61.2619" y1="280.545" x2="65.9741" y2="281.497" gradientUnits="userSpaceOnUse">
<stop stop-color="#AFC7E6"/>
<stop offset="0.397708" stop-color="#92CCE3"/>
<stop offset="0.598391" stop-color="#71D1DF"/>
<stop offset="0.796056" stop-color="#47D7DA"/>
<stop offset="1" stop-color="#2471F3"/>
</linearGradient>
<linearGradient id="paint62_linear_987_41881" x1="62.4072" y1="280.715" x2="64.4267" y2="281.123" gradientUnits="userSpaceOnUse">
<stop stop-color="#AFC7E6"/>
<stop offset="0.397708" stop-color="#92CCE3"/>
<stop offset="0.598391" stop-color="#71D1DF"/>
<stop offset="0.796056" stop-color="#47D7DA"/>
<stop offset="1" stop-color="#2471F3"/>
</linearGradient>
<linearGradient id="paint63_linear_987_41881" x1="73.2485" y1="278.061" x2="79.5314" y2="279.331" gradientUnits="userSpaceOnUse">
<stop stop-color="#AFC7E6"/>
<stop offset="0.397708" stop-color="#92CCE3"/>
<stop offset="0.598391" stop-color="#71D1DF"/>
<stop offset="0.796056" stop-color="#47D7DA"/>
<stop offset="1" stop-color="#2471F3"/>
</linearGradient>
<linearGradient id="paint64_linear_987_41881" x1="71.4667" y1="277.796" x2="81.9383" y2="279.912" gradientUnits="userSpaceOnUse">
<stop stop-color="#AFC7E6"/>
<stop offset="0.397708" stop-color="#92CCE3"/>
<stop offset="0.598391" stop-color="#71D1DF"/>
<stop offset="0.796056" stop-color="#47D7DA"/>
<stop offset="1" stop-color="#2471F3"/>
</linearGradient>
</defs>
</svg>
