<svg width="36" height="25" viewBox="0 0 36 25" fill="none" xmlns="http://www.w3.org/2000/svg">
<path fill-rule="evenodd" clip-rule="evenodd" d="M0.499991 12.5539C0.499991 12.8996 0.631686 13.2312 0.866107 13.4756C1.10053 13.7201 1.41847 13.8574 1.74999 13.8574L31.2325 13.8574L23.365 22.0591C23.2488 22.1803 23.1566 22.3241 23.0937 22.4825C23.0308 22.6408 22.9984 22.8106 22.9984 22.982C22.9984 23.1534 23.0308 23.3231 23.0937 23.4814C23.1566 23.6398 23.2488 23.7836 23.365 23.9048C23.4812 24.026 23.6192 24.1222 23.771 24.1878C23.9229 24.2534 24.0856 24.2871 24.25 24.2871C24.4144 24.2871 24.5771 24.2534 24.729 24.1878C24.8808 24.1222 25.0188 24.026 25.135 23.9048L35.135 13.4768C35.2514 13.3557 35.3438 13.2119 35.4068 13.0535C35.4698 12.8951 35.5022 12.7254 35.5022 12.5539C35.5022 12.3825 35.4698 12.2127 35.4068 12.0543C35.3438 11.896 35.2514 11.7521 35.135 11.631L25.135 1.20297C25.0188 1.08178 24.8808 0.985642 24.729 0.920051C24.5771 0.854461 24.4144 0.820705 24.25 0.820705C24.0856 0.820705 23.9229 0.854461 23.771 0.920051C23.6192 0.985643 23.4812 1.08178 23.365 1.20297C23.2488 1.32417 23.1566 1.46805 23.0937 1.6264C23.0308 1.78474 22.9984 1.95446 22.9984 2.12586C22.9984 2.29725 23.0308 2.46697 23.0937 2.62532C23.1566 2.78367 23.2488 2.92754 23.365 3.04874L31.2325 11.2504L1.74999 11.2504C1.41847 11.2504 1.10053 11.3877 0.866107 11.6322C0.631686 11.8766 0.499991 12.2082 0.499991 12.5539Z" fill="#0139B7"/>
</svg>
