<svg width="45" height="46" viewBox="0 0 45 46" fill="none" xmlns="http://www.w3.org/2000/svg">
<rect x="1.16669" y="0.647461" width="43" height="44.813" rx="4.5" stroke="#00538b"/>
<path d="M25.4167 23.0538C25.4167 23.6201 25.2554 24.1737 24.9532 24.6446C24.6511 25.1154 24.2216 25.4824 23.7191 25.6992C23.2166 25.9159 22.6636 25.9726 22.1302 25.8621C21.5967 25.7516 21.1067 25.4789 20.7221 25.0785C20.3375 24.678 20.0756 24.1678 19.9695 23.6124C19.8634 23.057 19.9179 22.4813 20.126 21.9581C20.3342 21.4349 20.6866 20.9877 21.1389 20.6731C21.5911 20.3584 22.1228 20.1905 22.6667 20.1905C23.3953 20.1929 24.0935 20.4953 24.6087 21.0317C25.124 21.5682 25.4144 22.2951 25.4167 23.0538ZM31.2604 19.1168V26.9909C31.2604 28.3198 30.7534 29.5943 29.8509 30.534C28.9484 31.4737 27.7243 32.0017 26.4479 32.0017H18.8854C17.6091 32.0017 16.385 31.4737 15.4825 30.534C14.58 29.5943 14.0729 28.3198 14.0729 26.9909V19.1168C14.0729 17.7878 14.58 16.5133 15.4825 15.5736C16.385 14.6339 17.6091 14.106 18.8854 14.106H26.4479C27.7243 14.106 28.9484 14.6339 29.8509 15.5736C30.7534 16.5133 31.2604 17.7878 31.2604 19.1168ZM26.7917 23.0538C26.7917 22.2043 26.5498 21.374 26.0965 20.6677C25.6432 19.9613 24.999 19.4109 24.2453 19.0858C23.4915 18.7607 22.6621 18.6756 21.8619 18.8414C21.0618 19.0071 20.3268 19.4161 19.7499 20.0168C19.173 20.6175 18.7801 21.3828 18.6209 22.2159C18.4618 23.049 18.5435 23.9126 18.8557 24.6974C19.1679 25.4822 19.6966 26.153 20.375 26.6249C21.0533 27.0969 21.8508 27.3488 22.6667 27.3488C23.7607 27.3488 24.8099 26.8963 25.5835 26.0908C26.3571 25.2853 26.7917 24.1929 26.7917 23.0538ZM28.1667 18.4009C28.1667 18.1886 28.1062 17.981 27.9929 17.8044C27.8796 17.6278 27.7185 17.4902 27.5301 17.4089C27.3416 17.3276 27.1343 17.3064 26.9343 17.3478C26.7342 17.3892 26.5505 17.4915 26.4062 17.6417C26.262 17.7918 26.1638 17.9832 26.124 18.1914C26.0842 18.3997 26.1046 18.6156 26.1827 18.8118C26.2607 19.008 26.3929 19.1757 26.5625 19.2937C26.7321 19.4117 26.9315 19.4747 27.1354 19.4747C27.4089 19.4747 27.6712 19.3615 27.8646 19.1602C28.058 18.9588 28.1667 18.6857 28.1667 18.4009Z" fill="#00538b"/>
</svg>
