<svg width="200" height="42" viewBox="0 0 200 42" fill="#A4A4AA" xmlns="http://www.w3.org/2000/svg">
<path fill-rule="evenodd" clip-rule="evenodd" d="M185.25 6.86582C183.597 7.25348 181.96 8.62014 181.163 10.2788C180.708 11.224 180.671 11.4357 180.596 13.4716L180.516 15.652L178.991 15.6966L177.465 15.7411V17.4431V19.1451L178.991 19.1896L180.516 19.2342L180.557 26.5932L180.598 33.9521H182.709H184.82V26.5511V19.1499L188.067 19.1921L191.314 19.2342L191.326 24.6074C191.337 29.6349 191.36 30.0507 191.673 31.0708C192.09 32.4288 192.707 33.1835 193.861 33.7475C194.704 34.1597 194.878 34.1857 196.792 34.1857C198.084 34.1857 199.04 34.1102 199.413 33.9789L200 33.7722V32.071C200 31.1355 199.973 30.37 199.941 30.37C199.908 30.37 199.629 30.4751 199.32 30.6036C198.064 31.126 196.598 30.7461 196.015 29.747C195.715 29.2346 195.693 28.9002 195.649 24.1791L195.602 19.1563H197.801H200V17.4431V15.7299H197.809H195.618V12.9939C195.618 10.4606 195.598 10.2639 195.344 10.3403C194.695 10.536 192.367 11.2465 191.901 11.3912L191.393 11.5489V13.6395V15.7299H188.106H184.82L184.821 14.2114C184.822 12.435 184.989 11.7185 185.562 11.0412C186.319 10.1454 187.673 9.87498 189.026 10.3498L189.671 10.5765V8.73399V6.89137L189.182 6.79403C188.488 6.65572 185.947 6.70214 185.25 6.86582ZM88.8458 8.1269C87.9998 8.3046 87.3682 8.83009 87.0716 9.60258C86.3882 11.3837 87.9442 13.1495 89.9353 12.8525C90.5273 12.7641 90.8198 12.6035 91.3503 12.0755C91.9722 11.4566 92.019 11.3513 92.0184 10.5719C92.0171 8.82401 90.627 7.75264 88.8458 8.1269ZM55.5559 21.2589V33.9521H57.5121H59.4683V23.9844C59.4683 18.5022 59.521 14.0177 59.5856 14.0187C59.6503 14.0198 61.5116 18.4879 63.7222 23.9475L67.7415 33.8743L69.2222 33.9186L70.703 33.963L72.4199 29.6356C73.3641 27.2555 75.1497 22.7545 76.3878 19.6334L78.6388 13.9583L78.679 23.9553L78.7194 33.9521H80.909H83.0989V21.2554V8.55893L80.1006 8.60114L77.1023 8.6435L73.2723 17.9882C71.1657 23.1278 69.4125 27.366 69.3762 27.4063C69.3401 27.4466 69.2612 27.4005 69.2011 27.3037C69.141 27.2069 67.4723 22.9521 65.4928 17.8487L61.8939 8.56952L58.7249 8.5675L55.5559 8.56563V21.2589ZM149.844 15.2156C147.501 15.5248 145.507 16.7631 144.637 18.4492C144.054 19.5801 143.965 21.5227 144.44 22.7757C144.98 24.2014 145.828 24.9148 148.5 26.1921C151.018 27.3959 151.571 27.8125 151.807 28.6826C152.454 31.0769 148.799 31.7508 145.173 29.9056L143.975 29.2955V31.3675V33.4396L145.11 33.7683C150.198 35.2431 154.764 33.8979 155.956 30.5728C156.072 30.2471 156.171 29.4136 156.175 28.7206C156.181 27.618 156.121 27.341 155.701 26.5034C155.074 25.2544 154.475 24.7773 152.113 23.6466C151.037 23.1316 149.921 22.5939 149.632 22.4517C148.123 21.7085 147.962 19.848 149.333 18.9903C149.771 18.7159 150.043 18.6783 151.257 18.7246C152.504 18.7721 152.816 18.847 153.895 19.3568C154.568 19.6748 155.146 19.935 155.181 19.935C155.215 19.935 155.243 19.0331 155.243 17.9309V15.9268L154.343 15.679C152.582 15.194 151.135 15.0451 149.844 15.2156ZM103.203 15.4273C98.2481 15.8198 94.9638 19.4097 94.7181 24.7013C94.5814 27.6433 95.2498 29.7067 96.9422 31.568C98.018 32.7512 99.0373 33.4075 100.588 33.9157C102.674 34.5994 106.167 34.4566 108.177 33.6054L108.92 33.2908V31.3502C108.92 30.2828 108.868 29.4358 108.803 29.4681C105.984 30.8727 105.36 31.0402 103.77 30.8188C100.398 30.3496 98.5389 27.4088 99.2058 23.5974C99.9198 19.5178 103.906 17.689 107.747 19.6798C108.263 19.9473 108.738 20.1903 108.803 20.2194C108.868 20.2486 108.92 19.3867 108.92 18.3039V16.3355L108.255 16.0456C107.032 15.5127 105.104 15.2767 103.203 15.4273ZM131.528 15.4332C126.878 15.7799 123.861 18.8352 123.31 23.7544C123.043 26.13 123.403 28.2604 124.387 30.1309C125.938 33.0812 128.928 34.5493 133.029 34.3734C135.929 34.249 137.776 33.4581 139.503 31.6019C141.138 29.8445 141.85 27.7693 141.85 24.7631C141.85 21.5772 141.112 19.5525 139.293 17.7432C137.381 15.8421 135.109 15.1661 131.528 15.4332ZM166.487 15.4362C162.626 15.7523 159.892 17.8591 158.744 21.4025C158.207 23.0609 158.067 25.837 158.434 27.5666C158.795 29.2703 159.649 30.8866 160.786 32.017C162.423 33.6448 164.536 34.4139 167.371 34.4139C171.846 34.4139 174.974 32.314 176.302 28.4172C176.872 26.7466 177.008 23.9891 176.61 22.1751C175.553 17.3534 171.995 14.9851 166.487 15.4362ZM119.99 15.5879C118.651 15.9019 117.517 16.8007 116.94 18.0063C116.801 18.2961 116.63 18.5333 116.56 18.5333C116.49 18.5333 116.432 17.9026 116.432 17.1316V15.7299H114.319H112.207V24.841V33.9521H114.319H116.432L116.437 29.3187C116.444 22.9847 116.651 21.7115 117.888 20.4275C118.749 19.5334 119.458 19.2644 120.738 19.3462C121.352 19.3854 122.078 19.5285 122.351 19.6644L122.848 19.9112V17.763V15.615L122.261 15.5184C121.497 15.3926 120.722 15.4164 119.99 15.5879ZM87.3242 24.841V33.9521H89.4369H91.5495V24.841V15.7299H89.4369H87.3242V24.841ZM134.461 19.0869C135.921 19.582 137.002 20.9215 137.383 22.7072C137.48 23.1612 137.559 24.1802 137.559 24.9717C137.559 28.8589 135.879 30.8936 132.687 30.8737C131.135 30.864 130.134 30.4792 129.191 29.5285C128.118 28.447 127.835 27.6328 127.739 25.359C127.674 23.8172 127.711 23.3794 127.987 22.4777C128.51 20.7669 129.735 19.4318 131.154 19.0263C131.986 18.7884 133.672 18.8193 134.461 19.0869ZM170.12 19.4106C171.779 20.3327 172.522 22.0138 172.522 24.841C172.522 28.9334 170.956 30.8684 167.642 30.8684C166.438 30.8684 166.208 30.8176 165.28 30.3466C164.485 29.9434 164.119 29.6361 163.669 28.9943C162.669 27.5692 162.326 25.0723 162.835 22.9254C163.128 21.6878 163.4 21.1654 164.207 20.2947C165.291 19.1247 166.056 18.8372 167.929 18.8959C169.086 18.9322 169.386 19.0027 170.12 19.4106Z" />
<path d="M0.5 19.7222V0.5H19.8363V19.7222H0.5Z" />
<path d="M22.8706 19.7222V0.5H42.2069V19.7222H22.8706Z" />
<path d="M22.8706 41.5V22.2778H42.2069V41.5H22.8706Z" />
<path d="M0.5 41.5V22.2778H19.8363V41.5H0.5Z" />
</svg>
