<svg width="1381" height="699" viewBox="0 0 1381 699" fill="none" xmlns="http://www.w3.org/2000/svg">
<path d="M1357 127L1272.01 42.0147C1269.76 39.7643 1266.71 38.5 1263.53 38.5H1068" stroke="#525259" stroke-width="0.5" stroke-dasharray="4 4"/>
<circle cx="1014" cy="10" r="9.5" stroke="#525259"/>
<circle cx="1058" cy="38" r="9.5" stroke="#525259"/>
<circle cx="834" cy="167" r="9.5" stroke="#525259"/>
<path d="M1023.5 10H1275.03C1278.21 10 1281.26 11.2643 1283.51 13.5147L1376.49 106.485C1378.74 108.736 1380 111.788 1380 114.971V155.5C1380 162.127 1374.63 167.5 1368 167.5H844" stroke="#525259" stroke-width="0.5" stroke-dasharray="4 4"/>
<path d="M0 301.5L55.9853 245.515C58.2357 243.264 61.288 242 64.4706 242H702.529C705.712 242 708.764 243.264 711.015 245.515L764 298.5" stroke="#525259" stroke-width="0.5"/>
<circle cx="771.5" cy="305" r="9.5" stroke="#525259"/>
<mask id="path-8-inside-1_1350_61215" fill="white">
<path fill-rule="evenodd" clip-rule="evenodd" d="M1196 699C1204.84 699 1212 691.837 1212 683C1212 674.163 1204.84 667 1196 667C1187.16 667 1180 674.163 1180 683C1180 691.837 1187.16 699 1196 699ZM1196 698.273C1204.43 698.273 1211.27 691.435 1211.27 683C1211.27 674.565 1204.43 667.727 1196 667.727C1187.57 667.727 1180.73 674.565 1180.73 683C1180.73 691.435 1187.57 698.273 1196 698.273Z"/>
</mask>
<path fill-rule="evenodd" clip-rule="evenodd" d="M1196 699C1204.84 699 1212 691.837 1212 683C1212 674.163 1204.84 667 1196 667C1187.16 667 1180 674.163 1180 683C1180 691.837 1187.16 699 1196 699ZM1196 698.273C1204.43 698.273 1211.27 691.435 1211.27 683C1211.27 674.565 1204.43 667.727 1196 667.727C1187.57 667.727 1180.73 674.565 1180.73 683C1180.73 691.435 1187.57 698.273 1196 698.273Z" fill="#525259"/>
<path d="M1211 683C1211 691.284 1204.28 698 1196 698V700C1205.39 700 1213 692.389 1213 683H1211ZM1196 668C1204.28 668 1211 674.716 1211 683H1213C1213 673.611 1205.39 666 1196 666V668ZM1181 683C1181 674.716 1187.72 668 1196 668V666C1186.61 666 1179 673.611 1179 683H1181ZM1196 698C1187.72 698 1181 691.284 1181 683H1179C1179 692.389 1186.61 700 1196 700V698ZM1210.27 683C1210.27 690.883 1203.88 697.273 1196 697.273V699.273C1204.99 699.273 1212.27 691.987 1212.27 683H1210.27ZM1196 668.727C1203.88 668.727 1210.27 675.117 1210.27 683H1212.27C1212.27 674.013 1204.99 666.727 1196 666.727V668.727ZM1181.73 683C1181.73 675.117 1188.12 668.727 1196 668.727V666.727C1187.01 666.727 1179.73 674.013 1179.73 683H1181.73ZM1196 697.273C1188.12 697.273 1181.73 690.883 1181.73 683H1179.73C1179.73 691.987 1187.01 699.273 1196 699.273V697.273Z" fill="#525259" mask="url(#path-8-inside-1_1350_61215)"/>
<path d="M0.5 570.5H479.029C482.212 570.5 485.264 571.764 487.515 574.015L592.485 678.985C594.736 681.236 597.788 682.5 600.971 682.5H1180" stroke="#525259" stroke-width="0.5" stroke-dasharray="4 4"/>
</svg>
