<svg width="32" height="31" viewBox="0 0 32 31" fill="none" xmlns="http://www.w3.org/2000/svg">
<path d="M24.6491 30.5025C24.3502 30.5017 24.0522 30.4689 23.7602 30.4047C18.2017 29.2549 13.0807 26.5589 8.98687 22.627C4.98035 18.6864 2.20162 13.6693 0.986866 8.18251C0.843632 7.4987 0.878787 6.78953 1.08895 6.12324C1.29911 5.45694 1.67721 4.85595 2.18687 4.37807L5.74242 0.955845C5.92403 0.784101 6.13981 0.652583 6.37568 0.569874C6.61155 0.487165 6.86222 0.455125 7.11131 0.475845C7.36959 0.50279 7.61883 0.585991 7.84151 0.719595C8.06418 0.8532 8.25488 1.03397 8.4002 1.24918L12.8446 7.81807C13.0113 8.07295 13.0918 8.3746 13.0742 8.67863C13.0566 8.98266 12.9418 9.27301 12.7469 9.50696L10.5158 12.1736C11.4043 14.1402 12.6627 15.9177 14.2224 17.4092C15.772 18.9548 17.6036 20.1889 19.618 21.0447L22.3824 18.8492C22.6146 18.6657 22.8971 18.5572 23.1925 18.5381C23.4878 18.5191 23.7819 18.5904 24.0358 18.7425L30.7469 23.0803C30.9772 23.2178 31.1734 23.4056 31.3208 23.6297C31.4682 23.8538 31.563 24.1084 31.598 24.3743C31.6331 24.6403 31.6075 24.9107 31.5232 25.1653C31.4389 25.42 31.2981 25.6522 31.1113 25.8447L27.6446 29.2758C27.2509 29.6677 26.7835 29.9778 26.2694 30.1883C25.7553 30.3988 25.2046 30.5056 24.6491 30.5025ZM6.96909 2.23585L3.41353 5.65807C3.12682 5.92522 2.91459 6.26241 2.7977 6.63645C2.68081 7.0105 2.66329 7.40853 2.74687 7.7914C3.8764 12.94 6.47284 17.6512 10.2224 21.3558C14.075 25.055 18.8941 27.5909 24.1246 28.6714C24.5206 28.7542 24.9308 28.7374 25.3187 28.6226C25.7065 28.5078 26.0598 28.2986 26.3469 28.0136L29.8135 24.5825L23.3335 20.3958L20.3646 22.7603C20.251 22.8502 20.1171 22.911 19.9745 22.9374C19.832 22.9637 19.6852 22.9548 19.5469 22.9114C17.0817 22.0031 14.8477 20.5614 13.0046 18.6892C11.0983 16.9089 9.61853 14.7212 8.67576 12.2892C8.63587 12.1419 8.63455 11.9869 8.67191 11.839C8.70927 11.6911 8.78406 11.5554 8.88909 11.4447L11.2891 8.57362L6.96909 2.23585Z" fill="white"/>
</svg>
