<svg width="16" height="18" viewBox="0 0 16 18" fill="none" xmlns="http://www.w3.org/2000/svg">
<path d="M1.79366 9.58208L8.58206 2.79368C9.25725 2.11849 10.173 1.73917 11.1279 1.73917C12.0827 1.73917 12.9985 2.11849 13.6737 2.79368C14.3488 3.46887 14.7282 4.38462 14.7282 5.33948C14.7282 6.29434 14.3488 7.21009 13.6737 7.88528L5.61206 15.9457C5.27258 16.2736 4.81789 16.455 4.34594 16.4509C3.87399 16.4468 3.42252 16.2575 3.08879 15.9238C2.75505 15.59 2.56575 15.1386 2.56165 14.6666C2.55755 14.1946 2.73898 13.74 3.06686 13.4005L10.2789 6.18848C10.3915 6.07597 10.4549 5.92332 10.455 5.7641C10.4551 5.60488 10.392 5.45214 10.2795 5.33948C10.167 5.22681 10.0143 5.16346 9.85509 5.16334C9.69587 5.16323 9.54313 5.22637 9.43046 5.33888L2.21846 12.5509C1.65984 13.1142 1.34713 13.876 1.34876 14.6693C1.35038 15.4627 1.66621 16.2231 2.22713 16.7842C2.78805 17.3453 3.54839 17.6613 4.34176 17.6632C5.13513 17.665 5.89693 17.3525 6.46046 16.7941L14.5221 8.73368C15.4224 7.83348 15.9283 6.61249 15.9284 5.3393C15.9285 4.06612 15.4229 2.84504 14.5227 1.94468C13.6225 1.04432 12.4015 0.538443 11.1283 0.53833C9.8551 0.538218 8.63402 1.04388 7.73366 1.94408L0.944062 8.73368C0.834767 8.84684 0.77429 8.9984 0.775657 9.15572C0.777024 9.31304 0.840126 9.46352 0.951371 9.57477C1.06262 9.68602 1.2131 9.74912 1.37042 9.75048C1.52774 9.75185 1.6793 9.69137 1.79246 9.58208H1.79366Z" fill="#585C62"/>
</svg>
