<svg width="1149" height="451" viewBox="0 0 1149 451" fill="none" xmlns="http://www.w3.org/2000/svg">
<path d="M-9 403L456.5 403H1099.53C1102.71 403 1105.76 404.264 1108.01 406.515L1132.5 431" stroke="#00538B" stroke-width="0.5" stroke-dasharray="4 4"/>
<circle cx="1139" cy="441" r="9.5" stroke="#00538B"/>
<path d="M0 1H478.827C481.832 1 484.728 2.12772 486.942 4.16017L541.058 53.8398C543.272 55.8723 546.168 57 549.173 57H879.5" stroke="#00538B" stroke-width="0.5" stroke-dasharray="4 4"/>
<mask id="path-4-inside-1_2015_64830" fill="white">
<path fill-rule="evenodd" clip-rule="evenodd" d="M890 67C895.523 67 900 62.5228 900 57C900 51.4772 895.523 47 890 47C884.477 47 880 51.4772 880 57C880 62.5228 884.477 67 890 67ZM890 66.5456C895.272 66.5456 899.545 62.272 899.545 57.0002C899.545 51.7284 895.272 47.4547 890 47.4547C884.728 47.4547 880.454 51.7284 880.454 57.0002C880.454 62.272 884.728 66.5456 890 66.5456Z"/>
</mask>
<path fill-rule="evenodd" clip-rule="evenodd" d="M890 67C895.523 67 900 62.5228 900 57C900 51.4772 895.523 47 890 47C884.477 47 880 51.4772 880 57C880 62.5228 884.477 67 890 67ZM890 66.5456C895.272 66.5456 899.545 62.272 899.545 57.0002C899.545 51.7284 895.272 47.4547 890 47.4547C884.728 47.4547 880.454 51.7284 880.454 57.0002C880.454 62.272 884.728 66.5456 890 66.5456Z" fill="#00538B"/>
<path d="M899 57C899 61.9706 894.971 66 890 66V68C896.075 68 901 63.0751 901 57H899ZM890 48C894.971 48 899 52.0294 899 57H901C901 50.9249 896.075 46 890 46V48ZM881 57C881 52.0294 885.029 48 890 48V46C883.925 46 879 50.9249 879 57H881ZM890 66C885.029 66 881 61.9706 881 57H879C879 63.0751 883.925 68 890 68V66ZM898.545 57.0002C898.545 61.7197 894.719 65.5456 890 65.5456V67.5456C895.824 67.5456 900.545 62.8243 900.545 57.0002H898.545ZM890 48.4547C894.719 48.4547 898.545 52.2806 898.545 57.0002H900.545C900.545 51.1761 895.824 46.4547 890 46.4547V48.4547ZM881.454 57.0002C881.454 52.2806 885.28 48.4547 890 48.4547V46.4547C884.176 46.4547 879.454 51.1761 879.454 57.0002H881.454ZM890 65.5456C885.28 65.5456 881.454 61.7197 881.454 57.0002H879.454C879.454 62.8243 884.176 67.5456 890 67.5456V65.5456Z" fill="#00538B" mask="url(#path-4-inside-1_2015_64830)"/>
</svg>
