<svg width="12" height="7" viewBox="0 0 12 7" fill="none" xmlns="http://www.w3.org/2000/svg">
<path d="M10.998 0.204443L6.00002 5.28499L1.00202 0.204443C0.912717 0.113487 0.792842 0.0625662 0.668015 0.0625662C0.543188 0.0625662 0.423313 0.113487 0.334015 0.204443C0.290777 0.248621 0.256427 0.301351 0.232977 0.359546C0.209527 0.417741 0.197449 0.48023 0.197449 0.543354C0.197449 0.606479 0.209527 0.668968 0.232977 0.727163C0.256427 0.785358 0.290777 0.838088 0.334015 0.882266L5.65102 6.28817C5.74439 6.38308 5.86962 6.4362 6.00002 6.4362C6.13041 6.4362 6.25564 6.38308 6.34902 6.28817L11.666 0.883309C11.7096 0.839098 11.7442 0.786238 11.7678 0.72785C11.7914 0.669463 11.8036 0.60673 11.8036 0.543354C11.8036 0.479979 11.7914 0.417246 11.7678 0.358858C11.7442 0.30047 11.7096 0.247611 11.666 0.2034C11.5767 0.112444 11.4568 0.0615234 11.332 0.0615234C11.2072 0.0615234 11.0873 0.112444 10.998 0.2034V0.204443Z" fill="#89898F"/>
</svg>
