<svg width="1380" height="297" viewBox="0 0 1380 297" fill="none" xmlns="http://www.w3.org/2000/svg">
<path d="M1383.5 1H12.5C5.87255 1 0.5 6.37258 0.5 13V251C0.5 257.627 5.87258 263 12.5 263H136.5" stroke="#00538b" stroke-dasharray="4 4"/>
<circle cx="168" cy="263" r="8" fill="#00538b"/>
<path d="M168 231C163.798 231 159.637 231.828 155.754 233.436C151.872 235.044 148.344 237.401 145.373 240.373C142.401 243.344 140.044 246.872 138.436 250.754C136.828 254.637 136 258.798 136 263C136 267.202 136.828 271.363 138.436 275.246C140.044 279.128 142.401 282.656 145.373 285.627C148.344 288.599 151.872 290.956 155.754 292.564C159.637 294.172 163.798 295 168 295" stroke="#00538b" stroke-width="4"/>
<circle cx="168" cy="263" r="23.5" stroke="#00538b"/>
</svg>
